<?xml version="1.0" encoding="utf-8"?>
<!-- Generator: Adobe Illustrator 25.4.1, SVG Export Plug-In . SVG Version: 6.00 Build 0)  -->
<svg version="1.0" id="레이어_1" xmlns="http://www.w3.org/2000/svg" xmlns:xlink="http://www.w3.org/1999/xlink" x="0px"
	 y="0px" width="203px" height="203px" viewBox="0 0 203 203" style="enable-background:new 0 0 203 203;" xml:space="preserve">
<style type="text/css">
	.st0{fill:#FFFFFF;}
	.st1{stroke:#999999;stroke-width:3;stroke-linecap:round;stroke-linejoin:round;stroke-dasharray:10.1097,15.1645;}
</style>
<g>
	<path class="st0" d="M192.6,201.3H10.4c-4.8,0-8.7-3.9-8.7-8.7V10.4c0-4.8,3.9-8.7,8.7-8.7h182.2c4.8,0,8.7,3.9,8.7,8.7v182.2
		C201.3,197.4,197.4,201.3,192.6,201.3z"/>	
	<path class="st1" d="M192.6,201.3H10.4c-4.8,0-8.7-3.9-8.7-8.7V10.4c0-4.8,3.9-8.7,8.7-8.7h182.2c4.8,0,8.7,3.9,8.7,8.7v182.2
		C201.3,197.4,197.4,201.3,192.6,201.3z"/>	
</g>
</svg>
