<svg xmlns="http://www.w3.org/2000/svg" width="56" height="62" viewBox="0 0 56 62">
  <g id="clock" transform="translate(-720 -26)">
    <path id="패스_4654" data-name="패스 4654" d="M45.771,6.891l2.764,2.167a.75.75,0,0,1,.127,1.053l-.76.97a1.184,1.184,0,0,1-.52.379l-.8.3-2.158,2.752a.885.885,0,0,1-1.242.151l-1.568-1.23a.885.885,0,0,1-.151-1.242l2.158-2.752.1-.851a1.174,1.174,0,0,1,.243-.594l.761-.971a.75.75,0,0,1,1.053-.127" transform="translate(720 26)" fill="#f6b90e"/>
    <path id="패스_4655" data-name="패스 4655" d="M31.917,0h-8.7a1.4,1.4,0,0,0-1.4,1.4v1.69a1.4,1.4,0,0,0,1.4,1.4h1.723V7.64h5.259V4.484h1.723a1.4,1.4,0,0,0,1.4-1.4V1.4a1.4,1.4,0,0,0-1.4-1.4" transform="translate(720 26)" fill="#f6b90e"/>
    <path id="패스_4656" data-name="패스 4656" d="M55.123,33.65A27.55,27.55,0,1,1,27.557,6.085,27.565,27.565,0,0,1,55.123,33.65" transform="translate(720 26)" fill="#22bfbf"/>
    <path id="패스_4658" data-name="패스 4658" d="M51.568,33.66A24.111,24.111,0,0,1,19.845,56.521a24.87,24.87,0,0,1-4.89-2.26,24.435,24.435,0,0,1-2.671-1.9,24.092,24.092,0,0,1,15.19-42.8,24.145,24.145,0,0,1,18.7,8.917,22.253,22.253,0,0,1,1.89,2.671A23.935,23.935,0,0,1,51.568,33.66" transform="translate(720 26)" fill="#f1f1f1"/>
    <path id="패스_4659" data-name="패스 4659" d="M46.171,18.47,12.284,52.357A24.058,24.058,0,0,1,4.6,41.276L35.09,10.8a23.928,23.928,0,0,1,11.081,7.67" transform="translate(720 26)" fill="#fff"/>
    <path id="패스_4660" data-name="패스 4660" d="M50.335,26.031l-30.49,30.49a24.756,24.756,0,0,1-4.89-2.26l33.106-33.12a24.032,24.032,0,0,1,2.274,4.89" transform="translate(720 26)" fill="#fff"/>
    <path id="패스_4661" data-name="패스 4661" d="M27.467,58.439A24.786,24.786,0,1,1,52.253,33.654,24.814,24.814,0,0,1,27.467,58.439m0-48.2A23.416,23.416,0,1,0,50.883,33.654,23.443,23.443,0,0,0,27.467,10.237" transform="translate(720 26)" fill="#1a1a1a"/>
    <path id="패스_4663" data-name="패스 4663" d="M51.546,33.66A24.111,24.111,0,0,1,19.823,56.521a24.87,24.87,0,0,1-4.89-2.26,24.435,24.435,0,0,1-2.671-1.9,24.092,24.092,0,0,1,15.19-42.8,24.141,24.141,0,0,1,18.7,8.917,22.261,22.261,0,0,1,1.891,2.671A23.935,23.935,0,0,1,51.546,33.66" transform="translate(720 26)" fill="#f4eee4"/>
    <path id="패스_4664" data-name="패스 4664" d="M27.445,58.439A24.786,24.786,0,1,1,52.231,33.654,24.814,24.814,0,0,1,27.445,58.439m0-48.2A23.416,23.416,0,1,0,50.861,33.654,23.443,23.443,0,0,0,27.445,10.237" transform="translate(720 26)" fill="#424242"/>
    <path id="패스_4665" data-name="패스 4665" d="M46.171,18.47,12.284,52.357A24.058,24.058,0,0,1,4.6,41.276L35.09,10.8a23.928,23.928,0,0,1,11.081,7.67" transform="translate(720 26)" fill="#fff" opacity="0.3"/>
    <path id="패스_4666" data-name="패스 4666" d="M50.335,26.031l-30.49,30.49a24.756,24.756,0,0,1-4.89-2.26l33.106-33.12a24.032,24.032,0,0,1,2.274,4.89" transform="translate(720 26)" fill="#fff" opacity="0.3"/>
    <rect id="사각형_1228" data-name="사각형 1228" width="45.735" height="45.722" transform="translate(724.6 36.799)" fill="none"/>
    <rect id="사각형_1241" data-name="사각형 1241" width="56" height="62" transform="translate(720 26)" fill="none"/>
  </g>
</svg>
