<svg xmlns="http://www.w3.org/2000/svg" width="52.525" height="59.371" viewBox="0 0 52.525 59.371">
    <defs>
        <style>
            .cls-2{fill:#fff}.cls-3{fill:#d4efff}
        </style>
    </defs>
    <g id="그룹_196" transform="translate(-1055.475 -437.475)">
        <g id="그룹_182" transform="translate(695.226 340.329)">
            <g id="그룹_174">
                <path id="패스_201" fill="#3fa9f5" stroke="#fff" stroke-miterlimit="10" stroke-width="1.05px" d="M386.186 97.671a25.414 25.414 0 0 0-8.846 49.238l.7 8.324 5.936-6.839c.729.062 1.466.1 2.211.1a25.412 25.412 0 0 0 0-50.824z"/>
                <g id="그룹_173">
                    <g id="그룹_172">
                        <path id="패스_202" d="M366.663 125.174c0-.241.09-.294.33-.305l4.351-.1c.239-.011.329.062.329.3v1.019c0 .241-.09.294-.329.305l-2.934.062.05 4.641 2.674-.064c.24-.01.33.064.33.3v.955c0 .241-.09.294-.33.3l-3.991.1c-.29.011-.37-.1-.379-.472zm5.639.272c0-.367.1-.472.379-.472h.938c.289 0 .379.105.379.472v2.4l.669-.022c.239-.01.329.064.329.305v.987c0 .241-.09.294-.329.3l-.669.021v2.467c0 .367-.09.473-.379.473h-.938c-.28 0-.379-.106-.379-.473z" class="cls-2"/>
                        <path id="패스_203" d="M378.455 130.349l-1.447 2.205c-.11.168-.2.23-.39.094l-.828-.609c-.189-.136-.239-.241-.109-.451l1.766-2.708a1.2 1.2 0 0 0 .159-.652v-2.992c0-.367.1-.471.379-.471h.939c.279 0 .379.1.379.471v2.992a1.189 1.189 0 0 0 .16.652l1.765 2.5c.151.21.081.314-.109.451l-.828.61c-.189.136-.279.073-.39-.1zm3.423-4.9c0-.367.1-.472.379-.472h.938c.289 0 .379.105.379.472v6.467c0 .367-.09.473-.379.473h-.938c-.28 0-.379-.106-.379-.473z" class="cls-2"/>
                        <path id="패스_204" d="M390.825 125.888c0 .367-.09.462-.38.472l-4.65.1c-.279.011-.379-.1-.379-.473v-.546c0-.367.1-.462.379-.472l1.487-.032v-.377c0-.368.1-.472.379-.472h.939c.279 0 .378.1.378.472v.335l1.467-.031c.29-.011.38.1.38.473zm-5.12 2.876c0-1.165.889-1.994 2.476-1.994s2.474.829 2.474 1.994-.888 1.995-2.474 1.995-2.481-.83-2.481-1.995zm1.667 5.659c-.289.01-.379-.106-.379-.473v-2.205c0-.367.1-.473.379-.473h.938c.29 0 .379.106.379.473v1.061l3.942-.084c.239-.011.309.084.309.367v.861c0 .283-.059.357-.329.367zm1.666-5.659c0-.451-.379-.683-.857-.683s-.859.232-.859.683.369.682.859.682.857-.23.857-.682zm2.216-3.528c0-.367.1-.471.379-.471h.938c.289 0 .379.1.379.471v1.943l.669-.022c.239-.01.329.064.329.305v.987c0 .241-.09.294-.329.3l-.669.021v1.879c0 .368-.09.473-.379.473h-.938c-.28 0-.379-.105-.379-.473z" class="cls-2"/>
                        <path id="패스_205" d="M400.421 124.659c.309 0 .389.106.379.473l-.05 1.49 1.078-.02v-1.366c0-.367.1-.471.379-.471h.938c.29 0 .379.1.379.471v5.207c0 .368-.089.473-.379.473h-.938c-.279 0-.379-.1-.379-.473V128.2l-1.128.021-.04 1.522c-.01.367-.09.462-.379.473l-4.042.1c-.279.011-.369-.1-.379-.472l-.07-4.777c0-.241.09-.3.33-.3h.928c.239 0 .329.062.329.3l.01.956 1.787-.063.019-1c0-.242.09-.305.329-.305zm-2.675 9.764c-.289.01-.379-.106-.379-.473v-2.625c0-.367.1-.472.379-.472h.939c.289 0 .378.1.378.472v1.481l3.943-.084c.239-.011.308.084.308.367v.861c0 .283-.059.357-.329.367zm1.4-5.754l.009-1.165-1.756.063.01 1.155z" class="cls-2"/>
                        <path id="패스_206" d="M404.848 125.457c0-.367.1-.473.379-.473h.908c.289 0 .379.106.379.473v4.63c0 .367-.09.473-.379.473h-.908c-.28 0-.379-.106-.379-.473zm.817 5.711a.814.814 0 1 1-.817.819.783.783 0 0 1 .817-.819z" class="cls-2"/>
                    </g>
                </g>
            </g>
            <g id="그룹_181">
                <g id="그룹_177">
                    <g id="그룹_176">
                        <g id="그룹_175">
                            <path id="패스_207" d="M387.666 110.037l-.068-.019-4.455-1.408a.614.614 0 0 1-.426-.494.624.624 0 0 1 .254-.6l3.8-2.706a.619.619 0 0 1 .716 1.009l-2.8 1.986 3.273 1.035a.619.619 0 0 1-.3 1.2z" class="cls-3"/>
                        </g>
                    </g>
                </g>
                <g id="그룹_180">
                    <g id="그룹_179">
                        <g id="그룹_178">
                            <path id="패스_208" d="M373.038 105.429a.646.646 0 0 1 .064.034l4.085 2.265a.614.614 0 0 1 .32.569.629.629 0 0 1-.369.538l-4.267 1.893a.619.619 0 0 1-.5-1.131l3.134-1.388-3-1.666a.619.619 0 0 1 .535-1.114z" class="cls-3"/>
                        </g>
                    </g>
                </g>
                <path id="패스_209" fill="#d4efff" fill-rule="evenodd" d="M382.71 113.352a2.005 2.005 0 1 1-2.01-2.052 2.027 2.027 0 0 1 2.01 2.052z"/>
            </g>
        </g>
        <path id="사각형_99" fill="none" d="M0 0H52V58H0z" transform="translate(1056 438)"/>
    </g>
</svg>
