<svg xmlns="http://www.w3.org/2000/svg" width="52.525" height="58.612" viewBox="0 0 52.525 58.612">
    <defs>
        <style>
            .cls-2{fill:#ffcae0}.cls-3{fill:#fff}
        </style>
    </defs>
    <g id="그룹_195" transform="translate(-1054.475 -518.475)">
        <g id="그룹_188" transform="translate(694.856 337.781)">
            <path id="패스_210" fill="#ff7bac" stroke="#fff" stroke-linecap="round" stroke-linejoin="round" stroke-width="1.05px" d="M385.557 181.219a25.414 25.414 0 0 0-8.847 49.238l.7 8.324 5.936-6.841c.729.064 1.466.1 2.212.1a25.412 25.412 0 0 0 0-50.823z"/>
            <path id="패스_211" d="M374.6 192.582a2.145 2.145 0 1 1-2.146-2.142 2.146 2.146 0 0 1 2.146 2.142z" class="cls-2"/>
            <path id="패스_212" d="M375.123 196.908a3.608 3.608 0 0 0 7.215 0z" class="cls-2"/>
            <g id="그룹_185">
                <g id="그룹_184">
                    <g id="그룹_183">
                        <path id="패스_213" d="M387.268 193.553a.5.5 0 0 1-.057 0l-3.712-.414a.494.494 0 0 1-.3-.831l2.565-2.711a.494.494 0 1 1 .718.68l-1.884 1.989 2.726.306a.495.495 0 0 1-.052.986z" class="cls-2"/>
                    </g>
                </g>
            </g>
            <g id="그룹_187">
                <g id="그룹_186">
                    <path id="패스_214" d="M371.792 209.382c0 .367-.04.409-.329.42l-1.367.031v.325c0 .252-.031.515.16.652l1.606 1.228c.17.126.159.241.05.4l-.648.873c-.12.168-.25.1-.41-.011l-1.607-1.218-1.547 1.318c-.15.137-.26.168-.409.011l-.709-.8a.256.256 0 0 1 .05-.4l1.606-1.407a.834.834 0 0 0 .16-.652v-.283l-1.386.031c-.281.011-.33-.052-.33-.42v-.756c0-.367.049-.409.33-.42l4.45-.1c.289-.011.329.053.329.42zm-1.826 7.086v.294l3.453-.1c.239-.01.309.073.309.315v.588c0 .241-.07.3-.309.3l-4.731.1c-.309.01-.369-.073-.378-.4l-.06-1.658c-.011-.326.069-.379.379-.41l3.6-.2v-.325l-3.921.1c-.2 0-.26-.031-.26-.168v-.84c0-.157.06-.188.26-.188l5.279-.106c.308-.01.409.073.379.4l-.09 1.711c-.03.3-.07.357-.379.388zm2.4-7.685c0-.367.1-.473.379-.473h.938c.289 0 .379.106.379.473v1.207l.669-.02c.24-.011.329.063.329.3v.987c0 .241-.089.294-.329.3l-.669.021v1.25c0 .367-.09.473-.379.473h-.938c-.279 0-.379-.106-.379-.473z" class="cls-3"/>
                    <path id="패스_215" d="M380.519 209.435c0 .367-.089.462-.378.471l-4.052.106c-.279.01-.379-.106-.379-.473v-.546c0-.367.1-.462.379-.471l1.187-.033v-.378c0-.367.1-.472.38-.472h.938c.279 0 .38.1.38.472v.336l1.167-.031c.289-.011.378.106.378.473zm-4.669 2.771c0-1.134.788-1.89 2.275-1.89s2.275.756 2.275 1.89-.788 1.89-2.275 1.89-2.275-.756-2.275-1.89zm5.757 2.761c0-.367.1-.473.38-.473h.958c.289 0 .379.106.379.473v.43c0 .41.11.5.339.64l.8.463c.17.094.2.241.1.43l-.459.861c-.109.2-.219.262-.458.1l-1.178-.724a8.207 8.207 0 0 1-1.547.807 4.9 4.9 0 0 1-1.547-.7l-1.178.725c-.239.157-.348.095-.459-.105l-.459-.861a.283.283 0 0 1 .1-.431l.8-.461c.229-.137.339-.231.339-.641v-.43c0-.368.1-.472.38-.472h.958c.289 0 .378.1.378.472v.22c0 .294.01.515.24.641l.449.241.449-.241c.23-.126.239-.347.239-.641zm-2.723-2.761c0-.389-.31-.63-.759-.63-.469 0-.759.241-.759.63s.29.63.759.63c.449 0 .759-.242.759-.63zm2.1-3.317c0-.367.1-.473.379-.473h.938c.29 0 .38.106.38.473v1.427l.578-.01v-1.523c0-.367.1-.473.38-.473h.937c.29 0 .38.106.38.473v4.577c0 .368-.09.473-.38.473h-.937c-.28 0-.38-.1-.38-.473v-1.46l-.578.011v1.554c0 .367-.09.472-.38.472h-.938c-.279 0-.379-.105-.379-.472z" class="cls-3"/>
                    <path id="패스_216" d="M385.806 211.933a2.758 2.758 0 0 1 2.933-3 2.691 2.691 0 0 1 2.894 2.362l.888-.011v-2.289c0-.367.1-.471.379-.471h.939c.289 0 .379.1.379.471v6.467c0 .368-.09.473-.379.473h-.939c-.279 0-.379-.1-.379-.473v-2.582l-.958.011a2.67 2.67 0 0 1-2.824 2.036 2.751 2.751 0 0 1-2.933-2.994zm4.241 0a1.306 1.306 0 1 0-1.308 1.4 1.26 1.26 0 0 0 1.308-1.4z" class="cls-3"/>
                    <path id="패스_217" d="M398.733 208.206c1.887 0 3.394.944 3.394 2.95a2.677 2.677 0 0 1-1.148 2.352v1.28l.708-.011c.24 0 .33.064.33.305v.987c0 .241-.09.3-.33.3l-5.907.1c-.24 0-.329-.062-.329-.3v-.986c0-.243.089-.305.329-.305l.708-.011v-1.364a2.676 2.676 0 0 1-1.147-2.352c0-2.001 1.507-2.945 3.392-2.945zm1.6 3c0-.883-.529-1.46-1.6-1.46a1.465 1.465 0 1 0 0 2.919c1.067.003 1.598-.575 1.598-1.456zm-2.246 2.865v.767l1.3-.021v-.746a6.294 6.294 0 0 1-.65.031 6.136 6.136 0 0 1-.652-.028z" class="cls-3"/>
                    <path id="패스_218" d="M403.52 209c0-.367.1-.473.379-.473h.909c.289 0 .378.106.378.473v4.63c0 .367-.089.471-.378.471h-.908c-.279 0-.379-.1-.379-.471zm.818 5.711a.814.814 0 1 1-.818.818.783.783 0 0 1 .818-.814z" class="cls-3"/>
                </g>
            </g>
        </g>
        <path id="사각형_100" fill="none" d="M0 0H52V58H0z" transform="translate(1055 519)"/>
    </g>
</svg>
