<?xml version="1.0" encoding="utf-8"?>
<!-- Generator: Adobe Illustrator 16.0.0, SVG Export Plug-In . SVG Version: 6.00 Build 0)  -->
<!DOCTYPE svg PUBLIC "-//W3C//DTD SVG 1.1//EN" "http://www.w3.org/Graphics/SVG/1.1/DTD/svg11.dtd">
<svg version="1.1" id="레이어_1" xmlns="http://www.w3.org/2000/svg" xmlns:xlink="http://www.w3.org/1999/xlink" x="0px"
	 y="0px" width="43" height="43" viewBox="0 0 43 43" style="enable-background:new 0 0 43 43;" xml:space="preserve">
<style type="text/css">
	.st0{fill:none;stroke:#FFFFFF;stroke-width:5;stroke-linecap:round;stroke-miterlimit:10;}
	.st1{fill:#F74E6D;}
</style>
<path class="st1" d="M0.6,8.8v16.7c0,3.7,2.8,6.8,6.4,7.3v7.3c0,0.6,0.3,1.1,0.9,1.3c0.2,0,0.4,0.1,0.6,0.1c0.4,0,0.7-0.1,1-0.4
	l8.2-8.2H35c4,0,7.3-3.3,7.3-7.3V8.8c0-4-3.3-7.3-7.3-7.3H7.9C3.9,1.4,0.6,4.7,0.6,8.8z"/>
<g>
	<line class="st0" x1="14.4" y1="9.6" x2="29.5" y2="24.7"/>
	<line class="st0" x1="29.5" y1="9.6" x2="14.4" y2="24.7"/>
</g>
</svg>
