<?xml version="1.0" encoding="utf-8"?>
<!-- Generator: Adobe Illustrator 26.0.0, SVG Export Plug-In . SVG Version: 6.00 Build 0)  -->
<svg version="1.0" id="button_x5F_ok_x5F_pressed" xmlns="http://www.w3.org/2000/svg" xmlns:xlink="http://www.w3.org/1999/xlink"
	 x="0px" y="0px" width="42.6px" height="42.6px" viewBox="0 0 42.6 42.6" style="enable-background:new 0 0 42.6 42.6;"
	 xml:space="preserve">
<style type="text/css">
	.st0{fill:url(#button_ok_pressed_SVGID_1_);}
	.st1{fill:url(#button_ok_pressed_SVGID_00000060008004226290317760000014775422110005219766_);}
	.st2{fill:url(#button_ok_pressed_SVGID_00000102510344910490956670000017015012854616145795_);}
	.st3{opacity:0.3;fill:url(#button_ok_pressed_SVGID_00000090290271413114633380000000343958387393090490_);}
	.st4{fill:#1C7C6A;}
</style>
<linearGradient id="button_ok_pressed_SVGID_1_" gradientUnits="userSpaceOnUse" x1="0" y1="21.2947" x2="42.587" y2="21.2947">
	<stop  offset="0" style="stop-color:#006A62"/>
	<stop  offset="0.1137" style="stop-color:#007969"/>
	<stop  offset="0.5187" style="stop-color:#00AA81"/>
	<stop  offset="0.8269" style="stop-color:#00C990"/>
	<stop  offset="1" style="stop-color:#00D496"/>
</linearGradient>
<path class="st0" d="M42.6,21.3c0,11.8-9.5,21.3-21.3,21.3C9.5,42.6,0,33.1,0,21.3C0,9.5,9.5,0,21.3,0C33.1,0,42.6,9.5,42.6,21.3z"
	/>
<radialGradient id="button_ok_pressed_SVGID_00000113343820466206208530000013217974447947175355_" cx="21.2935" cy="21.2935" r="19.1035" gradientUnits="userSpaceOnUse">
	<stop  offset="0.8194" style="stop-color:#797D80"/>
	<stop  offset="1" style="stop-color:#FFFFFF"/>
</radialGradient>
<circle style="fill:url(#button_ok_pressed_SVGID_00000113343820466206208530000013217974447947175355_);" cx="21.3" cy="21.3" r="19.1"/>
<linearGradient id="button_ok_pressed_SVGID_00000139263824218748846550000012477030364209631362_" gradientUnits="userSpaceOnUse" x1="21.2939" y1="62.1139" x2="21.2939" y2="-73.7391">
	<stop  offset="1.785710e-02" style="stop-color:#AAABAB"/>
	<stop  offset="0.2004" style="stop-color:#A0A5A8"/>
	<stop  offset="0.8472" style="stop-color:#D0D0D0"/>
	<stop  offset="1" style="stop-color:#A8A8A8"/>
</linearGradient>
<path style="fill:url(#button_ok_pressed_SVGID_00000139263824218748846550000012477030364209631362_);" d="M38.5,21.3c0,9.5-7.7,17.2-17.2,17.2
	S4.1,30.8,4.1,21.3S11.8,4.1,21.3,4.1S38.5,11.8,38.5,21.3z"/>
<linearGradient id="button_ok_pressed_SVGID_00000101786098050937433680000000577003896084994693_" gradientUnits="userSpaceOnUse" x1="21.2939" y1="62.1679" x2="21.2939" y2="-7.6434">
	<stop  offset="1.785710e-02" style="stop-color:#AAABAB"/>
	<stop  offset="0.2004" style="stop-color:#A0A5A8"/>
	<stop  offset="0.8472" style="stop-color:#D0D0D0"/>
	<stop  offset="1" style="stop-color:#A8A8A8"/>
</linearGradient>
<path style="opacity:0.3;fill:url(#button_ok_pressed_SVGID_00000101786098050937433680000000577003896084994693_);" d="M21.3,5
	c9.3,0,16.9,7.5,17.2,16.7c0-0.2,0-0.3,0-0.5c0-9.5-7.7-17.2-17.2-17.2S4.1,11.8,4.1,21.3c0,0.2,0,0.3,0,0.5C4.4,12.5,11.9,5,21.3,5
	z"/>
<g>
	<path class="st4" d="M19.7,18v7.3c0,3.1-1.5,4.5-4.2,4.5c-2.6,0-4-1.4-4-4.4v-7.4c0-3,1.7-4.4,4.1-4.4C18,13.6,19.7,14.9,19.7,18z
		 M14.5,17.7v8c0,1,0.3,1.5,1,1.5c0.7,0,1-0.5,1-1.5v-8.1c0-1-0.3-1.5-1-1.5C14.9,16.2,14.5,16.6,14.5,17.7z"/>
	<path class="st4" d="M21.3,13.8h2.9v6.9h0c0.5-1.5,1.5-4.7,2.2-6.9h3.3l-2.6,6.1l2.7,9.6h-3.3l-1.6-6.6l-0.9,2v4.6h-2.9V13.8z"/>
</g>
</svg>
