<?xml version="1.0" encoding="utf-8"?>
<!-- Generator: Adobe Illustrator 26.0.0, SVG Export Plug-In . SVG Version: 6.00 Build 0)  -->
<svg version="1.0" id="button_x5F_delete" xmlns="http://www.w3.org/2000/svg" xmlns:xlink="http://www.w3.org/1999/xlink" x="0px"
	 y="0px" width="42.6px" height="42.6px" viewBox="0 0 42.6 42.6" style="enable-background:new 0 0 42.6 42.6;"
	 xml:space="preserve">
<style type="text/css">
	.st0{fill:url(#button_delete_SVGID_1_);}
	.st1{fill:url(#button_delete_SVGID_00000022536874357871661500000012664934399474719410_);}
	.st2{fill:url(#button_delete_SVGID_00000121965589770882389910000016351699494814949512_);}
	.st3{opacity:0.3;fill:url(#button_delete_SVGID_00000062874472987105330870000003396593399946164888_);}
	.st4{fill:#828688;}
</style>
<linearGradient id="button_delete_SVGID_1_" gradientUnits="userSpaceOnUse" x1="21.2939" y1="-7.2528" x2="21.2939" y2="50.4588">
	<stop  offset="0.2004" style="stop-color:#667178"/>
	<stop  offset="0.8472" style="stop-color:#D0D0D0"/>
	<stop  offset="1" style="stop-color:#A8A8A8"/>
</linearGradient>
<path class="st0" d="M42.6,21.3c0,11.8-9.5,21.3-21.3,21.3C9.5,42.6,0,33.1,0,21.3C0,9.5,9.5,0,21.3,0C33.1,0,42.6,9.5,42.6,21.3z"
	/>
<radialGradient id="button_delete_SVGID_00000091734557686295220730000011056629726879210392_" cx="21.2939" cy="21.2935" r="19.1034" gradientUnits="userSpaceOnUse">
	<stop  offset="0.8194" style="stop-color:#797D80"/>
	<stop  offset="1" style="stop-color:#FFFFFF"/>
</radialGradient>
<path style="fill:url(#button_delete_SVGID_00000091734557686295220730000011056629726879210392_);" d="M40.4,21.3c0,10.6-8.6,19.1-19.1,19.1
	c-10.6,0-19.1-8.6-19.1-19.1S10.7,2.2,21.3,2.2C31.8,2.2,40.4,10.7,40.4,21.3z"/>
<linearGradient id="button_delete_SVGID_00000070097778865174658520000004441349623736359343_" gradientUnits="userSpaceOnUse" x1="21.2939" y1="62.1139" x2="21.2939" y2="-73.7391">
	<stop  offset="1.785710e-02" style="stop-color:#AAABAB"/>
	<stop  offset="0.2004" style="stop-color:#A0A5A8"/>
	<stop  offset="0.8472" style="stop-color:#D0D0D0"/>
	<stop  offset="1" style="stop-color:#A8A8A8"/>
</linearGradient>
<path style="fill:url(#button_delete_SVGID_00000070097778865174658520000004441349623736359343_);" d="M38.5,21.3c0,9.5-7.7,17.2-17.2,17.2
	c-9.5,0-17.2-7.7-17.2-17.2S11.8,4.1,21.3,4.1C30.8,4.1,38.5,11.8,38.5,21.3z"/>
<linearGradient id="button_delete_SVGID_00000133496735764612787480000018122286009984348839_" gradientUnits="userSpaceOnUse" x1="21.2939" y1="62.1679" x2="21.2939" y2="-7.6434">
	<stop  offset="1.785710e-02" style="stop-color:#AAABAB"/>
	<stop  offset="0.2004" style="stop-color:#A0A5A8"/>
	<stop  offset="0.8472" style="stop-color:#D0D0D0"/>
	<stop  offset="1" style="stop-color:#A8A8A8"/>
</linearGradient>
<path style="opacity:0.3;fill:url(#button_delete_SVGID_00000133496735764612787480000018122286009984348839_);" d="M21.3,5
	c9.3,0,16.9,7.5,17.2,16.7c0-0.2,0-0.3,0-0.5c0-9.5-7.7-17.2-17.2-17.2c-9.5,0-17.2,7.7-17.2,17.2c0,0.2,0,0.3,0,0.5
	C4.4,12.5,11.9,5,21.3,5z"/>
<g>
	<path class="st4" d="M12.6,22.5c0-1.9,0-3.8,0-5.8c0-0.6,0.3-1,0.9-1.1c0.6-0.1,1.2,0.3,1.2,0.9c0,0.1,0,0.2,0,0.3
		c0,3.7,0,7.5,0,11.2c0,1.2,0.9,2.1,2.1,2.1c2.8,0,5.6,0,8.4,0c1.2,0,2.1-0.9,2.1-2.1c0-3.8,0-7.6,0-11.4c0-0.5,0.3-1,0.8-1.1
		c0.6-0.2,1.2,0.2,1.3,0.8c0,0.1,0,0.2,0,0.4c0,3.8,0,7.5,0,11.3c0,2.1-1.4,3.7-3.4,4.1c-0.2,0-0.5,0.1-0.8,0.1c-2.8,0-5.6,0-8.4,0
		c-2.3,0-4.1-1.8-4.1-4.1C12.6,26.2,12.6,24.4,12.6,22.5z"/>
	<path class="st4" d="M16.8,12.5c0-0.7,0-1.3,0-1.9c0-0.1,0-0.3,0-0.4c0.1-0.5,0.5-0.8,1-0.8c2.1,0,4.1,0,6.2,0
		c0.6,0,1.1,0.4,1.1,1.1c0,0.6,0,1.2,0,1.7c0,0.1,0,0.2,0,0.3c0.1,0,0.2,0,0.3,0c1.3,0,2.5,0,3.8,0c0.3,0,0.6,0.1,0.9,0.3
		c0.3,0.3,0.4,0.7,0.2,1.1c-0.2,0.4-0.5,0.6-0.9,0.6c-0.1,0-0.1,0-0.2,0c-5.5,0-11,0-16.4,0c-0.6,0-1.1-0.4-1.1-1
		c-0.1-0.6,0.4-1.1,1.1-1.1c1.3,0,2.5,0,3.8,0C16.5,12.5,16.6,12.5,16.8,12.5z M18.9,12.4c1.4,0,2.8,0,4.1,0c0-0.3,0-0.7,0-1
		c-1.4,0-2.8,0-4.1,0C18.9,11.8,18.9,12.1,18.9,12.4z"/>
	<path class="st4" d="M17.8,22.4c0-1.2,0-2.4,0-3.7c0-0.5,0.4-0.9,0.9-1c0.5-0.1,0.9,0.2,1.1,0.6c0.1,0.2,0.1,0.3,0.1,0.5
		c0,2.4,0,4.8,0,7.2c0,0.6-0.5,1.1-1.1,1.1c-0.6,0-1-0.5-1-1.1C17.8,24.7,17.8,23.5,17.8,22.4z"/>
	<path class="st4" d="M24.1,22.4c0,1.2,0,2.4,0,3.6c0,0.5-0.3,0.9-0.8,1c-0.4,0.1-0.9,0-1.2-0.5c-0.1-0.2-0.2-0.4-0.2-0.6
		c0-2.4,0-4.8,0-7.2c0-0.6,0.5-1.1,1.1-1.1c0.6,0,1,0.5,1,1.1C24.1,20,24.1,21.2,24.1,22.4z"/>
</g>
</svg>
