<?xml version="1.0" encoding="utf-8"?>
<!-- Generator: Adobe Illustrator 26.0.0, SVG Export Plug-In . SVG Version: 6.00 Build 0)  -->
<svg version="1.0" id="calculator_x5F_screen" xmlns="http://www.w3.org/2000/svg" xmlns:xlink="http://www.w3.org/1999/xlink"
	 x="0px" y="0px" width="160.9px" height="50.2px" viewBox="0 0 160.9 50.2" style="enable-background:new 0 0 160.9 50.2;"
	 xml:space="preserve">
<style type="text/css">
	.st0{fill:url(#calculator_screen_SVGID_1_);}
	.st1{fill:url(#calculator_screen_SVGID_00000003073532390480762430000007113446824073050772_);}
	.st2{opacity:0.64;fill:url(#calculator_screen_SVGID_00000072995022302171768400000003632933410716900007_);}
	.st3{fill:url(#calculator_screen_SVGID_00000130643234106455742410000011603442993910379932_);}
</style>
<linearGradient id="calculator_screen_SVGID_1_" gradientUnits="userSpaceOnUse" x1="80.4424" y1="49.991" x2="80.4424" y2="9.042990e-03">
	<stop  offset="0" style="stop-color:#E4E6E6"/>
	<stop  offset="0.1409" style="stop-color:#C0C2C4"/>
	<stop  offset="1" style="stop-color:#808587"/>
</linearGradient>
<path class="st0" d="M160.5,0H0.4C0.2,0,0,0.2,0,0.4v49.5c0,0.2,0.2,0.4,0.4,0.4h160.1c0.2,0,0.4-0.2,0.4-0.4V0.4
	C160.9,0.2,160.7,0,160.5,0z"/>
<linearGradient id="calculator_screen_SVGID_00000147215666350244573710000012803244664613337735_" gradientUnits="userSpaceOnUse" x1="80.4417" y1="49.4308" x2="80.4417" y2="0.5746">
	<stop  offset="1.785710e-02" style="stop-color:#393939"/>
	<stop  offset="6.150790e-02" style="stop-color:#353738"/>
	<stop  offset="0.1448" style="stop-color:#3E3F3F"/>
	<stop  offset="0.2282" style="stop-color:#3E3E3F"/>
	<stop  offset="0.8353" style="stop-color:#3F4040"/>
	<stop  offset="0.9306" style="stop-color:#444545"/>
	<stop  offset="1" style="stop-color:#383838"/>
</linearGradient>
<path style="fill:url(#calculator_screen_SVGID_00000147215666350244573710000012803244664613337735_);" d="M159.1,0.6H1.8c-0.2,0-0.4,0.2-0.4,0.4
	v48.3c0,0.2,0.2,0.4,0.4,0.4h157.3c0.2,0,0.4-0.2,0.4-0.4V0.9C159.5,0.7,159.3,0.6,159.1,0.6z"/>
<linearGradient id="calculator_screen_SVGID_00000001654707338330041330000011687999835597971597_" gradientUnits="userSpaceOnUse" x1="80.4417" y1="49.4308" x2="80.4417" y2="0.5746">
	<stop  offset="1.785710e-02" style="stop-color:#393939"/>
	<stop  offset="6.150790e-02" style="stop-color:#353738"/>
	<stop  offset="0.1448" style="stop-color:#3E3F3F"/>
	<stop  offset="0.2282" style="stop-color:#3E3E3F"/>
	<stop  offset="0.8353" style="stop-color:#3F4040"/>
	<stop  offset="0.9306" style="stop-color:#444545"/>
	<stop  offset="1" style="stop-color:#383838"/>
</linearGradient>
<path style="opacity:0.64;fill:url(#calculator_screen_SVGID_00000001654707338330041330000011687999835597971597_);" d="M159.1,0.6H1.8
	c-0.2,0-0.4,0.2-0.4,0.4v48.3c0,0.2,0.2,0.4,0.4,0.4h157.3c0.2,0,0.4-0.2,0.4-0.4V0.9C159.5,0.7,159.3,0.6,159.1,0.6z"/>
<linearGradient id="calculator_screen_SVGID_00000161607167997054385250000011252811429700726169_" gradientUnits="userSpaceOnUse" x1="80.4608" y1="45.7562" x2="80.4608" y2="0.1435">
	<stop  offset="0.8353" style="stop-color:#000000"/>
	<stop  offset="0.9385" style="stop-color:#4D5B61"/>
	<stop  offset="1" style="stop-color:#000000"/>
</linearGradient>
<path style="fill:url(#calculator_screen_SVGID_00000161607167997054385250000011252811429700726169_);" d="M156.4,0.1H4.5c-0.2,0-0.4,0.2-0.4,0.4
	v45.1c0,0.2,0.2,0.4,0.4,0.4h151.9c0.2,0,0.4-0.2,0.4-0.4V0.5C156.8,0.3,156.6,0.1,156.4,0.1z"/>
</svg>
