<?xml version="1.0" encoding="utf-8"?>
<!-- Generator: Adobe Illustrator 26.0.0, SVG Export Plug-In . SVG Version: 6.00 Build 0)  -->
<svg version="1.0" id="calculator_x5F_handwrite" xmlns="http://www.w3.org/2000/svg" xmlns:xlink="http://www.w3.org/1999/xlink"
	 x="0px" y="0px" width="199.8px" height="316px" viewBox="0 0 199.8 316" style="enable-background:new 0 0 199.8 316;"
	 xml:space="preserve">
<style type="text/css">
	.st0{fill:url(#calculator_handwrite_SVGID_1_);}
	.st1{fill:#D1D1D1;}
	.st2{fill:url(#calculator_handwrite_SVGID_00000114054198906043777540000014315753203089356452_);}
	.st3{fill:url(#calculator_handwrite_SVGID_00000106846451360941350410000017547581034890824097_);}
	.st4{opacity:0.64;fill:url(#calculator_handwrite_SVGID_00000100378453781641284990000013976203283096476573_);}
	.st5{fill:url(#calculator_handwrite_SVGID_00000150806337826935757070000002821435403828737195_);}
</style>
<linearGradient id="calculator_handwrite_SVGID_1_" gradientUnits="userSpaceOnUse" x1="0" y1="158" x2="199.7823" y2="158">
	<stop  offset="0" style="stop-color:#A6A6A6"/>
	<stop  offset="6.944400e-02" style="stop-color:#CDCECE"/>
	<stop  offset="0.1647" style="stop-color:#BCBEC0"/>
	<stop  offset="0.7718" style="stop-color:#B8BABC"/>
	<stop  offset="0.8552" style="stop-color:#B9BBBD"/>
	<stop  offset="0.9385" style="stop-color:#9EA3A6"/>
	<stop  offset="0.9821" style="stop-color:#A8A9A9"/>
</linearGradient>
<path class="st0" d="M183.9,316h-168C7.1,316,0,308.9,0,300.1V15.9C0,7.1,7.1,0,15.9,0h168c8.8,0,15.9,7.1,15.9,15.9v284.2
	C199.8,308.9,192.7,316,183.9,316z"/>
<path class="st1" d="M180.7,309H19.1C13,309,8,304,8,297.9V19.1C8,13,13,8,19.1,8h161.5c6.2,0,11.1,5,11.1,11.1v278.7
	C191.8,304,186.8,309,180.7,309z"/>
<!-- <g>
	
		<linearGradient id="calculator_handwrite_SVGID_00000084498528245826768990000014174302163194825639_" gradientUnits="userSpaceOnUse" x1="101.2901" y1="72.2772" x2="101.2901" y2="22.2952">
		<stop  offset="0" style="stop-color:#E4E6E6"/>
		<stop  offset="0.1409" style="stop-color:#C0C2C4"/>
		<stop  offset="1" style="stop-color:#808587"/>
	</linearGradient>
	<path style="fill:url(#calculator_handwrite_SVGID_00000084498528245826768990000014174302163194825639_);" d="M181.3,22.3H21.2c-0.2,0-0.4,0.2-0.4,0.4
		v49.5c0,0.2,0.2,0.4,0.4,0.4h160.1c0.2,0,0.4-0.2,0.4-0.4V22.7C181.7,22.5,181.6,22.3,181.3,22.3z"/>
	
		<linearGradient id="calculator_handwrite_SVGID_00000026855563921742953850000016428459017890794387_" gradientUnits="userSpaceOnUse" x1="101.2894" y1="71.717" x2="101.2894" y2="22.8608">
		<stop  offset="1.785710e-02" style="stop-color:#393939"/>
		<stop  offset="6.150790e-02" style="stop-color:#353738"/>
		<stop  offset="0.1448" style="stop-color:#3E3F3F"/>
		<stop  offset="0.2282" style="stop-color:#3E3E3F"/>
		<stop  offset="0.8353" style="stop-color:#3F4040"/>
		<stop  offset="0.9306" style="stop-color:#444545"/>
		<stop  offset="1" style="stop-color:#383838"/>
	</linearGradient>
	<path style="fill:url(#calculator_handwrite_SVGID_00000026855563921742953850000016428459017890794387_);" d="M180,22.9H22.6c-0.2,0-0.4,0.2-0.4,0.4
		v48.3c0,0.2,0.2,0.4,0.4,0.4H180c0.2,0,0.4-0.2,0.4-0.4V23.2C180.3,23,180.2,22.9,180,22.9z"/>
	
		<linearGradient id="calculator_handwrite_SVGID_00000116953479620060279220000004720536078272948126_" gradientUnits="userSpaceOnUse" x1="101.2894" y1="71.717" x2="101.2894" y2="22.8608">
		<stop  offset="1.785710e-02" style="stop-color:#393939"/>
		<stop  offset="6.150790e-02" style="stop-color:#353738"/>
		<stop  offset="0.1448" style="stop-color:#3E3F3F"/>
		<stop  offset="0.2282" style="stop-color:#3E3E3F"/>
		<stop  offset="0.8353" style="stop-color:#3F4040"/>
		<stop  offset="0.9306" style="stop-color:#444545"/>
		<stop  offset="1" style="stop-color:#383838"/>
	</linearGradient>
	<path style="opacity:0.64;fill:url(#calculator_handwrite_SVGID_00000116953479620060279220000004720536078272948126_);" d="M180,22.9H22.6
		c-0.2,0-0.4,0.2-0.4,0.4v48.3c0,0.2,0.2,0.4,0.4,0.4H180c0.2,0,0.4-0.2,0.4-0.4V23.2C180.3,23,180.2,22.9,180,22.9z"/>
	
		<linearGradient id="calculator_handwrite_SVGID_00000126321139085414598290000016029120876165546896_" gradientUnits="userSpaceOnUse" x1="101.3085" y1="68.0424" x2="101.3085" y2="22.4297">
		<stop  offset="0.8353" style="stop-color:#000000"/>
		<stop  offset="0.9385" style="stop-color:#4D5B61"/>
		<stop  offset="1" style="stop-color:#000000"/>
	</linearGradient>
	<path style="fill:url(#calculator_handwrite_SVGID_00000126321139085414598290000016029120876165546896_);" d="M177.3,22.4H25.4c-0.2,0-0.4,0.2-0.4,0.4
		v45.1c0,0.2,0.2,0.4,0.4,0.4h151.9c0.2,0,0.4-0.2,0.4-0.4V22.8C177.6,22.6,177.4,22.4,177.3,22.4z"/>
</g> -->
</svg>
