<?xml version="1.0" encoding="utf-8"?>
<!-- Generator: Adobe Illustrator 26.0.0, SVG Export Plug-In . SVG Version: 6.00 Build 0)  -->
<svg version="1.0" id="screen_x5F_" xmlns="http://www.w3.org/2000/svg" xmlns:xlink="http://www.w3.org/1999/xlink" x="0px"
	 y="0px" width="341px" height="125.4px" viewBox="0 0 341 125.4" style="enable-background:new 0 0 341 125.4;"
	 xml:space="preserve">
<style type="text/css">
	.st0{opacity:1; fill:#B5B5B5;}	
	.st1{fill:url(#HORI_SVGID_1_);}	
</style>
<g>
	<g class="st0">
		<path d="M13.5,125.4c-7.4,0-13.5-6.1-13.5-13.5V17.5C0,10.1,6.1,4,13.5,4h314c7.4,0,13.5,6.1,13.5,13.5v94.4
			c0,7.4-6.1,13.5-13.5,13.5H13.5z"/>
	</g>
	<linearGradient id="HORI_SVGID_1_" gradientUnits="userSpaceOnUse" x1="38.2927" y1="-16.0306" x2="514.8287" y2="260.4577">
		<stop  offset="0" style="stop-color:#ABABAB"/>
		<stop  offset="2.048109e-02" style="stop-color:#B0B0B0"/>
		<stop  offset="0.1518" style="stop-color:#CECECE"/>
		<stop  offset="0.2263" style="stop-color:#D9D9D9"/>
		<stop  offset="0.4338" style="stop-color:#ABABAB"/>
		<stop  offset="0.4551" style="stop-color:#B0B0B0"/>
		<stop  offset="0.5918" style="stop-color:#CECECE"/>
		<stop  offset="0.6695" style="stop-color:#D9D9D9"/>
		<stop  offset="0.8188" style="stop-color:#ABABAB"/>
		<stop  offset="0.8304" style="stop-color:#B0B0B0"/>
		<stop  offset="0.9047" style="stop-color:#CECECE"/>
		<stop  offset="0.9469" style="stop-color:#D9D9D9"/>
		<stop  offset="1" style="stop-color:#B5B5B5"/>
	</linearGradient>
	<path class="st1" d="M13.5,121.4c-7.4,0-13.5-6.1-13.5-13.5V13.5C0,6.1,6.1,0,13.5,0h314c7.4,0,13.5,6.1,13.5,13.5v94.4
		c0,7.4-6.1,13.5-13.5,13.5H13.5z"/>
	
		<linearGradient id="HORI_00000166650784499524904490000016600961953283394178_" gradientUnits="userSpaceOnUse" x1="43.5883" y1="-12.9582" x2="501.036" y2="252.455">
		<stop  offset="0" style="stop-color:#303030"/>
		<stop  offset="2.722079e-02" style="stop-color:#292929"/>
		<stop  offset="0.1542" style="stop-color:#0B0B0B"/>
		<stop  offset="0.2263" style="stop-color:#000000"/>
		<stop  offset="0.5914" style="stop-color:#525252"/>
		<stop  offset="0.6083" style="stop-color:#545454"/>
		<stop  offset="0.8581" style="stop-color:#727272"/>
		<stop  offset="1" style="stop-color:#7D7D7D"/>
	</linearGradient>
	<path style="fill:url(#HORI_00000166650784499524904490000016600961953283394178_);" d="M327.5,114.4h-314c-3.6,0-6.6-2.9-6.6-6.6
		V13.5c0-3.6,2.9-6.6,6.6-6.6h314c3.6,0,6.6,2.9,6.6,6.6v94.4C334.1,111.5,331.1,114.4,327.5,114.4z"/>
</g>
</svg>
