<?xml version="1.0" encoding="utf-8"?>
<!-- Generator: Adobe Illustrator 25.4.1, SVG Export Plug-In . SVG Version: 6.00 Build 0)  -->
<svg version="1.0" id="레이어_1" xmlns="http://www.w3.org/2000/svg" xmlns:xlink="http://www.w3.org/1999/xlink" x="0px"
	 y="0px" width="800px" height="500px" viewBox="0 0 800 500" style="enable-background:new 0 0 800 500;" xml:space="preserve">
<style type="text/css">
	.st0{fill:url(#BG_00000135692529543292955410000015246865133347124352_);}
	.st1{fill:#D7F2F2;}
	.st2{fill:#00AC86;}
	.st3{fill:#17C6AC;}
	.st4{fill:#5AD1AC;}
</style>
<linearGradient id="BG_00000034047314643458070690000015620883270547789238_" gradientUnits="userSpaceOnUse" x1="400" y1="441.8559" x2="400" y2="57.1193" gradientTransform="matrix(1 0 0 -1 0 500)">
	<stop  offset="0" style="stop-color:#96E4FB"/>
	<stop  offset="0.2372" style="stop-color:#AEE7F1"/>
	<stop  offset="0.4922" style="stop-color:#C0E9EA"/>
	<stop  offset="0.6712" style="stop-color:#C7EAE7"/>
</linearGradient>
<rect id="BG" style="fill:url(#BG_00000034047314643458070690000015620883270547789238_);" width="800" height="500"/>
<g id="_x0A_cloud">
	<path class="st1" d="M800,264c-24.7-4.8-51.2,2.4-70.4,21.5c-10.6,10.6-17.5,23.4-20.7,36.9c-19.3-16.2-48-15.2-66.1,2.9
		c-9.1,9.1-13.8,20.8-14.3,32.7c-19.8-16.9-49.6-16.1-68.3,2.7c-6.1,6.1-10.3,13.4-12.6,21.1h-3.8c-1.2-1.5-2.4-2.9-3.8-4.3
		c-23.4-23.4-61.3-23.4-84.7,0c-23.4,23.4-23.4,61.3,0,84.7h27.9H540h260V264z"/>
	<path class="st1" d="M375.9,431.3c0-28.8-23.3-52.1-52.1-52.1c-3.1,0-6.1,0.3-9,0.8c-2.8-32.4-34.6-57.9-73.5-57.9
		c-9.7,0-19,1.6-27.5,4.5c-11.9-29.1-40.5-49.7-73.9-49.7c-38.4,0-70.4,27-78.1,63.1c-7.5-3.2-15.7-4.9-24.3-4.9
		c-14,0-27,4.6-37.4,12.5v144H317c22.7,0,44-12.5,53.6-33.1C374.1,451,376.3,441.9,375.9,431.3z"/>
</g>
<g id="_x0A_under">
	<path class="st2" d="M800,417.4c-0.3,0.1-0.7,0.2-1,0.4c-0.6-8.6-6.5-16.2-15.2-18.5c-5.3-1.4-10.7-0.6-15.1,1.8
		c-3.2-13.5-15.3-23.6-29.9-23.6c-14,0-25.7,9.3-29.5,22.1c-3.6-1.1-7.5-1.3-11.5-0.2c-8.7,2.3-14.6,9.8-15.2,18.3
		c-2.9-1-6.1-1-8.9,0.4c-5.9,3-7.9,10.8-4.5,17.5c2.4,4.7,15.5,20.5,51.1,13.8c0,0,18.5,6.8,36.9,0.4c0,0,25.1,6.5,42.8-1.9
		L800,417.4L800,417.4z"/>
	<path class="st2" d="M529.5,421.3c-2.4-1.2-5.2-1.2-7.7-0.1c-0.5-6.9-5.2-13.1-12.3-15c-4.3-1.1-8.6-0.5-12.2,1.5
		c-2.6-10.9-12.4-19.1-24.1-19.1c-11.3,0-20.8,7.5-23.8,17.8c-2.9-0.9-6.1-1-9.3-0.2c-7,1.9-11.8,7.9-12.3,14.8
		c-2.4-0.8-4.9-0.8-7.2,0.3c-4.8,2.4-6.4,8.7-3.7,14.2c1.9,3.8,12.5,16.5,41.3,11.2c0,0,15,5.5,29.8,0.3c0,0,34.4,8.9,45.1-11.5
		C536,430.1,534.2,423.7,529.5,421.3z"/>
	<path class="st3" d="M0,500h614.1C301.3,376.1,80.6,389.1,0,400.5V500z"/>
	<path class="st4" d="M799.9,431.2c-267-31-700,50.5-792.1,68.8h792.1V431.2z"/>
	<path class="st2" d="M80,481.2c-2.8-1.4-6-1.4-8.9-0.2c-0.5-8-6-15.1-14.2-17.3c-4.9-1.3-9.9-0.6-14.1,1.7c-3-12.6-14.3-22-27.8-22
		c-5.5,0-10.7,1.6-15.1,4.3V500h82.8c0.5-0.8,1-1.6,1.5-2.5C87.5,491.3,85.5,483.9,80,481.2z"/>
</g>
</svg>
