<?xml version="1.0" encoding="utf-8"?>
<!-- Generator: Adobe Illustrator 25.4.1, SVG Export Plug-In . SVG Version: 6.00 Build 0)  -->
<svg version="1.0" id="레이어_1" xmlns="http://www.w3.org/2000/svg" xmlns:xlink="http://www.w3.org/1999/xlink" x="0px"
	 y="0px" width="80px" height="74px" viewBox="0 0 80 74" style="enable-background:new 0 0 80 74;" xml:space="preserve">
<style type="text/css">
	.st0{fill:#B37657;}
	.st1{fill:#FFB98A;}
	.st2{fill:#C17E63;}
	.st3{fill:#F2D3CC;}
	.st4{fill:#2D2119;}
	.st5{fill:#843C28;}
	.st6{fill:#B57B6C;}
</style>
<g>
	<g>
		<circle class="st0" cx="11.3" cy="11.7" r="11.3"/>
		<circle class="st1" cx="12.8" cy="13.2" r="6"/>
		<circle class="st0" cx="68.7" cy="11.7" r="11.3"/>
		<circle class="st1" cx="67.2" cy="13.2" r="6"/>
	</g>
	<ellipse class="st0" cx="40" cy="38.6" rx="36.6" ry="35.1"/>
	<path class="st2" d="M42.6,7.8c10.6,0,20.3,4.1,27.4,10.7c-6.6-9-17.6-15-30-15C19.8,3.5,3.4,19.2,3.4,38.6c0,1.3,0.1,2.6,0.2,3.9
		C5.1,23.1,22,7.8,42.6,7.8z"/>
	<g>
		<ellipse class="st1" cx="14.6" cy="46.5" rx="8.1" ry="5.7"/>
		<ellipse class="st1" cx="65.4" cy="46.5" rx="8.1" ry="5.7"/>
	</g>
	<g>
		<ellipse class="st3" cx="40" cy="49.3" rx="15.5" ry="11"/>
	</g>
	<g>
		<circle class="st4" cx="24" cy="36.6" r="3.7"/>
		<circle class="st4" cx="56" cy="36.6" r="3.7"/>
	</g>
	<ellipse transform="matrix(0.9368 -0.3499 0.3499 0.9368 -2.2596 10.6818)" class="st2" cx="28.4" cy="11.6" rx="8.4" ry="3.9"/>
	<path class="st5" d="M40,57.1c-4.9,0-8.8-4-8.8-8.8c0-0.5,0.4-1,1-1s1,0.4,1,1c0,3.8,3.1,6.9,6.9,6.9c3.8,0,6.9-3.1,6.9-6.9
		c0-0.5,0.4-1,1-1c0.5,0,1,0.4,1,1C48.8,53.2,44.9,57.1,40,57.1z"/>
	<path class="st6" d="M79.5,47.4"/>
	<path class="st4" d="M43.7,42.5c0,0.6-1,1.4-1.9,2c-1.1,0.7-2.5,0.7-3.6,0c-0.9-0.6-1.9-1.4-1.9-2c0-1.2,1.6-2.1,3.7-2.1
		S43.7,41.4,43.7,42.5z"/>
</g>
</svg>
