<?xml version="1.0" encoding="utf-8"?>
<!-- Generator: Adobe Illustrator 25.4.1, SVG Export Plug-In . SVG Version: 6.00 Build 0)  -->
<svg version="1.0" id="레이어_1" xmlns="http://www.w3.org/2000/svg" xmlns:xlink="http://www.w3.org/1999/xlink" x="0px"
	 y="0px" width="87px" height="87px" viewBox="0 0 87 87" style="enable-background:new 0 0 87 87;" xml:space="preserve">
<style type="text/css">
	.st0{fill:#C44A3D;}
	.st1{fill:#DD7440;}
	.st2{fill:#FFBE55;}
	.st3{fill:#D36629;}
	.st4{fill:#FFC97B;}
	.st5{opacity:0.9;}
	.st6{fill:#FF9240;}
	.st7{opacity:0.2;fill:#FFC2BD;}
	.st8{fill:#2D2119;}
	.st9{fill:#EF941D;}
	.st10{fill:#AF4635;}
</style>
<g>
	<circle class="st0" cx="43.5" cy="43.5" r="43.5"/>
	<path class="st1" d="M78.5,17.7c-2.8-3.8-6.2-7.1-10.1-9.8l-21.6,26L50,0.5C47.9,0.2,45.7,0,43.5,0c-2.6,0-5.1,0.2-7.5,0.7
		l3.1,33.2L17.9,8.3c-3.8,2.8-7.1,6.1-9.8,9.9l25.4,21.1L0.6,36.2C0.2,38.6,0,41,0,43.5c0,2.3,0.2,4.5,0.5,6.7l33.1-3.1L7.9,68.4
		c2.7,3.9,6,7.3,9.8,10l21.4-25.9l-3.1,33.7c2.5,0.4,5,0.7,7.6,0.7c2.2,0,4.4-0.2,6.5-0.5l-3.2-33.9L68.7,79
		c3.9-2.8,7.3-6.1,10.1-10L52.3,47.1l34.2,3.2c0.3-2.2,0.5-4.5,0.5-6.8c0-2.5-0.2-5-0.6-7.4l-34,3.2L78.5,17.7z"/>
	<g>
		<circle class="st2" cx="20.2" cy="27.5" r="6.9"/>
		<circle class="st3" cx="21.1" cy="28.3" r="3.6"/>
		<circle class="st2" cx="66.8" cy="27.5" r="6.9"/>
		<circle class="st3" cx="65.9" cy="28.4" r="3.7"/>
	</g>
	<ellipse class="st2" cx="43.5" cy="49.3" rx="29.8" ry="28.5"/>
	<path class="st4" d="M45.7,24.3c8.6,0,16.5,3.3,22.2,8.7c-5.4-7.3-14.3-12.1-24.4-12.1c-16.4,0-29.8,12.8-29.8,28.5
		c0,1.1,0.1,2.1,0.2,3.1C15.2,36.7,28.9,24.3,45.7,24.3z"/>
	<g class="st5">
		<ellipse class="st6" cx="22.9" cy="55.7" rx="6.6" ry="4.6"/>
		<ellipse class="st6" cx="64.1" cy="55.7" rx="6.6" ry="4.6"/>
	</g>
	<path class="st7" d="M46.1,5.3c13.6,0,25.8,5.9,34.3,15.2C72.8,8.2,59.1,0,43.5,0C19.5,0,0,19.5,0,43.5c0,0.9,0,1.7,0.1,2.6
		C2.8,23.1,22.4,5.3,46.1,5.3z"/>
	<g>
		<circle class="st8" cx="30.5" cy="47.7" r="3"/>
		<circle class="st8" cx="56.5" cy="47.7" r="3"/>
	</g>
	<g>
		<path class="st9" d="M49.6,57.3H37.4l1.5-14.4c0.2-2.4,2.2-4.2,4.6-4.2h0c2.4,0,4.4,1.8,4.6,4.2L49.6,57.3z"/>
		<path class="st8" d="M46.2,60.7h-5.5c-1.8,0-3.3-1.5-3.3-3.3v0h12.2v0C49.6,59.2,48.1,60.7,46.2,60.7z"/>
	</g>
	<path class="st10" d="M43.5,69.2c-6.3,0-10.9-4-12.1-8c-0.1-0.5,0.1-1,0.6-1.2c0.5-0.1,1,0.1,1.2,0.6c0.8,2.7,4.3,6.7,10.4,6.7
		c6,0,9.6-4.1,10.4-6.7c0.2-0.5,0.7-0.8,1.2-0.6c0.5,0.2,0.8,0.7,0.6,1.2C54.4,65,49.8,69.2,43.5,69.2z"/>
	<ellipse transform="matrix(0.9368 -0.3499 0.3499 0.9368 -7.4266 13.6658)" class="st4" cx="34.1" cy="27.4" rx="6.8" ry="3.2"/>
</g>
</svg>
