<?xml version="1.0" encoding="utf-8"?>
<!-- Generator: Adobe Illustrator 26.0.1, SVG Export Plug-In . SVG Version: 6.00 Build 0)  -->
<svg version="1.0" id="Layer" xmlns="http://www.w3.org/2000/svg" xmlns:xlink="http://www.w3.org/1999/xlink" x="0px" y="0px"
	 width="385.6px" height="339.7px" viewBox="0 0 385.6 339.7" style="enable-background:new 0 0 385.6 339.7;" xml:space="preserve"
	>
<style type="text/css">
	.st0{fill:#02A365;}
	.st1{fill:#00D994;}
	.st2{fill:#B459FF;}
	.st3{fill:#F9AF38;}
	.st4{fill:#FCD45A;}
	.st5{fill:#04909B;}
	.st6{fill:#01B5D6;}
	.st7{fill:#04B5C5;}
	.st8{fill:#FC8857;}
	.st9{fill:#FB639C;}
	.st10{fill:#8943C2;}
	.st11{fill:#FF4F5D;}
	.st12{fill:#CE4155;}
	.st13{fill:#FFCB00;}
</style>
<g id="confetti">
	<g>
		<g>
			<path class="st0" d="M7.8,191.3c0,0,7.5-0.1,9.5,9.7c2,9.8,6.5,9.9,6.5,9.9l5-1.2c0,0,2.3,1.7,1.6-5.5
				c-0.8-7.2-10.9-22.6-17.3-18.6C4.6,191,7.8,191.3,7.8,191.3z"/>
			<path class="st1" d="M15.6,185c0,0-5-0.3-10.9,2.1c-2.9,1.2-7.3,9.8-2.5,17.5c0,0,0.2,1.4,4,1.9c3.8,0.5,6.8,0.7,7.2-0.3
				c0,0-2-1.7-2.6-5.1c-0.4-2.2-0.3-3.7,0.2-7.5C11.6,187.5,14,184.9,15.6,185z"/>
			<path class="st1" d="M29.9,209.7c0,0-0.7,2-8,1.7c-3.3-0.1-6.3-2.4-7-5.7c-0.2-1.1-0.4-2.5-0.5-4.1c-0.5-8.6,2.8-16,7-17.1
				c8.4-2.2,12.2-1.7,13.9-1c0,0-6.3-1.2-9.3,7.6C22.6,201,26.1,210.9,29.9,209.7z"/>
		</g>
	</g>
	<path class="st2" d="M106.5,315.4c7.1-7.1,9.4-11.6,11-21.5c4.9,2.5,7.4,3.8,12.4,6.3c-1.6,9.9-3.9,14.5-11,21.5
		C113.9,319.2,111.4,318,106.5,315.4z"/>
	<g>
		<g>
			<path class="st3" d="M317.7,309.4c-1.6-1.2-16,14.2-18.2,12.7l-5.3-4.1c1.2,1,15.9-14.3,18-12.8L317.7,309.4z"/>
			<path class="st4" d="M317.8,309.5c2,1.5-0.7,7.8-4.8,13.3l-5.4-4.2c4.1-5.6,7-11.7,4.9-13.3C312.4,305.3,316.8,308.7,317.8,309.5
				z"/>
			<path class="st3" d="M307.9,301.9c-1.6-1.2-16,14.2-18.2,12.7l-5.3-4.1c1.2,1,15.9-14.3,18-12.8L307.9,301.9z"/>
			<path class="st3" d="M293.8,291.1c-3.6-2.8-21.5,1.9-25.8-1.4l-5.3-4.1c4.6,3.5,20.7-2.5,25.6,1.2L293.8,291.1z"/>
			<path class="st4" d="M307.9,301.9c0.9,0.7-0.4,4.4-4.5,10c-4.1,5.6-4.5,9.7-3.8,10.3c0,0-4.2-3.2-5.4-4.2
				c-1.2-0.9-0.4-4.7,3.8-10.3c4.1-5.6,5.5-9.2,4.5-10C302.5,297.8,307,301.2,307.9,301.9z"/>
			<path class="st4" d="M293.4,290.8c1.7,1.3,1.5,5.4-0.8,12.1c-2.3,6.6-3.8,11-3,11.6c0,0-4.2-3.2-5.4-4.2c-1.2-0.9,0.6-5.1,3-11.6
				c2.3-6.5,2.3-10.9,0.8-12.1C288,286.6,292.4,290.1,293.4,290.8z"/>
		</g>
	</g>
	<g>
		<path class="st5" d="M57,271.2c7.5-3.5-11.3-18.1-11.2-26.5c-1.7,0.4-3.2,1.2-4.6,2.4c-5.8,5.5,8.2,17.7,11.1,24.9
			C53.9,272.1,55.5,271.9,57,271.2z"/>
		<path class="st6" d="M18.5,268.7c0,0,2.2-2.1,4.6-1.7c7.5,0.8,18.6,14.2,28,9.9c0.3-0.2,0.6-0.3,0.9-0.6c0,0,0,0,0,0l6.1-5.8
			c0,0-3.7,1.9-5.8,1.6c-0.1,0-0.1,0-0.2,0c-10.1-0.8-20.9-14.9-27.1-9.5c0,0,0,0,0,0L18.5,268.7z"/>
		<path class="st6" d="M40.9,247.4c0,0,2.8-2.3,4.9-2.7c0,0,0.1,0,0.1,0c8.2-1.8,19.1,4.9,19.1,4.9l6-5.7c0,0-15.7-9.7-23.5-2.7
			c0,0,0,0,0,0L40.9,247.4z"/>
	</g>
	<polygon class="st7" points="314.2,70.6 308.2,69.8 304.2,74.4 303,68.5 297.5,66.1 302.7,63.1 303.3,57.1 307.7,61.2 313.6,59.9 
		311.1,65.4 	"/>
	<polygon class="st7" points="228.4,322.9 231.9,320.2 231.6,315.8 235.3,318.3 239.4,316.7 238.2,320.9 241,324.4 236.5,324.5 
		234.2,328.2 232.7,324.1 	"/>
	<path class="st8" d="M314.9,266.9c7.3,0,7.3-11.4,0-11.4C307.6,255.5,307.6,266.9,314.9,266.9L314.9,266.9z"/>
	<path class="st2" d="M260.2,331.6c6.1,0,6.1-9.5,0-9.5C254.1,322.1,254.1,331.6,260.2,331.6L260.2,331.6z"/>
	<path class="st1" d="M53.7,139.3c6.1,0,6.1-9.5,0-9.5C47.6,129.8,47.6,139.3,53.7,139.3L53.7,139.3z"/>
	<path class="st1" d="M153.2,332.3c5.2,0,5.2-8.1,0-8.1C147.9,324.1,147.9,332.3,153.2,332.3L153.2,332.3z"/>
	<polygon class="st9" points="181,316.8 175.3,316.9 172.1,321.7 170.2,316.3 164.7,314.8 169.3,311.3 169,305.6 173.7,308.9 
		179,306.9 177.4,312.3 	"/>
	<polygon class="st4" points="370.1,227.8 371.9,225.2 370.8,222.2 373.9,223.1 376.3,221.1 376.4,224.3 379.1,226.1 376.1,227.1 
		375.2,230.2 373.3,227.7 	"/>
	<polygon class="st9" points="200.9,6 202.7,11.7 208.4,13.5 203.5,17 203.6,23 198.8,19.4 193.1,21.4 195,15.7 191.4,10.8 
		197.4,10.9 	"/>
	<path class="st7" d="M6.1,250.6c2.9,0,5.4-2.5,5.4-5.4c0-2.9-2.5-5.4-5.4-5.4c-2.9,0-5.4,2.5-5.4,5.4
		C0.7,248.1,3.2,250.6,6.1,250.6L6.1,250.6z"/>
	
		<rect x="336.2" y="275.6" transform="matrix(0.7908 -0.6121 0.6121 0.7908 -103.687 268.9065)" class="st1" width="10.7" height="21.1"/>
	<g>
		<g>
			<path class="st10" d="M349.9,94.8c0,0-6,1.5-9.5-6c-3.5-7.5-7.1-6.8-7.1-6.8l-3.8,2c0,0-2.2-0.9-0.2,4.7
				c2,5.6,13.1,16.1,17.5,11.7C352.5,94.4,349.9,94.8,349.9,94.8z"/>
			<path class="st2" d="M344.8,101.3c0,0,4.1-0.7,8.4-3.8c2.1-1.5,4-9.3-1.3-14.6c0,0-0.5-1.1-3.6-0.8c-3.2,0.3-5.6,0.7-5.8,1.6
				c0,0,1.9,1,3.1,3.6c0.7,1.7,0.9,2.9,1.3,6.1C347.6,98.6,346.1,101.1,344.8,101.3z"/>
			<path class="st2" d="M328.5,84.2c0,0,0.2-1.7,6.1-2.9c2.7-0.5,5.5,0.7,6.7,3.2c0.4,0.9,0.8,1.9,1.2,3.2c2,6.9,0.8,13.4-2.4,15.1
				c-6.3,3.4-9.5,3.7-11.1,3.5c0,0,5.3-0.3,6.1-7.9C336.1,89.8,331.4,82.5,328.5,84.2z"/>
		</g>
	</g>
	<path class="st11" d="M196.7,310.6c2.1,11.4,1.9,17.6-0.6,28.9c4.1,0.1,6.2,0.1,10.3,0.2c2.5-11.3,2.7-17.5,0.6-28.9
		C202.9,310.7,200.8,310.7,196.7,310.6z"/>
	<path class="st11" d="M164.8,6c-4.9,10.1-8.5,14.9-17,22.3c3.2,2.4,4.8,3.6,8,6.1c8.5-7.4,12.1-12.2,17-22.3
		C169.6,9.6,168,8.4,164.8,6z"/>
	<g>
		<path class="st10" d="M41.3,96.9c5.5,5.5,12.2-15.9,19.6-18.6c-0.9-1.4-2.1-2.5-3.6-3.2c-6.7-3.3-12.9,13-18.3,17.9
			C39.4,94.5,40.1,95.8,41.3,96.9z"/>
		<path class="st2" d="M30.8,62.3c0,0,2.5,1.2,3,3.4c1.8,6.9-6.4,21,0.5,27.9c0.3,0.3,0.5,0.4,0.8,0.6c0,0,0,0,0,0l7.1,3.5
			c0,0-2.9-2.6-3.3-4.6c0-0.1,0-0.1-0.1-0.2c-2.6-9.1,6.3-23.3-0.5-26.9c0,0,0,0,0,0L30.8,62.3z"/>
		<path class="st2" d="M56.9,75c0,0,2.9,1.7,4,3.4c0,0,0,0.1,0.1,0.1c4.3,6.6,2,18.4,2,18.4l6.9,3.4c0,0,3.4-17-5.4-21.6
			c0,0,0,0,0,0L56.9,75z"/>
	</g>
	<g>
		<path class="st12" d="M367.8,188.6c7.6-1.8-7.1-18.7-5.5-26.4c-1.6,0.1-3.2,0.5-4.6,1.4c-6.3,4,4.3,17.8,5.6,25
			C364.8,188.9,366.2,188.9,367.8,188.6z"/>
		<path class="st11" d="M332.8,179.2c0,0,2.4-1.5,4.5-0.7c6.8,2.1,14.5,16.5,24,14.3c0.3-0.1,0.6-0.2,0.9-0.3c0,0,0,0,0,0l6.7-4.2
			c0,0-3.8,1-5.6,0.4c-0.1,0-0.1,0-0.2,0c-9.1-2.6-16.5-17.6-23.2-13.8c0,0,0,0,0,0L332.8,179.2z"/>
		<path class="st11" d="M357.3,163.7c0,0,3-1.6,5-1.6c0,0,0.1,0,0.1,0c7.9-0.2,16.7,8,16.7,8l6.5-4.1c0,0-12.7-11.8-21.2-6.8
			c0,0,0,0,0,0L357.3,163.7z"/>
	</g>
	<path class="st4" d="M32.5,139.7c-11.1,6.8-17.6,9.2-30.4,11.2c1.6,4.3,2.4,6.5,4,10.9c12.9-2,19.3-4.4,30.4-11.2
		C34.9,146.2,34.1,144.1,32.5,139.7z"/>
	<path class="st6" d="M70.5,31.4C73,40,75.6,43.8,82.7,49.2c-4.1,2.8-6.1,4.2-10.2,7c-7.1-5.4-9.7-9.2-12.3-17.7
		C64.3,35.7,66.4,34.3,70.5,31.4z"/>
	<path class="st11" d="M284.8,36.8c-0.5-7.5-2-11-6.8-16.8c3.9-1.6,5.8-2.4,9.6-3.9c4.8,5.7,6.3,9.3,6.8,16.8
		C290.6,34.4,288.6,35.2,284.8,36.8z"/>
	<path class="st2" d="M132.3,6.8c-9.5,8.4-13.6,13.8-19.1,25.3c-3.6-2.7-5.4-4.1-9-6.8c5.5-11.5,9.6-16.9,19.1-25.3
		C126.9,2.7,128.7,4.1,132.3,6.8z"/>
	<polygon class="st1" points="76.6,291.6 76.3,287.8 73,285.8 76.6,284.4 77.5,280.6 80,283.6 83.8,283.3 81.7,286.5 83.2,290.1 
		79.5,289.1 	"/>
	<polygon class="st7" points="12.7,113.8 15.7,116.9 19.9,116.2 17.9,120 19.9,123.8 15.7,123.1 12.7,126.2 12,121.9 8.2,120 
		12,118.1 	"/>
	<polygon class="st8" points="341.9,203.5 345.2,208.1 350.9,207.9 347.6,212.5 349.5,217.9 344.1,216.1 339.6,219.6 339.5,213.9 
		334.9,210.7 340.3,208.9 	"/>
	<polygon class="st8" points="101.3,278.1 104.7,282.7 110.4,282.5 107,287.1 108.9,292.4 103.5,290.7 99,294.2 99,288.5 
		94.3,285.3 99.7,283.5 	"/>
	<path class="st8" d="M264,45.8c0-0.2,0-0.3,0-0.5c0-2.2-1.8-4-4-4c-2.2,0-4,1.8-4,4c0,0.2,0,0.3,0,0.5c0,2.2,1.8,4,4,4
		C262.2,49.7,264,47.9,264,45.8L264,45.8z"/>
	<path class="st6" d="M353.1,142.8c-7.6,0.4-11.3,1.8-17.3,6.6c-1.5-4-2.3-6-3.8-9.9c6-4.8,9.6-6.2,17.3-6.6
		C350.8,136.8,351.6,138.8,353.1,142.8z"/>
	<path class="st13" d="M367.1,127.9c4.9,2.7,7.7,3.2,13.2,2.5c-0.6,3-0.9,4.5-1.4,7.6c-5.5,0.7-8.3,0.2-13.2-2.5
		C366.2,132.4,366.5,130.9,367.1,127.9z"/>
	<path class="st11" d="M338.1,228.7c3.6,5.1,6.2,7.1,12.1,9.1c-2.1,2.8-3.1,4.2-5.2,7c-5.9-2-8.5-4-12.1-9.1
		C334.9,232.9,336,231.5,338.1,228.7z"/>
	<path class="st11" d="M55.7,204.9c-3,3.6-3.8,5.8-4.1,10.4c-2.4-0.9-3.6-1.4-6-2.4c0.3-4.6,1.2-6.9,4.1-10.4
		C52.1,203.5,53.3,203.9,55.7,204.9z"/>
	<path class="st6" d="M235.7,12c-0.3,6.7,0.6,10,4.3,15.6c-3.6,1-5.4,1.5-9,2.5c-3.7-5.6-4.6-8.9-4.3-15.6
		C230.4,13.5,232.2,13,235.7,12z"/>
</g>
</svg>
