<?xml version="1.0" encoding="utf-8"?>
<!-- Generator: Adobe Illustrator 26.0.0, SVG Export Plug-In . SVG Version: 6.00 Build 0)  -->
<svg version="1.0" id="P015" xmlns="http://www.w3.org/2000/svg" xmlns:xlink="http://www.w3.org/1999/xlink" x="0px" y="0px"
	 width="178.4px" height="255.2px" viewBox="0 0 178.4 255.2" style="enable-background:new 0 0 178.4 255.2;" xml:space="preserve"
	>
<style type="text/css">
	.st0{fill:url(#Calculate_Background_SVGID_1_);}
	.st1{fill:url(#Calculate_Background_SVGID_00000178190790475628909250000006449296112203637409_);}
	.st2{fill:url(#Calculate_Background_SVGID_00000070091473898791648670000014163387305764301743_);}
	.st3{opacity:0.3;fill:url(#Calculate_Background_SVGID_00000157988458552836427830000007418247543483379117_);}
	.st4{fill:url(#Calculate_Background_SVGID_00000015328696823232808110000009579433082813921180_);}
	.st5{fill:url(#Calculate_Background_SVGID_00000117668381593852031490000004356141466418626459_);}
	.st6{fill:url(#Calculate_Background_SVGID_00000073002457128177674710000009634639561443869344_);}
	.st7{opacity:0.3;fill:url(#Calculate_Background_SVGID_00000081629972553768230170000014106269386219717540_);}
	.st8{fill:url(#Calculate_Background_SVGID_00000044895426392190503810000010744986104899505341_);}
	.st9{fill:url(#Calculate_Background_SVGID_00000118387982092459657360000011241880083475047853_);}
	.st10{fill:url(#Calculate_Background_SVGID_00000179642157833037441600000003243783215691234722_);}
	.st11{opacity:0.3;fill:url(#Calculate_Background_SVGID_00000106833435335319442380000003745381910669672105_);}
	.st12{fill:#828688;}
	.st13{fill:url(#Calculate_Background_SVGID_00000024714959132899199230000011231306019161554851_);}
	.st14{fill:url(#Calculate_Background_SVGID_00000087388422856755093330000014372057839736728974_);}
	.st15{fill:url(#Calculate_Background_SVGID_00000147905309122491839510000001311947442193609379_);}
	.st16{opacity:0.3;fill:url(#Calculate_Background_SVGID_00000168094919248101333320000005425785502372966031_);}
	.st17{fill:#1C7C6A;}
	.st18{fill:url(#Calculate_Background_SVGID_00000172428633564096480660000000815917313901424789_);}
	.st19{fill:url(#Calculate_Background_SVGID_00000017482032680930466140000005341938365215087533_);}
	.st20{fill:url(#Calculate_Background_SVGID_00000167382854937144978620000014309904687539194763_);}
	.st21{opacity:0.3;fill:url(#Calculate_Background_SVGID_00000022534173264416830050000005205157747062791834_);}
	.st22{fill:url(#Calculate_Background_SVGID_00000022532420264954478420000011520457309728998579_);}
	.st23{fill:url(#Calculate_Background_SVGID_00000003795282204784091910000005823692189905153926_);}
	.st24{fill:url(#Calculate_Background_SVGID_00000114766462113315755610000000977608771870055840_);}
	.st25{opacity:0.3;fill:url(#Calculate_Background_SVGID_00000012465464479020233790000016809191839987132308_);}
	.st26{fill:url(#Calculate_Background_SVGID_00000163786258927239904050000003023008587507842476_);}
	.st27{fill:url(#Calculate_Background_SVGID_00000007394068318345389810000005581003828827779208_);}
	.st28{opacity:0.64;fill:url(#Calculate_Background_SVGID_00000137125056796858711760000011426344643947396241_);}
	.st29{fill:url(#Calculate_Background_SVGID_00000161601914326111492040000015386576098847761082_);}
	.st30{opacity:0;fill:#FFFFFF;}
	.st31{opacity:2.857143e-02;fill:#FDFDFD;}
	.st32{opacity:5.714286e-02;fill:#FAFAFA;}
	.st33{opacity:8.571429e-02;fill:#F8F8F8;}
	.st34{opacity:0.1143;fill:#F5F6F6;}
	.st35{opacity:0.1429;fill:#F3F3F4;}
	.st36{opacity:0.1714;fill:#F0F1F1;}
	.st37{opacity:0.2;fill:#EEEFEF;}
	.st38{opacity:0.2286;fill:#ECECED;}
	.st39{opacity:0.2571;fill:#E9EAEB;}
	.st40{opacity:0.2857;fill:#E7E8E8;}
	.st41{opacity:0.3143;fill:#E4E6E6;}
	.st42{opacity:0.3429;fill:#E2E3E4;}
	.st43{opacity:0.3714;fill:#DFE1E2;}
	.st44{opacity:0.4;fill:#DDDFDF;}
	.st45{opacity:0.4286;fill:#DBDCDD;}
	.st46{opacity:0.4571;fill:#D8DADB;}
	.st47{opacity:0.4857;fill:#D6D8D9;}
	.st48{opacity:0.5143;fill:#D3D5D6;}
	.st49{opacity:0.5429;fill:#D1D3D4;}
	.st50{opacity:0.5714;fill:#CED1D2;}
	.st51{opacity:0.6;fill:#CCCED0;}
	.st52{opacity:0.6286;fill:#CACCCD;}
	.st53{opacity:0.6571;fill:#C7CACB;}
	.st54{opacity:0.6857;fill:#C5C7C9;}
	.st55{opacity:0.7143;fill:#C2C5C7;}
	.st56{opacity:0.7429;fill:#C0C3C4;}
	.st57{opacity:0.7714;fill:#BDC1C2;}
	.st58{opacity:0.8;fill:#BBBEC0;}
	.st59{opacity:0.8286;fill:#B9BCBE;}
	.st60{opacity:0.8571;fill:#B6BABB;}
	.st61{opacity:0.8857;fill:#B4B7B9;}
	.st62{opacity:0.9143;fill:#B1B5B7;}
	.st63{opacity:0.9429;fill:#AFB3B5;}
	.st64{opacity:0.9714;fill:#ACB0B2;}
	.st65{fill:#AAAEB0;}
	.st66{fill:url(#Calculate_Background_SVGID_00000152967934304114943340000011169922676375201201_);}
	.st67{fill:url(#Calculate_Background_SVGID_00000121992590965052348330000009605365251323898246_);}
	.st68{fill:url(#Calculate_Background_SVGID_00000003077208613019639360000008968480259644826028_);}
	.st69{fill:none;}
	.st70{fill:url(#Calculate_Background_SVGID_00000078758222611078783120000013788017724212745403_);}
	.st71{fill:#5B5B5B;}
	.st72{fill:#777777;}
	.st73{fill:#444444;}
	.st74{opacity:7.000000e-02;fill:#FFFFFF;}
	.st75{fill:#878787;}
	.st76{fill:#FFFFFF;}
	.st77{fill:#37474F;}
	.st78{opacity:0.47;fill:#666666;}
	.st79{opacity:0.47;fill:#A0A0A0;}
	.st80{fill:url(#Calculate_Background_SVGID_00000054963731843933478630000002644223248006636719_);}
	.st81{fill:#8C8C8C;}
	.st82{opacity:0.42;fill:#898989;}
	.st83{fill:#0DA5A8;}
	.st84{fill:#E6F3F4;}
	.st85{fill:none;stroke:#0097A3;stroke-width:2;stroke-miterlimit:10;}
	.st86{fill:#39BCBC;}
	.st87{fill:#0B6D6A;}
	.st88{fill:url(#Calculate_Background_SVGID_00000127036067887088612950000006703289885938758839_);}
	.st89{opacity:0.13;fill:url(#Calculate_Background_SVGID_00000092432461814559394160000011773032871698271152_);}
	.st90{fill:#161206;}
	.st91{opacity:0.21;fill:url(#Calculate_Background_SVGID_00000168077497067110942950000016240146433381525162_);}
	.st92{opacity:0.38;fill:url(#Calculate_Background_SVGID_00000150823851699808786870000007694814126694505119_);}
	.st93{opacity:0.64;fill:#14121E;}
	.st94{fill:#A37714;}
	.st95{opacity:0.15;fill:url(#Calculate_Background_SVGID_00000157306160296271932030000017896645796568345505_);}
	.st96{fill:#7F7F7F;}
	.st97{fill:none;stroke:#7F7F7F;stroke-width:15;stroke-miterlimit:10;}
	.st98{fill:#A5A5A5;}
	.st99{fill:#E8BE60;}
	.st100{fill:#B28D42;}
	.st101{opacity:0.45;}
	.st102{fill:#A9ADAA;}
	.st103{fill:#424242;}
	.st104{fill:#7A7A7A;}
	.st105{fill:#4C5356;}
	.st106{fill:#278282;}
	.st107{fill:#2F969B;}
	.st108{opacity:0.52;fill:#283033;}
	.st109{fill:url(#Calculate_Background_SVGID_00000160173951118479866640000008614112671823145401_);}
	.st110{opacity:0.77;fill:url(#Calculate_Background_SVGID_00000008861460053901066870000008601008121450256035_);}
	.st111{fill:url(#Calculate_Background_SVGID_00000150803887915347141160000005469614514930722993_);}
	.st112{opacity:0.77;fill:url(#Calculate_Background_SVGID_00000079472079552721558500000009931361247717429155_);}
	.st113{opacity:0.77;fill:url(#Calculate_Background_SVGID_00000115498882389085018840000003961784231202421390_);}
	.st114{opacity:0.2;}
	.st115{fill:#2E2E2E;}
	.st116{fill:url(#Calculate_Background_SVGID_00000017497993885438065790000016355508238660218005_);}
	.st117{opacity:0.77;}
	.st118{fill:url(#Calculate_Background_SVGID_00000180329360168614530690000004392563326144527025_);}
	.st119{fill:#FFD81A;}
	.st120{fill:#FFB127;}
	.st121{fill:#FFC136;}
	.st122{fill:#FFF794;}
	.st123{opacity:0.4;fill:#FFB127;}
	.st124{fill:url(#Calculate_Background_SVGID_00000155120307050928081270000001671394211370137257_);}
	.st125{fill:url(#Calculate_Background_SVGID_00000158717838111245130420000012190689265506857608_);}
	.st126{fill:#F6B90E;}
	.st127{fill:#22BFBF;}
	.st128{fill:#333333;}
	.st129{fill:#F1F1F1;}
	.st130{fill:#1A1A1A;}
	.st131{fill:#199992;}
	.st132{fill:#F4EEE4;}
	.st133{opacity:0.24;}
</style>
<g id="계산기판">
	<g>
		<path class="st30" d="M177.3,0.1H1.1C0.5,0.1,0,0.6,0,1.1v253c0,0.6,0.5,1.1,1.1,1.1h176.2c0.6,0,1.1-0.5,1.1-1.1V1.1
			C178.4,0.6,177.9,0.1,177.3,0.1z"/>
		<path class="st31" d="M177,0.1H1.3c-0.6,0-1.1,0.5-1.1,1.1v252.4c0,0.6,0.5,1.1,1.1,1.1H177c0.6,0,1.1-0.5,1.1-1.1V1.1
			C178.1,0.6,177.6,0.1,177,0.1z"/>
		<path class="st32" d="M176.7,0.1H1.5c-0.6,0-1.1,0.5-1.1,1.1V253c0,0.6,0.5,1.1,1.1,1.1h175.3c0.6,0,1.1-0.5,1.1-1.1V1.1
			C177.8,0.5,177.3,0.1,176.7,0.1z"/>
		<path class="st33" d="M176.4,0.1H1.7c-0.6,0-1,0.5-1,1v251.3c0,0.6,0.5,1,1,1h174.8c0.6,0,1-0.5,1-1V1.1
			C177.5,0.5,177,0.1,176.4,0.1z"/>
		<path class="st34" d="M176.2,0.1H1.9c-0.6,0-1,0.5-1,1v250.7c0,0.6,0.5,1,1,1h174.3c0.6,0,1-0.5,1-1V1.1
			C177.2,0.5,176.7,0.1,176.2,0.1z"/>
		<path class="st35" d="M175.9,0.1H2.1c-0.6,0-1,0.5-1,1v250.2c0,0.6,0.5,1,1,1h173.8c0.6,0,1-0.5,1-1V1.1
			C176.9,0.5,176.4,0.1,175.9,0.1z"/>
		<path class="st36" d="M175.6,0.1H2.3c-0.6,0-1,0.5-1,1v249.6c0,0.6,0.5,1,1,1h173.3c0.6,0,1-0.5,1-1V1.1
			C176.6,0.5,176.2,0.1,175.6,0.1z"/>
		<path class="st37" d="M175.3,0.1H2.5c-0.6,0-1,0.5-1,1v249c0,0.6,0.5,1,1,1h172.8c0.6,0,1-0.5,1-1V1.1
			C176.3,0.5,175.9,0.1,175.3,0.1z"/>
		<path class="st38" d="M175,0.1H2.7c-0.6,0-1,0.5-1,1v248.5c0,0.6,0.5,1,1,1H175c0.6,0,1-0.5,1-1V1.1C176,0.5,175.6,0.1,175,0.1z"
			/>
		<path class="st39" d="M174.7,0.1H2.9c-0.6,0-1,0.5-1,1V249c0,0.6,0.5,1,1,1h171.8c0.6,0,1-0.5,1-1V1.1
			C175.7,0.5,175.3,0.1,174.7,0.1z"/>
		<path class="st40" d="M174.5,0.1H3.1c-0.6,0-1,0.4-1,1v247.3c0,0.6,0.4,1,1,1h171.3c0.6,0,1-0.4,1-1V1.1
			C175.5,0.5,175,0.1,174.5,0.1z"/>
		<path class="st41" d="M174.2,0.1H3.3c-0.6,0-1,0.4-1,1v246.8c0,0.6,0.4,1,1,1h170.8c0.6,0,1-0.4,1-1V1.1
			C175.2,0.5,174.7,0.1,174.2,0.1z"/>
		<path class="st42" d="M173.9,0.1H3.5c-0.5,0-1,0.4-1,1v246.2c0,0.5,0.4,1,1,1h170.4c0.5,0,1-0.4,1-1V1.1
			C174.9,0.5,174.4,0.1,173.9,0.1z"/>
		<path class="st43" d="M173.6,0.1H3.7c-0.5,0-1,0.4-1,1v245.7c0,0.5,0.4,1,1,1h169.9c0.5,0,1-0.4,1-1V1.1
			C174.6,0.5,174.1,0.1,173.6,0.1z"/>
		<path class="st44" d="M173.3,0.1H3.9c-0.5,0-1,0.4-1,1v245.1c0,0.5,0.4,1,1,1h169.4c0.5,0,1-0.4,1-1V1.1
			C174.3,0.5,173.9,0.1,173.3,0.1z"/>
		<path class="st45" d="M173,0.1H4.1c-0.5,0-1,0.4-1,1v244.5c0,0.5,0.4,1,1,1H173c0.5,0,1-0.4,1-1V1C174,0.5,173.6,0.1,173,0.1z"/>
		<path class="st46" d="M172.7,0.1H4.4c-0.5,0-1,0.4-1,1v244c0,0.5,0.4,1,1,1h168.4c0.5,0,1-0.4,1-1V1
			C173.7,0.5,173.3,0.1,172.7,0.1z"/>
		<path class="st47" d="M172.5,0.1H4.6c-0.5,0-1,0.4-1,1v243.4c0,0.5,0.4,1,1,1h167.9c0.5,0,1-0.4,1-1V1
			C173.4,0.5,173,0.1,172.5,0.1z"/>
		<path class="st48" d="M172.2,0.1H4.8c-0.5,0-1,0.4-1,1v242.8c0,0.5,0.4,1,1,1h167.4c0.5,0,1-0.4,1-1V1
			C173.1,0.5,172.7,0.1,172.2,0.1z"/>
		<path class="st49" d="M171.9,0.1H5C4.4,0.1,4,0.5,4,1v242.3c0,0.5,0.4,0.9,0.9,0.9h166.9c0.5,0,0.9-0.4,0.9-0.9V1
			C172.8,0.5,172.4,0.1,171.9,0.1z"/>
		<path class="st50" d="M171.6,0.1H5.2C4.7,0.1,4.2,0.5,4.2,1v241.7c0,0.5,0.4,0.9,0.9,0.9h166.4c0.5,0,0.9-0.4,0.9-0.9V1
			C172.5,0.5,172.1,0.1,171.6,0.1z"/>
		<path class="st51" d="M171.3,0.1H5.4C4.9,0.1,4.5,0.5,4.5,1v241.2c0,0.5,0.4,0.9,0.9,0.9h165.9c0.5,0,0.9-0.4,0.9-0.9V1
			C172.3,0.5,171.8,0.1,171.3,0.1z"/>
		<path class="st52" d="M171,0.1H5.6C5.1,0.1,4.7,0.5,4.7,1v240.6c0,0.5,0.4,0.9,0.9,0.9H171c0.5,0,0.9-0.4,0.9-0.9V1
			C172,0.5,171.5,0.1,171,0.1z"/>
		<path class="st53" d="M170.8,0.1H5.8C5.3,0.1,4.9,0.5,4.9,1v240c0,0.5,0.4,0.9,0.9,0.9h165c0.5,0,0.9-0.4,0.9-0.9V1
			C171.7,0.5,171.3,0.1,170.8,0.1z"/>
		<path class="st54" d="M170.5,0.1H6C5.5,0.1,5.1,0.5,5.1,1v239.5c0,0.5,0.4,0.9,0.9,0.9h164.5c0.5,0,0.9-0.4,0.9-0.9V1
			C171.4,0.5,171,0.1,170.5,0.1z"/>
		<path class="st55" d="M170.2,0.1H6.2C5.7,0.1,5.3,0.5,5.3,1v238.9c0,0.5,0.4,0.9,0.9,0.9h164c0.5,0,0.9-0.4,0.9-0.9V1
			C171.1,0.5,170.7,0.1,170.2,0.1z"/>
		<path class="st56" d="M169.9,0.1H6.4C5.9,0.1,5.5,0.5,5.5,1v238.4c0,0.5,0.4,0.9,0.9,0.9h163.5c0.5,0,0.9-0.4,0.9-0.9V1
			C170.8,0.5,170.4,0.1,169.9,0.1z"/>
		<path class="st57" d="M169.6,0.1H6.6C6.1,0.1,5.7,0.5,5.7,1v237.8c0,0.5,0.4,0.9,0.9,0.9h163c0.5,0,0.9-0.4,0.9-0.9V1
			C170.5,0.5,170.1,0.1,169.6,0.1z"/>
		<path class="st58" d="M169.3,0.1H6.8C6.3,0.1,5.9,0.5,5.9,1v237.2c0,0.5,0.4,0.9,0.9,0.9h162.5c0.5,0,0.9-0.4,0.9-0.9V1
			C170.2,0.5,169.8,0.1,169.3,0.1z"/>
		<path class="st59" d="M169,0.1H7C6.5,0.1,6.1,0.5,6.1,1v236.7c0,0.5,0.4,0.9,0.9,0.9h162c0.5,0,0.9-0.4,0.9-0.9V1
			C169.9,0.5,169.5,0.1,169,0.1z"/>
		<path class="st60" d="M168.8,0.1H7.2c-0.5,0-0.9,0.4-0.9,0.9V237c0,0.5,0.4,0.9,0.9,0.9h161.5c0.5,0,0.9-0.4,0.9-0.9V0.9
			C169.6,0.5,169.2,0.1,168.8,0.1z"/>
		<path class="st61" d="M168.5,0.1H7.4C7,0.1,6.6,0.5,6.6,0.9v235.5c0,0.5,0.4,0.9,0.9,0.9h161c0.5,0,0.9-0.4,0.9-0.9V0.9
			C169.3,0.5,169,0.1,168.5,0.1z"/>
		<path class="st62" d="M168.2,0.1H7.6c-0.5,0-0.9,0.4-0.9,0.9v235c0,0.5,0.4,0.9,0.9,0.9h160.6c0.5,0,0.9-0.4,0.9-0.9V0.9
			C169.1,0.5,168.7,0.1,168.2,0.1z"/>
		<path class="st63" d="M167.9,0.1H7.8C7.4,0.1,7,0.5,7,0.9v234.4c0,0.5,0.4,0.9,0.9,0.9h160.1c0.5,0,0.9-0.4,0.9-0.9V0.9
			C168.8,0.5,168.4,0.1,167.9,0.1z"/>
		<path class="st64" d="M167.6,0.1H8.1c-0.5,0-0.8,0.4-0.8,0.8v233.9c0,0.5,0.4,0.8,0.8,0.8h159.6c0.5,0,0.8-0.4,0.8-0.8V0.9
			C168.5,0.5,168.1,0.1,167.6,0.1z"/>
		<path class="st65" d="M167.3,0.1H8.3c-0.5,0-0.8,0.4-0.8,0.8v233.3c0,0.5,0.4,0.8,0.8,0.8h159.1c0.5,0,0.8-0.4,0.8-0.8V0.9
			C168.2,0.4,167.8,0.1,167.3,0.1z"/>
	</g>
	<linearGradient id="Calculate_Background_SVGID_1_" gradientUnits="userSpaceOnUse" x1="90.0324" y1="253.7916" x2="90.0324" y2="4.590900e-02">
		<stop  offset="1.785710e-02" style="stop-color:#B7B8B8"/>
		<stop  offset="6.150790e-02" style="stop-color:#ACB2B5"/>
		<stop  offset="0.1448" style="stop-color:#C8CACC"/>
		<stop  offset="0.2282" style="stop-color:#C7C9CB"/>
		<stop  offset="0.8353" style="stop-color:#CBCDCF"/>
		<stop  offset="0.9306" style="stop-color:#DCDDDD"/>
		<stop  offset="1" style="stop-color:#B5B5B5"/>
	</linearGradient>
	<polygon class="st0" points="172,0 8,0 8,0 8,255.1 172,255.1 172,255 	"/>
	<g>
		
			<linearGradient id="Calculate_Background_SVGID_00000054244419232386711690000006991764262068369038_" gradientUnits="userSpaceOnUse" x1="172.8285" y1="253.7919" x2="172.8285" y2="4.590900e-02">
			<stop  offset="0" style="stop-color:#A6A6A6"/>
			<stop  offset="6.944400e-02" style="stop-color:#CDCECE"/>
			<stop  offset="0.1647" style="stop-color:#BCBEC0"/>
			<stop  offset="0.7718" style="stop-color:#B8BABC"/>
			<stop  offset="0.8552" style="stop-color:#B9BBBD"/>
			<stop  offset="0.9385" style="stop-color:#9EA3A6"/>
			<stop  offset="0.9821" style="stop-color:#A8A9A9"/>
		</linearGradient>
		<path style="fill:url(#Calculate_Background_SVGID_00000054244419232386711690000006991764262068369038_);" d="M171.1,0H170v255.1h1.1
			c2.5,0,4.5-2,4.5-4.4V4.4C175.6,2,173.6,0,171.1,0z"/>
		
			<linearGradient id="Calculate_Background_SVGID_00000053533803583117839820000012487386711408849567_" gradientUnits="userSpaceOnUse" x1="7.6118" y1="253.7919" x2="7.6118" y2="4.590900e-02">
			<stop  offset="0" style="stop-color:#A6A6A6"/>
			<stop  offset="6.944400e-02" style="stop-color:#CDCECE"/>
			<stop  offset="0.1647" style="stop-color:#BCBEC0"/>
			<stop  offset="0.7718" style="stop-color:#B8BABC"/>
			<stop  offset="0.8552" style="stop-color:#B9BBBD"/>
			<stop  offset="0.9385" style="stop-color:#9EA3A6"/>
			<stop  offset="0.9821" style="stop-color:#A8A9A9"/>
		</linearGradient>
		<path style="fill:url(#Calculate_Background_SVGID_00000053533803583117839820000012487386711408849567_);" d="M10.5,0H9.2C6.7,0,4.7,2,4.7,4.4v246.2
			c0,2.4,2,4.4,4.5,4.4h1.3V0z"/>
	</g>
</g>
<g id="레이어_5">
</g>
<g id="문제화면판_x28_가로형_x29_">
</g>
<g id="시계">
</g>
</svg>
