<?xml version="1.0" encoding="utf-8"?>
<!-- Generator: Adobe Illustrator 26.0.0, SVG Export Plug-In . SVG Version: 6.00 Build 0)  -->
<svg version="1.0" id="P015" xmlns="http://www.w3.org/2000/svg" xmlns:xlink="http://www.w3.org/1999/xlink" x="0px" y="0px"
	 width="35.8px" height="35.8px" viewBox="0 0 35.8 35.8" style="enable-background:new 0 0 35.8 35.8;" xml:space="preserve">
<style type="text/css">
	.st0{fill:url(#ResetButton_Press_SVGID_1_);}
	.st1{fill:url(#ResetButton_Press_SVGID_00000153682842389930280890000003927934281619236771_);}
	.st2{fill:url(#ResetButton_Press_SVGID_00000070108885298768134950000014521399986343143865_);}
	.st3{opacity:0.3;fill:url(#ResetButton_Press_SVGID_00000026163090743527114750000012258516811800433042_);}
	.st4{fill:url(#ResetButton_Press_SVGID_00000097495256503773455460000016881353124397422772_);}
	.st5{fill:url(#ResetButton_Press_SVGID_00000120519200105579401850000005192687533719243951_);}
	.st6{fill:url(#ResetButton_Press_SVGID_00000098931586807113472840000010123756089786041751_);}
	.st7{opacity:0.3;fill:url(#ResetButton_Press_SVGID_00000034779130899013539820000001090172207271204273_);}
	.st8{fill:url(#ResetButton_Press_SVGID_00000006670405518247077550000003548265245641086138_);}
	.st9{fill:url(#ResetButton_Press_SVGID_00000034092031551861370940000005893344699071160453_);}
	.st10{fill:url(#ResetButton_Press_SVGID_00000128469678379723112270000004936996482432414116_);}
	.st11{opacity:0.3;fill:url(#ResetButton_Press_SVGID_00000163062364472461249930000009024866979615102098_);}
	.st12{fill:#828688;}
	.st13{fill:url(#ResetButton_Press_SVGID_00000026162923369445681370000004720968383070706356_);}
	.st14{fill:url(#ResetButton_Press_SVGID_00000075845531911246908450000005559868781669766308_);}
	.st15{fill:url(#ResetButton_Press_SVGID_00000073722016512457971400000000342954153232298397_);}
	.st16{opacity:0.3;fill:url(#ResetButton_Press_SVGID_00000075142932625349383960000013667311563038876324_);}
	.st17{fill:#1C7C6A;}
	.st18{fill:url(#ResetButton_Press_SVGID_00000163059440840648106820000006449106562935524519_);}
	.st19{fill:url(#ResetButton_Press_SVGID_00000178895606030744003800000017467398200348269454_);}
	.st20{fill:url(#ResetButton_Press_SVGID_00000111872780182384533420000002658736714140089496_);}
	.st21{opacity:0.3;fill:url(#ResetButton_Press_SVGID_00000078727435615902339750000007782093034565263768_);}
	.st22{fill:url(#ResetButton_Press_SVGID_00000172398467253366772050000000542174291912886704_);}
	.st23{fill:url(#ResetButton_Press_SVGID_00000160175069133306741130000013563864119134787464_);}
	.st24{fill:url(#ResetButton_Press_SVGID_00000114053364848110019990000016446564847269393578_);}
	.st25{opacity:0.3;fill:url(#ResetButton_Press_SVGID_00000175294729608401407970000006675704341250179519_);}
	.st26{fill:url(#ResetButton_Press_SVGID_00000090252876903000574700000016997086042923028621_);}
	.st27{fill:url(#ResetButton_Press_SVGID_00000152229205510404511860000010999348655692560780_);}
	.st28{opacity:0.64;fill:url(#ResetButton_Press_SVGID_00000132077287650134120800000013877448965194647460_);}
	.st29{fill:url(#ResetButton_Press_SVGID_00000074409907589294432710000004548508558371009968_);}
	.st30{opacity:0;fill:#FFFFFF;}
	.st31{opacity:2.857143e-02;fill:#FDFDFD;}
	.st32{opacity:5.714286e-02;fill:#FAFAFA;}
	.st33{opacity:8.571429e-02;fill:#F8F8F8;}
	.st34{opacity:0.1143;fill:#F5F6F6;}
	.st35{opacity:0.1429;fill:#F3F3F4;}
	.st36{opacity:0.1714;fill:#F0F1F1;}
	.st37{opacity:0.2;fill:#EEEFEF;}
	.st38{opacity:0.2286;fill:#ECECED;}
	.st39{opacity:0.2571;fill:#E9EAEB;}
	.st40{opacity:0.2857;fill:#E7E8E8;}
	.st41{opacity:0.3143;fill:#E4E6E6;}
	.st42{opacity:0.3429;fill:#E2E3E4;}
	.st43{opacity:0.3714;fill:#DFE1E2;}
	.st44{opacity:0.4;fill:#DDDFDF;}
	.st45{opacity:0.4286;fill:#DBDCDD;}
	.st46{opacity:0.4571;fill:#D8DADB;}
	.st47{opacity:0.4857;fill:#D6D8D9;}
	.st48{opacity:0.5143;fill:#D3D5D6;}
	.st49{opacity:0.5429;fill:#D1D3D4;}
	.st50{opacity:0.5714;fill:#CED1D2;}
	.st51{opacity:0.6;fill:#CCCED0;}
	.st52{opacity:0.6286;fill:#CACCCD;}
	.st53{opacity:0.6571;fill:#C7CACB;}
	.st54{opacity:0.6857;fill:#C5C7C9;}
	.st55{opacity:0.7143;fill:#C2C5C7;}
	.st56{opacity:0.7429;fill:#C0C3C4;}
	.st57{opacity:0.7714;fill:#BDC1C2;}
	.st58{opacity:0.8;fill:#BBBEC0;}
	.st59{opacity:0.8286;fill:#B9BCBE;}
	.st60{opacity:0.8571;fill:#B6BABB;}
	.st61{opacity:0.8857;fill:#B4B7B9;}
	.st62{opacity:0.9143;fill:#B1B5B7;}
	.st63{opacity:0.9429;fill:#AFB3B5;}
	.st64{opacity:0.9714;fill:#ACB0B2;}
	.st65{fill:#AAAEB0;}
	.st66{fill:url(#ResetButton_Press_SVGID_00000015337577556750604530000007153603931318181791_);}
	.st67{fill:url(#ResetButton_Press_SVGID_00000116932344639243864800000006728209434870227075_);}
	.st68{fill:url(#ResetButton_Press_SVGID_00000012451361818871036580000017441813437527834302_);}
	.st69{fill:none;}
	.st70{fill:url(#ResetButton_Press_SVGID_00000088122065137668477620000000894192174955029949_);}
	.st71{fill:#5B5B5B;}
	.st72{fill:#777777;}
	.st73{fill:#444444;}
	.st74{opacity:7.000000e-02;fill:#FFFFFF;}
	.st75{fill:#878787;}
	.st76{fill:#FFFFFF;}
	.st77{fill:#37474F;}
	.st78{opacity:0.47;fill:#666666;}
	.st79{opacity:0.47;fill:#A0A0A0;}
	.st80{fill:url(#ResetButton_Press_SVGID_00000163051377287578319280000002890140841933896585_);}
	.st81{fill:#8C8C8C;}
	.st82{opacity:0.42;fill:#898989;}
	.st83{fill:#0DA5A8;}
	.st84{fill:#E6F3F4;}
	.st85{fill:none;stroke:#0097A3;stroke-width:2;stroke-miterlimit:10;}
	.st86{fill:#39BCBC;}
	.st87{fill:#0B6D6A;}
	.st88{fill:url(#ResetButton_Press_SVGID_00000052819118420143328020000013950796361252110245_);}
	.st89{opacity:0.13;fill:url(#ResetButton_Press_SVGID_00000027601119458210714300000006446495090716036262_);}
	.st90{fill:#161206;}
	.st91{opacity:0.21;fill:url(#ResetButton_Press_SVGID_00000057828862070702645060000005433122328875378855_);}
	.st92{opacity:0.38;fill:url(#ResetButton_Press_SVGID_00000142866634492642923640000000543371458858426010_);}
	.st93{opacity:0.64;fill:#14121E;}
	.st94{fill:#A37714;}
	.st95{opacity:0.15;fill:url(#ResetButton_Press_SVGID_00000067235393205157186720000006070443218148023995_);}
	.st96{fill:#7F7F7F;}
	.st97{fill:none;stroke:#7F7F7F;stroke-width:15;stroke-miterlimit:10;}
	.st98{fill:#A5A5A5;}
	.st99{fill:#E8BE60;}
	.st100{fill:#B28D42;}
	.st101{opacity:0.45;}
	.st102{fill:#A9ADAA;}
	.st103{fill:#424242;}
	.st104{fill:#7A7A7A;}
	.st105{fill:#4C5356;}
	.st106{fill:#278282;}
	.st107{fill:#2F969B;}
	.st108{opacity:0.52;fill:#283033;}
	.st109{fill:url(#ResetButton_Press_SVGID_00000154399982519753269390000005510643297168019843_);}
	.st110{opacity:0.77;fill:url(#ResetButton_Press_SVGID_00000035519379167853612930000000887683254889424048_);}
	.st111{fill:url(#ResetButton_Press_SVGID_00000179621603237793110200000007627265384212638109_);}
	.st112{opacity:0.77;fill:url(#ResetButton_Press_SVGID_00000047021883547507821550000008730870948880771718_);}
	.st113{opacity:0.77;fill:url(#ResetButton_Press_SVGID_00000085960476864172957160000015781876564130972833_);}
	.st114{opacity:0.2;}
	.st115{fill:#2E2E2E;}
	.st116{fill:url(#ResetButton_Press_SVGID_00000140701007111858662320000008392680630705270179_);}
	.st117{opacity:0.77;}
	.st118{fill:url(#ResetButton_Press_SVGID_00000170985329527985206890000017150342895506251959_);}
	.st119{fill:#FFD81A;}
	.st120{fill:#FFB127;}
	.st121{fill:#FFC136;}
	.st122{fill:#FFF794;}
	.st123{opacity:0.4;fill:#FFB127;}
	.st124{fill:url(#ResetButton_Press_SVGID_00000115478025105567623090000006180746759519417490_);}
	.st125{fill:url(#ResetButton_Press_SVGID_00000091017195530294002170000014002987270926894241_);}
	.st126{fill:#F6B90E;}
	.st127{fill:#22BFBF;}
	.st128{fill:#333333;}
	.st129{fill:#F1F1F1;}
	.st130{fill:#1A1A1A;}
	.st131{fill:#199992;}
	.st132{fill:#F4EEE4;}
	.st133{opacity:0.24;}
</style>
<g id="휴지통버튼_x28_눌림_x29_">
	<g>
		<linearGradient id="ResetButton_Press_SVGID_1_" gradientUnits="userSpaceOnUse" x1="17.8915" y1="-6.0939" x2="17.8915" y2="42.3963">
			<stop  offset="0" style="stop-color:#006A62"/>
			<stop  offset="0.1137" style="stop-color:#007969"/>
			<stop  offset="0.5187" style="stop-color:#00AA81"/>
			<stop  offset="0.8269" style="stop-color:#00C990"/>
			<stop  offset="1" style="stop-color:#00D496"/>
		</linearGradient>
		<path class="st0" d="M35.8,17.9c0,9.9-8,17.9-17.9,17.9C8,35.8,0,27.8,0,17.9C0,8,8,0,17.9,0C27.8,0,35.8,8,35.8,17.9z"/>
		
			<radialGradient id="ResetButton_Press_SVGID_00000057110135151570923890000014094180664280588705_" cx="17.8915" cy="17.8911" r="16.0509" gradientUnits="userSpaceOnUse">
			<stop  offset="0.8194" style="stop-color:#797D80"/>
			<stop  offset="1" style="stop-color:#FFFFFF"/>
		</radialGradient>
		<path style="fill:url(#ResetButton_Press_SVGID_00000057110135151570923890000014094180664280588705_);" d="M33.9,17.9c0,8.9-7.2,16.1-16.1,16.1
			C9,33.9,1.8,26.8,1.8,17.9S9,1.8,17.9,1.8C26.8,1.8,33.9,9,33.9,17.9z"/>
		
			<linearGradient id="ResetButton_Press_SVGID_00000054957396425061385710000000257603926348866972_" gradientUnits="userSpaceOnUse" x1="17.8915" y1="52.189" x2="17.8915" y2="-61.9567">
			<stop  offset="1.785710e-02" style="stop-color:#AAABAB"/>
			<stop  offset="0.2004" style="stop-color:#A0A5A8"/>
			<stop  offset="0.8472" style="stop-color:#D0D0D0"/>
			<stop  offset="1" style="stop-color:#A8A8A8"/>
		</linearGradient>
		<path style="fill:url(#ResetButton_Press_SVGID_00000054957396425061385710000000257603926348866972_);" d="M32.4,17.9c0,8-6.5,14.5-14.5,14.5
			c-8,0-14.5-6.5-14.5-14.5S9.9,3.4,17.9,3.4C25.9,3.4,32.4,9.9,32.4,17.9z"/>
		
			<linearGradient id="ResetButton_Press_SVGID_00000142161112499750286130000008841415703919504522_" gradientUnits="userSpaceOnUse" x1="17.8915" y1="52.2345" x2="17.8915" y2="-6.4221">
			<stop  offset="1.785710e-02" style="stop-color:#AAABAB"/>
			<stop  offset="0.2004" style="stop-color:#A0A5A8"/>
			<stop  offset="0.8472" style="stop-color:#D0D0D0"/>
			<stop  offset="1" style="stop-color:#A8A8A8"/>
		</linearGradient>
		<path style="opacity:0.3;fill:url(#ResetButton_Press_SVGID_00000142161112499750286130000008841415703919504522_);" d="M17.9,4.2
			c7.9,0,14.2,6.3,14.4,14.1c0-0.1,0-0.3,0-0.4c0-8-6.5-14.5-14.5-14.5c-8,0-14.5,6.5-14.5,14.5c0,0.1,0,0.3,0,0.4
			C3.7,10.5,10,4.2,17.9,4.2z"/>
	</g>
	<g>
		<path class="st17" d="M10.6,18.9c0-1.6,0-3.2,0-4.8c0-0.5,0.3-0.9,0.7-0.9c0.5-0.1,1,0.3,1,0.8c0,0.1,0,0.2,0,0.2
			c0,3.2,0,6.3,0,9.5c0,1,0.7,1.7,1.7,1.7c2.3,0,4.7,0,7,0c1,0,1.7-0.7,1.7-1.7c0-3.2,0-6.4,0-9.6c0-0.5,0.3-0.8,0.6-0.9
			c0.5-0.1,1,0.2,1.1,0.7c0,0.1,0,0.2,0,0.3c0,3.2,0,6.3,0,9.5c0,1.7-1.2,3.1-2.9,3.4c-0.2,0-0.4,0.1-0.6,0.1c-2.3,0-4.7,0-7,0
			c-2,0-3.5-1.5-3.5-3.5C10.6,22,10.6,20.5,10.6,18.9z"/>
		<path class="st17" d="M14.1,10.5c0-0.6,0-1.1,0-1.6c0-0.1,0-0.2,0-0.4c0.1-0.4,0.4-0.6,0.9-0.6c1.7,0,3.5,0,5.2,0
			c0.5,0,0.9,0.4,0.9,0.9c0,0.5,0,1,0,1.5c0,0.1,0,0.1,0,0.3c0.1,0,0.2,0,0.3,0c1.1,0,2.1,0,3.2,0c0.3,0,0.5,0.1,0.7,0.3
			c0.2,0.3,0.3,0.6,0.2,0.9c-0.1,0.3-0.4,0.5-0.8,0.5c0,0-0.1,0-0.1,0c-4.6,0-9.2,0-13.8,0c-0.5,0-0.9-0.3-1-0.8
			c0-0.5,0.4-0.9,0.9-0.9c1.1,0,2.1,0,3.2,0C13.9,10.5,14,10.5,14.1,10.5z M15.9,10.5c1.2,0,2.3,0,3.5,0c0-0.3,0-0.6,0-0.8
			c-1.2,0-2.3,0-3.5,0C15.9,9.9,15.9,10.2,15.9,10.5z"/>
		<path class="st17" d="M15,18.8c0-1,0-2,0-3.1c0-0.4,0.3-0.8,0.7-0.9c0.4-0.1,0.8,0.1,0.9,0.5c0.1,0.1,0.1,0.3,0.1,0.4c0,2,0,4,0,6
			c0,0.5-0.4,0.9-0.9,0.9c-0.5,0-0.9-0.4-0.9-0.9C15,20.8,15,19.8,15,18.8z"/>
		<path class="st17" d="M20.2,18.8c0,1,0,2,0,3.1c0,0.4-0.3,0.7-0.6,0.9c-0.4,0.1-0.8,0-1-0.4c-0.1-0.1-0.1-0.3-0.1-0.5c0-2,0-4,0-6
			c0-0.5,0.4-0.9,0.9-0.9c0.5,0,0.9,0.4,0.9,0.9C20.2,16.8,20.2,17.8,20.2,18.8z"/>
	</g>
</g>
<g id="레이어_5">
</g>
<g id="문제화면판_x28_가로형_x29_">
</g>
<g id="시계">
</g>
</svg>
