<?xml version="1.0" encoding="utf-8"?>
<!-- Generator: Adobe Illustrator 26.0.0, SVG Export Plug-In . SVG Version: 6.00 Build 0)  -->
<svg version="1.0" id="P015" xmlns="http://www.w3.org/2000/svg" xmlns:xlink="http://www.w3.org/1999/xlink" x="0px" y="0px"
	 width="35.8px" height="35.8px" viewBox="0 0 35.8 35.8" style="enable-background:new 0 0 35.8 35.8;" xml:space="preserve">
<style type="text/css">
	.st0{fill:url(#ResetButton_Basic_SVGID_1_);}
	.st1{fill:url(#ResetButton_Basic_SVGID_00000111168966189719101420000010229248403074374078_);}
	.st2{fill:url(#ResetButton_Basic_SVGID_00000126290114958369001230000013338023683693188742_);}
	.st3{opacity:0.3;fill:url(#ResetButton_Basic_SVGID_00000177471213094976524220000009713971174061478053_);}
	.st4{fill:url(#ResetButton_Basic_SVGID_00000072250382278721247220000012151684241872549252_);}
	.st5{fill:url(#ResetButton_Basic_SVGID_00000107586338452477040200000003831967251715042972_);}
	.st6{fill:url(#ResetButton_Basic_SVGID_00000158023746955746854640000005501220852911596693_);}
	.st7{opacity:0.3;fill:url(#ResetButton_Basic_SVGID_00000125597956088672354110000016743536241414491301_);}
	.st8{fill:url(#ResetButton_Basic_SVGID_00000021079947583745924070000006681440313792679351_);}
	.st9{fill:url(#ResetButton_Basic_SVGID_00000091704926446965540200000012859099431460535475_);}
	.st10{fill:url(#ResetButton_Basic_SVGID_00000183940220005612197140000017217156287755965369_);}
	.st11{opacity:0.3;fill:url(#ResetButton_Basic_SVGID_00000178921311067513188740000009688396194297369261_);}
	.st12{fill:#828688;}
	.st13{fill:url(#ResetButton_Basic_SVGID_00000054975321138393846900000006404853214910933947_);}
	.st14{fill:url(#ResetButton_Basic_SVGID_00000096034334037424320300000012923075615755786638_);}
	.st15{fill:url(#ResetButton_Basic_SVGID_00000181796780737990104730000009965519806237824432_);}
	.st16{opacity:0.3;fill:url(#ResetButton_Basic_SVGID_00000127739211028672104870000011613680786935300256_);}
	.st17{fill:#1C7C6A;}
	.st18{fill:url(#ResetButton_Basic_SVGID_00000178179352491007021230000008763253578511630782_);}
	.st19{fill:url(#ResetButton_Basic_SVGID_00000177479545527000673000000014119573533753262210_);}
	.st20{fill:url(#ResetButton_Basic_SVGID_00000006668979250531165980000010644742324629573274_);}
	.st21{opacity:0.3;fill:url(#ResetButton_Basic_SVGID_00000069368821642029613720000000619380122241096892_);}
	.st22{fill:url(#ResetButton_Basic_SVGID_00000148659483752797830160000014946274462732134567_);}
	.st23{fill:url(#ResetButton_Basic_SVGID_00000170989326085678857450000011749143136878823043_);}
	.st24{fill:url(#ResetButton_Basic_SVGID_00000002358617345978951340000013073913272095216052_);}
	.st25{opacity:0.3;fill:url(#ResetButton_Basic_SVGID_00000077325580213113310830000011407227187154125234_);}
	.st26{fill:url(#ResetButton_Basic_SVGID_00000158018402692086103570000002824545409174374551_);}
	.st27{fill:url(#ResetButton_Basic_SVGID_00000095330533782666562660000015307636529149972626_);}
	.st28{opacity:0.64;fill:url(#ResetButton_Basic_SVGID_00000075120410380845817830000003928186384722125229_);}
	.st29{fill:url(#ResetButton_Basic_SVGID_00000116944238112936100410000012599709066695226006_);}
	.st30{opacity:0;fill:#FFFFFF;}
	.st31{opacity:2.857143e-02;fill:#FDFDFD;}
	.st32{opacity:5.714286e-02;fill:#FAFAFA;}
	.st33{opacity:8.571429e-02;fill:#F8F8F8;}
	.st34{opacity:0.1143;fill:#F5F6F6;}
	.st35{opacity:0.1429;fill:#F3F3F4;}
	.st36{opacity:0.1714;fill:#F0F1F1;}
	.st37{opacity:0.2;fill:#EEEFEF;}
	.st38{opacity:0.2286;fill:#ECECED;}
	.st39{opacity:0.2571;fill:#E9EAEB;}
	.st40{opacity:0.2857;fill:#E7E8E8;}
	.st41{opacity:0.3143;fill:#E4E6E6;}
	.st42{opacity:0.3429;fill:#E2E3E4;}
	.st43{opacity:0.3714;fill:#DFE1E2;}
	.st44{opacity:0.4;fill:#DDDFDF;}
	.st45{opacity:0.4286;fill:#DBDCDD;}
	.st46{opacity:0.4571;fill:#D8DADB;}
	.st47{opacity:0.4857;fill:#D6D8D9;}
	.st48{opacity:0.5143;fill:#D3D5D6;}
	.st49{opacity:0.5429;fill:#D1D3D4;}
	.st50{opacity:0.5714;fill:#CED1D2;}
	.st51{opacity:0.6;fill:#CCCED0;}
	.st52{opacity:0.6286;fill:#CACCCD;}
	.st53{opacity:0.6571;fill:#C7CACB;}
	.st54{opacity:0.6857;fill:#C5C7C9;}
	.st55{opacity:0.7143;fill:#C2C5C7;}
	.st56{opacity:0.7429;fill:#C0C3C4;}
	.st57{opacity:0.7714;fill:#BDC1C2;}
	.st58{opacity:0.8;fill:#BBBEC0;}
	.st59{opacity:0.8286;fill:#B9BCBE;}
	.st60{opacity:0.8571;fill:#B6BABB;}
	.st61{opacity:0.8857;fill:#B4B7B9;}
	.st62{opacity:0.9143;fill:#B1B5B7;}
	.st63{opacity:0.9429;fill:#AFB3B5;}
	.st64{opacity:0.9714;fill:#ACB0B2;}
	.st65{fill:#AAAEB0;}
	.st66{fill:url(#ResetButton_Basic_SVGID_00000024687680308308988700000015199298629284694437_);}
	.st67{fill:url(#ResetButton_Basic_SVGID_00000110435321605339062530000003450600418879215764_);}
	.st68{fill:url(#ResetButton_Basic_SVGID_00000077299554435280171300000003625763973676875939_);}
	.st69{fill:none;}
	.st70{fill:url(#ResetButton_Basic_SVGID_00000166666849482440979090000016072303496439094670_);}
	.st71{fill:#5B5B5B;}
	.st72{fill:#777777;}
	.st73{fill:#444444;}
	.st74{opacity:7.000000e-02;fill:#FFFFFF;}
	.st75{fill:#878787;}
	.st76{fill:#FFFFFF;}
	.st77{fill:#37474F;}
	.st78{opacity:0.47;fill:#666666;}
	.st79{opacity:0.47;fill:#A0A0A0;}
	.st80{fill:url(#ResetButton_Basic_SVGID_00000016040784125259725650000017641680118615574931_);}
	.st81{fill:#8C8C8C;}
	.st82{opacity:0.42;fill:#898989;}
	.st83{fill:#0DA5A8;}
	.st84{fill:#E6F3F4;}
	.st85{fill:none;stroke:#0097A3;stroke-width:2;stroke-miterlimit:10;}
	.st86{fill:#39BCBC;}
	.st87{fill:#0B6D6A;}
	.st88{fill:url(#ResetButton_Basic_SVGID_00000163074368214038876140000015747509151122579098_);}
	.st89{opacity:0.13;fill:url(#ResetButton_Basic_SVGID_00000062873506147828220370000018378047825901039502_);}
	.st90{fill:#161206;}
	.st91{opacity:0.21;fill:url(#ResetButton_Basic_SVGID_00000050626571965268514610000011433857646309441162_);}
	.st92{opacity:0.38;fill:url(#ResetButton_Basic_SVGID_00000046310828471910845340000003077412920041513864_);}
	.st93{opacity:0.64;fill:#14121E;}
	.st94{fill:#A37714;}
	.st95{opacity:0.15;fill:url(#ResetButton_Basic_SVGID_00000130631379753190569380000013192914307836329398_);}
	.st96{fill:#7F7F7F;}
	.st97{fill:none;stroke:#7F7F7F;stroke-width:15;stroke-miterlimit:10;}
	.st98{fill:#A5A5A5;}
	.st99{fill:#E8BE60;}
	.st100{fill:#B28D42;}
	.st101{opacity:0.45;}
	.st102{fill:#A9ADAA;}
	.st103{fill:#424242;}
	.st104{fill:#7A7A7A;}
	.st105{fill:#4C5356;}
	.st106{fill:#278282;}
	.st107{fill:#2F969B;}
	.st108{opacity:0.52;fill:#283033;}
	.st109{fill:url(#ResetButton_Basic_SVGID_00000025413034933340711560000001011755524948543375_);}
	.st110{opacity:0.77;fill:url(#ResetButton_Basic_SVGID_00000166644242902243544160000018329301888197652110_);}
	.st111{fill:url(#ResetButton_Basic_SVGID_00000049197743392331463030000007890067741059061427_);}
	.st112{opacity:0.77;fill:url(#ResetButton_Basic_SVGID_00000139996311111326559960000006362592405246951321_);}
	.st113{opacity:0.77;fill:url(#ResetButton_Basic_SVGID_00000091711566957304045070000009973486840578598846_);}
	.st114{opacity:0.2;}
	.st115{fill:#2E2E2E;}
	.st116{fill:url(#ResetButton_Basic_SVGID_00000027578715812545992140000008681854824374090685_);}
	.st117{opacity:0.77;}
	.st118{fill:url(#ResetButton_Basic_SVGID_00000008145264373285271500000002024779358284086185_);}
	.st119{fill:#FFD81A;}
	.st120{fill:#FFB127;}
	.st121{fill:#FFC136;}
	.st122{fill:#FFF794;}
	.st123{opacity:0.4;fill:#FFB127;}
	.st124{fill:url(#ResetButton_Basic_SVGID_00000034077336744153751540000000836155079830605185_);}
	.st125{fill:url(#ResetButton_Basic_SVGID_00000090259886511670192960000007613058908205734790_);}
	.st126{fill:#F6B90E;}
	.st127{fill:#22BFBF;}
	.st128{fill:#333333;}
	.st129{fill:#F1F1F1;}
	.st130{fill:#1A1A1A;}
	.st131{fill:#199992;}
	.st132{fill:#F4EEE4;}
	.st133{opacity:0.24;}
</style>
<g id="휴지통버튼">
	<g>
		<linearGradient id="ResetButton_Basic_SVGID_1_" gradientUnits="userSpaceOnUse" x1="17.8915" y1="-6.0939" x2="17.8915" y2="42.3963">
			<stop  offset="0.2004" style="stop-color:#667178"/>
			<stop  offset="0.8472" style="stop-color:#D0D0D0"/>
			<stop  offset="1" style="stop-color:#A8A8A8"/>
		</linearGradient>
		<path class="st0" d="M35.8,17.9c0,9.9-8,17.9-17.9,17.9C8,35.8,0,27.8,0,17.9C0,8,8,0,17.9,0C27.8,0,35.8,8,35.8,17.9z"/>
		
			<radialGradient id="ResetButton_Basic_SVGID_00000148660548141345464440000007236335846129441939_" cx="17.8915" cy="17.8911" r="16.0509" gradientUnits="userSpaceOnUse">
			<stop  offset="0.8194" style="stop-color:#797D80"/>
			<stop  offset="1" style="stop-color:#FFFFFF"/>
		</radialGradient>
		<path style="fill:url(#ResetButton_Basic_SVGID_00000148660548141345464440000007236335846129441939_);" d="M33.9,17.9c0,8.9-7.2,16.1-16.1,16.1
			C9,33.9,1.8,26.8,1.8,17.9S9,1.8,17.9,1.8C26.8,1.8,33.9,9,33.9,17.9z"/>
		
			<linearGradient id="ResetButton_Basic_SVGID_00000127005919076246891760000007014718669155096991_" gradientUnits="userSpaceOnUse" x1="17.8915" y1="52.189" x2="17.8915" y2="-61.9567">
			<stop  offset="1.785710e-02" style="stop-color:#AAABAB"/>
			<stop  offset="0.2004" style="stop-color:#A0A5A8"/>
			<stop  offset="0.8472" style="stop-color:#D0D0D0"/>
			<stop  offset="1" style="stop-color:#A8A8A8"/>
		</linearGradient>
		<path style="fill:url(#ResetButton_Basic_SVGID_00000127005919076246891760000007014718669155096991_);" d="M32.4,17.9c0,8-6.5,14.5-14.5,14.5
			c-8,0-14.5-6.5-14.5-14.5S9.9,3.4,17.9,3.4C25.9,3.4,32.4,9.9,32.4,17.9z"/>
		
			<linearGradient id="ResetButton_Basic_SVGID_00000044881308484865544340000002521601759588668812_" gradientUnits="userSpaceOnUse" x1="17.8915" y1="52.2345" x2="17.8915" y2="-6.4221">
			<stop  offset="1.785710e-02" style="stop-color:#AAABAB"/>
			<stop  offset="0.2004" style="stop-color:#A0A5A8"/>
			<stop  offset="0.8472" style="stop-color:#D0D0D0"/>
			<stop  offset="1" style="stop-color:#A8A8A8"/>
		</linearGradient>
		<path style="opacity:0.3;fill:url(#ResetButton_Basic_SVGID_00000044881308484865544340000002521601759588668812_);" d="M17.9,4.2
			c7.9,0,14.2,6.3,14.4,14.1c0-0.1,0-0.3,0-0.4c0-8-6.5-14.5-14.5-14.5c-8,0-14.5,6.5-14.5,14.5c0,0.1,0,0.3,0,0.4
			C3.7,10.5,10,4.2,17.9,4.2z"/>
	</g>
	<g>
		<path class="st12" d="M10.6,18.9c0-1.6,0-3.2,0-4.8c0-0.5,0.3-0.9,0.7-0.9c0.5-0.1,1,0.3,1,0.8c0,0.1,0,0.2,0,0.2
			c0,3.2,0,6.3,0,9.5c0,1,0.7,1.7,1.7,1.7c2.3,0,4.7,0,7,0c1,0,1.7-0.7,1.7-1.7c0-3.2,0-6.4,0-9.6c0-0.5,0.3-0.8,0.6-0.9
			c0.5-0.1,1,0.2,1.1,0.7c0,0.1,0,0.2,0,0.3c0,3.2,0,6.3,0,9.5c0,1.7-1.2,3.1-2.9,3.4c-0.2,0-0.4,0.1-0.6,0.1c-2.3,0-4.7,0-7,0
			c-2,0-3.5-1.5-3.5-3.5C10.6,22,10.6,20.5,10.6,18.9z"/>
		<path class="st12" d="M14.1,10.5c0-0.6,0-1.1,0-1.6c0-0.1,0-0.2,0-0.4c0.1-0.4,0.4-0.6,0.9-0.6c1.7,0,3.5,0,5.2,0
			c0.5,0,0.9,0.4,0.9,0.9c0,0.5,0,1,0,1.5c0,0.1,0,0.1,0,0.3c0.1,0,0.2,0,0.3,0c1.1,0,2.1,0,3.2,0c0.3,0,0.5,0.1,0.7,0.3
			c0.2,0.3,0.3,0.6,0.2,0.9c-0.1,0.3-0.4,0.5-0.8,0.5c0,0-0.1,0-0.1,0c-4.6,0-9.2,0-13.8,0c-0.5,0-0.9-0.3-1-0.8
			c0-0.5,0.4-0.9,0.9-0.9c1.1,0,2.1,0,3.2,0C13.9,10.5,14,10.5,14.1,10.5z M15.9,10.5c1.2,0,2.3,0,3.5,0c0-0.3,0-0.6,0-0.8
			c-1.2,0-2.3,0-3.5,0C15.9,9.9,15.9,10.2,15.9,10.5z"/>
		<path class="st12" d="M15,18.8c0-1,0-2,0-3.1c0-0.4,0.3-0.8,0.7-0.9c0.4-0.1,0.8,0.1,0.9,0.5c0.1,0.1,0.1,0.3,0.1,0.4c0,2,0,4,0,6
			c0,0.5-0.4,0.9-0.9,0.9c-0.5,0-0.9-0.4-0.9-0.9C15,20.8,15,19.8,15,18.8z"/>
		<path class="st12" d="M20.2,18.8c0,1,0,2,0,3.1c0,0.4-0.3,0.7-0.6,0.9c-0.4,0.1-0.8,0-1-0.4c-0.1-0.1-0.1-0.3-0.1-0.5c0-2,0-4,0-6
			c0-0.5,0.4-0.9,0.9-0.9c0.5,0,0.9,0.4,0.9,0.9C20.2,16.8,20.2,17.8,20.2,18.8z"/>
	</g>
</g>
<g id="레이어_5">
</g>
<g id="문제화면판_x28_가로형_x29_">
</g>
<g id="시계">
</g>
</svg>
