<?xml version="1.0" encoding="utf-8"?>
<!-- Generator: Adobe Illustrator 25.3.1, SVG Export Plug-In . SVG Version: 6.00 Build 0)  -->
<svg version="1.0" id="레이어_1" xmlns="http://www.w3.org/2000/svg" xmlns:xlink="http://www.w3.org/1999/xlink" x="0px"
	 y="0px" width="33px" height="33px" viewBox="0 0 33 33" style="enable-background:new 0 0 33 33;" xml:space="preserve">
<style type="text/css">
	.st0{fill:#E16A0E;}
	.st1{fill:#FFFFFF;}
</style>
<g id="그룹_73" transform="translate(477.271 217.862)">
	<path id="패스_142" class="st0" d="M-445-192.6l-2.1-2.1l1.1-1.1l-20.9-20.9l-10.5-1.3l1.2,10.5l20.9,20.9l1.1-1.1l2.1,2.1
		c1.1,1,2.8,0.9,3.8-0.2l3.1-3.1C-444-189.8-444-191.5-445-192.6L-445-192.6z"/>
	<path id="패스_143" class="st1" d="M-475.1-212.7l3-3l3.9,0.5l-6.4,6.4L-475.1-212.7z"/>
	<path id="사각형_32" class="st1" d="M-450.6-198l2.5,2.5l-6.8,6.8l-2.5-2.5L-450.6-198z"/>
</g>
</svg>
