<svg xmlns="http://www.w3.org/2000/svg" width="50" height="52" viewBox="0 0 50 52">
    <defs>
        <style>
            .next_cls-1{fill:#fff}
        </style>
    </defs>
    <g id="그룹_420" transform="translate(-237.786 -105.398)">
        <g id="그룹_419">
            <g id="그룹_416">
                <rect id="사각형_198" width="50" height="50" fill="#e56d00" rx="10" transform="translate(237.786 107.205)"/>
                <rect id="사각형_199" width="50" height="50" fill="#ff931e" rx="10" transform="translate(237.786 105.398)"/>
            </g>
            <g id="그룹_418">
                <g id="그룹_417">
                    <path id="패스_461" d="M256.275 135.287c0 .36-.125.468-.5.486l-7.291.18c-.379.018-.506-.126-.506-.486l-.18-12.279c0-.361.127-.487.5-.487l7.852-.179c.377 0 .5.125.5.485v1.117c0 .359-.126.485-.5.485l-6.069.145.127 9.074 5.563-.143c.379-.019.5.126.5.486zm4.574-5.132v4.772c0 .36-.127.486-.5.486h-1.262c-.377 0-.5-.126-.5-.486v-11.56c0-.36.127-.486.5-.486h1.262c.377 0 .5.126.5.486v4.7l1.349-.053c.342-.018.452.09.452.467v1.153c0 .379-.11.45-.452.469z" class="next_cls-1"/>
                    <path id="패스_462" d="M276.183 130.335c.344 0 .451.091.451.469v1.116c0 .414-.127.5-.432.5l-11.164.181c-.306 0-.431-.091-.431-.5v-1.117c0-.378.107-.467.449-.467zm-10.317 8.571c-.379 0-.486-.126-.5-.486l-.162-4.268c-.017-.36.125-.486.5-.486l9.85-.18c.377 0 .521.126.5.487l-.162 4.266c-.018.361-.127.487-.5.487zm-.252-13.486c0-2.539 2-4.016 5.006-4.016 3.026 0 5.006 1.477 5.006 4.016s-1.98 4.016-5.006 4.016c-3.008 0-5.006-1.477-5.006-4.016zm1.963 11.541l6.1-.107.055-1.423-6.213.108zm5.617-11.541c0-1.225-.863-2.017-2.574-2.017s-2.576.792-2.576 2.017.865 2.017 2.576 2.017 2.574-.792 2.574-2.017z" class="next_cls-1"/>
                </g>
            </g>
        </g>
        <path id="사각형_200" fill="none" d="M0 0H50V52H0z" transform="translate(237.786 105.398)"/>
    </g>
</svg>
