<svg xmlns="http://www.w3.org/2000/svg" width="50" height="52" viewBox="0 0 50 52">
    <defs>
        <style>
            .ok_cls-1{fill:#fff}
        </style>
    </defs>
    <g id="그룹_375" transform="translate(-1199 -194)">
        <g id="그룹_319" transform="translate(146.037 -397.89)">
            <g id="그룹_316">
                <rect id="사각형_168" width="50" height="50" fill="#59bf1d" rx="10" transform="translate(1052.963 593.698)"/>
                <rect id="사각형_169" width="50" height="50" fill="#9ae07d" rx="10" transform="translate(1052.963 591.892)"/>
            </g>
            <g id="그룹_318">
                <g id="그룹_317">
                    <path id="패스_330" d="M1066.464 608.96v-.882c0-.36.127-.486.5-.486h1.261c.377 0 .5.126.5.486v.828l3.186-.072c.344 0 .451.09.451.469v1.116c0 .414-.127.5-.432.5l-8.714.18c-.307 0-.432-.09-.432-.5v-1.117c0-.378.107-.467.449-.467zm.017 8.589v-.918c-2.214-.217-3.257-1.1-3.257-2.467 0-1.585 1.4-2.521 4.375-2.521s4.375.936 4.375 2.521c0 1.368-1.045 2.25-3.223 2.467v.864l3.223-.072c.341 0 .451.09.451.468v1.026c0 .414-.127.5-.434.5l-8.678.181c-.306 0-.431-.09-.431-.5v-1.027c0-.379.107-.468.449-.468zm6.987 7.85c-.377 0-.522-.126-.5-.486l.09-2.268-7.653.143c-.341 0-.449-.09-.449-.468v-1.152c0-.378.108-.469.449-.469l9.543-.179c.342 0 .469.089.451.468l-.162 3.925c-.019.36-.127.486-.5.486zm-4.051-11.235c0-.486-.541-.847-1.818-.847-1.3 0-1.819.361-1.819.847s.522.846 1.819.846c1.277 0 1.818-.36 1.818-.846zm4.34-4.664c0-.359.125-.485.5-.485h1.259c.379 0 .5.126.5.485v3.728l1.352-.054c.342-.019.449.09.449.468v1.116c0 .414-.125.486-.431.5l-1.37.054v3.763c0 .36-.125.486-.5.486h-1.259c-.379 0-.5-.126-.5-.486z" class="ok_cls-1"/>
                    <path id="패스_331" d="M1079.476 613.533a5.13 5.13 0 1 1 5.115 4.862 4.792 4.792 0 0 1-5.115-4.862zm7.976 0a2.855 2.855 0 1 0-2.861 2.774 2.654 2.654 0 0 0 2.861-2.774zm-3.762 11.867c-.379 0-.5-.126-.5-.486v-4.97c0-.36.125-.486.5-.486h1.26c.379 0 .5.126.5.486v3.331l7.832-.143c.342 0 .451.09.451.468v1.152c0 .378-.09.468-.433.468zm8.157-15.9c0-.359.125-.485.5-.485h1.259c.379 0 .5.126.5.485v9.4c0 .361-.125.487-.5.487h-1.259c-.379 0-.5-.126-.5-.487z" class="ok_cls-1"/>
                </g>
            </g>
        </g>
        <path id="사각형_182" fill="none" d="M0 0H50V52H0z" transform="translate(1199 194)"/>
    </g>
</svg>
