<?xml version="1.0" encoding="utf-8"?>
<!-- Generator: Adobe Illustrator 25.4.1, SVG Export Plug-In . SVG Version: 6.00 Build 0)  -->
<svg version="1.0" id="레이어_1" xmlns="http://www.w3.org/2000/svg" xmlns:xlink="http://www.w3.org/1999/xlink" x="0px"
	 y="0px" width="76px" height="89px" viewBox="0 0 76 89" style="enable-background:new 0 0 76 89;" xml:space="preserve">
<style type="text/css">
	.st0{fill:#E8AB00;}
	.st1{fill:#AF7123;}
	.st2{fill:#D1812A;}
	.st3{fill:#FACA00;}
	.st4{fill:#FFD348;}
	.st5{fill:#DD8B40;}
	.st6{fill:#2D2119;}
	.st7{fill:#824121;}
	.st8{fill:#AD5536;}
	.st9{fill:#F9A600;}
</style>
<g>
	<g>
		<g>
			<rect x="22.4" y="3.8" class="st0" width="7.3" height="16"/>
			<path class="st1" d="M29.4,8h-6.9c-1.3,0-2.4-1.1-2.4-2.4V2.4c0-1.3,1.1-2.4,2.4-2.4h6.9c1.3,0,2.4,1.1,2.4,2.4v3.3
				C31.8,6.9,30.7,8,29.4,8z"/>
			<path class="st2" d="M22.8,1.6h8.6c0.1,0,0.2,0,0.3,0c-0.3-1-1.2-1.7-2.2-1.7h-6.9c-1.3,0-2.4,1.1-2.4,2.4v1.9
				C20.2,2.8,21.4,1.6,22.8,1.6z"/>
		</g>
		<g>
			<rect x="46.6" y="3.8" class="st0" width="7.3" height="16"/>
			<path class="st1" d="M53.7,8h-6.9c-1.3,0-2.4-1.1-2.4-2.4V2.4c0-1.3,1.1-2.4,2.4-2.4h6.9c1.3,0,2.4,1.1,2.4,2.4v3.3
				C56.1,6.9,55,8,53.7,8z"/>
			<path class="st2" d="M47.1,1.6h8.6c0.1,0,0.2,0,0.3,0c-0.3-1-1.2-1.7-2.2-1.7h-6.9c-1.3,0-2.4,1.1-2.4,2.4v1.9
				C44.5,2.8,45.7,1.6,47.1,1.6z"/>
		</g>
	</g>
	<g>
		<path class="st3" d="M24.5,26.8l-13.3-3.6C4.5,21.4-0.1,15.2,0,8.3l0.1-3.8c0-1,1-1.7,2-1.3L11.5,7c7.7,3.1,12.8,10.4,13,18.7
			V26.8z"/>
		<path class="st1" d="M1.3,10.8l-0.1,3.7c1.8,4.1,5.4,7.4,9.9,8.6l13.3,3.6v-0.5c-2-5.5-6.2-10-11.8-12.2L2.5,10
			C1.9,9.8,1.3,10.2,1.3,10.8z"/>
	</g>
	<g>
		<path class="st3" d="M51.5,26.8l13.3-3.6c6.7-1.8,11.3-8,11.2-14.9l-0.1-3.8c0-1-1-1.7-2-1.3L64.5,7c-7.7,3.1-12.8,10.4-13,18.7
			V26.8z"/>
		<path class="st1" d="M74.7,10.8l0.1,3.7c-1.8,4.1-5.4,7.4-9.9,8.6l-13.3,3.6v-0.5c2-5.5,6.2-10,11.8-12.2l10.1-4
			C74.1,9.8,74.7,10.2,74.7,10.8z"/>
	</g>
	<path class="st3" d="M67.6,78.4H8.7V32.5c0-9.1,7.4-16.5,16.5-16.5H51c9.1,0,16.5,7.4,16.5,16.5L67.6,78.4L67.6,78.4z"/>
	<path class="st4" d="M27.2,19.9h30.1c1.8,0,3.6,0.3,5.2,0.7c-3-2.8-7-4.6-11.4-4.6H25.2c-9.1,0-16.5,7.4-16.5,16.5v1
		C11.1,25.6,18.5,19.9,27.2,19.9z"/>
	<path class="st5" d="M56.1,88.9H20.2c-6.3,0-11.5-4.1-11.5-9.1v-9.2l0,0c19.1-5.1,39.7-5.1,58.8,0l0,0v9.2
		C67.6,84.9,62.4,88.9,56.1,88.9z"/>
	<g>
		<circle class="st6" cx="23.8" cy="52.5" r="3.4"/>
		<circle class="st6" cx="52.5" cy="52.5" r="3.4"/>
	</g>
	<g>
		<circle class="st7" cx="33.8" cy="73.2" r="1.5"/>
		<circle class="st7" cx="42.5" cy="73.2" r="1.5"/>
	</g>
	<g>
		<path class="st1" d="M33.2,22.6c1.1,1.2,3.2,0.5,4.5,1.4c0.7,0.5,1.1,1.2,1.4,2c0.7,1.5,1.4,3.1,2.1,4.6c0.2,0.4,0.3,0.7,0.7,0.9
			c0.7,0.4,1.5-0.2,1.9-0.8c1.4-1.8,1.9-4,2.1-6.3c0.2-2.8-0.2-5.7-1-8.4H33.3c-0.5,1.5-0.8,3.1-0.8,4.6
			C32.6,21.3,32.7,22.1,33.2,22.6z"/>
	</g>
	<g>
		<path class="st2" d="M45.7,19.9c-0.2-1.3-0.5-2.6-0.8-3.8H33.3c-0.4,1.3-0.7,2.5-0.8,3.8H45.7z"/>
	</g>
	<g>
		<path class="st1" d="M30.2,27.2c0-0.7,0.2-1.3,1.1-1.4c0.7-0.1,1.3,0.3,1.8,0.7c1.7,1.3,2.9,3.1,3.6,5.2c0.6,2,0.7,4.2,0.4,6.3
			c-0.1,0.4-0.2,0.9-0.5,1.1c-0.4,0.3-0.9,0.2-1.4,0c-0.9-0.3-1.7-0.6-2.4-1.2c-0.9-0.9-1.4-2.1-1.7-3.4c-0.3-1.2-0.6-2.3-0.7-3.5
			c-0.2-1.1-0.2-2.2-0.2-3.3C30.2,27.6,30.2,27.4,30.2,27.2z"/>
	</g>
	<g>
		<path class="st1" d="M42.3,35.3c1.1,0.4,1.9,1.6,2,2.7c0.1,0.9-1,1.5-1.7,1.7c-0.8,0.2-1.5-0.1-2-0.8c-0.4-0.7-0.6-1.8-0.4-2.6
			C40.4,35.2,41.4,35,42.3,35.3z"/>
	</g>
	<path class="st8" d="M38.1,88.4c-7.4,0-11.8-4.4-13.2-8.1c-0.2-0.5,0.1-1,0.5-1.2c0.5-0.2,1,0.1,1.2,0.5c1.2,3.2,5,6.9,11.5,6.9
		c6.2,0,10.9-3.5,11.4-6.7c0.1-0.5,0.6-0.9,1.1-0.8c0.5,0.1,0.9,0.6,0.8,1.1C50.5,85.2,43.8,88.4,38.1,88.4z"/>
	<g>
		<ellipse class="st9" cx="17.1" cy="61.8" rx="6.7" ry="4.7"/>
		<ellipse class="st9" cx="59.2" cy="61.8" rx="6.7" ry="4.7"/>
	</g>
	<ellipse transform="matrix(0.9301 -0.3674 0.3674 0.9301 -6.8728 8.805)" class="st4" cx="19.7" cy="22.5" rx="7.5" ry="4.7"/>
</g>
</svg>
