<?xml version="1.0" encoding="utf-8"?>
<!-- Generator: Adobe Illustrator 25.4.1, SVG Export Plug-In . SVG Version: 6.00 Build 0)  -->
<svg version="1.0" id="레이어_1" xmlns="http://www.w3.org/2000/svg" xmlns:xlink="http://www.w3.org/1999/xlink" x="0px"
	 y="0px" width="76px" height="89px" viewBox="0 0 76 89" style="enable-background:new 0 0 76 89;" xml:space="preserve">
<style type="text/css">
	.st0{fill:#E6C38B;}
	.st1{fill:#F4D09A;}
	.st2{fill:#F3E2CB;}
	.st3{fill:#ECC07B;}
	.st4{fill:#F7E7D2;}
	.st5{fill:#C97E4D;}
	.st6{fill:#2D2119;}
	.st7{fill:#DB8758;}
	.st8{fill:#825426;}
	.st9{fill:#965F2D;}
	.st10{fill:#F7C5B5;}
	.st11{fill:#845420;}
</style>
<g>
	<g>
		<path class="st0" d="M43.7,12.3c2.6-2.7,4.7-6.7,4.5-9.7c-0.2-3,0.9-3,2.6-1.7s7.7,6.3,3.6,16.5L43.7,12.3z"/>
		<g>
			<path class="st1" d="M50.4,2.4c1,0.8,4.1,3.1,5.3,7.2c-0.4-5.1-3.8-7.9-4.9-8.8c-1.5-1.2-2.6-1.3-2.6,1
				C48.6,1.4,49.4,1.7,50.4,2.4z"/>
		</g>
		<path class="st0" d="M32.3,12.3c-2.6-2.7-4.7-6.7-4.5-9.7c0.2-3-0.9-3-2.6-1.7c-1.7,1.3-7.7,6.3-3.6,16.5L32.3,12.3z"/>
		<g>
			<path class="st1" d="M32,12.4l0.3-0.1c-0.8-0.8-1.5-1.8-2.1-2.7C30.7,10.5,31.3,11.5,32,12.4z"/>
			<path class="st1" d="M26.1,2.3c0.7-0.6,1.3-0.9,1.8-0.8c-0.1-1.9-1.2-1.8-2.6-0.6c-1.3,1-5.1,4.1-5,10C21.4,6.1,25,3.2,26.1,2.3z
				"/>
		</g>
	</g>
	<g>
		<path class="st2" d="M24.5,26.9l-13.3-3.6C4.5,21.5-0.1,15.3,0,8.4l0.1-3.8c0-1,1-1.7,2-1.3l9.4,3.8c7.7,3.1,12.8,10.4,13,18.7
			L24.5,26.9z"/>
		<path class="st3" d="M1.3,10.9l-0.1,3.7c1.8,4.1,5.4,7.4,9.9,8.6l13.3,3.6l0-0.5c-2-5.5-6.2-10-11.8-12.2L2.5,10.1
			C1.9,9.9,1.3,10.3,1.3,10.9z"/>
		<path class="st2" d="M51.5,26.9l13.3-3.6c6.7-1.8,11.3-8,11.2-14.9l-0.1-3.8c0-1-1-1.7-2-1.3l-9.4,3.8c-7.7,3.1-12.8,10.4-13,18.7
			L51.5,26.9z"/>
		<path class="st3" d="M74.7,10.9l0.1,3.7c-1.8,4.1-5.4,7.4-9.9,8.6l-13.3,3.6l0-0.5c2-5.5,6.2-10,11.8-12.2l10.2-4.1
			C74.1,9.9,74.7,10.3,74.7,10.9z"/>
	</g>
	<path class="st2" d="M67.4,78.4H8.6V32.6c0-9.1,7.4-16.5,16.5-16.5h25.8c9.1,0,16.5,7.4,16.5,16.5V78.4z"/>
	<ellipse transform="matrix(0.8791 -0.4767 0.4767 0.8791 -8.7411 11.3322)" class="st4" cx="18" cy="22.9" rx="7.2" ry="3.6"/>
	<path class="st4" d="M50.9,16.1H25.1c-9.1,0-16.5,7.4-16.5,16.5v1.6c1.8-7.9,8.9-13.9,17.4-13.9h27.8c4.4,0,8.4,1.6,11.6,4.3
		C62.5,19.6,57.1,16.1,50.9,16.1z"/>
	<path class="st5" d="M67.4,32.6c0-8.7-6.7-15.8-15.2-16.4c-3.1,6-0.5,12.7-11.4,25.2c-7,8-21.8,37.7,8.2,38.4
		c6.9,0.1,13.9-5.6,18.5-6.1V32.6z"/>
	<g>
		<circle class="st6" cx="23.6" cy="49.4" r="3.4"/>
		<circle class="st6" cx="52.4" cy="49.4" r="3.4"/>
	</g>
	<path class="st5" d="M8.6,32.6v15.8c4-1.4,6.8-5.3,5.6-8.1c-1.8-4-1.6-6.6,4.5-9.3c5.4-2.4,3.5-8.9,0.4-13.7
		C12.9,19.7,8.6,25.6,8.6,32.6z"/>
	<g>
		<path class="st7" d="M65.3,24.6C65.3,24.6,65.3,24.6,65.3,24.6c-0.2-0.3-0.4-0.6-0.5-0.9c0,0,0,0,0,0c-0.2-0.3-0.4-0.5-0.5-0.8
			c0-0.1-0.1-0.1-0.1-0.2c-0.4-0.5-0.8-1-1.3-1.5c-0.1-0.1-0.1-0.1-0.2-0.2c-0.2-0.2-0.4-0.4-0.5-0.5c-0.1-0.1-0.1-0.1-0.2-0.2
			c-0.2-0.2-0.5-0.4-0.7-0.6c-0.1-0.1-0.2-0.1-0.3-0.2c-0.2-0.1-0.3-0.2-0.5-0.4c-0.1-0.1-0.2-0.1-0.3-0.2c-0.2-0.2-0.5-0.3-0.7-0.5
			c-0.1-0.1-0.2-0.1-0.4-0.2c-0.2-0.1-0.3-0.2-0.5-0.3c-0.1-0.1-0.3-0.1-0.4-0.2c-0.1-0.1-0.3-0.1-0.5-0.2c-0.2-0.1-0.5-0.2-0.7-0.3
			c-0.1-0.1-0.3-0.1-0.4-0.2c-0.2-0.1-0.3-0.1-0.5-0.2c-0.1,0-0.3-0.1-0.4-0.1c-0.3-0.1-0.6-0.2-0.9-0.3c-0.1,0-0.2-0.1-0.4-0.1
			c-0.2,0-0.4-0.1-0.6-0.1c-0.1,0-0.2,0-0.4-0.1c-0.2,0-0.4-0.1-0.6-0.1c-0.1,0-0.2,0-0.3,0c-0.2,0-0.4,0-0.5-0.1
			c-0.7,1.3-1.1,2.7-1.4,4.2h3C58.2,20.4,62.2,22,65.3,24.6z"/>
		<path class="st7" d="M14.8,19.7C14.8,19.7,14.8,19.7,14.8,19.7c-0.6,0.5-1.2,1-1.8,1.6c0,0,0,0,0,0c-0.3,0.3-0.5,0.6-0.8,0.9
			c0,0,0,0,0,0c-0.2,0.3-0.5,0.6-0.7,0.9c0,0,0,0-0.1,0.1c-0.2,0.3-0.4,0.6-0.6,1c0,0,0,0.1-0.1,0.1c-0.2,0.3-0.3,0.6-0.5,0.9
			c0,0,0,0.1-0.1,0.1c-0.2,0.3-0.3,0.7-0.5,1c0,0.1,0,0.1-0.1,0.2c-0.1,0.3-0.2,0.6-0.3,1c0,0,0,0.1,0,0.1c-0.1,0.4-0.2,0.7-0.3,1.1
			c0,0.1,0,0.2-0.1,0.2c-0.1,0.3-0.1,0.7-0.2,1c0,0,0,0.1,0,0.1c-0.1,0.4-0.1,0.7-0.1,1.1c0,0.1,0,0.2,0,0.3c0,0.4,0,0.8,0,1.2v1.6
			c1.4-6.4,6.3-11.4,12.5-13.2c-0.5-1.3-1.2-2.6-2-3.8C17.5,17.9,16.1,18.7,14.8,19.7z"/>
	</g>
	<path class="st8" d="M56,21.1c-0.3-0.8-0.7-1.5-1.1-2.2c-2.1-3.6-7.3-6.4-13.6-6.8c-0.5,0-1-0.1-1.4-0.1
		c-3.5-0.4-20.3-2.3-20.6,3.4c-0.2,3.6,3.9,4.3,5.8,4.5c-1.4,3.3-0.9,6.7,1.1,7.7c1.9,1,4.7-0.4,6.6-3.1c1,3.2,3.2,5.4,5.3,5.1
		c1.7-0.3,2.9-2,3.3-4.3c1.6,2.9,4.1,4.6,6.2,3.8c0.7-0.3,1.3-0.8,1.7-1.6c1.5,1.8,3.4,2.7,5,2.1C56.7,28.7,57.5,24.9,56,21.1z"/>
	<g>
		<path class="st9" d="M21.1,18.1c0.4-5.7,17.2-3.9,20.6-3.4c0.5,0,1,0,1.4,0.1c5.2,0.4,9.7,2.4,12.3,5.1c-0.2-0.3-0.4-0.7-0.5-1
			c-2.1-3.6-7.3-6.4-13.6-6.8c-0.5,0-1-0.1-1.4-0.1c-3.5-0.4-20.3-2.3-20.6,3.4c-0.1,1.7,0.8,2.8,1.9,3.4
			C21.1,18.6,21.1,18.4,21.1,18.1z"/>
	</g>
	<g>
		<ellipse class="st10" cx="16.9" cy="58.6" rx="6.7" ry="4.7"/>
		<ellipse class="st10" cx="59.1" cy="58.6" rx="6.7" ry="4.7"/>
	</g>
	<path class="st3" d="M55.9,89H20.1c-6.3,0-11.5-4.1-11.5-9.1v-9.2l0,0c19.1-5.1,39.7-5.1,58.8,0l0,0v9.2C67.4,84.9,62.3,89,55.9,89
		z"/>
	<g>
		<circle class="st11" cx="33.7" cy="70.2" r="1.5"/>
		<circle class="st11" cx="42.3" cy="70.2" r="1.5"/>
	</g>
	<path class="st8" d="M38,85.3c-7.4,0-11.8-4.4-13.2-8.1c-0.2-0.5,0.1-1,0.5-1.2c0.5-0.2,1,0.1,1.2,0.5c1.2,3.2,5,6.9,11.5,6.9
		c6.2,0,10.9-3.5,11.4-6.7c0.1-0.5,0.6-0.9,1.1-0.8c0.5,0.1,0.9,0.6,0.8,1.1C50.5,82.1,43.7,85.3,38,85.3z"/>
	<path class="st7" d="M19.7,26c0.9-0.5,1.7-1,2.3-1.6c-0.3-2-1.1-4.1-2.2-6c-1.1,0.2-2.3,0.7-3.5,1.3c-3.5,1.9-5.6,4.9-4.7,6.6
		C12.6,28.1,16.2,27.9,19.7,26z"/>
</g>
</svg>
