<?xml version="1.0" encoding="utf-8"?>
<!-- Generator: Adobe Illustrator 25.4.1, SVG Export Plug-In . SVG Version: 6.00 Build 0)  -->
<svg version="1.0" id="레이어_1" xmlns="http://www.w3.org/2000/svg" xmlns:xlink="http://www.w3.org/1999/xlink" x="0px"
	 y="0px" width="82px" height="85px" viewBox="0 0 82 85" style="enable-background:new 0 0 82 85;" xml:space="preserve">
<style type="text/css">
	.st0{fill:#5B5B5B;}
	.st1{fill:#F2F2F2;}
	.st2{fill:#EEB09A;}
	.st3{fill:#F7F7F7;}
	.st4{fill:#2D2119;}
	.st5{fill:#161414;}
	.st6{fill:#FFF6F5;}
	.st7{fill:#F7C5B5;}
	.st8{fill:#4B4B4B;}
	.st9{fill:#C4BFBF;}
</style>
<g>
	<path class="st0" d="M49.6,5.5c-0.2-0.1-0.5,0-0.6,0.2c-0.5,1.5-2.4,3.5-2.4,3.5c0-0.2,0-0.3,0-0.5c-0.1-3.4-2-6.2-3.1-6.5
		C43.3,2,43,2.2,43,2.5c0,1.9-1.4,3.9-2.9,5.5C40,3,38,1.7,36.9,1.3c-0.3-0.1-0.6,0.1-0.6,0.5c0,4.6-6,10.1-6,10.1l0.4,0.2
		c0,0.2,0.2,0.3,0.3,0.3c1,0.2,5.1,1.1,8.7,0.7c2.9,0.8,8.3,1.9,10.6-1C53.1,8.8,50.8,6,49.6,5.5z"/>
	<g>
		<g>
			<path class="st1" d="M24.7,24.3l-13.4-3.7c-6.7-1.8-11.4-8-11.3-15l0,0c0.1-3.7,3.3-6.4,6.7-5L13,3.1c7.5,3,12.5,10,13,18
				c0,0.5-0.1,1.1-0.4,1.5L24.7,24.3z"/>
			<path class="st2" d="M19.7,23.2l-8.6-2.3c-4.3-1.2-7.3-5.1-7.2-9.6l0,0c0-2.4,1-4.3,3.2-3.4l5.1,1.8c4.8,1.9,8,6.4,8.3,11.5
				c0,0.3-0.1,0.7-0.2,1L19.7,23.2z"/>
		</g>
		<g>
			<path class="st1" d="M57.3,24.3l13.4-3.7c6.7-1.8,11.4-8,11.3-15v0c-0.1-3.7-3.3-6.4-6.7-5L69,3.1c-7.5,3-12.5,10-13,18
				c0,0.5,0.1,1.1,0.4,1.5L57.3,24.3z"/>
			<path class="st2" d="M62.3,23.2l8.6-2.3c4.3-1.2,7.3-5.1,7.2-9.6v0c0-2.4-1-4.3-3.2-3.4l-5.1,1.8c-4.8,1.9-8,6.4-8.3,11.5
				c0,0.3,0.1,0.7,0.2,1L62.3,23.2z"/>
		</g>
	</g>
	<path class="st1" d="M70.6,74.1H11.4V28c0-9.2,7.4-16.6,16.6-16.6h26c9.2,0,16.6,7.4,16.6,16.6V74.1z"/>
	<path class="st3" d="M28.8,14.9h28.1c4,0,7.7,1.3,10.7,3.6c-3-4.3-8-7.1-13.6-7.1H28c-9.2,0-16.6,7.4-16.6,16.6v0.8
		C13.2,20.8,20.3,14.9,28.8,14.9z"/>
	<g>
		<circle class="st4" cx="28.2" cy="42.5" r="3.5"/>
		<circle class="st4" cx="53.6" cy="42.5" r="3.5"/>
	</g>
	<g>
		<circle class="st5" cx="36.7" cy="69" r="1.6"/>
		<circle class="st5" cx="45.3" cy="69" r="1.6"/>
	</g>
	<path class="st6" d="M40.9,81.1c-7.5,0-11.8-4.4-13.3-8.2c-0.2-0.5,0.1-1,0.5-1.2c0.5-0.2,1,0.1,1.2,0.5c1.2,3.2,5,7,11.5,7
		c6.2,0,11-3.5,11.5-6.8c0.1-0.5,0.6-0.9,1.1-0.8c0.5,0.1,0.9,0.6,0.8,1.1C53.5,77.9,46.7,81.1,40.9,81.1z"/>
	<g>
		<ellipse class="st7" cx="19.8" cy="53.4" rx="6.7" ry="4.8"/>
		<ellipse class="st7" cx="62.2" cy="53.4" rx="6.7" ry="4.8"/>
	</g>
	<path class="st8" d="M70.6,62.6c-19.4-5.2-39.8-5.2-59.2,0l0,0v3.8v5.5v3.8c0,5.1,5.2,9.2,11.6,9.2H59c6.4,0,11.6-4.1,11.6-9.2
		v-3.8v-5.5V62.6L70.6,62.6z"/>
	<g>
		<circle class="st5" cx="36.7" cy="66.6" r="1.6"/>
		<circle class="st5" cx="45.3" cy="66.6" r="1.6"/>
	</g>
	<path class="st9" d="M41,78.7c-7.5,0-11.8-4.4-13.3-8.2c-0.2-0.5,0.1-1,0.5-1.2c0.5-0.2,1,0.1,1.2,0.5c1.2,3.2,5,7,11.5,7
		c6.2,0,11-3.5,11.5-6.8c0.1-0.5,0.6-0.9,1.1-0.8c0.5,0.1,0.9,0.6,0.8,1.1C53.5,75.5,46.8,78.7,41,78.7z"/>
	<g>
		<path class="st8" d="M36.8,11.4c1.5,6.2,2,14.5,2.4,18.6c0.2,1.7,1,2.6,1.9,2.6c0.8,0,1.7-0.8,1.9-2.6c0.4-4.1,0.9-12.4,2.4-18.6
			H36.8z"/>
		<path class="st8" d="M35.7,11.4h-7.1c2.1,5.3,3.8,11.5,4.8,14.8c0.5,1.7,1.5,2.3,2.3,2.2c0.8-0.2,1.5-1.2,1.3-2.9
			C36.7,22.3,35.9,16.7,35.7,11.4z"/>
		<path class="st8" d="M46.3,11.4c-0.3,5.3-1,10.9-1.4,14c-0.2,1.7,0.5,2.7,1.3,2.9c0.8,0.2,1.8-0.5,2.3-2.2c1-3.3,2.7-9.5,4.8-14.8
			H46.3z"/>
	</g>
	<g>
		<path class="st0" d="M36.8,11.4c0.3,1.1,0.5,2.3,0.7,3.5h7c0.2-1.2,0.4-2.4,0.7-3.5H36.8z"/>
		<path class="st0" d="M28.6,11.4c0.5,1.2,0.9,2.4,1.3,3.5h6c-0.1-1.2-0.2-2.4-0.2-3.5H28.6z"/>
		<path class="st0" d="M46.3,11.4c-0.1,1.2-0.1,2.4-0.2,3.5h6c0.4-1.2,0.8-2.4,1.3-3.5H46.3z"/>
	</g>
	<path class="st8" d="M21.2,32.9c-3.3-0.3-4.9-0.7-9.8-1.9v5c0,0,6.2,0.2,9.8-0.2C23.9,35.6,23.9,33.2,21.2,32.9z"/>
	<path class="st8" d="M15.7,40.1c-1.7-0.2-2.9-0.3-4.3-0.6v3.7c1.5,0,3.1-0.1,4.3-0.2C18.4,42.8,18.4,40.4,15.7,40.1z"/>
	<path class="st8" d="M60.8,32.9c3.3-0.3,4.9-0.7,9.8-1.9v5c0,0-6.2,0.2-9.8-0.2C58.1,35.6,58.1,33.2,60.8,32.9z"/>
	<path class="st8" d="M66.3,40.1c1.7-0.2,2.9-0.3,4.3-0.6v3.7c-1.5,0-3.1-0.1-4.3-0.2C63.6,42.8,63.6,40.4,66.3,40.1z"/>
	<ellipse transform="matrix(0.8791 -0.4767 0.4767 0.8791 -5.8262 12.1886)" class="st3" cx="21.1" cy="17.6" rx="7.3" ry="3.6"/>
</g>
</svg>
