<svg xmlns="http://www.w3.org/2000/svg" width="30" height="30" viewBox="0 0 30 30">
    <defs>
        <style>
            .reset_cls-2{fill:#db7700}
        </style>
    </defs>
    <g id="그룹_331" transform="translate(-1107.658 -701.39)">
        <g id="그룹_327">
            <g id="그룹_326">
                <rect id="사각형_172" width="30" height="30" fill="#9ae07d" rx="10" transform="translate(1107.658 701.39)"/>
            </g>
        </g>
        <g id="그룹_330">
            <path id="패스_338" d="M1130.717 711.481h-15.741a.75.75 0 0 1 0-1.5h15.741a.75.75 0 0 1 0 1.5z" class="reset_cls-2"/>
            <g id="그룹_329">
                <path id="패스_339" d="M1126.316 711.36a.75.75 0 0 1-.75-.75v-1.832a.909.909 0 0 0-.908-.908h-3.623a.909.909 0 0 0-.908.908v1.832a.75.75 0 0 1-1.5 0v-1.832a2.411 2.411 0 0 1 2.408-2.408h3.623a2.411 2.411 0 0 1 2.408 2.408v1.832a.75.75 0 0 1-.75.75z" class="reset_cls-2"/>
                <path id="패스_340" d="M1127.121 726.378h-8.551a2.408 2.408 0 0 1-2.406-2.406v-13.241a.75.75 0 0 1 .75-.75h11.865a.75.75 0 0 1 .75.75v13.241a2.409 2.409 0 0 1-2.408 2.406zm-9.457-14.9v12.491a.906.906 0 0 0 .906.906h8.551a.908.908 0 0 0 .908-.906v-12.488z" class="reset_cls-2"/>
                <g id="그룹_328">
                    <path id="패스_341" d="M1119.934 723.442a.75.75 0 0 1-.75-.75v-9.119a.75.75 0 0 1 1.5 0v9.119a.75.75 0 0 1-.75.75z" class="reset_cls-2"/>
                    <path id="패스_342" d="M1122.846 723.442a.75.75 0 0 1-.75-.75v-9.119a.75.75 0 0 1 1.5 0v9.119a.75.75 0 0 1-.75.75z" class="reset_cls-2"/>
                    <path id="패스_343" d="M1125.76 723.442a.75.75 0 0 1-.75-.75v-9.119a.75.75 0 0 1 1.5 0v9.119a.75.75 0 0 1-.75.75z" class="reset_cls-2"/>
                </g>
            </g>
        </g>
    </g>
</svg>
