<svg xmlns="http://www.w3.org/2000/svg" width="30" height="32" viewBox="0 0 30 32">
    <defs>
        <style>
            .reset_cls-3{fill:#ff931e}
        </style>
    </defs>
    <g id="그룹_372" transform="translate(-1209 -304)">
        <g id="그룹_325" transform="translate(145.728 -397.39)">
            <g id="그룹_321">
                <rect id="사각형_170" width="30" height="30" fill="#9ae07d" rx="10" transform="translate(1063.272 702.89)"/>
                <g id="그룹_320">
                    <rect id="사각형_171" width="30" height="30" fill="#fff" rx="10" transform="translate(1063.272 701.39)"/>
                </g>
            </g>
            <g id="그룹_324">
                <path id="패스_332" d="M1086.331 711.481h-15.74a.75.75 0 0 1 0-1.5h15.74a.75.75 0 0 1 0 1.5z" class="reset_cls-3"/>
                <g id="그룹_323">
                    <path id="패스_333" d="M1081.931 711.36a.75.75 0 0 1-.75-.75v-1.832a.91.91 0 0 0-.909-.908h-3.623a.909.909 0 0 0-.908.908v1.832a.75.75 0 0 1-1.5 0v-1.832a2.411 2.411 0 0 1 2.408-2.408h3.623a2.411 2.411 0 0 1 2.409 2.408v1.832a.75.75 0 0 1-.75.75z" class="reset_cls-3"/>
                    <path id="패스_334" d="M1082.735 726.378h-8.551a2.408 2.408 0 0 1-2.406-2.406v-13.241a.75.75 0 0 1 .75-.75h11.865a.75.75 0 0 1 .75.75v13.241a2.409 2.409 0 0 1-2.408 2.406zm-9.457-14.9v12.491a.906.906 0 0 0 .906.906h8.551a.908.908 0 0 0 .908-.906v-12.488z" class="reset_cls-3"/>
                    <g id="그룹_322">
                        <path id="패스_335" d="M1075.548 723.442a.75.75 0 0 1-.75-.75v-9.119a.75.75 0 0 1 1.5 0v9.119a.75.75 0 0 1-.75.75z" class="reset_cls-3"/>
                        <path id="패스_336" d="M1078.46 723.442a.75.75 0 0 1-.75-.75v-9.119a.75.75 0 0 1 1.5 0v9.119a.75.75 0 0 1-.75.75z" class="reset_cls-3"/>
                        <path id="패스_337" d="M1081.374 723.442a.75.75 0 0 1-.75-.75v-9.119a.75.75 0 0 1 1.5 0v9.119a.75.75 0 0 1-.75.75z" class="reset_cls-3"/>
                    </g>
                </g>
            </g>
        </g>
        <path id="사각형_184" fill="none" d="M0 0H30V32H0z" transform="translate(1209 304)"/>
    </g>
</svg>
