<?xml version="1.0" encoding="utf-8"?>
<!-- Generator: Adobe Illustrator 26.0.1, SVG Export Plug-In . SVG Version: 6.00 Build 0)  -->
<svg version="1.0" id="Layer" xmlns="http://www.w3.org/2000/svg" xmlns:xlink="http://www.w3.org/1999/xlink" x="0px" y="0px"
	 width="259px" height="211px" viewBox="0 0 259 211" style="enable-background:new 0 0 259 211;" xml:space="preserve">
<style type="text/css">
	.st0{fill:#FFB98A;}
	.st1{fill:#EA864E;}
	.st2{fill:#B2622D;}
	.st3{fill:#BF6A3C;}
	.st4{fill:#2D2119;}
	.st5{fill:#FF9B69;}
	.st6{fill:#AF4635;}
	.st7{fill:none;stroke:#000000;stroke-miterlimit:10;opacity:0;}
</style>
<g id="monkey_00000139264483094071594430000003453376858965241233_">
	<circle class="st0" cx="26.8" cy="129.1" r="26.3"/>
	<circle class="st0" cx="232.2" cy="129.1" r="26.3"/>
	<circle class="st1" cx="28.6" cy="129.1" r="18.7"/>
	<circle class="st1" cx="229.2" cy="129.1" r="18.7"/>
	<circle class="st2" cx="129.5" cy="113.5" r="96.8"/>
	<path class="st3" d="M134.6,29.3c31,0,58.9,13.5,78.1,34.8c-16.9-28.4-47.8-47.4-83.2-47.4c-51.8,0-94.1,40.7-96.6,91.8
		C44.3,63,85.5,29.3,134.6,29.3z"/>
	<path class="st0" d="M207.7,126.8c0,35.9-35,70.2-78.2,70.2s-78.2-34.2-78.2-70.2c0-28.1,14.3-53.1,41.5-53.1
		c23.7,0,36.6,19.8,36.6,19.8s10.8-20.5,35.1-20.5C192.6,73.1,207.7,99,207.7,126.8z"/>
	<circle class="st4" cx="92.8" cy="122.7" r="8.8"/>
	<circle class="st4" cx="166.2" cy="122.7" r="8.8"/>
	<ellipse class="st5" cx="75.7" cy="141" rx="17.1" ry="12.1"/>
	<ellipse class="st5" cx="183.2" cy="141" rx="17.1" ry="12.1"/>
	<path class="st6" d="M135.9,133.2c0,0.6-2.5,2.6-5.6,2.6s-5.6-2-5.6-2.6s2.5-1.2,5.6-1.2S135.9,132.5,135.9,133.2z"/>
	<path class="st6" d="M130.3,172.1c-11.7,0-21.2-9.5-21.2-21.2c0-1.1,0.9-2,2-2c1.1,0,2,0.9,2,2c0,9.5,7.7,17.2,17.2,17.2
		s17.2-7.7,17.2-17.2c0-1.1,0.9-2,2-2c1.1,0,2,0.9,2,2C151.6,162.6,142,172.1,130.3,172.1z"/>
	<path class="st3" d="M136,11.3c-3.7,6-10,12.5-12,11.2c-2.1-1.3,0.8-9.8,4.5-15.8c3.7-6,6.7-7.2,8.8-5.9S139.6,5.3,136,11.3z"/>
	<path class="st3" d="M141,18.1c-6.3,3.1-15.1,5.1-16.2,2.9c-1.1-2.2,6-7.8,12.3-10.9s9.6-2.4,10.6-0.2S147.4,15,141,18.1z"/>
	<ellipse transform="matrix(0.8879 -0.46 0.46 0.8879 -11.5268 45.2973)" class="st3" cx="87.2" cy="46.3" rx="25.7" ry="13.5"/>
</g>
<path id="monkey_line_00000115503195600041500360000014376840180034293417_" class="st7 guide" d="M129.5,16.7c53.4,0,96.8,43.3,96.8,96.8c0,53.4-43.3,96.7-96.7,96.8h0c-53.4,0-96.8-43.3-96.8-96.8S76.1,16.7,129.5,16.7"/>
</svg>
