<?xml version="1.0" encoding="utf-8"?>
<!-- Generator: Adobe Illustrator 26.0.1, SVG Export Plug-In . SVG Version: 6.00 Build 0)  -->
<svg version="1.0" id="Layer" xmlns="http://www.w3.org/2000/svg" xmlns:xlink="http://www.w3.org/1999/xlink" x="0px" y="0px"
	 width="228px" height="228px" viewBox="0 0 228 228" style="enable-background:new 0 0 228 228;" xml:space="preserve">
<style type="text/css">
	.st0{fill:#C44A3D;}
	.st1{fill:#DD7440;}
	.st2{fill:#FFBE55;}
	.st3{fill:#D36629;}
	.st4{fill:#FFC97B;}
	.st5{fill:#FF9240;}
	.st6{opacity:0.2;fill:#FFC2BD;}
	.st7{fill:#2D2119;}
	.st8{fill:#EF941D;}
	.st9{fill:#AF4635;}
	.st10{fill:none;stroke:#000000;stroke-miterlimit:10;opacity:0;}
</style>
<g id="Lion_00000003062575285662150960000007578674233556229287_">
	<circle class="st0" cx="114" cy="114" r="113.5"/>
	<path class="st1" d="M205.3,46.6C198,36.7,189.1,28,179,20.9l-56.2,67.8l8.2-87c-5.5-0.8-11.1-1.3-16.9-1.3
		c-6.7,0-13.3,0.6-19.6,1.7l8.1,86.5L47.3,22.2C37.4,29.4,28.8,38.1,21.7,48l66.3,55l-85.9-8c-1,6.2-1.6,12.5-1.6,18.9
		c0,5.9,0.5,11.8,1.3,17.5l86.3-8L21,179c7,10.1,15.7,18.9,25.5,26.2l55.9-67.5l-8.2,88c6.4,1.1,13,1.8,19.8,1.8
		c5.8,0,11.5-0.4,17-1.3l-8.2-88.5l56.9,68.8c10.1-7.2,19-16,26.2-26l-69-57.1l89.1,8.4c0.9-5.8,1.4-11.7,1.4-17.7
		c0-6.5-0.6-12.9-1.6-19.2l-88.7,8.3L205.3,46.6z"/>
	<circle class="st2" cx="53.3" cy="72.1" r="17.9"/>
	<circle class="st3" cx="55.6" cy="74.5" r="9.5"/>
	<circle class="st2" cx="174.7" cy="72.1" r="17.9"/>
	<circle class="st3" cx="172.3" cy="74.5" r="9.6"/>
	<ellipse class="st2" cx="114" cy="129.1" rx="77.6" ry="74.3"/>
	<path class="st4" d="M119.6,63.9c22.6,0,43,8.6,58,22.6c-14-19.2-37.3-31.7-63.6-31.7c-42.9,0-77.6,33.3-77.6,74.3
		c0,2.8,0.2,5.5,0.5,8.2C40.1,96.3,75.9,63.9,119.6,63.9z"/>
	<ellipse class="st5" cx="60.2" cy="145.9" rx="17.1" ry="12.1"/>
	<ellipse class="st5" cx="167.8" cy="145.9" rx="17.1" ry="12.1"/>
	<path class="st6" d="M120.8,14.4c35.5,0,67.4,15.3,89.6,39.7c-20-32.2-55.7-53.6-96.4-53.6C51.3,0.5,0.5,51.3,0.5,114
		c0,2.3,0.1,4.5,0.2,6.8C7.9,60.9,58.9,14.4,120.8,14.4z"/>
	<circle class="st7" cx="80" cy="124.9" r="7.9"/>
	<circle class="st7" cx="148" cy="124.9" r="7.9"/>
	<path class="st8" d="M129.9,150.1H98.1l3.8-37.7c0.6-6.2,5.8-10.9,12.1-10.9h0c6.2,0,11.4,4.7,12.1,10.9L129.9,150.1z"/>
	<path class="st7" d="M121.2,158.8h-14.3c-4.8,0-8.7-3.9-8.7-8.7l0,0h31.8l0,0C129.9,154.9,126,158.8,121.2,158.8z"/>
	<path class="st9" d="M114,180.6c-16.4,0-28.2-10.4-31.3-20.7c-0.3-1.1,0.3-2.2,1.4-2.6c1.1-0.3,2.2,0.3,2.6,1.4
		c2.2,7.2,11.3,17.8,27.4,17.8c16,0,25.3-10.9,27.4-17.8c0.3-1.1,1.5-1.7,2.6-1.4c1.1,0.3,1.7,1.5,1.4,2.6
		C141.2,173.3,126.1,180.6,114,180.6z"/>
	<ellipse transform="matrix(0.9368 -0.3499 0.3499 0.9368 -19.5209 35.8632)" class="st4" cx="89.5" cy="72" rx="17.7" ry="8.3"/>
</g>
<path id="Lion_line_00000138544823058567524650000017500167035026405522_" class="st10 guide" d="M114,0.5c62.7,0,113.5,50.8,113.5,113.5c0,62.7-50.8,113.5-113.5,113.5h0C51.3,227.5,0.5,176.7,0.5,114S51.3,0.5,114,0.5"/>
</svg>
