<?xml version="1.0" encoding="utf-8"?>
<!-- Generator: Adobe Illustrator 26.0.1, SVG Export Plug-In . SVG Version: 6.00 Build 0)  -->
<svg version="1.0" id="Layer" xmlns="http://www.w3.org/2000/svg" xmlns:xlink="http://www.w3.org/1999/xlink" x="0px" y="0px"
	 width="161px" height="213px" viewBox="0 0 161 213" style="enable-background:new 0 0 161 213;" xml:space="preserve">
<style type="text/css">
	.st0{fill:#928799;}
	.st1{fill:#6E5F7A;}
	.st2{fill:#9E94A4;}
	.st3{fill:#A99EB2;}
	.st4{fill:#B0A3B8;}
	.st5{fill:#2D2119;}
	.st6{fill:#4A3F54;}
	.st7{fill:#F0DAD4;}
	.st8{fill:#F9EBE8;}
	.st9{fill:#D195AA;}
	.st10{fill:none;stroke:#000000;stroke-miterlimit:10;opacity:0;}
</style>
<g id="Rhinoceros_00000181772599031072891980000016683795608665139861_">
	<path class="st0" d="M154,23.9c-9.2,10.2-18.8,17.7-22.7,15s0-15.6,5.7-26.6c5.6-10.7,10.4-15.4,18.9-9.6
		C163,7.5,162,14.9,154,23.9z"/>
	<path class="st1" d="M144.6,28.1c-5.7,6.8-11.5,12.1-13.3,10.8c-1.8-1.3,1.3-9.3,5.2-16.4c3.9-6.9,6.8-10.1,10.9-7.3
		C150.8,17.6,149.7,22.1,144.6,28.1z"/>
	<path class="st0" d="M7,23.9c9.2,10.2,18.8,17.7,22.7,15s0-15.6-5.7-26.6C18.4,1.6,13.6-3.1,5,2.8C-2,7.5-1,14.9,7,23.9z"/>
	<path class="st1" d="M16.4,28.1c5.7,6.8,11.5,12.1,13.3,10.8c1.8-1.3-1.3-9.3-5.2-16.4c-3.9-6.9-6.8-10.1-10.9-7.3
		C10.2,17.6,11.3,22.1,16.4,28.1z"/>
	<path class="st2" d="M126.5,212.2H34.5c-18.6,0-33.7-15.1-33.7-33.7V66.7c0-23.4,18.9-42.3,42.3-42.3h75
		c23.4,0,42.3,18.9,42.3,42.3v111.8C160.3,197.1,145.2,212.2,126.5,212.2z"/>
	<path class="st3" d="M52.8,35.9h92.3c0.6,0,1.3,0,1.9,0c-7.6-7.2-17.8-11.6-29.1-11.6H43c-23.4,0-42.3,18.9-42.3,42.3V88
		C0.7,59.3,24,35.9,52.8,35.9z"/>
	<path class="st4" d="M80.2,122.9c13.3,0,24.8,2.4,35.1,7.2c1.8,0.8,3.1-2.4,1.7-4.1c-9.2-11.4-22.2-18.5-36.7-18.5
		c-14.5,0-27.6,7.2-36.8,18.6c-1.4,1.8-0.1,5,1.7,4.1C55.9,125.1,66.8,122.9,80.2,122.9z"/>
	<circle class="st5" cx="38.8" cy="100.4" r="8.3"/>
	<circle class="st5" cx="121.6" cy="100.4" r="8.3"/>
	<path class="st6" d="M80.2,194.3c-18.8,0-29.7-11.1-33.4-20.5c-0.4-1.1,0.1-2.2,1.2-2.6c1.1-0.4,2.2,0.1,2.6,1.2
		c3.2,8.3,12.8,17.9,29.6,17.9c12.9,0,27.8-7,29.5-17.5c0.2-1.1,1.2-1.9,2.3-1.7c1.1,0.2,1.9,1.2,1.7,2.3
		C111.7,186.3,94.8,194.3,80.2,194.3z"/>
	<circle class="st5" cx="55.6" cy="155.7" r="3.9"/>
	<circle class="st5" cx="104.9" cy="155.7" r="3.9"/>
	<ellipse transform="matrix(0.8791 -0.4767 0.4767 0.8791 -18.1066 18.7738)" class="st3" cx="28" cy="45.1" rx="17.6" ry="8.7"/>
	<path class="st7" d="M101.6,132.2c-4.6,9.5-11.3,16.1-22.3,16.1s-19.8-8.6-19.8-19.2c0-11.5,20.3-14.7,23-24.3
		c4.6-16.3,3.4-33.5,7.3-34.1C98,69.6,112.5,109.5,101.6,132.2z"/>
	<path class="st8" d="M85.7,108.3c4.3-15.4,4.2-31.4,6.5-36.8c-0.8-0.5-1.6-0.7-2.3-0.6c-3.9,0.6-2.7,17.7-7.3,34.1
		c-2.7,9.6-23,12.8-23,24.3c0,1.3,0.1,2.6,0.4,3.9C63,122.2,82.8,118.3,85.7,108.3z"/>
	<ellipse class="st9" cx="21.4" cy="134.1" rx="16.3" ry="11.5"/>
	<ellipse class="st9" cx="139.6" cy="134.1" rx="16.3" ry="11.5"/>
</g>
<polyline id="Rhinoceros_line_00000165199974190661647860000009900296715232387460_" class="st10 guide" points="0.7,24.4 0.7,212.2 160.3,212.2 160.3,24.4 0.7,24.4 "/>
</svg>
