<?xml version="1.0" encoding="utf-8"?>
<!-- Generator: Adobe Illustrator 26.0.1, SVG Export Plug-In . SVG Version: 6.00 Build 0)  -->
<svg version="1.0" id="Layer" xmlns="http://www.w3.org/2000/svg" xmlns:xlink="http://www.w3.org/1999/xlink" x="0px" y="0px"
	 width="161px" height="210px" viewBox="0 0 161 210" style="enable-background:new 0 0 161 210;" xml:space="preserve">
<style type="text/css">
	.st0{fill:#9E4D65;}
	.st1{fill:#722A3D;}
	.st2{fill:#BD6C85;}
	.st3{fill:#C97996;}
	.st4{fill:#2D2119;}
	.st5{fill:#D37FA1;}
	.st6{fill:none;stroke:#000000;stroke-miterlimit:10;opacity:0;}
</style>
<g id="Hippo_00000176763438688758675600000017551779781293131703_">
	<ellipse transform="matrix(0.8948 -0.4464 0.4464 0.8948 -5.085 10.3851)" class="st0" cx="19.5" cy="16" rx="10.2" ry="16.5"/>
	<ellipse transform="matrix(0.8948 -0.4464 0.4464 0.8948 -7.3374 12.2596)" class="st1" cx="22.4" cy="21.7" rx="6.2" ry="10.2"/>
	<ellipse transform="matrix(0.4464 -0.8948 0.8948 0.4464 64.0328 135.4703)" class="st0" cx="141.5" cy="16" rx="16.5" ry="10.2"/>
	
		<ellipse transform="matrix(0.4464 -0.8948 0.8948 0.4464 57.3372 136.0834)" class="st1" cx="138.6" cy="21.7" rx="10.2" ry="6.2"/>
	<path class="st2" d="M126.5,209.5H34.5c-18.6,0-33.7-15.1-33.7-33.7V64c0-23.4,18.9-42.3,42.3-42.3H118c23.4,0,42.3,18.9,42.3,42.3
		v111.8C160.3,194.4,145.2,209.5,126.5,209.5z"/>
	<path class="st3" d="M48.8,33.5H134c5.6,0,11,1,15.9,2.7c-7.8-8.9-19.2-14.6-32-14.6H43C19.7,21.7,0.7,40.6,0.7,64v17.7
		C0.7,55.1,22.3,33.5,48.8,33.5z"/>
	<path class="st0" d="M0.7,141.7v34.1c0,18.6,15.1,33.7,33.7,33.7h92.1c18.6,0,33.7-15.1,33.7-33.7v-34.1
		c-23.4-5.2-50.6-8.3-79.8-8.3C51.4,133.4,24.1,136.5,0.7,141.7z"/>
	<circle class="st0" cx="60.3" cy="133.6" r="12"/>
	<circle class="st4" cx="60.3" cy="133.6" r="5.4"/>
	<circle class="st0" cx="100.7" cy="133.6" r="12"/>
	<circle class="st4" cx="100.7" cy="133.6" r="5.4"/>
	<path class="st1" d="M80.5,185.5c-37.8,0-59.8-15.5-67.2-28.8c-0.5-1-0.2-2.2,0.8-2.8c1-0.5,2.2-0.2,2.8,0.8
		c6.8,12.3,27.6,26.7,63.6,26.7c16.4,0,32.1-3.1,44.2-8.6c10.6-4.9,17.8-11.4,19.2-17.5c0.2-1.1,1.3-1.8,2.4-1.5
		c1.1,0.3,1.8,1.3,1.5,2.4c-1.7,7.5-9.5,14.9-21.4,20.4C113.8,182.3,97.5,185.5,80.5,185.5z"/>
	<ellipse class="st5" cx="24.1" cy="113.6" rx="16.3" ry="11.5"/>
	<ellipse class="st5" cx="136.9" cy="113.6" rx="16.3" ry="11.5"/>
	<circle class="st4" cx="41.8" cy="90.7" r="8.3"/>
	<circle class="st4" cx="119.2" cy="90.7" r="8.3"/>
	<ellipse transform="matrix(0.8791 -0.4767 0.4767 0.8791 -16.3832 19.1368)" class="st3" cx="29.5" cy="41.9" rx="17.6" ry="8.7"/>
</g>
<polyline id="Hippo_line_00000093153791751700952890000001918419656140183452_" class="st6 guide" points="0.7,21.7 0.7,209.5 160.3,209.5 160.3,21.7 0.7,21.7 "/>
</svg>
