<?xml version="1.0" encoding="utf-8"?>
<!-- Generator: Adobe Illustrator 26.0.1, SVG Export Plug-In . SVG Version: 6.00 Build 0)  -->
<svg version="1.0" id="Layer" xmlns="http://www.w3.org/2000/svg" xmlns:xlink="http://www.w3.org/1999/xlink" x="0px" y="0px"
	 width="260px" height="193px" viewBox="0 0 260 193" style="enable-background:new 0 0 260 193;" xml:space="preserve">
<style type="text/css">
	.st0{fill:#914D2F;}
	.st1{fill:#513F39;}
	.st2{fill:#A35833;}
	.st3{fill:#B76642;}
	.st4{fill:#E09570;}
	.st5{fill:#2D2119;}
	.st6{fill:#AD5536;}
	.st7{fill:#6B473D;}
	.st8{fill:none;stroke:#000000;stroke-miterlimit:10;opacity:0;}
</style>
<g id="Raccoons_00000165192363543132676240000017106415751680012726_">
	<path class="st0" d="M164,60c-12,9.7-4.3,19.1,2.3,24.8c6.6,5.7,16.5,12.8,24.9-1.4c8.4-14.4,12.8-29,6.2-34.7
		C190.8,43.1,177,49.6,164,60z"/>
	<path class="st1" d="M189.6,57.8c4.3,3.7,0,14.8-7.1,26c-2.6,4.1-5.2,6.1-7.6,6.7c-3.1-1.3-6.1-3.6-8.5-5.8c-2.4-2.1-5-4.7-6.7-7.6
		c0.2-2.5,1.7-5.4,5.3-8.4C175,60.1,185.3,54.2,189.6,57.8z"/>
	<path class="st0" d="M98.9,60c12,9.7,4.3,19.1-2.3,24.8c-6.6,5.7-16.5,12.8-24.9-1.4c-8.4-14.4-12.8-29-6.2-34.7
		C72.1,43.1,85.9,49.6,98.9,60z"/>
	<path class="st1" d="M73.4,57.8c-4.3,3.7,0,14.8,7.1,26c2.6,4.1,5.2,6.1,7.6,6.7c3.1-1.3,6.1-3.6,8.5-5.8c2.4-2.1,5-4.7,6.7-7.6
		c-0.2-2.5-1.7-5.4-5.3-8.4C88,60.1,77.6,54.2,73.4,57.8z"/>
	<path class="st2" d="M180.5,75.8c-24.1-35.9-76.9-35.9-101,0l-17,25.4l-34.3,51.3c-11.4,17,0.8,39.9,21.3,39.9h161.2
		c20.5,0,32.7-22.9,21.3-39.9L180.5,75.8z"/>
	<path class="st3" d="M175.8,69.6C150.1,40,102.1,42,79.5,75.8L77.3,79C105.9,54.4,148.2,50.2,175.8,69.6z"/>
	<ellipse transform="matrix(0.9685 -0.249 0.249 0.9685 -12.0424 29.3396)" class="st3" cx="110" cy="62.3" rx="16.3" ry="9.2"/>
	<path class="st4" d="M177.7,180.7c0-23.4-21.2-42.3-47.4-42.3c-26.2,0-47.4,19-47.4,42.3c0,4,0.6,7.9,1.8,11.6h90.8
		C176.9,188.6,177.7,184.6,177.7,180.7z"/>
	<path class="st4" d="M130.3,150.6l72.9-23.7c0,0-11.6-34.9-47.3-33.1c-13.6,0.7-20.7,9.1-24.1,19.3c-0.6,1.7-2.9,1.7-3.5,0
		c-3.5-10.2-10.5-18.6-24.1-19.3c-35.7-1.8-47.3,33.1-47.3,33.1l72.9,23.7c0,0.1,0,0.2,0,0.2l0.3-0.1l0.3,0.1
		C130.3,150.8,130.3,150.7,130.3,150.6z"/>
	<path class="st5" d="M142.5,153.1c0,1.8-2.9,4.2-5.8,6c-3.3,2.1-7.5,2.1-10.9,0c-2.9-1.8-5.8-4.2-5.8-6c0-3.6,5-6.5,11.2-6.5
		C137.5,146.6,142.5,149.5,142.5,153.1z"/>
	<path class="st1" d="M206,132.9c-0.3-0.8-0.6-1.6-1-2.4c-1-2.2-2.3-4.3-3.8-6.2c-17.1-22.2-34.6-26-46.1-20
		c-15.6,8.2-20.1,32.7,8.2,54.9c0.4,0.4,0.9,0.7,1.4,1c0.2,0.2,0.3,0.3,0.5,0.5c16.6,12.5,10,31.7,10,31.7h35.4
		c0.9,0,1.8-0.1,2.6-0.1C221.3,166.3,209.7,141.5,206,132.9z"/>
	<path class="st1" d="M94.7,160.7c0.1-0.1,0.2-0.1,0.2-0.2c0.6-0.4,1.3-0.8,1.8-1.3c28.3-22.2,23.8-46.7,8.2-54.9
		c-11.7-6.1-29.4-2.2-46.6,20.6c-1.2,1.6-2.3,3.4-3.2,5.3c0,0,0,0,0,0c-2.1,4.3-17.6,32.4-8.5,62c0.9,0.1,1.8,0.2,2.8,0.2h35.3
		C84.7,192.4,78.1,173.2,94.7,160.7z"/>
	<circle class="st5" cx="92.7" cy="129.7" r="8.4"/>
	<circle class="st5" cx="167.3" cy="129.7" r="8.4"/>
	<path class="st6" d="M131.3,180.8c-10.6,0-16.9-5.1-19-9.4c-0.5-1-0.1-2.2,0.9-2.7c1-0.5,2.2-0.1,2.7,0.9c1.7,3.5,7.1,7.1,15.3,7.1
		c7.2,0,12.4-2.5,15.4-7.3c0.6-1,1.9-1.2,2.8-0.6c1,0.6,1.2,1.9,0.6,2.8C147.5,175.8,142,180.8,131.3,180.8z"/>
	<ellipse class="st7" cx="72.1" cy="151" rx="17.1" ry="12.1"/>
	<ellipse class="st7" cx="187.9" cy="151" rx="17.1" ry="12.1"/>
</g>
<polyline id="Raccoons_line_00000183957303423583754120000000317995791118424240_" class="st8 guide" points="130,0.4 1.4,192.4 258.6,192.4 130,0.4 "/>
</svg>
