<?xml version="1.0" encoding="utf-8"?>
<!-- Generator: Adobe Illustrator 26.0.1, SVG Export Plug-In . SVG Version: 6.00 Build 0)  -->
<svg version="1.0" id="Layer" xmlns="http://www.w3.org/2000/svg" xmlns:xlink="http://www.w3.org/1999/xlink" x="0px" y="0px"
	 width="208px" height="215px" viewBox="0 0 208 215" style="enable-background:new 0 0 208 215;" xml:space="preserve">
<style type="text/css">
	.st0{fill:#5B5B5B;}
	.st1{fill:#F2F2F2;}
	.st2{fill:#EEB09A;}
	.st3{fill:#F7F7F7;}
	.st4{fill:#2D2119;}
	.st5{fill:#F7C5B5;}
	.st6{fill:#4B4B4B;}
	.st7{fill:#161414;}
	.st8{fill:#C4BFBF;}
	.st9{fill:none;stroke:#000000;stroke-miterlimit:10;opacity:0;}
</style>
<g id="zebra_00000121263426887479092000000017375459733763621772_">
	<path class="st0" d="M125.7,13.5c-0.6-0.3-1.2,0-1.4,0.6c-1.2,3.7-6.1,8.8-6.1,8.8c0-0.4,0-0.9,0-1.3c-0.2-8.5-5.2-15.7-7.7-16.5
		c-0.7-0.2-1.4,0.3-1.4,1.1c0,4.7-3.6,9.9-7.2,13.9c-0.3-12.7-5.4-16.1-8.1-17c-0.8-0.3-1.5,0.3-1.5,1.1C92.3,16,77,29.7,77,29.7
		l1.1,0.5c0.1,0.4,0.4,0.7,0.8,0.8c2.6,0.6,12.8,2.8,22,1.8c7.4,2,20.9,4.7,26.9-2.5C134.7,22.1,128.7,15,125.7,13.5z"/>
	<path class="st1" d="M62.7,61.2l-34-9.3c-17.1-4.7-28.8-20.3-28.5-38l0,0c0.2-9.4,8.3-16.2,17-12.7L33,7.4C52,15,64.8,32.8,66,53.1
		c0.1,1.3-0.3,2.7-0.9,3.9L62.7,61.2z"/>
	<path class="st2" d="M50,58.5l-21.7-5.9c-10.9-3-18.4-13-18.2-24.3l0,0c0.1-6,2.5-11,8.1-8.7L31,24.1C43.1,29,51.3,40.4,52.1,53.3
		c0.1,0.9-0.2,1.7-0.6,2.5L50,58.5z"/>
	<path class="st1" d="M145.3,61.2l34-9.3c17.1-4.7,28.8-20.3,28.5-38v0c-0.2-9.4-8.3-16.2-17-12.7L175,7.4
		c-19,7.6-31.8,25.4-33,45.7c-0.1,1.3,0.3,2.7,0.9,3.9L145.3,61.2z"/>
	<path class="st2" d="M158,58.5l21.7-5.9c10.9-3,18.4-13,18.2-24.3v0c-0.1-6-2.5-11-8.1-8.7L177,24.1c-12.1,4.8-20.3,16.3-21.1,29.2
		c-0.1,0.9,0.2,1.7,0.6,2.5L158,58.5z"/>
	<path class="st1" d="M179,187.3H29V70.6c0-23.2,18.8-42.1,42.1-42.1h65.8c23.2,0,42.1,18.8,42.1,42.1V187.3z"/>
	<path class="st3" d="M73.2,37.5h71c10.2,0,19.6,3.4,27.2,9c-7.6-10.9-20.2-18-34.5-18H71.1C47.9,28.5,29,47.3,29,70.6v2
		C33.7,52.5,51.7,37.5,73.2,37.5z"/>
	<circle class="st4" cx="71.5" cy="107.3" r="8.8"/>
	<circle class="st4" cx="136" cy="107.3" r="8.8"/>
	<ellipse class="st5" cx="50.3" cy="134.9" rx="17.1" ry="12.1"/>
	<ellipse class="st5" cx="157.7" cy="134.9" rx="17.1" ry="12.1"/>
	<path class="st6" d="M179,158.2c-49.1-13-100.8-13.1-149.9,0l-0.1,0v9.5v13.9v9.5c0,12.8,13.1,23.2,29.3,23.2h91.3
		c16.2,0,29.3-10.4,29.3-23.2v-9.5v-13.9V158.2L179,158.2z"/>
	<circle class="st7" cx="93" cy="168.4" r="3.9"/>
	<circle class="st7" cx="115" cy="168.4" r="3.9"/>
	<path class="st8" d="M104,198.5c-18.8,0-29.7-11-33.3-20.5c-0.4-1.1,0.1-2.2,1.2-2.6c1.1-0.4,2.2,0.1,2.6,1.2
		c3.2,8.2,12.8,17.9,29.5,17.9c12.9,0,27.8-7,29.4-17.5c0.2-1.1,1.2-1.9,2.3-1.7c1.1,0.2,1.9,1.2,1.7,2.3
		C135.4,190.5,118.5,198.5,104,198.5z"/>
	<path class="st6" d="M93.3,28.5c3.7,15.8,4.9,36.6,6,47.1c0.4,4.4,2.6,6.6,4.7,6.5c2.1,0,4.3-2.1,4.7-6.5c1-10.4,2.3-31.3,6-47.1
		H93.3z"/>
	<path class="st6" d="M90.5,28.5H72.6c5.3,13.5,9.5,29,12.1,37.4c1.3,4.2,3.8,5.9,5.9,5.5c2.1-0.4,3.7-2.9,3.3-7.4
		C93.1,56,91.2,41.9,90.5,28.5z"/>
	<path class="st6" d="M117.5,28.5C116.8,41.9,114.9,56,114,64c-0.5,4.4,1.2,7,3.3,7.4c2.1,0.5,4.6-1.2,5.9-5.5
		c2.6-8.4,6.8-23.9,12.1-37.4H117.5z"/>
	<path class="st0" d="M93.3,28.5c0.7,2.9,1.3,5.9,1.8,9h17.8c0.5-3.1,1.1-6.1,1.8-9H93.3z"/>
	<path class="st0" d="M72.6,28.5c1.2,2.9,2.2,6,3.3,9h15.2c-0.2-3-0.5-6-0.6-9H72.6z"/>
	<path class="st0" d="M117.5,28.5c-0.1,3-0.4,6-0.6,9h15.2c1-3,2.1-6.1,3.3-9H117.5z"/>
	<path class="st6" d="M53.9,83c-8.4-0.8-12.4-1.8-24.9-4.9v12.6c0,0,15.6,0.5,24.9-0.4C60.6,89.7,60.8,83.7,53.9,83z"/>
	<path class="st6" d="M40,101.3c-4.2-0.4-7.3-0.9-11-1.6v9.4c3.8-0.1,7.8-0.2,11-0.5C46.7,107.9,46.9,102,40,101.3z"/>
	<path class="st6" d="M154.1,83c8.4-0.8,12.4-1.8,24.9-4.9v12.6c0,0-15.6,0.5-24.9-0.4C147.4,89.7,147.2,83.7,154.1,83z"/>
	<path class="st6" d="M168,101.3c4.2-0.4,7.3-0.9,11-1.6v9.4c-3.8-0.1-7.8-0.2-11-0.5C161.3,107.9,161.1,102,168,101.3z"/>
	<ellipse transform="matrix(0.8791 -0.4767 0.4767 0.8791 -14.5786 30.9186)" class="st3" cx="53.7" cy="44.2" rx="18.4" ry="9.1"/>
</g>
<polyline id="zebra_line_00000070100733041549115460000003095978829516239021_" class="st9 guide" points="29.1,28.6 29.1,214.2 179,214.2 179,28.6 29.1,28.6 "/>
</svg>
