<?xml version="1.0" encoding="utf-8"?>
<!-- Generator: Adobe Illustrator 26.0.1, SVG Export Plug-In . SVG Version: 6.00 Build 0)  -->
<svg version="1.0" id="Layer" xmlns="http://www.w3.org/2000/svg" xmlns:xlink="http://www.w3.org/1999/xlink" x="0px" y="0px"
	 width="194px" height="228px" viewBox="0 0 194 228" style="enable-background:new 0 0 194 228;" xml:space="preserve">
<style type="text/css">
	.st0{fill:#E6C38B;}
	.st1{fill:#F4D09A;}
	.st2{fill:#F3E2CB;}
	.st3{fill:#ECC07B;}
	.st4{fill:#F7E7D2;}
	.st5{fill:#C97E4D;}
	.st6{fill:#2D2119;}
	.st7{fill:#DB8758;}
	.st8{fill:#825426;}
	.st9{fill:#965F2D;}
	.st10{fill:#F7C5B5;}
	.st11{fill:#845420;}
	.st12{fill:none;stroke:#000000;stroke-miterlimit:10;opacity:0;}
</style>
<g id="cow_00000000930170200988977410000002954618828998390716_">
	<path class="st0" d="M111.6,31.5c6.6-7,11.9-17.1,11.4-24.7s2.4-7.8,6.6-4.4c4.2,3.4,19.6,16,9.1,42L111.6,31.5z"/>
	<path class="st1" d="M128.6,6.4c2.6,2.1,10.5,8,13.6,18.4c-1.1-13.1-9.6-20-12.6-22.4c-3.9-3.1-6.6-3.2-6.7,2.6
		C124.1,3.7,126.1,4.4,128.6,6.4z"/>
	<path class="st0" d="M82.4,31.5c-6.6-7-11.9-17.1-11.4-24.7S68.6-1,64.4,2.4s-19.6,16-9.1,42L82.4,31.5z"/>
	<path class="st1" d="M81.7,31.8l0.7-0.3c-2-2.1-3.8-4.5-5.5-7C78.3,27.1,79.9,29.6,81.7,31.8z"/>
	<path class="st1" d="M66.6,6.1C68.3,4.7,69.9,3.9,71,4c-0.3-4.8-3-4.5-6.7-1.6C61.1,4.9,51.5,12.8,51.7,28
		C54.6,15.7,63.8,8.3,66.6,6.1z"/>
	<path class="st2" d="M62.5,68.9l-34-9.3C11.5,54.9-0.3,39.3,0,21.6L0.2,12c0-2.6,2.7-4.3,5.1-3.4l24.1,9.6C49,26.1,62,44.9,62.5,66
		L62.5,68.9z"/>
	<path class="st3" d="M3.4,28l-0.2,9.6c4.6,10.6,13.7,18.9,25.4,22l34,9.3l0-1.2c-5-14-15.7-25.5-30-31.2L6.4,26
		C5,25.4,3.4,26.5,3.4,28z"/>
	<path class="st2" d="M131.5,68.9l34-9.3c17.1-4.7,28.8-20.3,28.5-38l-0.2-9.6c0-2.6-2.7-4.3-5.1-3.4l-24.1,9.6
		C145,26.1,132,44.9,131.5,66L131.5,68.9z"/>
	<path class="st3" d="M190.6,28l0.2,9.6c-4.6,10.6-13.7,18.9-25.4,22l-34,9.3l0-1.2c5-14,15.7-25.5,30-31.2L187.6,26
		C189,25.4,190.6,26.5,190.6,28z"/>
	<path class="st2" d="M172,200.3H22V83.4c0-23.3,18.9-42.1,42.1-42.1h65.9c23.3,0,42.1,18.9,42.1,42.1V200.3z"/>
	<ellipse transform="matrix(0.8791 -0.4767 0.4767 0.8791 -22.396 28.9565)" class="st4" cx="45.9" cy="58.6" rx="18.5" ry="9.1"/>
	<path class="st4" d="M129.9,41.3H64.1C40.8,41.3,22,60.2,22,83.4v4.1c4.6-20.3,22.7-35.4,44.3-35.4h71c11.3,0,21.5,4.1,29.5,10.9
		C159.6,50.1,145.8,41.3,129.9,41.3z"/>
	<path class="st5" d="M172,83.4c0-22.1-17.1-40.3-38.8-42c-7.9,15.3-1.3,32.4-29.2,64.2c-18,20.5-55.7,96.3,20.8,97.9
		c17.7,0.4,35.4-14.2,47.2-15.7V83.4z"/>
	<circle class="st6" cx="60.3" cy="126.2" r="8.8"/>
	<circle class="st6" cx="133.7" cy="126.2" r="8.8"/>
	<path class="st5" d="M22,83.4v40.3c10.1-3.6,17.5-13.4,14.3-20.6c-4.5-10.2-4.2-16.7,11.4-23.7c13.7-6.2,9-22.8,1-35.1
		C33,50.4,22,65.6,22,83.4z"/>
	<path class="st7" d="M166.8,63C166.8,63,166.7,63,166.8,63c-0.5-0.9-0.9-1.6-1.4-2.4c0,0,0,0,0-0.1c-0.4-0.7-0.9-1.3-1.4-2
		c-0.1-0.1-0.2-0.3-0.3-0.4c-1-1.3-2.1-2.6-3.2-3.8c-0.2-0.2-0.3-0.3-0.5-0.5c-0.5-0.5-0.9-0.9-1.4-1.3c-0.1-0.1-0.3-0.3-0.4-0.4
		c-0.6-0.5-1.2-1-1.8-1.5c-0.2-0.2-0.5-0.4-0.7-0.5c-0.4-0.3-0.8-0.6-1.3-0.9c-0.3-0.2-0.5-0.4-0.8-0.6c-0.6-0.4-1.2-0.8-1.8-1.2
		c-0.3-0.2-0.6-0.3-0.9-0.5c-0.4-0.2-0.8-0.4-1.2-0.6c-0.4-0.2-0.7-0.4-1.1-0.6c-0.4-0.2-0.8-0.4-1.2-0.5c-0.6-0.3-1.2-0.5-1.8-0.8
		c-0.4-0.1-0.7-0.3-1.1-0.4c-0.4-0.2-0.9-0.3-1.3-0.5c-0.3-0.1-0.6-0.2-1-0.3c-0.8-0.2-1.6-0.5-2.4-0.7c-0.3-0.1-0.6-0.2-0.9-0.2
		c-0.5-0.1-1-0.2-1.4-0.3c-0.3-0.1-0.6-0.1-0.9-0.2c-0.5-0.1-1-0.2-1.5-0.2c-0.2,0-0.5,0-0.7-0.1c-0.5-0.1-0.9-0.1-1.4-0.1
		c-1.8,3.4-2.8,7-3.7,10.7h7.7C148.6,52.2,158.8,56.3,166.8,63z"/>
	<path class="st7" d="M37.9,50.4C37.9,50.4,37.9,50.5,37.9,50.4c-1.6,1.3-3.1,2.7-4.5,4.2c0,0-0.1,0.1-0.1,0.1
		c-0.7,0.7-1.4,1.5-2,2.3c0,0,0,0,0,0.1c-0.6,0.8-1.2,1.5-1.7,2.3c0,0.1-0.1,0.1-0.1,0.2c-0.6,0.8-1.1,1.6-1.6,2.5
		c-0.1,0.1-0.1,0.2-0.2,0.3c-0.5,0.8-0.9,1.6-1.3,2.4c0,0.1-0.1,0.2-0.1,0.3c-0.4,0.9-0.8,1.7-1.2,2.6C25,67.7,25,67.8,24.9,68
		c-0.3,0.8-0.6,1.6-0.9,2.5c0,0.1-0.1,0.2-0.1,0.3c-0.3,0.9-0.5,1.8-0.8,2.7c0,0.2-0.1,0.4-0.1,0.6c-0.2,0.9-0.4,1.8-0.5,2.6
		c0,0.1,0,0.1,0,0.2c-0.1,0.9-0.3,1.9-0.3,2.9c0,0.2,0,0.5-0.1,0.7c-0.1,1-0.1,2-0.1,2.9v4.1c3.6-16.2,16-29.1,31.8-33.7
		c-1.4-3.3-3.1-6.6-5.1-9.7C44.8,45.8,41.1,47.9,37.9,50.4z"/>
	<path class="st8" d="M143,53.9c-0.8-2-1.7-3.9-2.8-5.6c-5.4-9.1-18.7-16.2-34.7-17.4c-1.2-0.1-2.5-0.1-3.7-0.2
		C93,29.7,50.1,25,49.2,39.5C48.6,48.8,59,50.6,64,50.9c-3.5,8.5-2.4,17.1,2.9,19.8c5,2.5,12-1,16.9-8c2.4,8.3,8.1,13.9,13.6,13
		c4.3-0.7,7.4-5.1,8.5-11c4.1,7.4,10.6,11.7,15.8,9.8c1.8-0.7,3.3-2.1,4.3-4c3.9,4.5,8.7,6.8,12.7,5.3
		C144.7,73.5,146.7,63.7,143,53.9z"/>
	<path class="st9" d="M54,46.5c1-14.5,43.8-9.8,52.7-8.7c1.2,0,2.4,0.1,3.7,0.2c13.3,1,24.7,6,31.3,12.9c-0.4-0.9-0.9-1.7-1.4-2.5
		c-5.4-9.1-18.7-16.2-34.7-17.4c-1.2-0.1-2.5-0.1-3.7-0.2C93,29.7,50.1,25,49.2,39.5c-0.3,4.4,1.9,7.1,4.9,8.8
		C54,47.7,54,47.1,54,46.5z"/>
	<ellipse class="st10" cx="43.3" cy="149.7" rx="17.1" ry="12.1"/>
	<ellipse class="st10" cx="150.7" cy="149.7" rx="17.1" ry="12.1"/>
	<path class="st3" d="M142.7,227.3H51.3C35.1,227.3,22,216.9,22,204v-23.4l0.1,0c48.7-12.9,101.3-12.9,150,0l0,0V204
		C172,216.9,158.9,227.3,142.7,227.3z"/>
	<circle class="st11" cx="86" cy="179.2" r="3.9"/>
	<circle class="st11" cx="108" cy="179.2" r="3.9"/>
	<path class="st8" d="M97,217.6c-18.8,0-29.7-11-33.4-20.5c-0.4-1.1,0.1-2.2,1.2-2.6c1.1-0.4,2.2,0.1,2.6,1.2
		c3.2,8.3,12.8,17.9,29.6,17.9c12.9,0,27.8-7,29.4-17.5c0.2-1.1,1.2-1.9,2.3-1.7c1.1,0.2,1.9,1.2,1.7,2.3
		C128.4,209.6,111.5,217.6,97,217.6z"/>
	<path class="st7" d="M50.2,66.7c2.2-1.2,4.2-2.6,5.9-4c-0.7-5-2.8-10.5-5.7-15.4c-2.8,0.6-5.9,1.7-9,3.4
		c-9,4.9-14.3,12.4-11.9,16.8C32.1,71.9,41.3,71.5,50.2,66.7z"/>
</g>
<polyline id="cow_line_00000120538909291266133840000007863369882686720164_" class="st12 guide" points="22,41.3 22,227.2 172,227.2 172,41.3 22,41.3 "/>
</svg>
