<?xml version="1.0" encoding="utf-8"?>
<!-- Generator: Adobe Illustrator 26.0.1, SVG Export Plug-In . SVG Version: 6.00 Build 0)  -->
<svg version="1.0" id="Layer" xmlns="http://www.w3.org/2000/svg" xmlns:xlink="http://www.w3.org/1999/xlink" x="0px" y="0px"
	 width="229px" height="300px" viewBox="0 0 229 300" style="enable-background:new 0 0 229 300;" xml:space="preserve">
<style type="text/css">
	.st0{fill:#543D2E;}
	.st1{fill:#D68147;}
	.st2{fill:#FDC0A7;}
	.st3{fill:#E08E58;}
	.st4{fill:#F3C888;}
	.st5{fill:#E08B4B;}
	.st6{fill:#F29E64;}
	.st7{fill:#2D2119;}
	.st8{fill:#AD5536;}
	.st9{fill:#F7D3A4;}
	.st10{fill:#F9A973;}
	.st11{fill:none;stroke:#000000;stroke-miterlimit:10;opacity:0;}
</style>
<g id="deer_00000103945441609261524570000005525544598194381455_">
	<path class="st0" d="M28.6,49.8C28.6,49.8,28.6,49.8,28.6,49.8c-1.1-0.8-1-0.6-0.6-0.3C28.2,49.6,28.4,49.7,28.6,49.8
		C28.6,49.8,28.6,49.8,28.6,49.8z"/>
	<path class="st0" d="M98.1,104.1c-0.5-10.2-5-19.3-11.8-26.8C81.5,72,73.9,69,72.5,61.4c-0.9-4.7-0.5-10.6,1.7-14.9
		c0.2-0.5,0.4-1.1,0.6-1.4c2.1-4,1.1-9.5-3.1-11.8c-4-2.1-9.5-1.2-11.8,3.1c-3,5.7-4.6,11.9-4.9,18.2c-0.1,1.9-2,3.2-3.9,2.6
		c-0.7-0.2-1.4-0.5-2.1-0.7c-9.1-2.9-0.9-27,1.8-32.6c2-4,1.2-9.5-3.1-11.8c-3.9-2-9.6-1.2-11.8,3.1c-5.3,10.8-7.7,22.9-6.8,34.8
		c-0.2-0.1-0.4-0.2-0.7-0.3c0,0,0.1,0,0.1,0.1c0,0-0.1-0.1-0.1-0.1c-0.2-0.1-0.4-0.2-0.6-0.3c-4.7-3-9.4-4.1-10.5-10.5
		c-1.4-8.4,2.3-19.4,3.6-27.7c0.4-2.4,0.4-4.5-0.9-6.6c-1-1.8-3.1-3.5-5.1-3.9C11-0.2,5.3,2,4.5,6.7c-0.9,5.5-1.8,11-2.7,16.5
		C1,28.7-0.3,34.5,0.2,40.1c0.6,6.1,2.8,11.5,7,16c3.1,3.4,7.2,6.1,11.4,8c9.2,4.3,19.1,6.7,28.7,9.9c2.2,0.7,4.5,1.5,6.7,2.4
		c7.7,3,15.1,7.3,20.6,13.5c5.1,5.8,4.7,26.6,17.2,22.5C95.2,111.3,98.3,108,98.1,104.1z"/>
	<path class="st0" d="M49.7,26.6C49.8,26.6,49.8,26.5,49.7,26.6C49.8,26.5,49.8,26.6,49.7,26.6C49.7,26.6,49.7,26.6,49.7,26.6z"/>
	<path class="st0" d="M200.4,49.8C200.4,49.8,200.4,49.8,200.4,49.8c1.1-0.8,1-0.6,0.6-0.3C200.8,49.6,200.6,49.7,200.4,49.8
		C200.4,49.8,200.4,49.8,200.4,49.8z"/>
	<path class="st0" d="M130.9,104.1c0.5-10.2,5-19.3,11.8-26.8c3.5-3.9,9.5-6.6,12.2-10.9c5.9-9.4-7.9-27.7,2.3-33.1
		c4-2.1,9.5-1.2,11.8,3.1c3,5.7,4.6,11.9,4.9,18.2c0.2,5.4,6.1,1.7,7.5-0.3c7.6-11.4-11.9-35.9-0.3-42c3.9-2,9.6-1.2,11.8,3.1
		c5.5,11.2,7,22.7,7,35c0-1,10.2-5.8,11.3-8.5c2.4-5.6-0.5-16.3-1.8-22c-0.7-2.9-1.5-5.9-1.6-8.9c-0.1-3,0.6-6.2,2.7-8.4
		c4-4.2,13-1.8,14,4.1c0.9,5.5,1.8,11,2.7,16.5c0.9,5.5,2.2,11.3,1.7,16.9c-1.1,11-8.4,19.4-18.4,24c-14.9,7-32,8.9-46.1,17.6
		c-3.6,2.2-8.1,5.7-10.8,9.4c-3.3,4.6-3.1,9.9-5.4,14.8c-0.4,0.9-0.9,1.8-1.3,2.7c-1.7,3.1-6.3,4.8-9.6,3.7
		C133.8,111.3,130.7,108,130.9,104.1z"/>
	<path class="st0" d="M179.3,26.6C179.2,26.6,179.2,26.5,179.3,26.6C179.2,26.5,179.2,26.6,179.3,26.6
		C179.3,26.6,179.3,26.6,179.3,26.6z"/>
	<path class="st1" d="M158.5,129.4c0,0,25.1-48.7,67-51.4c1.3-0.1,2.5,0.9,2.6,2.2c1,7.4,2.8,31.2-13.4,42.9
		C195.3,137.1,168.6,139.1,158.5,129.4z"/>
	<path class="st2" d="M174.3,135.3c12.2,0.9,27.8-3.1,40.3-12.2c8.2-5.9,11.8-14.9,13.2-23.3C203.3,102.9,184.9,121.4,174.3,135.3z"
		/>
	<path class="st1" d="M70.5,129.4c0,0-25.1-48.7-67-51.4c-1.3-0.1-2.5,0.9-2.6,2.2c-1,7.4-2.8,31.2,13.4,42.9
		C33.7,137.1,60.4,139.1,70.5,129.4z"/>
	<path class="st3" d="M3.3,86.7c31.1,2.1,54.3,25.6,67.2,42.7c-0.4-0.7-25.4-48.7-67-51.4c-1.3-0.1-2.5,0.9-2.6,2.2
		c-0.3,2-0.6,5.1-0.6,8.8C0.6,87.6,1.9,86.6,3.3,86.7z"/>
	<path class="st3" d="M225.7,86.7c-31.1,2.1-54.3,25.6-67.2,42.7c0.4-0.7,25.4-48.7,67-51.4c1.3-0.1,2.5,0.9,2.6,2.2
		c0.3,2,0.6,5.1,0.6,8.8C228.4,87.6,227.1,86.6,225.7,86.7z"/>
	<path class="st2" d="M54.7,135.3c-12.2,0.9-27.8-3.1-40.3-12.2c-8.2-5.9-11.8-14.9-13.2-23.3C25.7,102.9,44.1,121.4,54.7,135.3z"/>
	<path class="st4" d="M152,235.8c-7.2,13-18.6,26.9-37.9,26.9h0c-18.1,0-31.6-15.6-38.3-28.8c-28.3-55.4-32.3-78.1-32.3-78.1
		c-6-31,11.8-52.9,42.7-52.9h55.9c30.8,0,51.3,27.3,42.7,52.9C184.7,155.8,171.4,200.5,152,235.8z"/>
	<path class="st5" d="M142.1,102.9H86.1c-30.1,0-47.9,20.9-43.1,50.7c5-1.9,10.4-2.8,16-2.8c25.6,0,46.6,18.6,48.9,67.8
		c1.7,0.1,3.4,0.1,5.1,0.2c2.6,0.1,5.3,0.1,7.9,0.1c2.2-49.4,23.3-68.1,49-68.1c5.4,0,10.6,0.8,15.5,2.6
		C192.1,128.5,172,102.9,142.1,102.9z"/>
	<path class="st6" d="M88.7,113.5h62.9c10.4,0,19.8,2.8,27.5,7.4c-7.8-10.7-21-18-37-18H86.1c-26.2,0-43,15.8-43.8,39.4
		C48.8,124.6,65.5,113.5,88.7,113.5z"/>
	<path class="st7" d="M123.6,219.1c0,1.1-2.1,3.4-3.4,4.5c-3.9,3.6-7.5,3.6-11.4,0c-1.3-1.2-3.4-3.5-3.4-4.5c0-3.3,4.1-4.9,9.1-4.9
		C119.5,214.2,123.6,215.8,123.6,219.1z"/>
	<path class="st8" d="M114.5,244.7c-10.6,0-16.9-5.1-19-9.4c-0.5-1-0.1-2.2,0.9-2.7c1-0.5,2.2-0.1,2.7,0.9c1.7,3.5,7.2,7.1,15.3,7.1
		c7.2,0,12.4-2.5,15.5-7.3c0.6-1,1.9-1.2,2.8-0.6c1,0.6,1.2,1.9,0.6,2.8C130.7,239.7,125.3,244.7,114.5,244.7z"/>
	<circle class="st7" cx="81.2" cy="184.7" r="8.1"/>
	<circle class="st7" cx="149.4" cy="184.7" r="8.1"/>
	<g>
		<path class="st4" d="M89.4,113.2c0-0.5,0.1-0.9,0.3-1.3c0.3-0.6,0.9-1,1.4-1.3c8.1-4.9,16.7,2.7,19.9,10c0.7,1.5,1,3.3,0,4.8
			c-2.1,3.1-7.1,2.2-10.1,1.3c-4.4-1.3-9.6-4.6-11.2-9.2c-0.4-1.2-0.5-2.4-0.5-3.6C89.4,113.6,89.4,113.4,89.4,113.2z"/>
	</g>
	<g>
		<path class="st4" d="M116.8,112.8c0.2-0.9,0.7-1.7,1.9-2.1c1.2-0.4,2.5-0.1,3.7,0.3c1.9,0.7,3.6,1.7,5.1,3c1.1,1,2.1,2.1,2.5,3.5
			c0.5,1.4,0.3,3-0.6,4.1c-2.9,3.4-9.4-2.1-11.2-4.4C117.2,116.1,116.5,114.2,116.8,112.8z"/>
	</g>
	<g>
		<path class="st9" d="M91.1,110.6c-0.6,0.3-1.1,0.7-1.4,1.3c-0.2,0.4-0.3,0.8-0.3,1.3c0,0.1,0,0.3,0,0.4h16.8
			C102,109.6,96.5,107.3,91.1,110.6z"/>
	</g>
	<g>
		<path class="st9" d="M118.7,110.7c-1.1,0.4-1.7,1.2-1.9,2.1c0,0.3-0.1,0.5-0.1,0.8h10.1c-1.4-1.1-2.9-2-4.5-2.6
			C121.2,110.6,119.8,110.3,118.7,110.7z"/>
	</g>
	<g>
		<path class="st4" d="M112.2,137c2.5-3.8,15.2-9.8,14.2-1.1c-0.3,2.9-1.4,5.7-2.7,8.3c-1,1.9-2.4,5.1-4.4,6.1
			c-3,1.5-5.8-1.3-7.2-3.7C110.5,143.5,110.3,139.9,112.2,137z"/>
	</g>
	<g>
		<path class="st4" d="M90.6,130c0.2-0.2,0.4-0.3,0.7-0.4c0.4-0.1,0.9,0,1.3,0.1c1.9,0.5,4.6,2,5.5,3.9c0.6,1.3,0.5,3-0.7,3.8
			c-1.2,0.9-3,0.4-4.2-0.5C92.2,136.1,89.2,131.4,90.6,130z"/>
	</g>
	<g>
		<path class="st4" d="M135.3,130.5c-0.1-0.1-0.3-0.3-0.3-0.5c-0.1-0.3,0-0.7,0.1-1c0.5-1.5,1.8-3.6,3.4-4.3
			c1.1-0.5,2.6-0.4,3.3,0.5c0.8,1,0.3,5.3-0.5,6.3C140.6,132.2,136.6,131.6,135.3,130.5z"/>
	</g>
	<path class="st10" d="M67.5,217.2c7.4-1,13-5.5,13-11c0-6.2-7.1-11.2-15.9-11.2c-2.4,0-4.7,0.4-6.8,1.1
		C60.5,202.2,63.7,209.3,67.5,217.2z"/>
	<path class="st10" d="M170.6,195.8c-1.9-0.6-4-0.9-6.2-0.9c-8.8,0-15.9,5-15.9,11.2c0,5.5,5.5,10,12.8,11
		C164.7,209.9,167.8,202.6,170.6,195.8z"/>
	<ellipse transform="matrix(0.9013 -0.4332 0.4332 0.9013 -45.1367 40.063)" class="st6" cx="65.3" cy="119.1" rx="16.3" ry="9.2"/>
</g>
<polyline id="deer_line_00000065052033272655101390000017472395597952354460_" class="st11 guide" points="4.3,102.5 114.5,298.5 224.7,102.5 4.3,102.5 "/>
</svg>
