<?xml version="1.0" encoding="utf-8"?>
<!-- Generator: Adobe Illustrator 26.0.1, SVG Export Plug-In . SVG Version: 6.00 Build 0)  -->
<svg version="1.0" id="Layer" xmlns="http://www.w3.org/2000/svg" xmlns:xlink="http://www.w3.org/1999/xlink" x="0px" y="0px"
	 width="211px" height="193px" viewBox="0 0 211 193" style="enable-background:new 0 0 211 193;" xml:space="preserve">
<style type="text/css">
	.st0{fill:#FFAD99;}
	.st1{fill:#FFB9AE;}
	.st2{fill:#2D2119;}
	.st3{fill:#FF8D76;}
	.st4{fill:#FF7669;}
	.st5{fill:#A34353;}
	.st6{fill:#A03A4B;}
	.st7{fill:#F4907D;}
	.st8{fill:#F4A292;}
	.st9{fill:none;stroke:#000000;stroke-miterlimit:10;opacity:0;}
</style>
<g id="pig_00000158007263837201885320000003386411577424278689_">
	<circle class="st0" cx="105.5" cy="96.5" r="96"/>
	<path class="st1" d="M110.6,13c30.8,0,58.4,13.3,77.5,34.6c-16.7-28.2-47.4-47-82.6-47c-51.4,0-93.3,40.4-95.9,91.1
		C21,46.4,61.9,13,110.6,13z"/>
	<circle class="st2" cx="62.4" cy="92.4" r="8.7"/>
	<circle class="st2" cx="148.6" cy="92.4" r="8.7"/>
	<ellipse class="st3" cx="47.3" cy="114.1" rx="18.5" ry="13.1"/>
	<ellipse class="st3" cx="163.7" cy="114.1" rx="18.5" ry="13.1"/>
	<ellipse transform="matrix(0.8879 -0.46 0.46 0.8879 -6.6034 32.5632)" class="st1" cx="63.5" cy="29.8" rx="25.5" ry="13.4"/>
	<path class="st4" d="M132.8,120c0,10.6-12.2,14.9-27.3,14.9s-27.3-4.3-27.3-14.9s12.2-23.5,27.3-23.5S132.8,109.4,132.8,120z"/>
	<path class="st5" d="M105.5,161.1c-16.2,0-27.9-10.3-31-20.5c-0.3-1.1,0.3-2.2,1.3-2.5c1.1-0.3,2.2,0.3,2.5,1.3
		c2.2,7.1,11.2,17.6,27.2,17.6c15.8,0,25-10.8,27.2-17.6c0.3-1.1,1.5-1.7,2.5-1.3c1.1,0.3,1.7,1.5,1.3,2.5
		C132.4,153.9,117.5,161.1,105.5,161.1z"/>
	<ellipse class="st6" cx="97.9" cy="119.1" rx="3.4" ry="7.6"/>
	<ellipse class="st6" cx="113.9" cy="119.1" rx="3.4" ry="7.6"/>
	<path class="st7" d="M53.2,15.7c0,0-30.2-13.5-42.2-1.9S-2.2,54.7,3.5,57C9.7,59.4,36,43.4,48,32.3S58.3,19.8,53.2,15.7z"/>
	<path class="st8" d="M13.1,21c10.6-10.2,32.9-4.2,44-0.2c0-1.9-1.6-3.2-3.9-5.1c0,0-30.2-13.5-42.2-1.9C1.8,22.6-1,41.6,0.6,51.3
		C1.9,40.3,5.8,28,13.1,21z"/>
	<path class="st7" d="M157.8,15.7c0,0,30.2-13.5,42.2-1.9s13.1,41,7.4,43.2c-6.2,2.4-32.5-13.6-44.5-24.7
		C150.9,21.2,152.7,19.8,157.8,15.7z"/>
	<path class="st8" d="M197.9,21c-10.6-10.2-32.9-4.2-44-0.2c0-1.9,1.6-3.2,3.9-5.1c0,0,30.2-13.5,42.2-1.9
		c9.1,8.8,11.9,27.9,10.3,37.5C209.1,40.3,205.2,28,197.9,21z"/>
</g>
<path id="pig_line_00000090980174475868079250000003578916655409142422_" class="st9 guide" d="M105.5,0.5c53,0,96,43,96,96c0,53-43,96-96,96h0c-53,0-96-43-96-96S52.5,0.5,105.5,0.5"/>
</svg>
