<?xml version="1.0" encoding="utf-8"?>
<!-- Generator: Adobe Illustrator 26.0.1, SVG Export Plug-In . SVG Version: 6.00 Build 0)  -->
<svg version="1.0" id="Layer" xmlns="http://www.w3.org/2000/svg" xmlns:xlink="http://www.w3.org/1999/xlink" x="0px" y="0px"
	 width="195px" height="282px" viewBox="0 0 195 282" style="enable-background:new 0 0 195 282;" xml:space="preserve">
<style type="text/css">
	.st0{fill:#AF5F3C;}
	.st1{fill:#4C3629;}
	.st2{fill:#BF7043;}
	.st3{fill:#CC7D50;}
	.st4{fill:#543D2E;}
	.st5{fill:#BCAA91;}
	.st6{fill:#2D2119;}
	.st7{fill:#E0C5A4;}
	.st8{fill:#D67451;}
	.st9{fill:none;stroke:#000000;stroke-miterlimit:10;opacity:0;}
</style>
<g id="horse_00000044872237739388425320000011595275633004188854_">
	<path class="st0" d="M70.8,33.3c2.7,16.6-2.6,21.9-10,23s-14-2.1-16.7-18.7c-1.8-11.1,1.9-25.9,4.6-34.5c1-3.1,5-3.7,6.9-1.1
		C60.9,9.3,69.1,22.2,70.8,33.3z"/>
	<path class="st1" d="M66.8,42.5c1.6,10-1.6,13.1-6,13.8c-4.4,0.7-8.4-1.2-10-11.2c-1.1-6.6,1.2-15.5,2.8-20.6
		c0.6-1.8,3-2.2,4.1-0.7C60.9,28.2,65.8,35.9,66.8,42.5z"/>
	<path class="st0" d="M123.9,33.3c-2.7,16.6,2.6,21.9,10,23c7.4,1.2,14-2.1,16.7-18.7c1.8-11.1-1.9-25.9-4.6-34.5
		c-1-3.1-5-3.7-6.9-1.1C133.8,9.3,125.7,22.2,123.9,33.3z"/>
	<path class="st1" d="M127.9,42.5c-1.6,10,1.6,13.1,6,13.8c4.4,0.7,8.4-1.2,10-11.2c1.1-6.6-1.2-15.5-2.8-20.6
		c-0.6-1.8-3-2.2-4.1-0.7C133.8,28.2,129,35.9,127.9,42.5z"/>
	<path class="st2" d="M97.4,252.8L97.4,252.8c-14.6,0-27.4-9.6-31.5-23.6L29.3,104.8c-8.3-28.3,12.9-56.6,42.3-56.6h51.5
		c29.5,0,50.7,28.3,42.3,56.6l-36.6,124.4C124.7,243.2,111.9,252.8,97.4,252.8z"/>
	<path class="st3" d="M77.4,58.4h58.3c7.1,0,13.8,1.5,19.9,4.1c-8-8.7-19.4-14.3-32.5-14.3H71.6c-27.8,0-48.2,25.2-43.4,51.9
		C32.1,77.1,52,58.4,77.4,58.4z"/>
	<path class="st4" d="M131,221.9c-9.7-3.1-21.3-5-33.7-5c-12.4,0-23.9,1.8-33.7,5l2.2,7.3c3.9,13.1,15.4,22.3,28.8,23.4
		c0.9,0.1,1.8,0.1,2.7,0.1s1.8-0.1,2.7-0.1c13.4-1.1,24.9-10.4,28.8-23.4L131,221.9z"/>
	<circle class="st5" cx="86.3" cy="232.8" r="4"/>
	<circle class="st5" cx="108.4" cy="232.8" r="4"/>
	<circle class="st6" cx="63.3" cy="141.5" r="8.2"/>
	<circle class="st6" cx="131.4" cy="141.5" r="8.2"/>
	<path class="st7" d="M115.1,104.1L99.8,75.7c-0.5-0.9-1.8-1-2.4,0l-17.6,30c-2.4,4.2-2.5,9.3-0.2,13.6l16.5,30.6l18.8-32.1
		C117.3,113.6,117.4,108.4,115.1,104.1z"/>
	<path class="st7" d="M102.2,147.9L96.4,134l-6.7,14.8c-1.9,4.2-2,9.3-0.2,13.6l4.6,11c0.5,1.1,2,1.1,2.5,0l5.4-12
		C104,157.3,104,152.1,102.2,147.9z"/>
	<ellipse transform="matrix(0.9013 -0.4332 0.4332 0.9013 -23.7486 30.532)" class="st3" cx="55.1" cy="67.4" rx="16.3" ry="9.2"/>
	<path class="st8" d="M63.3,162.7c0-6.7-7.7-12.2-17.2-12.2c-1.1,0-2.3,0.1-3.4,0.2l7,23.8C57.5,173.4,63.3,168.5,63.3,162.7z"/>
	<path class="st8" d="M148.6,150.6c-9.5,0-17.2,5.4-17.2,12.2c0,5.8,5.8,10.7,13.5,11.9l7-23.8C150.8,150.6,149.7,150.6,148.6,150.6
		z"/>
</g>
<polyline id="horse_line_00000093157764347303790130000013524950977709362566_" class="st9 guide" points="1,48.2 97.4,280.3 193.8,48.2 1,48.2 "/>
</svg>
