<?xml version="1.0" encoding="utf-8"?>
<!-- Generator: Adobe Illustrator 26.0.1, SVG Export Plug-In . SVG Version: 6.00 Build 0)  -->
<svg version="1.0" id="Layer" xmlns="http://www.w3.org/2000/svg" xmlns:xlink="http://www.w3.org/1999/xlink" x="0px" y="0px"
	 width="214px" height="197px" viewBox="0 0 214 197" style="enable-background:new 0 0 214 197;" xml:space="preserve">
<style type="text/css">
	.st0{fill:#B37657;}
	.st1{fill:#FFB98A;}
	.st2{fill:#C17E63;}
	.st3{fill:#F2D3CC;}
	.st4{fill:#2D2119;}
	.st5{fill:#843C28;}
	.st6{fill:none;stroke:#000000;stroke-miterlimit:10;opacity:0;}
</style>
<g id="bear_00000152250418190070009160000008733982297656931215_">
	<circle class="st0" cx="30.4" cy="30.5" r="30.3"/>
	<circle class="st1" cx="34.4" cy="34.5" r="16.1"/>
	<circle class="st0" cx="183.6" cy="30.5" r="30.3"/>
	<circle class="st1" cx="179.6" cy="34.5" r="16.1"/>
	<ellipse class="st0" cx="107" cy="102.4" rx="97.9" ry="93.8"/>
	<path class="st2" d="M114.1,20.2c28.5,0,54.2,10.9,73.1,28.5c-17.7-24.2-47-40-80.2-40c-54.1,0-97.9,42-97.9,93.7
		c0,3.5,0.2,6.9,0.6,10.3C13.8,61,58.9,20.2,114.1,20.2z"/>
	<ellipse class="st1" cx="39.1" cy="123.7" rx="21.6" ry="15.3"/>
	<ellipse class="st1" cx="174.9" cy="123.7" rx="21.6" ry="15.3"/>
	<ellipse class="st3" cx="107" cy="131.2" rx="41.4" ry="29.4"/>
	<circle class="st4" cx="64.1" cy="97.2" r="10"/>
	<circle class="st4" cx="149.9" cy="97.2" r="10"/>
	<ellipse transform="matrix(0.9368 -0.3499 0.3499 0.9368 -5.8083 28.5458)" class="st2" cx="76.1" cy="30.3" rx="22.3" ry="10.5"/>
	<path class="st5" d="M107,151.6c-12.8,0-23.2-10.4-23.2-23.2c0-1.2,1-2.2,2.2-2.2s2.2,1,2.2,2.2c0,10.4,8.4,18.8,18.8,18.8
		s18.8-8.4,18.8-18.8c0-1.2,1-2.2,2.2-2.2c1.2,0,2.2,1,2.2,2.2C130.2,141.2,119.8,151.6,107,151.6z"/>
	<path class="st4" d="M116.8,113.1c0,1.6-2.6,3.6-5.1,5.3c-2.9,1.9-6.6,1.9-9.5,0c-2.5-1.6-5.1-3.6-5.1-5.3c0-3.2,4.4-5.7,9.8-5.7
		S116.8,109.8,116.8,113.1z"/>
</g>
<path id="bear_line_00000000192331665947496680000011333931755724780681_" class="st6 guide" d="M107,8.8c54.1,0,97.9,42,97.9,93.8s-43.8,93.8-97.9,93.8l0,0c-54.1-0.1-97.9-42.1-97.9-93.9S52.9,8.8,107,8.8"/>
</svg>
