<?xml version="1.0" encoding="utf-8"?>
<!-- Generator: Adobe Illustrator 26.0.1, SVG Export Plug-In . SVG Version: 6.00 Build 0)  -->
<svg version="1.0" id="Layer" xmlns="http://www.w3.org/2000/svg" xmlns:xlink="http://www.w3.org/1999/xlink" x="0px" y="0px"
	 width="221px" height="240px" viewBox="0 0 221 240" style="enable-background:new 0 0 221 240;" xml:space="preserve">
<style type="text/css">
	.st0{fill:#C4441C;}
	.st1{fill:#2D2119;}
	.st2{fill:#F4E0D3;}
	.st3{fill:#CC4E1D;}
	.st4{fill:#DB5931;}
	.st5{fill:#E26847;}
	.st6{fill:none;stroke:#000000;stroke-miterlimit:10;opacity:0;}
</style>
<g id="Fox_00000034081074048285672840000000978764217406950528_">
	<path class="st0" d="M102.2,73.9c0,0-13.9-43.7-60.4-73.3c-2-1.3-4.7-0.5-5.7,1.7c-5.4,11.8-18,48.2,10.4,84.5
		C46.6,86.8,97.8,99.7,102.2,73.9z"/>
	<path class="st1" d="M31.4,49.1c-0.7-12.9,2.9-24,5.8-32.6c0.3-0.9,1.4-1.3,2.2-0.7c7.8,5.9,13.9,11.8,18.6,17.4
		c5.6,0.9,13.4,2.4,24.2,4.7C73,25.6,59.9,12.1,41.9,0.6c-2-1.3-4.7-0.5-5.7,1.7c-3.6,7.8-10.3,26.5-6.2,48.8L31.4,49.1z"/>
	<path class="st2" d="M37.2,16.5c-5.4,16.2-13.5,41.2,9.3,70.3c0,0,14.2,2.4,25.3-3c0.2-0.5,0.3-1,0.5-1.6c0,0,12-32.2-32.9-66.3
		C38.7,15.2,37.6,15.6,37.2,16.5z"/>
	<path class="st0" d="M118.5,73.9c0,0,13.9-43.7,60.4-73.3c2-1.3,4.7-0.5,5.7,1.7c5.4,11.8,18,48.2-10.4,84.5
		C174.1,86.8,122.9,99.7,118.5,73.9z"/>
	<path class="st1" d="M189.3,49.1c0.7-12.9-2.9-24-5.8-32.6c-0.3-0.9-1.4-1.3-2.2-0.7c-7.8,5.9-13.9,11.8-18.6,17.4
		c-5.6,0.9-13.4,2.4-24.2,4.7c9.3-12.3,22.4-25.9,40.4-37.3c2-1.3,4.7-0.5,5.7,1.7c3.6,7.8,10.3,26.5,6.2,48.8L189.3,49.1z"/>
	<path class="st2" d="M183.5,16.5c5.4,16.2,13.5,41.2-9.3,70.3c0,0-14.2,2.4-25.3-3c-0.2-0.5-0.3-1-0.5-1.6c0,0-12-32.2,32.9-66.3
		C182,15.2,183.1,15.6,183.5,16.5z"/>
	<path class="st3" d="M126.4,206.3c-9.4,10.6-23.2,10.6-32.7,0c-25.7-28.8-52.4-83-52.4-83c-13.7-35,9.5-64.7,45.2-64.7h47.1
		c35.7,0,60.3,29.4,45.2,64.7C178.8,123.2,151.8,177.5,126.4,206.3z"/>
	<path class="st4" d="M92.9,69.6h53.8c9.7,0,18.7,2,26.6,5.6c-8.9-10.3-23.1-16.7-39.7-16.7H86.5c-31.6,0-53.3,23.1-48.6,52.6
		C43.1,86.7,64.6,69.6,92.9,69.6z"/>
	<path class="st2" d="M110.5,171.9c-13,0-25.1,3.6-35.5,9.9c6,8.9,12.4,17.5,18.7,24.6c0,0,0,0,0,0c4.9,5.2,10.7,7.8,16.5,7.9
		c0,0,0.1,0,0.1,0c0,0,0,0,0,0c0.7,0,1.4,0,2.1-0.1c1.8-0.2,3.7-0.7,5.4-1.4c0.1,0,0.1-0.1,0.2-0.1c0.5-0.2,0.9-0.4,1.4-0.7
		c0.2-0.1,0.5-0.3,0.7-0.4c0.3-0.2,0.7-0.4,1-0.6c0.3-0.2,0.7-0.4,1-0.7c0.3-0.2,0.5-0.4,0.8-0.6c0.4-0.3,0.8-0.7,1.2-1
		c0.2-0.2,0.4-0.3,0.6-0.5c0.6-0.5,1.1-1.1,1.7-1.7c0,0,0,0,0,0c3.2-3.6,6.4-7.6,9.5-11.8c0,0,0,0,0,0c3.2-4.2,6.3-8.7,9.3-13.2
		C135,175.3,123.1,171.9,110.5,171.9z"/>
	<path class="st1" d="M122.7,212.6c0,2-3.2,4.6-6.4,6.6c-3.6,2.3-8.3,2.3-12,0c-3.2-2-6.4-4.6-6.4-6.6c0-4,5.5-7.2,12.4-7.2
		C117.1,205.4,122.7,208.6,122.7,212.6z"/>
	<circle class="st1" cx="79.1" cy="134.4" r="7.9"/>
	<circle class="st1" cx="141.4" cy="134.4" r="7.9"/>
	<ellipse transform="matrix(0.866 -0.5 0.5 0.866 -30.0445 42.3976)" class="st4" cx="64.1" cy="77.3" rx="18.9" ry="11.8"/>
	<path class="st5" d="M65.1,166.2c6.6-1.3,11.4-5.6,11.4-10.7c0-6.2-7.1-11.2-15.7-11.2c-2.7,0-5.3,0.5-7.6,1.4
		C56.6,152,60.7,159,65.1,166.2z"/>
	<path class="st5" d="M144.1,155.5c0,4.9,4.5,9.1,10.8,10.6c4.5-7.3,8.5-14.3,12-20.6c-2.1-0.8-4.5-1.2-7.1-1.2
		C151.1,144.3,144.1,149.3,144.1,155.5z"/>
	<path class="st3" d="M32.6,58.2l-0.8,0.2c2.1,7.3,5.6,15,10.7,22.7C37.2,73.1,34.1,65.5,32.6,58.2z"/>
	<path class="st3" d="M44.3,83.8c-0.4-0.6-0.8-1.2-1.2-1.8C43.5,82.6,43.9,83.2,44.3,83.8z"/>
</g>
<polyline id="Fox_line_00000071517836165048971010000017756222136520557492_" class="st6 guide" points="0.5,58.8 110.3,239 220,58.8 0.5,58.8 "/>
</svg>
