<?xml version="1.0" encoding="utf-8"?>
<!-- Generator: Adobe Illustrator 26.0.1, SVG Export Plug-In . SVG Version: 6.00 Build 0)  -->
<svg version="1.0" id="Layer" xmlns="http://www.w3.org/2000/svg" xmlns:xlink="http://www.w3.org/1999/xlink" x="0px" y="0px"
	 width="233px" height="214px" viewBox="0 0 233 214" style="enable-background:new 0 0 233 214;" xml:space="preserve">
<style type="text/css">
	.st0{fill:#2D2119;}
	.st1{fill:#77624F;}
	.st2{fill:#826F5D;}
	.st3{fill:#E86856;}
	.st4{fill:#84715D;}
	.st5{fill:#AF9680;}
	.st6{fill:#8C7965;}
	.st7{opacity:0.5;fill:#E86856;}
	.st8{fill:none;stroke:#000000;stroke-miterlimit:10;opacity:0;}
</style>
<g id="mouse_00000062181132831728959000000006600026585827435195_">
	<path class="st0" d="M106.4,175.9c-0.1,0-0.2,0-0.2,0l-39-15c-0.4-0.1-0.5-0.5-0.4-0.9c0.1-0.4,0.5-0.5,0.9-0.4l39,15
		c0.4,0.1,0.5,0.5,0.4,0.9C106.9,175.8,106.7,175.9,106.4,175.9z"/>
	<path class="st0" d="M68.6,185.8c-0.3,0-0.6-0.2-0.7-0.5c-0.1-0.4,0.1-0.7,0.5-0.8l37.4-10.2c0.4-0.1,0.7,0.1,0.8,0.5
		s-0.1,0.7-0.5,0.8l-37.4,10.2C68.8,185.8,68.7,185.8,68.6,185.8z"/>
	<path class="st0" d="M126.7,175.9c-0.3,0-0.5-0.2-0.6-0.4c-0.1-0.4,0-0.7,0.4-0.9l39-15c0.4-0.1,0.7,0,0.9,0.4
		c0.1,0.4,0,0.7-0.4,0.9l-39,15C126.9,175.9,126.8,175.9,126.7,175.9z"/>
	<path class="st0" d="M164.4,185.8c-0.1,0-0.1,0-0.2,0l-37.4-10.2c-0.4-0.1-0.6-0.5-0.5-0.8c0.1-0.4,0.5-0.6,0.8-0.5l37.4,10.2
		c0.4,0.1,0.6,0.5,0.5,0.8C165,185.6,164.7,185.8,164.4,185.8z"/>
	<path class="st1" d="M74.7,59.4c0,0-12-51.9-52.1-58.8S7,52.1,18.4,60.8S67.4,65.3,74.7,59.4z"/>
	<path class="st2" d="M24.7,6.7c18.2,3.2,31.1,14.9,39.9,27.4C56.7,19.8,43.4,4.2,22.6,0.6C3.8-2.7-0.8,8.4,0.8,22.1
		C1.7,11.2,8.1,3.8,24.7,6.7z"/>
	<path class="st3" d="M37.6,26.7C14.5,15.5,6.5,26.2,5.5,39.8c3.8,9.7,9.1,18.1,12.9,21c8,6.1,28.8,5.8,43.1,3.1
		c6.1-1.4,10.9-2.9,12.8-4.2l0,0C70.4,51.9,57.5,36.3,37.6,26.7z"/>
	<path class="st1" d="M158.3,59.4c0,0,12-51.9,52.1-58.8s15.7,51.5,4.3,60.3S165.6,65.3,158.3,59.4z"/>
	<path class="st2" d="M208.3,6.7c-18.2,3.2-31.1,14.9-39.9,27.4c7.9-14.3,21.1-29.9,41.9-33.5c18.8-3.3,23.4,7.9,21.9,21.5
		C231.3,11.2,224.9,3.8,208.3,6.7z"/>
	<path class="st3" d="M195.4,26.7c23.1-11.2,31.1-0.4,32.1,13.1c-3.8,9.7-9.1,18.1-12.9,21c-8,6.1-28.8,5.8-43.1,3.1
		c-6.1-1.4-10.9-2.9-12.8-4.2l0,0C162.6,51.9,175.5,36.3,195.4,26.7z"/>
	<path class="st4" d="M131.7,184.3c-8.1,11.2-21.4,10.4-30.5,0C72.9,152,52.4,93.1,52.4,93.1C39.6,58,58,28.3,91.3,28.3h50.4
		c33.3,0,52.9,29.5,38.8,64.8C180.5,93.1,169.5,132,131.7,184.3z"/>
	<path class="st5" d="M116.7,155c-11.2,0-21.2,4.7-28.3,12.2c4.1,6.1,8.4,12,12.9,17.1c9.1,10.4,21.7,10.7,30.5,0
		c4.2-5.1,8.4-11.3,12.5-17.9C137.2,159.3,127.5,155,116.7,155z"/>
	<path class="st6" d="M95.9,39h54.7c10.9,0,20.4,2.9,28,8c-7.4-11.6-20.4-18.8-36.9-18.8H91.3c-29.8,0-47.6,23.8-41.8,53.9
		C50.9,57.1,68.9,39,95.9,39z"/>
	<path class="st7" d="M82.7,124c0-6.2-7.1-11.2-15.9-11.2c-2.2,0-4.4,0.3-6.3,0.9c2.7,6.3,5.9,13.6,9.7,21.3
		C77.3,133.8,82.7,129.4,82.7,124z"/>
	<circle class="st0" cx="85.2" cy="102.6" r="7.9"/>
	<circle class="st0" cx="147.7" cy="102.6" r="7.9"/>
	<path class="st0" d="M128.9,187.4c0,2-3.2,4.6-6.4,6.6c-3.7,2.3-8.3,2.3-12,0c-3.2-2-6.4-4.6-6.4-6.6c0-4,5.6-7.2,12.4-7.2
		S128.9,183.4,128.9,187.4z"/>
	<path class="st6" d="M123.3,24.2c-3.7,6-10,12.5-12.1,11.2c-2.1-1.3,0.8-9.8,4.5-15.9s6.7-7.2,8.8-5.9
		C126.7,14.9,127,18.2,123.3,24.2z"/>
	<path class="st6" d="M128.4,31.1c-6.4,3.1-15.2,5.1-16.2,2.9s6-7.8,12.4-10.9s9.6-2.4,10.6-0.2S134.8,28,128.4,31.1z"/>
	<ellipse transform="matrix(0.8951 -0.4458 0.4458 0.8951 -12.2905 38.1814)" class="st6" cx="75" cy="45.2" rx="19.2" ry="12.1"/>
	<path class="st7" d="M166.4,112.7c-8.8,0-15.9,5-15.9,11.2c0,5.2,5.1,9.6,11.9,10.9c4.2-8.1,7.6-15.2,10.2-21.2
		C170.8,113.1,168.7,112.7,166.4,112.7z"/>
</g>
<polyline id="mouse_line_00000108309113159699023950000016002812178604954783_" class="st8 guide" points="6.6,28.3 116.7,213 226.8,28.3 6.6,28.3 "/>
</svg>
