<?xml version="1.0" encoding="utf-8"?>
<!-- Generator: Adobe Illustrator 26.0.1, SVG Export Plug-In . SVG Version: 6.00 Build 0)  -->
<svg version="1.0" id="Layer" xmlns="http://www.w3.org/2000/svg" xmlns:xlink="http://www.w3.org/1999/xlink" x="0px" y="0px"
	 width="202px" height="191px" viewBox="0 0 202 191" style="enable-background:new 0 0 202 191;" xml:space="preserve">
<style type="text/css">
	.st0{fill:#493932;}
	.st1{fill:#332723;}
	.st2{fill:#F2F2F2;}
	.st3{fill:#F9B3AC;}
	.st4{fill:#F7F7F7;}
	.st5{fill:#2D2119;}
	.st6{fill:none;stroke:#000000;stroke-miterlimit:10;opacity:0;}
</style>
<g id="Panda_00000068657601527311185360000005070540813630026391_">
	<circle class="st0" cx="24.4" cy="24.5" r="24.3"/>
	<circle class="st1" cx="27.6" cy="27.7" r="12.9"/>
	<circle class="st0" cx="177.6" cy="24.5" r="24.3"/>
	<circle class="st1" cx="174.4" cy="27.7" r="12.9"/>
	<ellipse class="st2" cx="101" cy="96.5" rx="98" ry="93.8"/>
	<ellipse class="st3" cx="33.1" cy="129.5" rx="21.6" ry="15.3"/>
	<ellipse class="st3" cx="168.9" cy="129.5" rx="21.6" ry="15.3"/>
	<path class="st0" d="M169.3,83.9c11.8,16.3,4.4,42.2-15.8,42.2c-14.6,0-23.3-7.8-29.8-26.8s-6.2-35.4,6.4-39.7
		C142.8,55.4,156.1,65.7,169.3,83.9z"/>
	<path class="st0" d="M32.7,83.9c-11.8,16.3-4.4,42.2,15.8,42.2c14.6,0,23.3-7.8,29.8-26.8s6.2-35.4-6.4-39.7S45.9,65.7,32.7,83.9z"
		/>
	<path class="st4" d="M108.1,14.1c28.5,0,54.3,10.9,73.1,28.5c-17.7-24.2-47-40-80.2-40c-54.1,0-98,42-98,93.8
		c0,3.5,0.2,6.9,0.6,10.3C7.7,55,52.9,14.1,108.1,14.1z"/>
	<circle class="st5" cx="58.1" cy="91.1" r="10"/>
	<circle class="st5" cx="143.9" cy="91.1" r="10"/>
	<ellipse transform="matrix(0.8879 -0.46 0.46 0.8879 -5.9368 30.1285)" class="st4" cx="58.9" cy="27.2" rx="23.2" ry="12.2"/>
	<path class="st5" d="M113.6,111.8c0,1.4-3.3,3.2-6.5,4.6c-3.7,1.6-8.5,1.6-12.2,0c-3.2-1.4-6.5-3.2-6.5-4.6c0-2.7,5.6-5,12.6-5
		S113.6,109,113.6,111.8z"/>
	<path class="st0" d="M101,154.4c-15.1,0-25.9-9.6-28.8-19.1c-0.4-1.2,0.3-2.4,1.5-2.7c1.2-0.4,2.4,0.3,2.7,1.5
		c2,6.4,10.2,16,24.6,16c14.4,0,22.7-9.8,24.6-16c0.4-1.2,1.6-1.8,2.7-1.4c1.2,0.4,1.8,1.6,1.4,2.7C127,144.5,115.9,154.4,101,154.4
		z"/>
</g>
<path id="Panda_line_00000159455603216093305900000016485831952602666151_" class="st6 guide" d="M101,2.7c54.1,0,98,42,98,93.8c0,51.8-43.9,93.8-98,93.8h0c-54.1,0-98-42-98-93.8S46.9,2.7,101,2.7"/>
</svg>
