<?xml version="1.0" encoding="utf-8"?>
<!-- Generator: Adobe Illustrator 26.0.1, SVG Export Plug-In . SVG Version: 6.00 Build 0)  -->
<svg version="1.0" id="Layer" xmlns="http://www.w3.org/2000/svg" xmlns:xlink="http://www.w3.org/1999/xlink" x="0px" y="0px"
	 width="195px" height="228px" viewBox="0 0 195 228" style="enable-background:new 0 0 195 228;" xml:space="preserve">
<style type="text/css">
	.st0{fill:#E8AB00;}
	.st1{fill:#AF7123;}
	.st2{fill:#D1812A;}
	.st3{fill:#FACA00;}
	.st4{fill:#FFD348;}
	.st5{fill:#DD8B40;}
	.st6{fill:#2D2119;}
	.st7{fill:#824121;}
	.st8{fill:#AD5536;}
	.st9{fill:#F9A600;}
	.st10{fill:none;stroke:#000000;stroke-miterlimit:10;opacity:0;}
</style>
<g id="giraffe_00000072991995497657892680000007673954245798342292_">
	<rect x="57.6" y="10" class="st0" width="18.7" height="40.8"/>
	<path class="st1" d="M75.6,20.7H58.1c-3.3,0-6-2.7-6-6V6.3c0-3.3,2.7-6,6-6h17.5c3.3,0,6,2.7,6,6v8.4C81.7,18,79,20.7,75.6,20.7z"
		/>
	<path class="st2" d="M58.7,4.4h21.9c0.3,0,0.5,0,0.8,0.1c-0.7-2.5-3-4.3-5.7-4.3H58.1c-3.3,0-6,2.7-6,6V11
		C52.1,7.4,55,4.4,58.7,4.4z"/>
	<rect x="119.6" y="10" class="st0" width="18.7" height="40.8"/>
	<path class="st1" d="M137.7,20.7h-17.5c-3.3,0-6-2.7-6-6V6.3c0-3.3,2.7-6,6-6h17.5c3.3,0,6,2.7,6,6v8.4
		C143.7,18,141,20.7,137.7,20.7z"/>
	<path class="st2" d="M120.7,4.4h21.9c0.3,0,0.5,0,0.8,0.1c-0.7-2.5-3-4.3-5.7-4.3h-17.5c-3.3,0-6,2.7-6,6V11
		C114.2,7.4,117.1,4.4,120.7,4.4z"/>
	<path class="st3" d="M63,68.7l-34-9.3c-17.1-4.7-28.8-20.3-28.5-38l0.2-9.6c0-2.6,2.7-4.3,5.1-3.4l24.1,9.6
		C49.5,25.9,62.5,44.7,63,65.9L63,68.7z"/>
	<path class="st1" d="M3.8,27.8l-0.2,9.6C8.2,47.9,17.4,56.2,29,59.4l34,9.3l0-1.2c-5-14-15.8-25.5-30-31.2L6.9,25.8
		C5.4,25.2,3.8,26.2,3.8,27.8z"/>
	<path class="st3" d="M132,68.7l34-9.3c17.1-4.7,28.8-20.3,28.5-38l-0.2-9.6c0-2.6-2.7-4.3-5.1-3.4l-24.1,9.6
		c-19.6,7.8-32.7,26.7-33.1,47.8L132,68.7z"/>
	<path class="st1" d="M191.2,27.8l0.2,9.6c-4.6,10.6-13.7,18.9-25.4,22.1l-34,9.3l0-1.2c5-14,15.8-25.5,30-31.2l26.1-10.4
		C189.6,25.2,191.2,26.2,191.2,27.8z"/>
	<path class="st3" d="M173,200.2H22.8V83.3c0-23.3,18.9-42.1,42.1-42.1h65.9c23.3,0,42.1,18.9,42.1,42.1V200.2z"/>
	<path class="st4" d="M69.8,50.9h76.8c4.6,0,9.1,0.7,13.3,1.8c-7.6-7.2-17.8-11.7-29.1-11.7H64.9c-23.3,0-42.1,18.9-42.1,42.1v2.6
		C28.9,65.6,47.6,50.9,69.8,50.9z"/>
	<path class="st5" d="M143.6,227.1H52.2c-16.2,0-29.3-10.4-29.3-23.2v-23.4l0.1,0c48.7-12.9,101.4-12.9,150.1,0l0,0v23.4
		C173,216.7,159.8,227.1,143.6,227.1z"/>
	<circle class="st6" cx="61.2" cy="134.1" r="8.8"/>
	<circle class="st6" cx="134.6" cy="134.1" r="8.8"/>
	<circle class="st7" cx="86.9" cy="187.2" r="3.9"/>
	<circle class="st7" cx="108.9" cy="187.2" r="3.9"/>
	<g>
		<path class="st1" d="M85.2,57.9c2.7,3.1,8,1.4,11.5,3.6c1.8,1.2,2.7,3.2,3.6,5.1c1.8,3.9,3.5,7.8,5.3,11.8
			c0.4,0.9,0.9,1.9,1.7,2.4c1.7,0.9,3.7-0.5,4.9-2.1c3.5-4.5,4.9-10.3,5.3-16c0.5-7.3-0.5-14.5-2.6-21.5H85.6
			c-1.3,3.8-2.1,7.8-1.9,11.8C83.7,54.7,84,56.6,85.2,57.9z"/>
	</g>
	<g>
		<path class="st2" d="M117,50.9c-0.5-3.3-1.2-6.6-2.1-9.8H85.6c-1.1,3.2-1.8,6.5-1.9,9.8H117z"/>
	</g>
	<g>
		<path class="st1" d="M77.6,69.7c0.1-1.7,0.6-3.3,2.7-3.5c1.7-0.2,3.3,0.7,4.6,1.7c4.4,3.2,7.4,8,9.1,13.2s1.8,10.7,1,16.1
			c-0.2,1.1-0.4,2.2-1.3,2.8c-1,0.7-2.3,0.4-3.5,0.1c-2.2-0.7-4.5-1.5-6.2-3.1c-2.4-2.2-3.5-5.5-4.2-8.6c-0.7-3-1.5-5.9-1.9-9
			c-0.4-2.8-0.5-5.6-0.4-8.4C77.5,70.6,77.5,70.1,77.6,69.7z"/>
	</g>
	<g>
		<path class="st1" d="M108.6,90.2c2.7,1.1,5,4.1,5.2,7c0.2,2.3-2.4,3.8-4.4,4.3c-2,0.5-4-0.2-5-2c-1.1-1.9-1.5-4.5-1.1-6.7
			C103.7,90.1,106.2,89.3,108.6,90.2z"/>
	</g>
	<path class="st8" d="M97.7,225.5c-18.8,0-29.7-11.1-33.4-20.5c-0.4-1.1,0.1-2.2,1.2-2.6c1.1-0.4,2.2,0.1,2.6,1.2
		c3.2,8.3,12.8,17.9,29.6,17.9c12.9,0,27.8-7,29.5-17.5c0.2-1.1,1.2-1.9,2.3-1.7c1.1,0.2,1.9,1.2,1.7,2.3
		C129.1,217.5,112.2,225.5,97.7,225.5z"/>
	<ellipse class="st9" cx="44.1" cy="157.6" rx="17.1" ry="12.1"/>
	<ellipse class="st9" cx="151.7" cy="157.6" rx="17.1" ry="12.1"/>
	<ellipse transform="matrix(0.9301 -0.3674 0.3674 0.9301 -17.5732 22.6857)" class="st4" cx="50.8" cy="57.5" rx="19.2" ry="12"/>
</g>
<polyline id="giraffe_line_00000099659111355372779900000008040937617421989309_" class="st10 guide" points="22.9,41.2 22.9,227.2 173.1,227.2 173.1,41.2 22.9,41.2 "/>
</svg>
