<?xml version="1.0" encoding="utf-8"?>
<!-- Generator: Adobe Illustrator 25.4.1, SVG Export Plug-In . SVG Version: 6.00 Build 0)  -->
<svg version="1.0" id="레이어_1" xmlns="http://www.w3.org/2000/svg" xmlns:xlink="http://www.w3.org/1999/xlink" x="0px"
	 y="0px" width="92px" height="105px" viewBox="0 0 92 105" style="enable-background:new 0 0 92 105;" xml:space="preserve">
<style type="text/css">
	.st0{fill:#543D2E;}
	.st1{fill:#D68147;}
	.st2{fill:#FDC0A7;}
	.st3{fill:#E08E58;}
	.st4{fill:#F3C888;}
	.st5{fill:#E08B4B;}
	.st6{fill:#F29E64;}
	.st7{fill:#2D2119;}
	.st8{fill:#AD5536;}
	.st9{fill:#F7D3A4;}
	.st10{fill:#F9A973;}
</style>
<g>
	<g>
		<g>
			<path class="st0" d="M11.3,20C11.3,20,11.3,20,11.3,20c-0.4-0.3-0.4-0.2-0.2-0.1C11.2,19.9,11.2,20,11.3,20
				C11.3,20,11.3,20,11.3,20z"/>
			<path class="st0" d="M38.9,41.6c-0.2-4.1-2-7.7-4.7-10.6c-1.9-2.1-4.9-3.3-5.5-6.3c-0.3-1.9-0.2-4.2,0.7-5.9
				c0.1-0.2,0.2-0.4,0.2-0.6c0.8-1.6,0.5-3.8-1.2-4.7c-1.6-0.8-3.8-0.5-4.7,1.2c-1.2,2.3-1.8,4.7-1.9,7.2c0,0.8-0.8,1.3-1.5,1
				c-0.3-0.1-0.6-0.2-0.8-0.3c-3.6-1.2-0.4-10.7,0.7-12.9C21,8.1,20.7,5.9,19,5c-1.5-0.8-3.8-0.5-4.7,1.2c-2.1,4.3-3.1,9.1-2.7,13.8
				c-0.1,0-0.2-0.1-0.3-0.1c0,0,0,0,0,0c0,0,0,0-0.1,0c-0.1,0-0.2-0.1-0.2-0.1c-1.8-1.2-3.7-1.6-4.2-4.2C6.3,12.4,7.8,8,8.4,4.7
				C8.5,3.8,8.5,2.9,8,2.1C7.6,1.3,6.8,0.7,6,0.5C4.3,0.1,2.1,1,1.8,2.9C1.4,5.1,1.1,7.2,0.7,9.4c-0.4,2.2-0.9,4.5-0.7,6.7
				c0.2,2.4,1.1,4.6,2.8,6.4c1.2,1.4,2.9,2.4,4.5,3.2c3.6,1.7,7.6,2.7,11.4,3.9c0.9,0.3,1.8,0.6,2.6,0.9c3.1,1.2,6,2.9,8.2,5.4
				c2,2.3,1.9,10.6,6.9,9C37.8,44.4,39,43.1,38.9,41.6z"/>
			<path class="st0" d="M19.7,10.8C19.8,10.8,19.8,10.7,19.7,10.8C19.8,10.7,19.8,10.8,19.7,10.8C19.7,10.8,19.7,10.8,19.7,10.8z"/>
		</g>
		<g>
			<path class="st0" d="M79.7,20C79.6,20,79.6,20,79.7,20c0.4-0.3,0.4-0.2,0.2-0.1C79.8,19.9,79.7,20,79.7,20
				C79.7,20,79.7,20,79.7,20z"/>
			<path class="st0" d="M52,41.6c0.2-4.1,2-7.7,4.7-10.6c1.4-1.5,3.8-2.6,4.9-4.3c2.4-3.7-3.1-11,0.9-13.2c1.6-0.8,3.8-0.5,4.7,1.2
				c1.2,2.3,1.8,4.7,1.9,7.2c0.1,2.1,2.4,0.7,3-0.1c3-4.5-4.7-14.3-0.1-16.7c1.5-0.8,3.8-0.5,4.7,1.2c2.2,4.4,2.8,9,2.8,13.9
				c0-0.4,4.1-2.3,4.5-3.4c1-2.2-0.2-6.5-0.7-8.7c-0.3-1.2-0.6-2.3-0.7-3.5c0-1.2,0.2-2.5,1.1-3.3c1.6-1.7,5.2-0.7,5.6,1.6
				c0.4,2.2,0.7,4.4,1.1,6.5c0.4,2.2,0.9,4.5,0.7,6.7c-0.4,4.4-3.3,7.7-7.3,9.5c-5.9,2.8-12.7,3.6-18.3,7c-1.4,0.9-3.2,2.3-4.3,3.8
				c-1.3,1.8-1.2,3.9-2.1,5.9c-0.2,0.4-0.3,0.7-0.5,1.1c-0.7,1.2-2.5,1.9-3.8,1.5C53.2,44.4,51.9,43.1,52,41.6z"/>
			<path class="st0" d="M71.2,10.8C71.2,10.8,71.2,10.7,71.2,10.8C71.2,10.7,71.2,10.8,71.2,10.8C71.2,10.8,71.2,10.8,71.2,10.8z"/>
		</g>
	</g>
	<g>
		<path class="st1" d="M64.1,51.7c0,0,10-19.3,26.6-20.5c0.5,0,1,0.3,1,0.9c0.4,3,1.1,12.4-5.3,17.1C78.7,54.7,68.1,55.5,64.1,51.7z
			"/>
		<path class="st2" d="M70.4,54c4.8,0.4,11.1-1.2,16-4.8c3.2-2.3,4.7-5.9,5.2-9.3C81.9,41.1,74.6,48.5,70.4,54z"/>
	</g>
	<g>
		<path class="st1" d="M29.1,51.7c0,0-10-19.3-26.6-20.5c-0.5,0-1,0.3-1,0.9C1,35,0.3,44.5,6.8,49.1C14.5,54.7,25.1,55.5,29.1,51.7z
			"/>
		<path class="st3" d="M2.4,34.7c12.4,0.8,21.6,10.2,26.7,17C29,51.4,19,32.3,2.5,31.2c-0.5,0-1,0.3-1,0.9c-0.1,0.8-0.2,2-0.2,3.5
			C1.3,35,1.8,34.6,2.4,34.7z"/>
		<path class="st3" d="M90.8,34.7c-12.4,0.8-21.6,10.2-26.7,17c0.1-0.3,10.1-19.3,26.6-20.4c0.5,0,1,0.3,1,0.9
			c0.1,0.8,0.2,2,0.2,3.5C91.9,35,91.4,34.6,90.8,34.7z"/>
		<path class="st2" d="M22.8,54c-4.9,0.4-11.1-1.2-16-4.8c-3.2-2.3-4.7-5.9-5.2-9.3C11.3,41.1,18.6,48.5,22.8,54z"/>
	</g>
	<path class="st4" d="M61.5,93.9c-2.8,5.1-8.5,10.7-16.1,10.7h0c-7.2,0-13.6-6.2-16.3-11.4c-11.3-22-11.8-31-11.8-31
		c-2.4-12.3,4.7-21,17-21h22.2c12.3,0,20.4,10.8,17,21C73.4,62.1,69.2,79.9,61.5,93.9z"/>
	<g>
		<path class="st5" d="M56.4,41.1H34.2c-12,0-19,8.3-17.1,20.2c2-0.8,4.1-1.1,6.4-1.1c10.2,0,18.5,7.4,19.5,26.9
			c0.7,0,1.3,0.1,2,0.1c1,0,2.1,0,3.1,0.1c0.9-19.6,9.3-27.1,19.5-27.1c2.2,0,4.2,0.3,6.2,1C76.3,51.3,68.3,41.1,56.4,41.1z"/>
	</g>
	<g>
		<path class="st6" d="M35.2,45.3h25c4.1,0,7.9,1.1,10.9,2.9c-3.1-4.2-8.3-7.2-14.7-7.2H34.2c-10.4,0-17.1,6.3-17.4,15.7
			C19.4,49.7,26,45.3,35.2,45.3z"/>
	</g>
	<path class="st7" d="M49.1,87.3c0,0.4-0.8,1.3-1.3,1.8c-1.5,1.4-3,1.4-4.5,0c-0.5-0.5-1.3-1.4-1.3-1.8c0-1.3,1.6-1.9,3.6-1.9
		S49.1,86,49.1,87.3z"/>
	<path class="st8" d="M45.5,97.6c-4.3,0-6.8-2.1-7.7-3.8c-0.2-0.5,0-1.1,0.4-1.3c0.5-0.2,1.1,0,1.3,0.4c0.7,1.4,2.8,2.8,6,2.8
		c2.8,0,4.8-1,6-2.8c0.3-0.4,0.9-0.6,1.3-0.3c0.4,0.3,0.6,0.9,0.3,1.3C52,95.6,49.8,97.6,45.5,97.6z"/>
	<g>
		<circle class="st7" cx="32.3" cy="73.6" r="3.2"/>
		<circle class="st7" cx="59.3" cy="73.6" r="3.2"/>
	</g>
	<g>
		<path class="st4" d="M35.5,45.2c0-0.2,0.1-0.4,0.1-0.5c0.1-0.2,0.3-0.4,0.6-0.5c3.2-1.9,6.6,1.1,7.9,4c0.3,0.6,0.4,1.3,0,1.9
			c-0.8,1.2-2.8,0.9-4,0.5c-1.8-0.5-3.8-1.8-4.4-3.6c-0.2-0.5-0.2-1-0.2-1.4C35.5,45.4,35.5,45.3,35.5,45.2z"/>
	</g>
	<g>
		<path class="st4" d="M46.4,45c0.1-0.4,0.3-0.7,0.7-0.8c0.5-0.2,1,0,1.5,0.1c0.7,0.3,1.4,0.7,2,1.2c0.4,0.4,0.8,0.8,1,1.4
			c0.2,0.6,0.1,1.2-0.3,1.6c-1.2,1.3-3.7-0.8-4.5-1.8C46.6,46.3,46.3,45.6,46.4,45z"/>
	</g>
	<g>
		<g>
			<path class="st9" d="M36.2,44.1c-0.2,0.1-0.4,0.3-0.6,0.5c-0.1,0.2-0.1,0.3-0.1,0.5c0,0.1,0,0.1,0,0.2h6.7
				C40.5,43.7,38.3,42.9,36.2,44.1z"/>
		</g>
		<g>
			<path class="st9" d="M47.1,44.2c-0.5,0.1-0.7,0.5-0.7,0.8c0,0.1,0,0.2,0,0.3h4c-0.5-0.4-1.1-0.8-1.8-1
				C48.1,44.1,47.6,44,47.1,44.2z"/>
		</g>
	</g>
	<g>
		<path class="st4" d="M44.6,54.7c1-1.5,6-3.9,5.7-0.5c-0.1,1.2-0.6,2.3-1.1,3.3c-0.4,0.8-0.9,2-1.8,2.4c-1.2,0.6-2.3-0.5-2.9-1.5
			C43.9,57.3,43.8,55.8,44.6,54.7z"/>
	</g>
	<g>
		<path class="st4" d="M36,51.9c0.1-0.1,0.1-0.1,0.3-0.1c0.2,0,0.4,0,0.5,0c0.7,0.2,1.8,0.8,2.2,1.5c0.3,0.5,0.2,1.2-0.3,1.5
			c-0.5,0.4-1.2,0.2-1.7-0.2C36.6,54.3,35.4,52.4,36,51.9z"/>
	</g>
	<g>
		<path class="st4" d="M53.8,52.1c-0.1,0-0.1-0.1-0.1-0.2c0-0.1,0-0.3,0-0.4c0.2-0.6,0.7-1.4,1.3-1.7c0.4-0.2,1-0.1,1.3,0.2
			c0.3,0.4,0.1,2.1-0.2,2.5C55.9,52.8,54.3,52.5,53.8,52.1z"/>
	</g>
	<g>
		<path class="st10" d="M31.9,82.1c0-2.5-2.8-4.5-6.3-4.5c-1.3,0-2.5,0.3-3.5,0.7c1,2.4,2.2,5.2,3.6,8.2
			C29.2,86.6,31.9,84.6,31.9,82.1z"/>
		<path class="st10" d="M59,82.1c0,2.4,2.7,4.4,6.1,4.5c1.3-2.8,2.4-5.7,3.4-8.4c-0.9-0.4-2-0.6-3.1-0.6C61.9,77.7,59,79.7,59,82.1z
			"/>
	</g>
	<ellipse transform="matrix(0.9013 -0.4332 0.4332 0.9013 -18.0316 15.9326)" class="st6" cx="25.9" cy="47.5" rx="6.5" ry="3.7"/>
</g>
</svg>
