<?xml version="1.0" encoding="utf-8"?>
<!-- Generator: Adobe Illustrator 25.4.1, SVG Export Plug-In . SVG Version: 6.00 Build 0)  -->
<svg version="1.0" id="레이어_1" xmlns="http://www.w3.org/2000/svg" xmlns:xlink="http://www.w3.org/1999/xlink" x="0px"
	 y="0px" width="65px" height="88px" viewBox="0 0 65 88" style="enable-background:new 0 0 65 88;" xml:space="preserve">
<style type="text/css">
	.st0{fill:#C4441C;}
	.st1{fill:#2D2119;}
	.st2{fill:#F4E0D3;}
	.st3{fill:#CC4E1D;}
	.st4{fill:#DB5931;}
	.st5{fill:#E26847;}
</style>
<g>
	<g>
		<g>
			<path class="st0" d="M29.3,29.4c0,0-5.5-17.4-24-29.2C4.4-0.3,3.4,0,3,0.9C0.8,5.6-4.2,20.1,7.1,34.5
				C7.1,34.5,27.5,39.8,29.3,29.4z"/>
			<path class="st1" d="M1.1,19.5c-0.3-5.1,1.2-9.6,2.3-13C3.5,6.2,4,6.1,4.3,6.3c3.1,2.4,5.5,4.7,7.4,6.9c2.2,0.4,5.4,0.9,9.6,1.9
				C17.6,10.2,12.4,4.8,5.2,0.2C4.4-0.3,3.4,0,3,0.9C1.6,4-1.1,11.5,0.5,20.3L1.1,19.5z"/>
			<path class="st2" d="M3.4,6.6C1.2,13-2,22.9,7.1,34.5c0,0,5.6,0.9,10.1-1.2c0.1-0.2,0.1-0.4,0.2-0.6c0,0,4.8-12.8-13.1-26.4
				C4,6.1,3.5,6.2,3.4,6.6z"/>
		</g>
		<g>
			<path class="st0" d="M35.7,29.4c0,0,5.5-17.4,24-29.2C60.6-0.3,61.6,0,62,0.9c2.1,4.7,7.2,19.2-4.1,33.6
				C57.9,34.5,37.5,39.8,35.7,29.4z"/>
			<path class="st1" d="M63.9,19.5c0.3-5.1-1.2-9.6-2.3-13C61.5,6.1,61,6,60.7,6.2c-3.1,2.4-5.5,4.7-7.4,6.9
				c-2.2,0.4-5.4,0.9-9.6,1.9c3.7-4.9,8.9-10.3,16.1-14.9C60.6-0.3,61.6,0,62,0.9c1.4,3.1,4.1,10.6,2.5,19.4L63.9,19.5z"/>
			<path class="st2" d="M61.6,6.6c2.2,6.4,5.4,16.4-3.7,28c0,0-5.6,0.9-10.1-1.2c-0.1-0.2-0.1-0.4-0.2-0.6c0,0-4.8-12.8,13.1-26.4
				C61,6.1,61.5,6.2,61.6,6.6z"/>
		</g>
	</g>
	<path class="st3" d="M38.9,82.1c-3.7,4.2-9.1,4.1-13,0C13.8,69.4,5,49.1,5,49.1c-5.5-13.9,3.8-25.7,18-25.7h18.7
		c14.2,0,24,11.7,18,25.7C59.7,49.1,49,70.8,38.9,82.1z"/>
	<path class="st4" d="M25.6,27.8H47c3.9,0,7.5,0.8,10.6,2.2c-3.6-4.1-9.2-6.6-15.8-6.6H23c-12.6,0-21.2,9.2-19.3,20.9
		C5.7,34.5,14.3,27.8,25.6,27.8z"/>
	<path class="st2" d="M32.6,68.4c-5.3,0-10.2,1.5-14.4,4.1c2.4,3.4,4.9,6.7,7.7,9.6c1.9,2.1,4.3,3.1,6.6,3.1c0,0,0,0,0.1,0l0,0
		c0.3,0,0.5,0,0.8,0c2-0.2,3.9-1.2,5.6-3.1c2.5-2.9,5.1-6.3,7.5-10C42.3,69.9,37.6,68.4,32.6,68.4z"/>
	<path class="st1" d="M37.4,84.6c0,0.8-1.3,1.8-2.5,2.6c-1.5,0.9-3.3,0.9-4.8,0c-1.3-0.8-2.5-1.8-2.5-2.6c0-1.6,2.2-2.9,4.9-2.9
		C35.2,81.8,37.4,83.1,37.4,84.6z"/>
	<g>
		<circle class="st1" cx="20.1" cy="53.5" r="3.1"/>
		<circle class="st1" cx="44.9" cy="53.5" r="3.1"/>
	</g>
	<ellipse transform="matrix(0.866 -0.5 0.5 0.866 -13.5259 11.1928)" class="st4" cx="14.1" cy="30.8" rx="7.5" ry="4.7"/>
	<g>
		<path class="st5" d="M19,62c0-2.5-2.8-4.4-6.3-4.4c-1.2,0-2.3,0.2-3.3,0.7c1.3,2.4,2.9,5.2,4.6,8.1C16.9,65.9,19,64.1,19,62z"/>
		<path class="st5" d="M45.9,62c0,2,1.8,3.6,4.3,4.2c1.8-2.9,3.4-5.7,4.8-8.2c-0.8-0.3-1.8-0.5-2.8-0.5C48.7,57.5,45.9,59.5,45.9,62
			z"/>
	</g>
	<g>
		<path class="st3" d="M1.5,23.2l-0.3,0.1c0.9,2.9,2.2,6,4.3,9C3.4,29.1,2.2,26,1.5,23.2z"/>
		<path class="st3" d="M6.2,33.3c-0.2-0.2-0.3-0.5-0.5-0.7C5.9,33,6,33.1,6.2,33.3z"/>
	</g>
</g>
</svg>
