<?xml version="1.0" encoding="utf-8"?>
<!-- Generator: Adobe Illustrator 25.4.1, SVG Export Plug-In . SVG Version: 6.00 Build 0)  -->
<svg version="1.0" id="레이어_1" xmlns="http://www.w3.org/2000/svg" xmlns:xlink="http://www.w3.org/1999/xlink" x="0px"
	 y="0px" width="94px" height="80px" viewBox="0 0 94 80" style="enable-background:new 0 0 94 80;" xml:space="preserve">
<style type="text/css">
	.st0{fill:#2D2119;}
	.st1{fill:#77624F;}
	.st2{fill:#826F5D;}
	.st3{fill:#E86856;}
	.st4{fill:#84715D;}
	.st5{fill:#AF9680;}
	.st6{fill:#8C7965;}
	.st7{opacity:0.5;}
</style>
<g>
	<path class="st0" d="M42.9,72c-0.1,0-0.2,0-0.2,0l-15.8-6.1c-0.3-0.1-0.5-0.5-0.4-0.8c0.1-0.3,0.5-0.5,0.8-0.4l15.8,6.1
		c0.3,0.1,0.5,0.5,0.4,0.8C43.4,71.8,43.2,72,42.9,72z"/>
	<path class="st0" d="M27.6,76c-0.3,0-0.5-0.2-0.6-0.5c-0.1-0.3,0.1-0.7,0.5-0.8l15.1-4.1c0.3-0.1,0.7,0.1,0.8,0.5
		c0.1,0.3-0.1,0.7-0.5,0.8L27.8,76C27.7,76,27.7,76,27.6,76z"/>
	<path class="st0" d="M51.1,72c-0.3,0-0.5-0.2-0.6-0.4c-0.1-0.3,0-0.7,0.4-0.8l15.8-6.1c0.3-0.1,0.7,0,0.8,0.4
		c0.1,0.3,0,0.7-0.4,0.8l-15.8,6.1C51.3,72,51.2,72,51.1,72z"/>
	<path class="st0" d="M66.4,76c-0.1,0-0.1,0-0.2,0l-15.1-4.1c-0.3-0.1-0.6-0.5-0.5-0.8c0.1-0.3,0.5-0.5,0.8-0.5l15.1,4.1
		c0.3,0.1,0.6,0.5,0.5,0.8C67,75.8,66.7,76,66.4,76z"/>
	<g>
		<g>
			<path class="st1" d="M30.1,24.4c0,0-4.8-21-21.1-23.8S2.6,21.4,7.2,25S27.1,26.8,30.1,24.4z"/>
			<path class="st2" d="M9.8,3c7.4,1.3,12.6,6,16.2,11.1C22.8,8.4,17.4,2,9,0.6C1.4-0.8-0.5,3.7,0.1,9.3C0.5,4.9,3.1,1.9,9.8,3z"/>
			<path class="st3" d="M15,11.1C5.7,6.6,2.4,11,2,16.5c1.6,3.9,3.7,7.3,5.2,8.5c3.2,2.5,11.7,2.4,17.5,1.3c2.5-0.6,4.4-1.2,5.2-1.7
				l0,0C28.3,21.3,23.1,15,15,11.1z"/>
		</g>
		<g>
			<path class="st1" d="M63.9,24.4c0,0,4.8-21,21.1-23.8s6.4,20.9,1.7,24.4C82.1,28.5,66.9,26.8,63.9,24.4z"/>
			<path class="st2" d="M84.2,3c-7.4,1.3-12.6,6-16.2,11.1C71.2,8.4,76.6,2,85,0.6c7.6-1.3,9.5,3.2,8.9,8.7
				C93.5,4.9,90.9,1.9,84.2,3z"/>
			<path class="st3" d="M79,11.1c9.4-4.5,12.6-0.2,13,5.3c-1.6,3.9-3.7,7.3-5.2,8.5c-3.2,2.5-11.7,2.4-17.5,1.3
				c-2.5-0.6-4.4-1.2-5.2-1.7l0,0C65.7,21.3,70.9,15,79,11.1z"/>
		</g>
	</g>
	<path class="st4" d="M53.2,75c-3.5,4.3-8.7,4.2-12.3,0C29.4,61.9,21,38,21,38c-5.2-14.2,2.2-26.3,15.7-26.3h20.4
		c13.5,0,21.4,11.9,15.7,26.3C72.9,38,62.8,63.3,53.2,75z"/>
	<path class="st5" d="M47.1,63.1c-4.5,0-8.6,1.9-11.5,4.9c1.6,2.5,3.4,4.8,5.2,6.9c3.7,4.2,8.8,4.3,12.3,0c1.7-2.1,3.4-4.6,5.1-7.3
		C55.4,64.9,51.4,63.1,47.1,63.1z"/>
	<path class="st6" d="M38.7,16.1h22.2c4.4,0,8.3,1.2,11.3,3.2c-3-4.7-8.3-7.6-15-7.6H36.8c-12.1,0-19.3,9.6-17,21.8
		C20.4,23.5,27.7,16.1,38.7,16.1z"/>
	<g class="st7">
		<path class="st3" d="M33.3,50.6c0-2.5-2.9-4.6-6.4-4.6c-0.9,0-1.8,0.1-2.6,0.4c1.1,2.6,2.4,5.5,3.9,8.6
			C31.1,54.6,33.3,52.7,33.3,50.6z"/>
		<path class="st3" d="M67.3,46c-3.6,0-6.4,2-6.4,4.6c0,2,1.9,3.7,4.4,4.3c1.5-3.1,2.9-6.1,4.1-8.6C68.7,46.1,68,46,67.3,46z"/>
	</g>
	<g>
		<circle class="st0" cx="34.3" cy="41.9" r="3.2"/>
		<circle class="st0" cx="59.7" cy="41.9" r="3.2"/>
	</g>
	<path class="st0" d="M52,76.3c0,0.8-1.3,1.9-2.6,2.7c-1.5,0.9-3.4,0.9-4.9,0c-1.3-0.8-2.6-1.9-2.6-2.7c0-1.6,2.3-2.9,5-2.9
		C49.8,73.3,52,74.7,52,76.3z"/>
	<path class="st6" d="M49.8,10.1c-1.5,2.4-4,5.1-4.9,4.5s0.3-4,1.8-6.4c1.5-2.4,2.7-2.9,3.6-2.4S51.3,7.7,49.8,10.1z"/>
	<path class="st6" d="M51.8,12.9c-2.6,1.2-6.1,2.1-6.6,1.2s2.4-3.2,5-4.4c2.6-1.2,3.9-1,4.3-0.1C55,10.5,54.4,11.7,51.8,12.9z"/>
	<ellipse transform="matrix(0.8951 -0.4458 0.4458 0.8951 -5.1458 15.414)" class="st6" cx="30.2" cy="18.6" rx="7.8" ry="4.9"/>
</g>
</svg>
