<svg xmlns="http://www.w3.org/2000/svg" width="30" height="30" viewBox="0 0 30 30">
    <defs>
        <style>
            .undo_cls-2{fill:#db7700}
        </style>
    </defs>
    <g id="그룹_341" transform="translate(-1107.658 -661.144)">
        <g id="그룹_338">
            <g id="그룹_337">
                <rect id="사각형_175" width="30" height="30" fill="#9ae07d" rx="10" transform="translate(1107.658 661.144)"/>
            </g>
        </g>
        <g id="그룹_340">
            <g id="그룹_339">
                <path id="패스_346" d="M1122.491 670.345l-.01-1.465c-.005-.81-.65-1.087-1.443-.623l-4.641 2.716a.877.877 0 0 0 .011 1.662l4.673 2.662c.8.452 1.44.259 1.437-.434l-.01-1.255" class="undo_cls-2"/>
            </g>
            <path id="패스_347" d="M1124.734 683.218h-2.583a.75.75 0 0 1 0-1.5h2.583a4.463 4.463 0 0 0 4.459-4.458v-.348a4.463 4.463 0 0 0-4.459-4.458h-5.9a.75.75 0 0 1 0-1.5h5.9a5.965 5.965 0 0 1 5.959 5.958v.348a5.965 5.965 0 0 1-5.959 5.958z" class="undo_cls-2"/>
        </g>
    </g>
</svg>
