<svg xmlns="http://www.w3.org/2000/svg" width="30" height="32" viewBox="0 0 30 32">
    <defs>
        <style>
            .undo_cls-3{fill:#ff931e}
        </style>
    </defs>
    <g id="그룹_371" transform="translate(-1210 -263)">
        <g id="그룹_336" transform="translate(146.539 -398.144)">
            <g id="그룹_333">
                <rect id="사각형_173" width="30" height="30" fill="#9ae07d" rx="10" transform="translate(1063.461 662.644)"/>
                <g id="그룹_332">
                    <rect id="사각형_174" width="30" height="30" fill="#fff" rx="10" transform="translate(1063.461 661.144)"/>
                </g>
            </g>
            <g id="그룹_335">
                <g id="그룹_334">
                    <path id="패스_344" d="M1078.294 670.345l-.01-1.465c-.005-.81-.65-1.087-1.443-.623l-4.641 2.716a.877.877 0 0 0 .011 1.662l4.673 2.662c.8.452 1.44.259 1.436-.434l-.01-1.255" class="undo_cls-3"/>
                </g>
                <path id="패스_345" d="M1080.537 683.218h-2.583a.75.75 0 0 1 0-1.5h2.583a4.463 4.463 0 0 0 4.463-4.458v-.348a4.463 4.463 0 0 0-4.459-4.458h-5.9a.75.75 0 0 1 0-1.5h5.9a5.965 5.965 0 0 1 5.959 5.958v.348a5.965 5.965 0 0 1-5.963 5.958z" class="undo_cls-3"/>
            </g>
        </g>
        <path id="사각형_183" fill="none" d="M0 0H30V32H0z" transform="translate(1210 263)"/>
    </g>
</svg>
