<svg xmlns="http://www.w3.org/2000/svg" width="50" height="50" viewBox="0 0 50 50">
    <defs>
        <style>
            .next_cls-3{fill:#a2a2a2}
        </style>
    </defs>
    <g id="그룹_400" transform="translate(-174.619 -105.697)">
        <path id="패스_404" fill="#d1d1d1" d="M224.619 145.7a10.029 10.029 0 0 1-10 10h-30a10.029 10.029 0 0 1-10-10v-30a10.029 10.029 0 0 1 10-10h30a10.029 10.029 0 0 1 10 10z"/>
        <g id="그룹_399">
            <g id="그룹_398">
                <path id="패스_405" d="M193.119 135.6c0 .4-.1.5-.5.5l-7.3.2c-.4 0-.5-.1-.5-.5l-.2-12.3c0-.4.1-.5.5-.5l7.9-.2c.4 0 .5.1.5.5v1.1c0 .4-.1.5-.5.5l-6.1.1.1 9.1 5.6-.1c.4 0 .5.1.5.5zm4.6-5.1v4.8c0 .4-.1.5-.5.5h-1.3c-.4 0-.5-.1-.5-.5v-11.6c0-.4.1-.5.5-.5h1.3c.4 0 .5.1.5.5v4.7l1.4-.1c.3 0 .5.1.5.5v1.2c0 .4-.1.5-.5.5z" class="next_cls-3"/>
                <path id="패스_406" d="M213.019 130.6c.3 0 .5.1.5.5v1.1c0 .4-.1.5-.4.5l-11.2.2c-.3 0-.4-.1-.4-.5v-1.1c0-.4.1-.5.5-.5zm-10.3 8.6c-.4 0-.5-.1-.5-.5l-.2-4.3c0-.4.1-.5.5-.5l9.8-.2c.4 0 .5.1.5.5l-.2 4.3c0 .4-.1.5-.5.5zm-.3-13.5c0-2.5 2-4 5-4s5 1.5 5 4-2 4-5 4-5-1.4-5-4zm2 11.6l6.1-.1.1-1.5-6.2.1zm5.6-11.6c0-1.2-.9-2-2.6-2s-2.6.8-2.6 2 .9 2 2.6 2 2.6-.8 2.6-2z" class="next_cls-3"/>
            </g>
        </g>
    </g>
</svg>
