<svg xmlns="http://www.w3.org/2000/svg" width="50" height="50" viewBox="0 0 50 50">
    <defs>
        <style>
            .ok_cls-3{fill:#999}
        </style>
    </defs>
    <g id="그룹_312" transform="translate(-968.836 -591.892)">
        <rect id="사각형_166" width="50" height="50" fill="#ccc" rx="10" transform="translate(968.836 591.892)"/>
        <g id="그룹_311">
            <path id="패스_326" d="M982.339 608.96v-.882c0-.36.125-.486.5-.486h1.26c.378 0 .5.126.5.486v.828l3.188-.072c.342 0 .449.09.449.469v1.116c0 .414-.125.5-.432.5l-8.714.18c-.3 0-.432-.09-.432-.5v-1.117c0-.378.107-.467.451-.467zm.017 8.589v-.918c-2.214-.217-3.259-1.1-3.259-2.467 0-1.585 1.4-2.521 4.375-2.521s4.377.936 4.377 2.521c0 1.368-1.045 2.25-3.225 2.467v.864l3.225-.072c.341 0 .449.09.449.468v1.026c0 .414-.125.5-.432.5l-8.68.181c-.3 0-.431-.09-.431-.5v-1.027c0-.379.107-.468.451-.468zm6.987 7.85c-.379 0-.524-.126-.5-.486l.09-2.268-7.653.143c-.341 0-.451-.09-.451-.468v-1.152c0-.378.11-.469.451-.469l9.543-.179c.342 0 .467.089.45.468l-.163 3.925c-.017.36-.125.486-.5.486zm-4.051-11.235c0-.486-.541-.847-1.82-.847-1.295 0-1.819.361-1.819.847s.524.846 1.819.846c1.279 0 1.82-.36 1.82-.846zm4.338-4.664c0-.359.127-.485.5-.485h1.27c.377 0 .5.126.5.485v3.728l1.35-.054c.342-.019.451.09.451.468v1.116c0 .414-.127.486-.433.5l-1.368.054v3.763c0 .36-.127.486-.5.486h-1.261c-.377 0-.5-.126-.5-.486z" class="ok_cls-3"/>
            <path id="패스_327" d="M995.351 613.533a5.129 5.129 0 1 1 5.113 4.862 4.791 4.791 0 0 1-5.113-4.862zm7.976 0a2.855 2.855 0 1 0-2.863 2.774 2.655 2.655 0 0 0 2.863-2.774zm-3.764 11.867c-.377 0-.5-.126-.5-.486v-4.97c0-.36.126-.486.5-.486h1.26c.379 0 .506.126.506.486v3.331l7.832-.143c.342 0 .449.09.449.468v1.152c0 .378-.09.468-.431.468zm8.157-15.9c0-.359.127-.485.5-.485h1.261c.377 0 .5.126.5.485v9.4c0 .361-.127.487-.5.487h-1.261c-.377 0-.5-.126-.5-.487z" class="ok_cls-3"/>
        </g>
    </g>
</svg>
