<?xml version="1.0" encoding="utf-8"?>
<!-- Generator: Adobe Illustrator 26.0.0, SVG Export Plug-In . SVG Version: 6.00 Build 0)  -->
<svg version="1.0" id="door_x5F_left" xmlns="http://www.w3.org/2000/svg" xmlns:xlink="http://www.w3.org/1999/xlink" x="0px"
	 y="0px" width="400px" height="500px" viewBox="0 0 400 500" style="enable-background:new 0 0 400 500;" xml:space="preserve">
<style type="text/css">
	.st0{fill:url(#DOOR_LEFT_1);}
	.st1{fill:#FFFFFF;}
	.st2{fill:#37474F;}
	.st3{fill:#5B5B5B;}
	.st4{fill:#777777;}
	.st5{fill:#444444;}
	.st6{fill:#595959;}
	.st7{opacity:0.47;fill:#666666;}
	.st8{opacity:0.47;fill:#A0A0A0;}
	.st9{opacity:0.48;fill:url(#SVGID_00000134218512256506806920000001109977423834332802_);}
	.st10{opacity:7.000000e-02;fill:#FFFFFF;}
</style>
<g>
	<linearGradient id="DOOR_LEFT_1" gradientUnits="userSpaceOnUse" x1="191" y1="553.4837" x2="191" y2="-250.8009">
		<stop  offset="1.235650e-03" style="stop-color:#999999"/>
		<stop  offset="0.1894" style="stop-color:#767676"/>
		<stop  offset="0.4352" style="stop-color:#4E4E4E"/>
		<stop  offset="0.6606" style="stop-color:#323232"/>
		<stop  offset="0.8562" style="stop-color:#202020"/>
		<stop  offset="1" style="stop-color:#1A1A1A"/>
	</linearGradient>
	<polygon class="st0" points="337.4,500.5 -9.5,500.5 -9.5,-1.5 336.8,-1.5 337,147.3 391.5,207.5 390.5,329.5 337.3,400.5 	"/>
	<g>
		<g>
			<g>
				<path class="st1" d="M232.3,424.3c0,0.1-0.1,0.2-0.1,0.4c0,0.5,0.4,1,1,1c0.2,0,0.4-0.1,0.5-0.2
					C233.1,425.3,232.6,424.9,232.3,424.3z"/>
				<path class="st2" d="M234.2,424.7c0-0.5-0.4-1-1-1c-0.4,0-0.8,0.3-0.9,0.6c0.3,0.5,0.8,0.9,1.4,1.2
					C234,425.3,234.2,425,234.2,424.7z"/>
			</g>
			<g>
				<path class="st1" d="M236.8,424.3c0,0.1-0.1,0.2-0.1,0.4c0,0.5,0.4,1,1,1c0.2,0,0.4-0.1,0.5-0.2
					C237.6,425.3,237.1,424.9,236.8,424.3z"/>
				<path class="st2" d="M238.7,424.7c0-0.5-0.4-1-1-1c-0.4,0-0.8,0.3-0.9,0.6c0.3,0.5,0.8,0.9,1.4,1.2
					C238.5,425.3,238.7,425,238.7,424.7z"/>
			</g>
			<g>
				<path class="st1" d="M241.3,424.3c0,0.1-0.1,0.2-0.1,0.4c0,0.5,0.4,1,1,1c0.2,0,0.4-0.1,0.5-0.2
					C242.2,425.3,241.6,424.9,241.3,424.3z"/>
				<path class="st2" d="M243.2,424.7c0-0.5-0.4-1-1-1c-0.4,0-0.8,0.3-0.9,0.6c0.3,0.5,0.8,0.9,1.4,1.2
					C243,425.3,243.2,425,243.2,424.7z"/>
			</g>
			<g>
				<path class="st1" d="M245.9,424.3c0,0.1-0.1,0.2-0.1,0.4c0,0.5,0.4,1,1,1c0.2,0,0.4-0.1,0.5-0.2
					C246.7,425.3,246.1,424.9,245.9,424.3z"/>
				<path class="st2" d="M247.7,424.7c0-0.5-0.4-1-1-1c-0.4,0-0.8,0.3-0.9,0.6c0.3,0.5,0.8,0.9,1.4,1.2
					C247.6,425.3,247.7,425,247.7,424.7z"/>
			</g>
			<g>
				<path class="st1" d="M250.4,424.3c0,0.1-0.1,0.2-0.1,0.4c0,0.5,0.4,1,1,1c0.2,0,0.4-0.1,0.5-0.2
					C251.2,425.3,250.7,424.9,250.4,424.3z"/>
				<path class="st2" d="M252.2,424.7c0-0.5-0.4-1-1-1c-0.4,0-0.8,0.3-0.9,0.6c0.3,0.5,0.8,0.9,1.4,1.2
					C252.1,425.3,252.2,425,252.2,424.7z"/>
			</g>
			<g>
				<path class="st1" d="M254.9,424.3c0,0.1-0.1,0.2-0.1,0.4c0,0.5,0.4,1,1,1c0.2,0,0.4-0.1,0.5-0.2
					C255.7,425.3,255.2,424.9,254.9,424.3z"/>
				<path class="st2" d="M256.8,424.7c0-0.5-0.4-1-1-1c-0.4,0-0.8,0.3-0.9,0.6c0.3,0.5,0.8,0.9,1.4,1.2
					C256.6,425.3,256.8,425,256.8,424.7z"/>
			</g>
			<g>
				<path class="st1" d="M259.4,424.3c0,0.1-0.1,0.2-0.1,0.4c0,0.5,0.4,1,1,1c0.2,0,0.4-0.1,0.5-0.2
					C260.2,425.3,259.7,424.9,259.4,424.3z"/>
				<path class="st2" d="M261.3,424.7c0-0.5-0.4-1-1-1c-0.4,0-0.8,0.3-0.9,0.6c0.3,0.5,0.8,0.9,1.4,1.2
					C261.1,425.3,261.3,425,261.3,424.7z"/>
			</g>
			<g>
				<path class="st1" d="M263.9,424.3c0,0.1-0.1,0.2-0.1,0.4c0,0.5,0.4,1,1,1c0.2,0,0.4-0.1,0.5-0.2
					C264.8,425.3,264.2,424.9,263.9,424.3z"/>
				<path class="st2" d="M265.8,424.7c0-0.5-0.4-1-1-1c-0.4,0-0.8,0.3-0.9,0.6c0.3,0.5,0.8,0.9,1.4,1.2
					C265.6,425.3,265.8,425,265.8,424.7z"/>
			</g>
		</g>
		<g>
			<g>
				<path class="st1" d="M232.3,429c0,0.1-0.1,0.2-0.1,0.4c0,0.5,0.4,1,1,1c0.2,0,0.4-0.1,0.5-0.2
					C233.1,429.9,232.6,429.5,232.3,429z"/>
				<path class="st2" d="M234.2,429.3c0-0.5-0.4-1-1-1c-0.4,0-0.8,0.3-0.9,0.6c0.3,0.5,0.8,0.9,1.4,1.2
					C234,430,234.2,429.7,234.2,429.3z"/>
			</g>
			<g>
				<path class="st1" d="M236.8,429c0,0.1-0.1,0.2-0.1,0.4c0,0.5,0.4,1,1,1c0.2,0,0.4-0.1,0.5-0.2
					C237.6,429.9,237.1,429.5,236.8,429z"/>
				<path class="st2" d="M238.7,429.3c0-0.5-0.4-1-1-1c-0.4,0-0.8,0.3-0.9,0.6c0.3,0.5,0.8,0.9,1.4,1.2
					C238.5,430,238.7,429.7,238.7,429.3z"/>
			</g>
			<g>
				<path class="st1" d="M241.3,429c0,0.1-0.1,0.2-0.1,0.4c0,0.5,0.4,1,1,1c0.2,0,0.4-0.1,0.5-0.2
					C242.2,429.9,241.6,429.5,241.3,429z"/>
				<path class="st2" d="M243.2,429.3c0-0.5-0.4-1-1-1c-0.4,0-0.8,0.3-0.9,0.6c0.3,0.5,0.8,0.9,1.4,1.2
					C243,430,243.2,429.7,243.2,429.3z"/>
			</g>
			<g>
				<path class="st1" d="M245.9,429c0,0.1-0.1,0.2-0.1,0.4c0,0.5,0.4,1,1,1c0.2,0,0.4-0.1,0.5-0.2
					C246.7,429.9,246.1,429.5,245.9,429z"/>
				<path class="st2" d="M247.7,429.3c0-0.5-0.4-1-1-1c-0.4,0-0.8,0.3-0.9,0.6c0.3,0.5,0.8,0.9,1.4,1.2
					C247.6,430,247.7,429.7,247.7,429.3z"/>
			</g>
			<g>
				<path class="st1" d="M250.4,429c0,0.1-0.1,0.2-0.1,0.4c0,0.5,0.4,1,1,1c0.2,0,0.4-0.1,0.5-0.2
					C251.2,429.9,250.7,429.5,250.4,429z"/>
				<path class="st2" d="M252.2,429.3c0-0.5-0.4-1-1-1c-0.4,0-0.8,0.3-0.9,0.6c0.3,0.5,0.8,0.9,1.4,1.2
					C252.1,430,252.2,429.7,252.2,429.3z"/>
			</g>
			<g>
				<path class="st1" d="M254.9,429c0,0.1-0.1,0.2-0.1,0.4c0,0.5,0.4,1,1,1c0.2,0,0.4-0.1,0.5-0.2
					C255.7,429.9,255.2,429.5,254.9,429z"/>
				<path class="st2" d="M256.8,429.3c0-0.5-0.4-1-1-1c-0.4,0-0.8,0.3-0.9,0.6c0.3,0.5,0.8,0.9,1.4,1.2
					C256.6,430,256.8,429.7,256.8,429.3z"/>
			</g>
			<g>
				<path class="st1" d="M259.4,429c0,0.1-0.1,0.2-0.1,0.4c0,0.5,0.4,1,1,1c0.2,0,0.4-0.1,0.5-0.2
					C260.2,429.9,259.7,429.5,259.4,429z"/>
				<path class="st2" d="M261.3,429.3c0-0.5-0.4-1-1-1c-0.4,0-0.8,0.3-0.9,0.6c0.3,0.5,0.8,0.9,1.4,1.2
					C261.1,430,261.3,429.7,261.3,429.3z"/>
			</g>
			<g>
				<path class="st1" d="M263.9,429c0,0.1-0.1,0.2-0.1,0.4c0,0.5,0.4,1,1,1c0.2,0,0.4-0.1,0.5-0.2
					C264.8,429.9,264.2,429.5,263.9,429z"/>
				<path class="st2" d="M265.8,429.3c0-0.5-0.4-1-1-1c-0.4,0-0.8,0.3-0.9,0.6c0.3,0.5,0.8,0.9,1.4,1.2
					C265.6,430,265.8,429.7,265.8,429.3z"/>
			</g>
		</g>
		<g>
			<g>
				<path class="st1" d="M232.3,433.6c0,0.1-0.1,0.2-0.1,0.4c0,0.5,0.4,1,1,1c0.2,0,0.4-0.1,0.5-0.2
					C233.1,434.5,232.6,434.1,232.3,433.6z"/>
				<path class="st2" d="M234.2,433.9c0-0.5-0.4-1-1-1c-0.4,0-0.8,0.3-0.9,0.6c0.3,0.5,0.8,0.9,1.4,1.2
					C234,434.6,234.2,434.3,234.2,433.9z"/>
			</g>
			<g>
				<path class="st1" d="M236.8,433.6c0,0.1-0.1,0.2-0.1,0.4c0,0.5,0.4,1,1,1c0.2,0,0.4-0.1,0.5-0.2
					C237.6,434.5,237.1,434.1,236.8,433.6z"/>
				<path class="st2" d="M238.7,433.9c0-0.5-0.4-1-1-1c-0.4,0-0.8,0.3-0.9,0.6c0.3,0.5,0.8,0.9,1.4,1.2
					C238.5,434.6,238.7,434.3,238.7,433.9z"/>
			</g>
			<g>
				<path class="st1" d="M241.3,433.6c0,0.1-0.1,0.2-0.1,0.4c0,0.5,0.4,1,1,1c0.2,0,0.4-0.1,0.5-0.2
					C242.2,434.5,241.6,434.1,241.3,433.6z"/>
				<path class="st2" d="M243.2,433.9c0-0.5-0.4-1-1-1c-0.4,0-0.8,0.3-0.9,0.6c0.3,0.5,0.8,0.9,1.4,1.2
					C243,434.6,243.2,434.3,243.2,433.9z"/>
			</g>
			<g>
				<path class="st1" d="M245.9,433.6c0,0.1-0.1,0.2-0.1,0.4c0,0.5,0.4,1,1,1c0.2,0,0.4-0.1,0.5-0.2
					C246.7,434.5,246.1,434.1,245.9,433.6z"/>
				<path class="st2" d="M247.7,433.9c0-0.5-0.4-1-1-1c-0.4,0-0.8,0.3-0.9,0.6c0.3,0.5,0.8,0.9,1.4,1.2
					C247.6,434.6,247.7,434.3,247.7,433.9z"/>
			</g>
			<g>
				<path class="st1" d="M250.4,433.6c0,0.1-0.1,0.2-0.1,0.4c0,0.5,0.4,1,1,1c0.2,0,0.4-0.1,0.5-0.2
					C251.2,434.5,250.7,434.1,250.4,433.6z"/>
				<path class="st2" d="M252.2,433.9c0-0.5-0.4-1-1-1c-0.4,0-0.8,0.3-0.9,0.6c0.3,0.5,0.8,0.9,1.4,1.2
					C252.1,434.6,252.2,434.3,252.2,433.9z"/>
			</g>
			<g>
				<path class="st1" d="M254.9,433.6c0,0.1-0.1,0.2-0.1,0.4c0,0.5,0.4,1,1,1c0.2,0,0.4-0.1,0.5-0.2
					C255.7,434.5,255.2,434.1,254.9,433.6z"/>
				<path class="st2" d="M256.8,433.9c0-0.5-0.4-1-1-1c-0.4,0-0.8,0.3-0.9,0.6c0.3,0.5,0.8,0.9,1.4,1.2
					C256.6,434.6,256.8,434.3,256.8,433.9z"/>
			</g>
			<g>
				<path class="st1" d="M259.4,433.6c0,0.1-0.1,0.2-0.1,0.4c0,0.5,0.4,1,1,1c0.2,0,0.4-0.1,0.5-0.2
					C260.2,434.5,259.7,434.1,259.4,433.6z"/>
				<path class="st2" d="M261.3,433.9c0-0.5-0.4-1-1-1c-0.4,0-0.8,0.3-0.9,0.6c0.3,0.5,0.8,0.9,1.4,1.2
					C261.1,434.6,261.3,434.3,261.3,433.9z"/>
			</g>
			<g>
				<path class="st1" d="M263.9,433.6c0,0.1-0.1,0.2-0.1,0.4c0,0.5,0.4,1,1,1c0.2,0,0.4-0.1,0.5-0.2
					C264.8,434.5,264.2,434.1,263.9,433.6z"/>
				<path class="st2" d="M265.8,433.9c0-0.5-0.4-1-1-1c-0.4,0-0.8,0.3-0.9,0.6c0.3,0.5,0.8,0.9,1.4,1.2
					C265.6,434.6,265.8,434.3,265.8,433.9z"/>
			</g>
		</g>
		<g>
			<g>
				<path class="st1" d="M232.3,438.2c0,0.1-0.1,0.2-0.1,0.4c0,0.5,0.4,1,1,1c0.2,0,0.4-0.1,0.5-0.2
					C233.1,439.1,232.6,438.7,232.3,438.2z"/>
				<path class="st2" d="M234.2,438.6c0-0.5-0.4-1-1-1c-0.4,0-0.8,0.3-0.9,0.6c0.3,0.5,0.8,0.9,1.4,1.2
					C234,439.2,234.2,438.9,234.2,438.6z"/>
			</g>
			<g>
				<path class="st1" d="M236.8,438.2c0,0.1-0.1,0.2-0.1,0.4c0,0.5,0.4,1,1,1c0.2,0,0.4-0.1,0.5-0.2
					C237.6,439.1,237.1,438.7,236.8,438.2z"/>
				<path class="st2" d="M238.7,438.6c0-0.5-0.4-1-1-1c-0.4,0-0.8,0.3-0.9,0.6c0.3,0.5,0.8,0.9,1.4,1.2
					C238.5,439.2,238.7,438.9,238.7,438.6z"/>
			</g>
			<g>
				<path class="st1" d="M241.3,438.2c0,0.1-0.1,0.2-0.1,0.4c0,0.5,0.4,1,1,1c0.2,0,0.4-0.1,0.5-0.2
					C242.2,439.1,241.6,438.7,241.3,438.2z"/>
				<path class="st2" d="M243.2,438.6c0-0.5-0.4-1-1-1c-0.4,0-0.8,0.3-0.9,0.6c0.3,0.5,0.8,0.9,1.4,1.2
					C243,439.2,243.2,438.9,243.2,438.6z"/>
			</g>
			<g>
				<path class="st1" d="M245.9,438.2c0,0.1-0.1,0.2-0.1,0.4c0,0.5,0.4,1,1,1c0.2,0,0.4-0.1,0.5-0.2
					C246.7,439.1,246.1,438.7,245.9,438.2z"/>
				<path class="st2" d="M247.7,438.6c0-0.5-0.4-1-1-1c-0.4,0-0.8,0.3-0.9,0.6c0.3,0.5,0.8,0.9,1.4,1.2
					C247.6,439.2,247.7,438.9,247.7,438.6z"/>
			</g>
			<g>
				<path class="st1" d="M250.4,438.2c0,0.1-0.1,0.2-0.1,0.4c0,0.5,0.4,1,1,1c0.2,0,0.4-0.1,0.5-0.2
					C251.2,439.1,250.7,438.7,250.4,438.2z"/>
				<path class="st2" d="M252.2,438.6c0-0.5-0.4-1-1-1c-0.4,0-0.8,0.3-0.9,0.6c0.3,0.5,0.8,0.9,1.4,1.2
					C252.1,439.2,252.2,438.9,252.2,438.6z"/>
			</g>
			<g>
				<path class="st1" d="M254.9,438.2c0,0.1-0.1,0.2-0.1,0.4c0,0.5,0.4,1,1,1c0.2,0,0.4-0.1,0.5-0.2
					C255.7,439.1,255.2,438.7,254.9,438.2z"/>
				<path class="st2" d="M256.8,438.6c0-0.5-0.4-1-1-1c-0.4,0-0.8,0.3-0.9,0.6c0.3,0.5,0.8,0.9,1.4,1.2
					C256.6,439.2,256.8,438.9,256.8,438.6z"/>
			</g>
			<g>
				<path class="st1" d="M259.4,438.2c0,0.1-0.1,0.2-0.1,0.4c0,0.5,0.4,1,1,1c0.2,0,0.4-0.1,0.5-0.2
					C260.2,439.1,259.7,438.7,259.4,438.2z"/>
				<path class="st2" d="M261.3,438.6c0-0.5-0.4-1-1-1c-0.4,0-0.8,0.3-0.9,0.6c0.3,0.5,0.8,0.9,1.4,1.2
					C261.1,439.2,261.3,438.9,261.3,438.6z"/>
			</g>
			<g>
				<path class="st1" d="M263.9,438.2c0,0.1-0.1,0.2-0.1,0.4c0,0.5,0.4,1,1,1c0.2,0,0.4-0.1,0.5-0.2
					C264.8,439.1,264.2,438.7,263.9,438.2z"/>
				<path class="st2" d="M265.8,438.6c0-0.5-0.4-1-1-1c-0.4,0-0.8,0.3-0.9,0.6c0.3,0.5,0.8,0.9,1.4,1.2
					C265.6,439.2,265.8,438.9,265.8,438.6z"/>
			</g>
		</g>
		<g>
			<g>
				<path class="st1" d="M232.3,442.8c0,0.1-0.1,0.2-0.1,0.4c0,0.5,0.4,1,1,1c0.2,0,0.4-0.1,0.5-0.2
					C233.1,443.8,232.6,443.4,232.3,442.8z"/>
				<path class="st2" d="M234.2,443.2c0-0.5-0.4-1-1-1c-0.4,0-0.8,0.3-0.9,0.6c0.3,0.5,0.8,0.9,1.4,1.2
					C234,443.8,234.2,443.5,234.2,443.2z"/>
			</g>
			<g>
				<path class="st1" d="M236.8,442.8c0,0.1-0.1,0.2-0.1,0.4c0,0.5,0.4,1,1,1c0.2,0,0.4-0.1,0.5-0.2
					C237.6,443.8,237.1,443.4,236.8,442.8z"/>
				<path class="st2" d="M238.7,443.2c0-0.5-0.4-1-1-1c-0.4,0-0.8,0.3-0.9,0.6c0.3,0.5,0.8,0.9,1.4,1.2
					C238.5,443.8,238.7,443.5,238.7,443.2z"/>
			</g>
			<g>
				<path class="st1" d="M241.3,442.8c0,0.1-0.1,0.2-0.1,0.4c0,0.5,0.4,1,1,1c0.2,0,0.4-0.1,0.5-0.2
					C242.2,443.8,241.6,443.4,241.3,442.8z"/>
				<path class="st2" d="M243.2,443.2c0-0.5-0.4-1-1-1c-0.4,0-0.8,0.3-0.9,0.6c0.3,0.5,0.8,0.9,1.4,1.2
					C243,443.8,243.2,443.5,243.2,443.2z"/>
			</g>
			<g>
				<path class="st1" d="M245.9,442.8c0,0.1-0.1,0.2-0.1,0.4c0,0.5,0.4,1,1,1c0.2,0,0.4-0.1,0.5-0.2
					C246.7,443.8,246.1,443.4,245.9,442.8z"/>
				<path class="st2" d="M247.7,443.2c0-0.5-0.4-1-1-1c-0.4,0-0.8,0.3-0.9,0.6c0.3,0.5,0.8,0.9,1.4,1.2
					C247.6,443.8,247.7,443.5,247.7,443.2z"/>
			</g>
			<g>
				<path class="st1" d="M250.4,442.8c0,0.1-0.1,0.2-0.1,0.4c0,0.5,0.4,1,1,1c0.2,0,0.4-0.1,0.5-0.2
					C251.2,443.8,250.7,443.4,250.4,442.8z"/>
				<path class="st2" d="M252.2,443.2c0-0.5-0.4-1-1-1c-0.4,0-0.8,0.3-0.9,0.6c0.3,0.5,0.8,0.9,1.4,1.2
					C252.1,443.8,252.2,443.5,252.2,443.2z"/>
			</g>
			<g>
				<path class="st1" d="M254.9,442.8c0,0.1-0.1,0.2-0.1,0.4c0,0.5,0.4,1,1,1c0.2,0,0.4-0.1,0.5-0.2
					C255.7,443.8,255.2,443.4,254.9,442.8z"/>
				<path class="st2" d="M256.8,443.2c0-0.5-0.4-1-1-1c-0.4,0-0.8,0.3-0.9,0.6c0.3,0.5,0.8,0.9,1.4,1.2
					C256.6,443.8,256.8,443.5,256.8,443.2z"/>
			</g>
			<g>
				<path class="st1" d="M259.4,442.8c0,0.1-0.1,0.2-0.1,0.4c0,0.5,0.4,1,1,1c0.2,0,0.4-0.1,0.5-0.2
					C260.2,443.8,259.7,443.4,259.4,442.8z"/>
				<path class="st2" d="M261.3,443.2c0-0.5-0.4-1-1-1c-0.4,0-0.8,0.3-0.9,0.6c0.3,0.5,0.8,0.9,1.4,1.2
					C261.1,443.8,261.3,443.5,261.3,443.2z"/>
			</g>
			<g>
				<path class="st1" d="M263.9,442.8c0,0.1-0.1,0.2-0.1,0.4c0,0.5,0.4,1,1,1c0.2,0,0.4-0.1,0.5-0.2
					C264.8,443.8,264.2,443.4,263.9,442.8z"/>
				<path class="st2" d="M265.8,443.2c0-0.5-0.4-1-1-1c-0.4,0-0.8,0.3-0.9,0.6c0.3,0.5,0.8,0.9,1.4,1.2
					C265.6,443.8,265.8,443.5,265.8,443.2z"/>
			</g>
		</g>
		<g>
			<g>
				<path class="st1" d="M232.3,447.4c0,0.1-0.1,0.2-0.1,0.4c0,0.5,0.4,1,1,1c0.2,0,0.4-0.1,0.5-0.2
					C233.1,448.4,232.6,448,232.3,447.4z"/>
				<path class="st2" d="M234.2,447.8c0-0.5-0.4-1-1-1c-0.4,0-0.8,0.3-0.9,0.6c0.3,0.5,0.8,0.9,1.4,1.2
					C234,448.4,234.2,448.1,234.2,447.8z"/>
			</g>
			<g>
				<path class="st1" d="M236.8,447.4c0,0.1-0.1,0.2-0.1,0.4c0,0.5,0.4,1,1,1c0.2,0,0.4-0.1,0.5-0.2
					C237.6,448.4,237.1,448,236.8,447.4z"/>
				<path class="st2" d="M238.7,447.8c0-0.5-0.4-1-1-1c-0.4,0-0.8,0.3-0.9,0.6c0.3,0.5,0.8,0.9,1.4,1.2
					C238.5,448.4,238.7,448.1,238.7,447.8z"/>
			</g>
			<g>
				<path class="st1" d="M241.3,447.4c0,0.1-0.1,0.2-0.1,0.4c0,0.5,0.4,1,1,1c0.2,0,0.4-0.1,0.5-0.2
					C242.2,448.4,241.6,448,241.3,447.4z"/>
				<path class="st2" d="M243.2,447.8c0-0.5-0.4-1-1-1c-0.4,0-0.8,0.3-0.9,0.6c0.3,0.5,0.8,0.9,1.4,1.2
					C243,448.4,243.2,448.1,243.2,447.8z"/>
			</g>
			<g>
				<path class="st1" d="M245.9,447.4c0,0.1-0.1,0.2-0.1,0.4c0,0.5,0.4,1,1,1c0.2,0,0.4-0.1,0.5-0.2
					C246.7,448.4,246.1,448,245.9,447.4z"/>
				<path class="st2" d="M247.7,447.8c0-0.5-0.4-1-1-1c-0.4,0-0.8,0.3-0.9,0.6c0.3,0.5,0.8,0.9,1.4,1.2
					C247.6,448.4,247.7,448.1,247.7,447.8z"/>
			</g>
			<g>
				<path class="st1" d="M250.4,447.4c0,0.1-0.1,0.2-0.1,0.4c0,0.5,0.4,1,1,1c0.2,0,0.4-0.1,0.5-0.2
					C251.2,448.4,250.7,448,250.4,447.4z"/>
				<path class="st2" d="M252.2,447.8c0-0.5-0.4-1-1-1c-0.4,0-0.8,0.3-0.9,0.6c0.3,0.5,0.8,0.9,1.4,1.2
					C252.1,448.4,252.2,448.1,252.2,447.8z"/>
			</g>
			<g>
				<path class="st1" d="M254.9,447.4c0,0.1-0.1,0.2-0.1,0.4c0,0.5,0.4,1,1,1c0.2,0,0.4-0.1,0.5-0.2
					C255.7,448.4,255.2,448,254.9,447.4z"/>
				<path class="st2" d="M256.8,447.8c0-0.5-0.4-1-1-1c-0.4,0-0.8,0.3-0.9,0.6c0.3,0.5,0.8,0.9,1.4,1.2
					C256.6,448.4,256.8,448.1,256.8,447.8z"/>
			</g>
			<g>
				<path class="st1" d="M259.4,447.4c0,0.1-0.1,0.2-0.1,0.4c0,0.5,0.4,1,1,1c0.2,0,0.4-0.1,0.5-0.2
					C260.2,448.4,259.7,448,259.4,447.4z"/>
				<path class="st2" d="M261.3,447.8c0-0.5-0.4-1-1-1c-0.4,0-0.8,0.3-0.9,0.6c0.3,0.5,0.8,0.9,1.4,1.2
					C261.1,448.4,261.3,448.1,261.3,447.8z"/>
			</g>
			<g>
				<path class="st1" d="M263.9,447.4c0,0.1-0.1,0.2-0.1,0.4c0,0.5,0.4,1,1,1c0.2,0,0.4-0.1,0.5-0.2
					C264.8,448.4,264.2,448,263.9,447.4z"/>
				<path class="st2" d="M265.8,447.8c0-0.5-0.4-1-1-1c-0.4,0-0.8,0.3-0.9,0.6c0.3,0.5,0.8,0.9,1.4,1.2
					C265.6,448.4,265.8,448.1,265.8,447.8z"/>
			</g>
		</g>
	</g>
	<polygon class="st3" points="347.2,500.8 347.5,411 399.9,341 399.9,204.1 347.6,143.9 347.6,-1.7 324.4,-1.5 324.4,152.6 
		376.7,212.8 376.7,333.4 324.3,403.4 324,500.6 	"/>
	<polygon class="st4" points="339,500.7 339.3,408.2 390.7,338.2 390.7,207.3 338.4,147.1 338.4,-1.7 332.3,-1.7 332.3,149.4 
		384.6,209.6 384.6,336.2 333.3,406.2 333,500.7 	"/>
	<polygon class="st5" points="337.4,500.7 337.7,408.1 389.1,338.1 389.1,207.4 336.8,147.3 336.8,-1.7 331.4,-1.7 331.4,149.3 
		383.7,209.4 383.7,336.3 332.4,406.3 332.1,500.7 	"/>
	<polygon class="st6" points="95,104.4 95,104.4 88.9,104.4 88.9,104.4 99,116.2 88.9,127.9 88.9,127.9 95,127.9 95,127.9 
		105.1,116.2 	"/>
	<polygon class="st6" points="82.5,104.4 82.5,104.4 76.4,104.4 76.4,104.4 86.5,116.2 76.4,127.9 76.4,127.9 82.5,127.9 
		82.5,127.9 92.6,116.2 	"/>
	<polygon class="st6" points="69.9,104.4 69.9,104.4 63.8,104.4 63.8,104.4 74,116.2 63.8,127.9 63.8,127.9 69.9,127.9 69.9,127.9 
		80,116.2 	"/>
	<path class="st7" d="M253.2,176.8v-74.2h-122L62.4-2.1l-0.5,0.4l68.9,104.9l0.1,0.1h121.7v73.6c-1.5,0.2-2.7,1.4-2.7,3
		c0,1.7,1.4,3,3,3c1.7,0,3-1.4,3-3C255.9,178.3,254.7,177,253.2,176.8z M252.9,182.2c-1.3,0-2.4-1.1-2.4-2.4c0-1.3,1.1-2.4,2.4-2.4
		c1.3,0,2.4,1.1,2.4,2.4C255.3,181.2,254.2,182.2,252.9,182.2z"/>
	<path class="st8" d="M198.8,422.6v-74.2h-122L-9,246.6l-0.5,0.4l85.9,101.9l0.1,0.1h121.7v73.6c-1.5,0.2-2.7,1.4-2.7,3
		c0,1.7,1.4,3,3,3c1.7,0,3-1.4,3-3C201.5,424,200.3,422.7,198.8,422.6z M198.5,428c-1.3,0-2.4-1.1-2.4-2.4c0-1.3,1.1-2.4,2.4-2.4
		c1.3,0,2.4,1.1,2.4,2.4C200.9,426.9,199.8,428,198.5,428z"/>
	
		<linearGradient id="SVGID_00000165205270634151470400000012179377304228941237_" gradientUnits="userSpaceOnUse" x1="403.5" y1="340.6918" x2="403.5" y2="223.6887">
		<stop  offset="1.235650e-03" style="stop-color:#999999"/>
		<stop  offset="0.1894" style="stop-color:#767676"/>
		<stop  offset="0.4352" style="stop-color:#4E4E4E"/>
		<stop  offset="0.6606" style="stop-color:#323232"/>
		<stop  offset="0.8562" style="stop-color:#202020"/>
		<stop  offset="1" style="stop-color:#1A1A1A"/>
	</linearGradient>
	
		<line style="opacity:0.48;fill:url(#SVGID_00000165205270634151470400000012179377304228941237_);" x1="403.5" y1="260" x2="403.5" y2="333"/>
	<rect x="-2.5" y="-5.5" class="st10" width="319" height="157"/>
	<rect x="-3.5" y="408.5" class="st10" width="318" height="97"/>
	<polygon class="st10" points="318.5,159.5 -4.5,159.5 -4.5,214.5 -4.5,229.7 -4.5,332.5 -4.5,332.5 -4.5,397.5 317.5,397.5 
		366.5,332.5 366.5,229.7 366.5,214.5 	"/>
</g>
</svg>
