<?xml version="1.0" encoding="utf-8"?>
<!-- Generator: Adobe Illustrator 26.0.0, SVG Export Plug-In . SVG Version: 6.00 Build 0)  -->
<svg version="1.0" id="door_x5F_right" xmlns="http://www.w3.org/2000/svg" xmlns:xlink="http://www.w3.org/1999/xlink" x="0px"
	 y="0px" width="400px" height="500px" viewBox="0 0 400 500" style="enable-background:new 0 0 400 500;" xml:space="preserve">
<style type="text/css">
	.st0{fill:url(#DOOR_RIGHT_1);}
	.st1{opacity:0.42;fill:#898989;}
	.st2{fill:#7F7F7E;}
	.st3{opacity:7.000000e-02;fill:#FFFFFF;}
</style>
<linearGradient id="DOOR_RIGHT_1" gradientUnits="userSpaceOnUse" x1="200.9149" y1="568.9488" x2="200.9149" y2="-51.8558">
	<stop  offset="0" style="stop-color:#999999"/>
	<stop  offset="0.4392" style="stop-color:#5B5B5B"/>
	<stop  offset="0.8134" style="stop-color:#2C2C2C"/>
	<stop  offset="1" style="stop-color:#1A1A1A"/>
</linearGradient>
<polygon class="st0" points="-0.4,-5 -0.4,145.4 51.9,205.6 51.9,342.5 -0.4,412.5 -0.7,502 402.5,502 402.5,-5 "/>
<path class="st1" d="M405.8,120.9H185.5c-0.2-1.6-1.6-2.9-3.3-2.9c-1.8,0-3.3,1.5-3.3,3.3c0,1.8,1.5,3.3,3.3,3.3
	c1.7,0,3.1-1.3,3.3-2.9h221.2L405.8,120.9z M182.2,123.9c-1.4,0-2.6-1.2-2.6-2.6c0-1.4,1.2-2.6,2.6-2.6s2.6,1.2,2.6,2.6
	C184.8,122.7,183.7,123.9,182.2,123.9z"/>
<polygon class="st2" points="113.2,421.5 120.2,421.5 123.6,439.8 116.7,439.8 "/>
<polygon class="st2" points="100.6,421.5 107.5,421.5 111,439.8 104.1,439.8 "/>
<polygon class="st2" points="125.8,421.5 132.8,421.5 136.3,439.8 129.3,439.8 "/>
<polygon class="st2" points="88,421.5 94.9,421.5 98.4,439.8 91.4,439.8 "/>
<polygon class="st3" points="8.5,-5 8.5,143 58.5,200 402.5,200 402.5,144 402.5,136 402.5,0 "/>
<polygon class="st3" points="8.5,505 8.5,415 58.5,348 402.5,348 402.5,405 402.5,413 401.5,505 "/>
<rect x="59.5" y="208" class="st3" width="343" height="133"/>
</svg>
