<?xml version="1.0" encoding="utf-8"?>
<!-- Generator: Adobe Illustrator 26.0.0, SVG Export Plug-In . SVG Version: 6.00 Build 0)  -->
<svg version="1.0" id="star" xmlns="http://www.w3.org/2000/svg" xmlns:xlink="http://www.w3.org/1999/xlink" x="0px" y="0px"
	 width="59.1px" height="58.9px" viewBox="0 0 59.1 58.9" style="enable-background:new 0 0 59.1 58.9;" xml:space="preserve">
<style type="text/css">
	.st0{fill:#FFD81A;}
	.st1{fill:#FFB127;}
	.st2{fill:#FFC136;}
	.st3{fill:#FFF794;}
	.st4{opacity:0.4;fill:#FFB127;}
</style>
<g id="레이어_5">
	<path class="st0" d="M29.3,1.5l-9.6,12.7l-16,0.5c-3.1,0.1-4.8,3.6-3.1,6l9.2,13.1L5.4,49.2c-0.8,3,1.9,5.7,4.8,4.8l15.3-4.8
		l13.2,9c2.5,1.8,5.9,0,6-3.2l0.2-16l12.6-9.9c2.4-1.9,1.7-5.7-1.2-6.7l-15.1-5.2L35.8,2.2C35.5,1,34.1,1.1,33,0.9
		C31.6,0.7,30.4,0.2,29.3,1.5z"/>
	<path class="st0" d="M10.8,38.6c14.9,2.3,28.9-6.5,33.9-20.1l-3.3-1.1L36,2.5c-1.1-2.8-4.9-3.5-6.7-1l-9.6,12.7l-16,0.5
		c-3.1,0.1-4.8,3.6-3.1,6l9.2,13.1L8.6,38C9.3,38.2,10.1,38.4,10.8,38.6z"/>
	<path class="st1" d="M28.1,12.3l-5.9,7.9l-9.9,0.3c-1.9,0.1-3,2.3-1.9,3.7l5.7,8.1l-2.8,9.5c-0.5,1.8,1.2,3.5,3,3l9.5-3l8.2,5.6
		c1.5,1.1,3.6,0,3.7-2l0.2-9.9l7.8-6.1c1.5-1.2,1.1-3.6-0.7-4.2l-9.4-3.2l-3.4-9.4c-0.2-0.8-1-0.7-1.8-0.8
		C29.5,11.8,28.7,11.5,28.1,12.3z"/>
	<path class="st2" d="M16.6,35.3c9.2,1.4,18-4,21.1-12.5l-2-0.7L32.3,13c-0.7-1.7-3.1-2.2-4.2-0.6l-5.9,7.9l-9.9,0.3
		c-1.9,0.1-3,2.3-1.9,3.7l5.7,8.1L15.3,35C15.7,35.1,16.1,35.2,16.6,35.3z"/>
	<ellipse transform="matrix(0.3551 -0.9348 0.9348 0.3551 9.2189 34.3395)" class="st3" cx="29.5" cy="10.5" rx="5" ry="3.4"/>
	<path class="st4" d="M56.4,22.5l-8.1-2.8C42.7,27.3,29,41.6,7.4,42.2l-2,6.9c-0.8,3,1.9,5.7,4.8,4.8l15.3-4.8l13.2,9
		c2.5,1.8,5.9,0,6-3.2l0.2-16l12.6-9.9C60,27.3,59.3,23.5,56.4,22.5z"/>
</g>
</svg>
