<?xml version="1.0" encoding="utf-8"?>
<!-- Generator: Adobe Illustrator 26.0.0, SVG Export Plug-In . SVG Version: 6.00 Build 0)  -->
<svg version="1.0" id="wall" xmlns="http://www.w3.org/2000/svg" xmlns:xlink="http://www.w3.org/1999/xlink" x="0px" y="0px"
	 width="800px" height="500px" viewBox="0 0 800 500" style="enable-background:new 0 0 800 500;" xml:space="preserve">
<style type="text/css">
	.st0{opacity:0.22;fill:none;stroke:#4C4C4C;stroke-width:12;stroke-miterlimit:10;}
	.st1{fill:#A5A5A5;}
	.st2{fill:none;stroke:#7F7F7F;stroke-width:12;stroke-miterlimit:10;}
	.st3{fill:#C4C4C4;}
	.st4{fill:#424242;}
	.st5{opacity:0.77;fill:url(#WAL_SVGID_1_);enable-background:new    ;}		
	.st8{fill:#4C5356;}
	.st9{opacity:0.2;enable-background:new    ;}
	.st10{fill:#2E2E2E;}
	.st11{opacity:0.2;}
	.st12{fill:#FFFFFF;}	
	.st14{fill:#E8BE60;}
	.st15{fill:#B28D42;}
	.st16{opacity:0.66;}	
	.st18{fill:none;}
</style>
<polygon id="그림자" class="st0" points="609.2,35.9 367.7,35.9 185.8,35.9 50.5,137.4 50.5,364.3 185.8,463.9 609.2,463.9 
	744.5,364.3 744.5,137.4 "/>
<g id="틀">
	<path class="st1" d="M-9.5-11.1v518h817v-518C807.5-11.1-9.5-11.1-9.5-11.1z M750.7,367.4L613.2,469.2H183L45.5,367.4v-232
		L183,31.6h184.9h245.4l137.5,103.7L750.7,367.4L750.7,367.4z"/>
	<polygon class="st2" points="613.2,31.6 367.8,31.6 183,31.6 45.5,135.4 45.5,367.4 183,469.2 613.2,469.2 750.7,367.4 
		750.7,135.4 	"/>
</g>
<g id="꾸밈">
	<g>
		<path class="st3" d="M763.7,479.4h-49.8c-3,0-5.4-2.4-5.4-5.4v-14.2c0-3,2.4-5.4,5.4-5.4h49.8c3,0,5.4,2.4,5.4,5.4V474
			C769.1,477,766.7,479.4,763.7,479.4z"/>
	</g>
	<g>
		<path class="st4" d="M712.8,471.7c-0.7,0-1.3-0.6-1.3-1.3v-7.2c0-0.7,0.6-1.3,1.3-1.3s1.3,0.6,1.3,1.3v7.2
			C714.1,471.1,713.5,471.7,712.8,471.7z"/>
	</g>
	<g>
		<path class="st4" d="M717.5,476.3c-0.7,0-1.3-0.6-1.3-1.3v-16.4c0-0.7,0.6-1.3,1.3-1.3s1.3,0.6,1.3,1.3V475
			C718.8,475.7,718.2,476.3,717.5,476.3z"/>
	</g>
	<g>
		<path class="st4" d="M722.2,477.4c-0.7,0-1.3-0.6-1.3-1.3v-18.7c0-0.7,0.6-1.3,1.3-1.3s1.3,0.6,1.3,1.3v18.7
			C723.5,476.9,722.9,477.4,722.2,477.4z"/>
	</g>
	<g>
		<path class="st4" d="M727,477.4c-0.7,0-1.3-0.6-1.3-1.3v-18.7c0-0.7,0.6-1.3,1.3-1.3s1.3,0.6,1.3,1.3v18.7
			C728.2,476.9,727.7,477.4,727,477.4z"/>
	</g>
	<g>
		<path class="st4" d="M731.7,477.4c-0.7,0-1.3-0.6-1.3-1.3v-18.7c0-0.7,0.6-1.3,1.3-1.3s1.3,0.6,1.3,1.3v18.7
			C733,476.9,732.4,477.4,731.7,477.4z"/>
	</g>
	<g>
		<path class="st4" d="M736.4,477.4c-0.7,0-1.3-0.6-1.3-1.3v-18.7c0-0.7,0.6-1.3,1.3-1.3s1.3,0.6,1.3,1.3v18.7
			C737.7,476.9,737.1,477.4,736.4,477.4z"/>
	</g>
	<g>
		<path class="st4" d="M741.1,477.4c-0.7,0-1.3-0.6-1.3-1.3v-18.7c0-0.7,0.6-1.3,1.3-1.3s1.3,0.6,1.3,1.3v18.7
			C742.4,476.9,741.8,477.4,741.1,477.4z"/>
	</g>
	<g>
		<path class="st4" d="M745.8,477.4c-0.7,0-1.3-0.6-1.3-1.3v-18.7c0-0.7,0.6-1.3,1.3-1.3s1.3,0.6,1.3,1.3v18.7
			C747.1,476.9,746.5,477.4,745.8,477.4z"/>
	</g>
	<g>
		<path class="st4" d="M750.5,477.4c-0.7,0-1.3-0.6-1.3-1.3v-18.7c0-0.7,0.6-1.3,1.3-1.3s1.3,0.6,1.3,1.3v18.7
			C751.8,476.9,751.3,477.4,750.5,477.4z"/>
	</g>
	<g>
		<path class="st4" d="M755.3,477.4c-0.7,0-1.3-0.6-1.3-1.3v-18.7c0-0.7,0.6-1.3,1.3-1.3s1.3,0.6,1.3,1.3v18.7
			C756.5,476.9,756,477.4,755.3,477.4z"/>
	</g>
	<g>
		<path class="st4" d="M760,476.3c-0.7,0-1.3-0.6-1.3-1.3v-16.4c0-0.7,0.6-1.3,1.3-1.3s1.3,0.6,1.3,1.3V475
			C761.3,475.7,760.7,476.3,760,476.3z"/>
	</g>
	<g>
		<path class="st4" d="M764.7,471.7c-0.7,0-1.3-0.6-1.3-1.3v-7.2c0-0.7,0.6-1.3,1.3-1.3s1.3,0.6,1.3,1.3v7.2
			C766,471.1,765.4,471.7,764.7,471.7z"/>
	</g>
	
		<linearGradient id="WAL_SVGID_1_" gradientUnits="userSpaceOnUse" x1="24.1" y1="42.9" x2="35.9249" y2="42.9" gradientTransform="matrix(1 0 0 -1 0 502)">
		<stop  offset="1.235650e-03" style="stop-color:#999999"/>
		<stop  offset="1" style="stop-color:#666666"/>
	</linearGradient>
	<polygon class="st5" points="25.5,440.7 25.5,475.5 34.5,475.5 34.5,440.7 35.9,477.5 24.1,477.5 	"/>
	
		<linearGradient id="SVGID_00000058563770617349230710000003458690158161702802_" gradientUnits="userSpaceOnUse" x1="24.1" y1="84.25" x2="35.9249" y2="84.25" gradientTransform="matrix(1 0 0 -1 0 502)">
		<stop  offset="1.235650e-03" style="stop-color:#999999"/>
		<stop  offset="1" style="stop-color:#666666"/>
	</linearGradient>
	
		<polygon style="opacity:0.77;fill:url(#SVGID_00000058563770617349230710000003458690158161702802_);enable-background:new    ;" points="
		25.5,399.3 25.5,434.1 34.5,434.1 34.5,399.3 35.9,436.2 24.1,436.2 	"/>
	
		<radialGradient id="SVGID_00000032630470754485215450000000467148362815327366_" cx="29.9851" cy="43.9" r="19.9673" gradientTransform="matrix(1 0 0 -1 0 502)" gradientUnits="userSpaceOnUse">
		<stop  offset="0" style="stop-color:#FF837F"/>
		<stop  offset="0" style="stop-color:#FFED6A"/>
		<stop  offset="7.916979e-02" style="stop-color:#FBE256"/>
		<stop  offset="0.2744" style="stop-color:#F1C92B"/>
		<stop  offset="0.4267" style="stop-color:#EBBA10"/>
		<stop  offset="0.5161" style="stop-color:#E9B406"/>
		<stop  offset="0.6831" style="stop-color:#F1AD03"/>
		<stop  offset="0.9774" style="stop-color:#FBA400"/>
	</radialGradient>
	
		<rect x="25.5" y="440.7" style="fill:url(#SVGID_00000032630470754485215450000000467148362815327366_);" width="9.1" height="34.8"/>
	<rect x="25.5" y="399.3" class="st8" width="9.1" height="34.8"/>
	
		<ellipse transform="matrix(0.7302 -0.6832 0.6832 0.7302 -302.3222 164.853)" class="st9" cx="57.6" cy="465.3" rx="11.7" ry="11.7"/>
	<ellipse class="st10" cx="57.6" cy="465.3" rx="10.1" ry="10.1"/>
	<g class="st11">
		<path class="st12" d="M65.2,458.8c-1.8-1.5-4-2.4-6.5-2.4c-5.6,0-10.1,4.5-10.1,10.1c0,2.5,0.9,4.7,2.4,6.5
			c-2.2-1.8-3.6-4.6-3.6-7.7c0-5.6,4.5-10.1,10.1-10.1C60.6,455.2,63.4,456.6,65.2,458.8z"/>
	</g>
	<g class="st11">
		<path d="M67.6,465.3c0,5.6-4.5,10.1-10.1,10.1c-3.1,0-5.9-1.4-7.7-3.6c1.8,1.5,4,2.4,6.5,2.4c5.6,0,10.1-4.5,10.1-10.1
			c0-2.5-0.9-4.8-2.4-6.5C66.3,459.4,67.6,462.2,67.6,465.3z"/>
	</g>
	
		<radialGradient id="WALL_00000130605710637679121190000013211039779358898578_" cx="57.7295" cy="36.7304" r="5.9001" gradientTransform="matrix(1 0 0 -1 0 502)" gradientUnits="userSpaceOnUse">
		<stop  offset="0" style="stop-color:#FF837F"/>
		<stop  offset="0" style="stop-color:#FBD73B"/>
		<stop  offset="0.5161" style="stop-color:#F7931E"/>
		<stop  offset="1" style="stop-color:#F7931E"/>
	</radialGradient>
	<circle style="fill:url(#WALL_00000130605710637679121190000013211039779358898578_);" cx="57.7" cy="465.3" r="5.9"/>
</g>
<g id="노란띠">
	<rect x="-11.5" y="217.3" class="st14" width="63.3" height="15.9"/>
	<rect x="39.7" y="217.3" class="st15" width="12.1" height="15.9"/>
	<rect x="-11.5" y="243.9" class="st14" width="63.3" height="15.9"/>
	<rect x="39.7" y="243.9" class="st15" width="12.1" height="15.9"/>
	<rect x="-11.5" y="270.5" class="st14" width="63.3" height="15.9"/>
	<rect x="39.7" y="270.5" class="st15" width="12.1" height="15.9"/>
	<rect x="745.3" y="270.5" class="st14" width="62.2" height="15.9"/>
	<rect x="744.8" y="270.5" class="st15" width="12.1" height="15.9"/>
	<rect x="745.3" y="244" class="st14" width="62.2" height="15.9"/>
	<rect x="744.8" y="244" class="st15" width="12.1" height="15.9"/>
	<rect x="745.3" y="217.4" class="st14" width="62.2" height="15.9"/>
	<rect x="744.8" y="217.4" class="st15" width="12.1" height="15.9"/>
</g>
<g id="다각형" class="st16">
		<linearGradient id="WALL_00000107589051103787200130000004519678958513439108_" gradientUnits="userSpaceOnUse" x1="31.9574" y1="251.05" x2="764.4267" y2="251.05" gradientTransform="matrix(1 0 0 -1 0 502)">
		<stop  offset="0" style="stop-color:#666666"/>
		<stop  offset="0.4702" style="stop-color:#999999"/>
		<stop  offset="1" style="stop-color:#666666"/>
	</linearGradient>
	<path style="fill:url(#WALL_00000107589051103787200130000004519678958513439108_);" d="M620.7,19.5l-222.5,1.1L286.9,21
		l-111.3,0.3l1.2-0.4L34.9,131l0.9-1.8L36,374.7l-1-2l142.3,107.6l-1.6-0.5l445,0.4l-1.4,0.5l142.5-107.4l-0.7,1.5l0.3-122.8
		l0.5-122.8l0.4,0.8L620.7,19.5z M620.7,19.2L763,129l0.1,0.1v0.1v245.5v0.1l-0.1,0.1L620.8,482.6h-0.1h-0.1l-445,0.1h-0.1l-0.1-0.1
		L33.3,374.9l-0.1-0.1v-0.1V129.2V129l0.1-0.1L175.6,19.2h0.1h0.1H620.7z"/>
</g>
<g id="가이드패스">
	<polygon id="D1doorBorder" class="st18" points="613.2,31.6 367.8,31.6 183,31.6 45.5,135.4 45.5,367.4 183,469.2 613.2,469.2 750.7,367.4 
		750.7,135.4 	"/>
</g>
</svg>
