<?xml version="1.0" encoding="utf-8"?>
<!-- Generator: Adobe Illustrator 26.0.1, SVG Export Plug-In . SVG Version: 6.00 Build 0)  -->
<svg version="1.0" id="Layer_1" xmlns="http://www.w3.org/2000/svg" xmlns:xlink="http://www.w3.org/1999/xlink" x="0px" y="0px"
	 width="960px" height="500px" viewBox="0 0 960 500" style="enable-background:new 0 0 960 500;" xml:space="preserve">
<style type="text/css">
	.st0{fill:url(#sky_00000044858373078297441170000008571674097810278280_);}
	.st1{fill:#718AED;}
	.st2{fill:#5270DE;}
	.st3{fill:#28387F;}
	.st4{fill:#4461B2;}
	.st5{fill:url(#BG_NIGHT_1);}
	.st6{fill:#1C5574;}
	.st7{fill:url(#SVGID_00000105394647951546014250000017670896695352899734_);}
	.st8{fill:none;}
</style>
<linearGradient id="sky_00000101098696748304327450000001882899096937894329_" gradientUnits="userSpaceOnUse" x1="479.95" y1="914.449" x2="479.95" y2="508.8187" gradientTransform="matrix(1 0 0 1 0 -534)">
	<stop  offset="0" style="stop-color:#ADB6FF"/>
	<stop  offset="0.1034" style="stop-color:#A5B1FD"/>
	<stop  offset="0.2676" style="stop-color:#8EA3F6"/>
	<stop  offset="0.4713" style="stop-color:#688DEB"/>
	<stop  offset="0.4777" style="stop-color:#678CEB"/>
	<stop  offset="0.5684" style="stop-color:#6282E3"/>
	<stop  offset="0.7232" style="stop-color:#5667CE"/>
	<stop  offset="0.922" style="stop-color:#433BAB"/>
	<stop  offset="1" style="stop-color:#3A289C"/>
</linearGradient>
<rect id="sky" style="fill:url(#sky_00000101098696748304327450000001882899096937894329_);" width="959.9" height="412.1"/>
<path class="st1" d="M171.4,324.8c-4.3-9.5-11.5-18.7-19.2-25.6c-6.4-5.7-23.8-8.8-30.4-0.9c-1.1-10.6-5.7-20.9-14.4-27.5
	c-8-6-18.6-8-28-4.9c-3.9-14.6-12.8-28.5-27-34.7c-14-6.1-32.1-3.6-41.9,8.7c-3.9-0.5-7.6,1-10.6,3.6v125.1
	c9.8,13.9,28.7,18.9,44.8,23.2c24.3,6.5,49.4,9.9,74.6,10.3c6.7,0.1,13.5,0.2,20.2-0.4c5-0.5,9.9-1.8,13.5-5.6
	c4.8-5.2,5.7-13.2,2.7-19.4C169.1,367.1,178.1,339.6,171.4,324.8z"/>
<g id="LTree2">
	<path class="st1" d="M80,382.9v-78c4.1,0.5,7.9,2.6,10.9,5.1c12.3,10,14.2,25.9,15.2,40.2c2.7-2.1,2-5.5,3.3-8.3
		c1.2-2.7,3.4-5.4,6.6-5.7c0.2,0,0.5-0.1,0.9,0c1,0,2,0.3,2.7,0.7c0.3,0.2,0.6,0.4,0.9,0.6c1.6,1.2,2.6,2.9,3.1,4.6
		c0.6,2.3,0.7,4.6,1.4,6.9c0.1,0.2,0.2,0.5,0.2,0.6s0.1,0.2,0.2,0.4c0.1,0.2,0.2,0.5,0.3,0.8c-0.1-0.3-0.2-0.6-0.2-0.9
		c0-0.2,0-0.4,0-0.5c0.1-0.6,0.3-1.2,0.6-1.9c0.2-0.2,0.2-0.3,0.4-0.5c1-1.2,2.7-2.1,4.5-2.7c2.7-0.8,5.9,0,7.9,1.8
		c-1.7-2.4-3-5.1-3.8-7.8c0-0.1-0.1-0.1-0.1-0.2c-0.9-3-1.3-6-1.3-9.1c0-3.5,0.6-7,1.9-10.4c0.2-0.6,0.5-1.2,0.8-1.9
		c0.9-1.8,2.1-3.4,4.1-4.4c1.8-0.9,4-1,6.1-0.5c1.4,0.3,2.7,0.8,3.9,1.5c2.9,1.7,4.9,4.3,6.8,6.8c-0.7-3-1.1-6.2-1.1-9.3
		c-0.1-8.8,3.2-16.7,13-17.7c22.3-2.2,19.5,12.1,20.5,21.2c2.8-1.8,5-6.7,11.8-2.8c6.8,3.9,4.7,9.2,1.5,13.6
		c3.7-4.6,11.6-2.7,17.2,0.3s8.4,8.8,8.8,14.5c0.5,5.6-1.2,11.2-2.7,16.6c3.4-0.9,3.3-1.6,6.1-3.4c2.7-1.8,5.9-3.6,9.5-3.6
		c2.8,0,5.8,1.6,6.6,3.7c-0.3-3.8,1.1-7.3,3.2-10.7c6.5-10.4,14-7.3,19.1-7.3c13.1,0.2,23.4,32.3,27.8,34.9
		c-4.2-4.8-1.1-12.6,5.5-14.8c6.6-2.3,15.1,1.8,16.2,7.7c2.5-3.7,8.9-5.3,13.4-3.2c4.5,2.1,6.2,7.5,3.8,11.2
		c19.5-1.5,35.9,9.1,41.4,24c1.9,5.2,2.4,10.9,1.3,16.6c-70.3,2.3-139,6.4-208.1,11.1c-23.4,1.6-46.8,3.2-70.3,4.9
		c-6.8,0.5-13.5,0.9-20.3,1.4c-0.5,0-0.9,0.1-1.3,0.1v-41.2"/>
	<path class="st2" d="M375.1,395.7c-3.6-5.5-8.7-9.9-13.8-10c-2.9,0-6-0.6-8.7-1.6s-7.7-1.9-8.4-4.3c-1.5,3.6-5.9,6.1-10.4,5.9
		c-4.4-0.2-8.6-4.2-9.5-7.9c-4.8,6.5-14,10.4-23,9.9c-9.1-0.6-15-5.6-18.6-12.6c-1.3,5.8-5.3,11.1-11,14.5s-12.9,4.8-19.8,3.9
		c-2.5-0.4-5.1-1-7-2.5s-4.3-2-3.4-4c-1.8,2.7-5.8,4.2-9.5,3.6s-5.5-3.7-6-6.8c-3,5.2-11,7.8-17.4,5.8c-6.4-2.1-8.4-9.5-6.8-15.1
		c-1.2,2.4-2.7,4.6-4.7,6.6c-4.1,4.3-9.8,7.6-16,9.2c-0.9,0.2-2,0.4-2.9,0.6c-4.1,0.7-8.7,0.7-12.3-1.3c-2-1.1-3.9-3.6-4.6-6
		c-0.1-0.8-0.2-1.5-0.4-2.2c0-0.1,0-0.2,0-0.2v0.1c-0.2-0.9-0.5-1.8-0.9-2.6c-1.9-4.2-5.4-7.3-9.5-8.5c3.3-6.6,5.2-14,0.7-20.7
		c-3.6-5.3-9.2-6.1-14.5-4.7c1.5-7.7-0.2-16-5.4-22.3c-6.2-7.5-16.2-10.8-25.6-9.2c-5.8-15-21.9-23.3-37.9-20.8
		c-11.6,1.8-30.6,13.4-27.6,26.4c-1.5,1.4,30.4,110.3,30.4,110.3s239.5-14.8,309.8-17.1C381,407.7,378.8,401,375.1,395.7z"/>
</g>
<g id="RTree2">
	<path class="st1" d="M949.4,239.8c-9.8-12.3-27.9-14.7-41.9-8.7c-14.2,6.2-23.1,20.1-27,34.7c-9.4-3-20-1.1-28,4.9
		c-8.7,6.6-13.3,16.9-14.4,27.5c-6.6-7.9-24-4.9-30.4,0.9c-4.2,3.8-8.1,8.2-11.6,12.9c-2.2-0.2-4.6,0.5-6.4,1.7
		c-2.6,1.7-4.4,4.3-6.2,6.8c2.4-11.9,1.3-23.7-11.3-25.3c-14.5-1.8-17.5,10.5-18.4,19.6c-2.6-1.8-4.4-4.8-6.6-7
		c-2.2-2.2-6.2-3.5-8.5-1.4c-1.3,1.2-1.6,3-1.6,4.6c-0.1,5.1,1.5,10.2,4.4,14.6c-3.5-4.6-10.7-2.7-15.8,0.3
		c-5.1,3.2-7.7,8.9-8.1,14.5c-0.5,5.6,1,11.1,2.5,16.6c-3-0.8-3-1.6-5.5-3.4c-2.6-1.9-5.5-3.6-8.7-3.6c-2.5,0-5.1,1.4-6,3.4
		c0.7-4.2,0.5-8.7-3-10.5c-11.8-6.1-20.8,9.3-24.8,12c3.8-4.8,1-12.5-5.1-14.8c-6.1-2.4-13.9,1.8-14.8,7.7
		c-2.4-3.7-8.2-5.3-12.3-3.2c-4.1,2.1-5.8,7.5-3.5,11.2c-28.6,9.5-48.2,23-55.2,38.4c-2,4.4-3,9.1-2.8,13.9c0,0.2,0,0.4,0,0.6
		c0,0.3,0,0.7,0.1,1.1c0,0.2,0.1,0.5,0.1,0.7c0.1,0.2,0.1,0.2,0.1,0.4c0,0.3,0.1,0.7,0.2,1.1c100.3,3.6,197.1,11.5,297.2,19.2
		l83.9,6.1V243.4C957,240.8,953.3,239.3,949.4,239.8z"/>
	<path class="st2" d="M888.3,377.9c-2.1-4.6-5.4-7.5-8.8-10.4l0.1-2.3c-0.2,0.6-0.5,1.2-0.7,1.8c-1.9-1.5-3.8-3.1-5.6-4.9
		c5.5-17.3-11.9-29.8-27.2-32.1c-8.1-1.2-17.2-0.7-23.9,4.7c-2.7,2.2-4.7,5-6,8.2c-7.8-4.4-17.6-5.2-25.6-0.4
		c-7,4.3-11,12.4-10.7,20.4c-4.8,0.2-9.2,2.8-12.5,6.6c-0.2-0.2-0.4-0.3-0.7-0.4c-13-7.5-24-3-27.9,4.2c-6.9-2.7-15.2-0.2-19,7.1
		c-1.2,2.4-1.8,5.2-1.5,7.9c-0.9,1.1-2,1.8-3.6,2.1c-3.3,0.6-7-0.9-8.7-3.6c0.8,2-1.4,2.5-3.1,4s-4.2,2.2-6.5,2.5
		c-6.3,0.9-13-0.5-18.2-3.9c-5.3-3.5-9-8.7-10.2-14.5c-3.3,7-8.7,12.1-17,12.6c-8.3,0.6-16.7-3.4-21.1-9.9c-0.8,3.8-4.6,7.7-8.7,7.9
		c-4.1,0.3-8.2-2.3-9.5-5.9c-0.7,2.5-5.2,3.3-7.7,4.3c-2.5,1.1-5.3,1.4-8,1.6c-7.8,0.5-12.3,4.1-14.9,8.7c-2.4,4.3-3,9.5-2.8,13.9
		c0,0.2,0,0.4,0,0.6c0,0.3,0,0.7,0.1,1.1c0,0.2,0.1,0.5,0.1,0.7c0.1,0.2,0.1,0.2,0.1,0.4c0,0.3,0.1,0.7,0.2,1.1
		c100.3,3.6,298.3,15.2,298.3,15.2l0.7-17.3c4.8-2.4,8.8-6,11.1-11.5C891.8,391.8,891.2,384.3,888.3,377.9z"/>
</g>
<g id="LTree">
	<path class="st3" d="M0.3,296.5c0.2-0.1,0.3-0.2,0.5-0.2c8.7-3.4,19.9-1.2,26.9,3.7c7,5.1,10.2,12.5,10.6,19.8
		c0.4,5.5-0.6,10.9-1.9,16.3c-0.5,1.8-0.9,3.7-1.4,5.5c0.6-1,1.6-2,2.6-2.9c0.2-0.2,0.5-0.5,0.8-0.7c0.5-0.4,1.1-0.8,1.6-1.2
		c0.2-0.2,0.3-0.2,0.5-0.3c1.3-0.8,3.2-1.3,4.9-1.2c1,0,2,0.3,2.8,0.8c1.3,0.9,1.9,2.2,1.9,3.4s-0.5,2.6-0.9,3.8
		c1.6-1.6,3.4-3.1,5.4-4.5c0.2-0.2,0.5-0.4,0.8-0.5c3.6-2.3,7.7-4,12-5.2c3.3-0.9,7-1.5,10.3-0.7c4,1,6.7,4,7.4,7.2
		c0.7,3.1-0.2,6.4-1.7,9.5c-1.5,3-3.4,5.9-4.9,8.9c2.2-0.9,5.3-2.3,7.7-2.6c2.4-0.4,5.2-0.1,6.9,1.2c1.8,1.2,2.4,4.8,0.7,6.2
		c2.7-1.6,6.2-2.3,9.5-1.7c3.3,0.5,7,2.2,7.8,4.7c2,6-0.2,12.5-4.1,18c-0.5,0.6-2.9,3.2-6,6.4c-5.8,5.9-13.7,13.7-14.1,13.4
		c1.2,0.7,2.3,1.6,3.3,2.5c0.5,0.5,1,1.1,1.4,1.7c2.2,3.1,2.8,6.9,2.1,10.4c-0.3,1.6-0.9,3.3-1.6,4.8c-1.7,3.6-4.5,6.9-7.4,10
		c-3.1,3.3-6.7,6.6-11.3,8.7c-4.6,2.1-10.5,3-15.5,1.5c-4.9-1.5-10.4-6.6-8.8-10.5c-3.1,2.5-6.3,5.1-10.5,6.6
		c-4.1,1.4-9.5,1.4-12.7-1c-1.9-1.4-2.8-3.4-3.3-5.5c-0.4-1.6-0.7-3.2-0.8-4.8c-0.2-3.4,0.2-6.9,1.7-10.2c-1.2,1.3-3.6,1.9-5.5,1.4
		c-1.2-0.3-2.5-0.9-3.3-1.6c0.9,2.7,0.3,5.7-1.6,8.1c-1,1.3-2.7,2.5-4.6,2.7c-2,0.2-5,0.2-4.7-1.4c-0.5,0.9-1.3,1.6-2.3,2.3
		c-0.2,0.4-0.7,0.7-1.2,0.9C0.3,430.2,0.3,296.5,0.3,296.5z"/>
	<path class="st4" d="M117.3,381c0,17-15.3,22-20.4,24.6c-1.6,0.9-3.3,1.6-5.1,2.3c-1.5,0.5-3,1.1-4.5,1.5c-2.7,0.8-5.6,1.3-8.4,1
		c-2.3-0.2-5.4-1.2-6.8-2.6c-0.3-0.3-0.5-0.6-0.7-0.9c-0.5,0.5-1,0.9-1.7,1.2c-1.7,0.8-4,0.9-6,0.6c-1.3-0.2-2.6-0.7-3.6-1.3
		c-1.5-0.9-2.7-2.2-3.4-3.6c-0.9-1.5-1.5-3.2-1.8-4.8c-2.2-9.8,0.8-20.9,7.7-29.7c-3.6,4-8,7.6-12.9,10.6c-2.1,1.2-4.8,2.6-7.3,2
		c-2.8-0.7-3.7-3.3-4.1-5.5c-1.1-8.4,0.9-18,6.5-25.6c-0.2,0.2-0.5,0.3-0.9,0.4c-0.3,0.1-0.6,0.2-0.9,0.2c-1.9,0.3-3.7-0.2-4.7-1.5
		c-1.5,6-5.5,11.7-11.2,16c-1.3,1-2.7,2-4.5,2.4c-1.7,0.5-3.7,0.5-5.3-0.2c-1.4-0.7-4-2.3-3.6-3.5c-1.3,2.6-3.4,5.1-6.7,6.2
		c-0.2,0.1-0.3,0.1-0.5,0.2c-2,0.5-4.2,0.5-6.3-0.1v-92.4c2-0.4,4.1-0.6,6.2-0.7c11.2-0.3,21.7,4.7,27.7,11.6c6.1,7,8.1,15.5,7.7,24
		c0.2-2,3.3-3.3,5.9-3.1c2.6,0.2,4.8,1.7,5.5,3.5c0.9,1.8,0.5,3.9-0.3,5.7c0.1-0.1,0.2-0.2,0.3-0.2l0,0c1.1-0.9,2.2-1.6,3.3-2.3
		c3-2,6.2-3.7,10.2-4.9c0,0,0,0,0.1,0c3-0.9,6.4-1.3,9.6-1c2.7,0.3,5.3,1.2,7.3,2.7c3.9,3.1,3.9,8.1,2.1,12.3
		c3.2-2.3,9.1-1.7,12.7,0.2c3.5,2,5.1,5.5,4.7,8.8c-0.4,3.1-2.3,6-4.8,8.6c2.3-2,6.9-2.3,10.3-1.6c3.7,0.6,6.8,2.7,8.7,5.2
		c1.9,2.5,2.6,5.4,2.9,8.3c0.6,7-1.3,14.1-5.8,20.3C116.1,377.2,117,379.1,117.3,381z"/>
</g>
<g id="LTree_00000129886976874626058270000014882749816318517641_">
	<path class="st3" d="M959.9,430.2c-0.5-0.2-1-0.5-1.2-0.9c-1-0.7-1.8-1.4-2.3-2.3c0.3,1.6-2.7,1.6-4.7,1.4
		c-1.9-0.2-3.6-1.4-4.6-2.7c-1.9-2.4-2.5-5.4-1.6-8.1c-0.8,0.7-2.1,1.3-3.3,1.6c-1.9,0.5-4.3-0.1-5.5-1.4c1.5,3.3,1.9,6.8,1.7,10.2
		c-0.1,1.6-0.4,3.2-0.8,4.8c-0.5,2.1-1.4,4.1-3.3,5.5c-3.2,2.4-8.6,2.4-12.7,1c-4.2-1.5-7.4-4.1-10.5-6.6c1.6,3.9-3.9,9-8.8,10.5
		c-5,1.5-10.9,0.6-15.5-1.5s-8.2-5.4-11.3-8.7c-2.9-3.1-5.7-6.4-7.4-10c-0.7-1.5-1.3-3.2-1.6-4.8c-0.7-3.5-0.1-7.3,2.1-10.4
		c0.4-0.6,0.9-1.2,1.4-1.7c1-0.9,2.1-1.8,3.3-2.5c-0.4,0.3-8.3-7.5-14.1-13.4c-3.1-3.2-5.5-5.8-6-6.4c-3.9-5.5-6.1-12-4.1-18
		c0.8-2.5,4.5-4.2,7.8-4.7c3.3-0.6,6.8,0.1,9.5,1.7c-1.7-1.4-1.1-5,0.7-6.2c1.7-1.3,4.5-1.6,6.9-1.2c2.4,0.3,5.5,1.7,7.7,2.6
		c-1.5-3-3.4-5.9-4.9-8.9c-1.5-3.1-2.4-6.4-1.7-9.5c0.7-3.2,3.4-6.2,7.4-7.2c3.3-0.8,7-0.2,10.3,0.7c4.3,1.2,8.4,2.9,12,5.2
		c0.3,0.1,0.6,0.3,0.8,0.5c2,1.4,3.8,2.9,5.4,4.5c-0.4-1.2-0.9-2.6-0.9-3.8s0.6-2.5,1.9-3.4c0.8-0.5,1.8-0.8,2.8-0.8
		c1.7-0.1,3.6,0.4,4.9,1.2c0.2,0.1,0.3,0.1,0.5,0.3c0.5,0.4,1.1,0.8,1.6,1.2c0.3,0.2,0.6,0.5,0.8,0.7c1,0.9,2,1.9,2.6,2.9
		c-0.5-1.8-0.9-3.7-1.4-5.5c-1.3-5.4-2.3-10.8-1.9-16.3c0.4-7.3,3.6-14.7,10.6-19.8c7-4.9,18.2-7.1,26.9-3.7c0.2,0,0.3,0.1,0.5,0.2
		L959.9,430.2L959.9,430.2z"/>
	<path class="st4" d="M845.7,375.9c-4.5-6.2-6.4-13.3-5.8-20.3c0.3-2.9,1-5.8,2.9-8.3s5-4.6,8.7-5.2c3.4-0.7,8-0.4,10.3,1.6
		c-2.5-2.6-4.4-5.5-4.8-8.6c-0.4-3.3,1.2-6.8,4.7-8.8c3.6-1.9,9.5-2.5,12.7-0.2c-1.8-4.2-1.8-9.2,2.1-12.3c2-1.5,4.6-2.4,7.3-2.7
		c3.2-0.3,6.6,0.1,9.6,1c0.1,0,0.1,0,0.1,0c4,1.2,7.2,2.9,10.2,4.9c1.1,0.7,2.2,1.4,3.3,2.3l0,0c0.1,0,0.2,0.1,0.3,0.2
		c-0.8-1.8-1.2-3.9-0.3-5.7c0.7-1.8,2.9-3.3,5.5-3.5s5.7,1.1,5.9,3.1c-0.4-8.5,1.6-17,7.7-24c6-6.9,16.5-11.9,27.7-11.6
		c2.1,0.1,4.2,0.3,6.2,0.7v92.4c-2.1,0.6-4.3,0.6-6.3,0.1c-0.2-0.1-0.3-0.1-0.5-0.2c-3.3-1.1-5.4-3.6-6.7-6.2
		c0.4,1.2-2.2,2.8-3.6,3.5c-1.6,0.7-3.6,0.7-5.3,0.2c-1.8-0.4-3.2-1.4-4.5-2.4c-5.7-4.3-9.7-10-11.2-16c-1,1.3-2.8,1.8-4.7,1.5
		c-0.3,0-0.6-0.1-0.9-0.2c-0.4-0.1-0.7-0.2-0.9-0.4c5.6,7.6,7.6,17.2,6.5,25.6c-0.4,2.2-1.3,4.8-4.1,5.5c-2.5,0.6-5.2-0.8-7.3-2
		c-4.9-3-9.3-6.6-12.9-10.6c6.9,8.8,9.9,19.9,7.7,29.7c-0.3,1.6-0.9,3.3-1.8,4.8c-0.7,1.4-1.9,2.7-3.4,3.6c-1,0.6-2.3,1.1-3.6,1.3
		c-2,0.3-4.3,0.2-6-0.6c-0.7-0.3-1.2-0.7-1.7-1.2c-0.2,0.3-0.4,0.6-0.7,0.9c-1.4,1.4-4.5,2.4-6.8,2.6c-2.8,0.3-5.7-0.2-8.4-1
		c-1.5-0.4-3-1-4.5-1.5c-1.8-0.7-3.5-1.4-5.1-2.3c-5.1-2.6-9.5-6.1-12.6-10.2c-2.4-3.2-6.8-5.9-7.6-9.4c-0.4-1.6-0.5-3.4-0.2-5
		C843.2,379.1,844.1,377.2,845.7,375.9z"/>
</g>
<g id="ground">
	
		<linearGradient id="BG_NIGHT_1" gradientUnits="userSpaceOnUse" x1="480" y1="893.9509" x2="480" y2="1157.6785" gradientTransform="matrix(1 0 0 1 0 -534)">
		<stop  offset="0" style="stop-color:#6AB2C4"/>
		<stop  offset="0.5015" style="stop-color:#30597B"/>
		<stop  offset="0.8408" style="stop-color:#21385D"/>
	</linearGradient>
	<path class="st5" d="M960,409.1v90.8H0v-90.8c13-1.3,34.1-3.1,63.4-5.1c2-0.2,30.9-1.9,33.1-2.1c49.4-2.8,194.8-5.8,277.8-7.1
		c1.2,0,71.9-0.6,109.6-0.6C712.3,394.2,919,404.9,960,409.1z"/>
	<path class="st6" d="M588.5,394.8c0,0-39-0.6-103.9-0.6s-113.1,0.6-113.1,0.6L0,488.3V500l959.8-0.1v-11.6L588.5,394.8z"/>
	
		<linearGradient id="SVGID_00000154417501832704592320000016514254165861336996_" gradientUnits="userSpaceOnUse" x1="480.1" y1="928.2" x2="480.1" y2="1033.9" gradientTransform="matrix(1 0 0 1 0 -534)">
		<stop  offset="0" style="stop-color:#6D7A99"/>
		<stop  offset="1" style="stop-color:#383F4E"/>
	</linearGradient>
	<path style="fill:url(#SVGID_00000154417501832704592320000016514254165861336996_);" d="M575.5,394.8c0,0-34.4-0.6-91.5-0.6
		s-99.6,0.6-99.6,0.6L16.1,499.9h928L575.5,394.8z"/>
</g>
<line id="LGuide_00000057861843997618514640000001480969257286726807_" class="st8" x1="-0.1" y1="477" x2="358.4" y2="394.7"/>
<line id="RGuide_00000103234064103356355760000000939424167327413670_" class="st8" x1="959.6" y1="476" x2="602" y2="395.2"/>
</svg>
