<svg xmlns="http://www.w3.org/2000/svg" width="253" height="248" viewBox="0 0 253 248">
  <g id="fireworks_Y" transform="translate(0.336 -0.313)">
    <path id="F" d="M9268.183-155.805c1.75,4.212,1.333,8.382-.927,9.317s-5.5-1.722-7.237-5.933-17.6-47.652-15.343-48.586S9266.438-160.016,9268.183-155.805Z" transform="translate(-9113.895 348.964)" fill="#ffe558" opacity="0.51"/>
    <path id="F-2" data-name="F" d="M9215.28-283.63c-1.745-4.212-4.989-6.868-7.243-5.933s-2.676,5.106-.928,9.316,21.25,46.136,23.514,45.2S9217.023-279.42,9215.28-283.63Z" transform="translate(-9114.972 346.423)" fill="#ffe558" opacity="0.51"/>
    <path id="F-3" data-name="F" d="M9300.238-248.932c4.209-1.744,8.382-1.33,9.315.926s-1.72,5.5-5.936,7.243-47.649,17.6-48.585,15.34S9296.029-247.187,9300.238-248.932Z" transform="translate(-9113.533 347.518)" fill="#ffe558" opacity="0.51"/>
    <path id="F-4" data-name="F" d="M9172.408-196.027c-4.205,1.744-6.87,4.987-5.933,7.243s5.107,2.671,9.318.926,46.133-21.252,45.2-23.508S9176.623-197.771,9172.408-196.027Z" transform="translate(-9116.068 348.601)" fill="#ffe558" opacity="0.51"/>
    <path id="F-5" data-name="F" d="M9260.019-283.63c1.741-4.212,4.984-6.868,7.237-5.933s2.677,5.106.927,9.316-21.253,46.136-23.507,45.2S9258.271-279.42,9260.019-283.63Z" transform="translate(-9113.895 346.423)" fill="#ffe558" opacity="0.51"/>
    <path id="F-6" data-name="F" d="M9207.109-155.805c-1.748,4.212-1.329,8.382.928,9.317s5.5-1.722,7.243-5.933,17.6-47.652,15.343-48.586S9208.855-160.016,9207.109-155.805Z" transform="translate(-9114.972 348.964)" fill="#ffe558" opacity="0.51"/>
    <path id="F-7" data-name="F" d="M9300.238-187.858c4.209,1.745,8.382,1.33,9.315-.926s-1.72-5.5-5.936-7.243-47.649-17.6-48.585-15.339S9296.029-189.6,9300.238-187.858Z" transform="translate(-9113.533 348.601)" fill="#ffe558" opacity="0.51"/>
    <path id="F-8" data-name="F" d="M9172.408-240.762c-4.205-1.744-6.87-4.987-5.933-7.243s5.107-2.67,9.318-.926,46.133,21.253,45.2,23.509S9176.623-239.017,9172.408-240.762Z" transform="translate(-9116.068 347.518)" fill="#ffe558" opacity="0.51"/>
    <ellipse id="F-9" data-name="F" cx="4.421" cy="8.253" rx="4.421" ry="8.253" transform="translate(142.982 188.945) rotate(-22.5)" fill="#ffe558"/>
    <ellipse id="F-10" data-name="F" cx="4.421" cy="8.253" rx="4.421" ry="8.253" transform="translate(88.962 58.518) rotate(-22.5)" fill="#ffe558"/>
    <ellipse id="F-11" data-name="F" cx="8.253" cy="4.421" rx="8.253" ry="4.421" transform="translate(179.11 101.727) rotate(-22.5)" fill="#ffe558"/>
    <ellipse id="F-12" data-name="F" cx="8.253" cy="4.421" rx="8.253" ry="4.421" transform="translate(48.687 155.749) rotate(-22.5)" fill="#ffe558"/>
    <ellipse id="F-13" data-name="F" cx="8.253" cy="4.421" rx="8.253" ry="4.421" transform="translate(142.982 70.383) rotate(-67.5)" fill="#ffe558"/>
    <ellipse id="F-14" data-name="F" cx="8.253" cy="4.421" rx="8.253" ry="4.421" transform="translate(88.962 200.812) rotate(-67.5)" fill="#ffe558"/>
    <ellipse id="F-15" data-name="F" cx="4.421" cy="8.253" rx="4.421" ry="8.253" transform="translate(179.109 157.602) rotate(-67.5)" fill="#ffe558"/>
    <ellipse id="F-16" data-name="F" cx="4.421" cy="8.253" rx="4.421" ry="8.253" transform="translate(48.687 103.58) rotate(-67.5)" fill="#ffe558"/>
    <path id="F-17" data-name="F" d="M9300.429-162.339c3.318,3.321,4.563,7.454,2.785,9.232s-5.913.529-9.23-2.791-35.528-38.412-33.747-40.191S9297.107-165.659,9300.429-162.339Z" transform="translate(-9113.41 349.076)" fill="#ffe558" opacity="0.51"/>
    <path id="F-18" data-name="F" d="M9181.777-280.421c-3.319-3.32-7.448-4.57-9.233-2.791s-.526,5.912,2.8,9.231,38.408,35.528,40.189,33.749S9185.1-277.1,9181.777-280.421Z" transform="translate(-9115.919 346.576)" fill="#ffe558" opacity="0.51"/>
    <path id="F-19" data-name="F" d="M9233.1-301.661c0-4.695,2.043-8.5,4.556-8.5s4.556,3.807,4.556,8.5-2.038,52.284-4.556,52.284S9233.1-296.965,9233.1-301.661Z" transform="translate(-9114.229 345.721)" fill="#ffe558" opacity="0.51"/>
    <path id="F-20" data-name="F" d="M9232.7-134.242c0,4.7,2.044,8.5,4.554,8.5s4.554-3.806,4.554-8.5-2.041-52.284-4.554-52.284S9232.7-138.937,9232.7-134.242Z" transform="translate(-9114.24 349.481)" fill="#ffe558" opacity="0.51"/>
    <ellipse id="F-21" data-name="F" cx="4.554" cy="8.501" rx="4.554" ry="8.501" transform="translate(174.59 187.192) rotate(-45)" fill="#ffe558"/>
    <ellipse id="F-22" data-name="F" cx="4.554" cy="8.501" rx="4.554" ry="8.501" transform="translate(53.381 66.556) rotate(-45)" fill="#ffe558"/>
    <ellipse id="F-23" data-name="F" cx="4.554" cy="8.501" rx="4.554" ry="8.501" transform="translate(118.868 35.56)" fill="#ffe558"/>
    <ellipse id="F-24" data-name="F" cx="4.554" cy="8.501" rx="4.554" ry="8.501" transform="translate(118.459 206.738)" fill="#ffe558"/>
    <path id="F-25" data-name="F" d="M9321.8-213.835c4.688,0,8.5-2.039,8.5-4.554s-3.809-4.554-8.5-4.554-52.289,2.039-52.289,4.554S9317.106-213.835,9321.8-213.835Z" transform="translate(-9112.985 348.257)" fill="#ffe558" opacity="0.51"/>
    <path id="F-26" data-name="F" d="M9154.38-214.233c-4.7,0-8.5-2.038-8.5-4.554s3.8-4.554,8.5-4.554,52.283,2.039,52.283,4.554S9159.073-214.233,9154.38-214.233Z" transform="translate(-9116.742 348.246)" fill="#ffe558" opacity="0.51"/>
    <ellipse id="F-27" data-name="F" cx="8.501" cy="4.554" rx="8.501" ry="4.554" transform="translate(200.313 125.314)" fill="#ffe558"/>
    <ellipse id="F-28" data-name="F" cx="8.501" cy="4.554" rx="8.501" ry="4.554" transform="translate(29.135 124.905)" fill="#ffe558"/>
    <path id="F-29" data-name="F" d="M9300.429-273.981c3.318-3.32,4.563-7.453,2.785-9.231s-5.913-.529-9.23,2.791-35.528,38.411-33.747,40.19S9297.107-270.661,9300.429-273.981Z" transform="translate(-9113.412 346.576)" fill="#ffe558" opacity="0.51"/>
    <path id="F-30" data-name="F" d="M9181.777-155.9c-3.319,3.32-7.448,4.57-9.233,2.791s-.526-5.912,2.8-9.232,38.408-35.528,40.189-33.749S9185.1-159.218,9181.777-155.9Z" transform="translate(-9115.92 349.076)" fill="#ffe558" opacity="0.51"/>
    <ellipse id="F-31" data-name="F" cx="8.501" cy="4.554" rx="8.501" ry="4.554" transform="translate(174.59 72.137) rotate(-45)" fill="#ffe558"/>
    <ellipse id="F-32" data-name="F" cx="8.501" cy="4.554" rx="8.501" ry="4.554" transform="translate(53.381 192.773) rotate(-45)" fill="#ffe558"/>
    <path id="F-33" data-name="F" d="M9322.229-168.421c3.853,2.553,5.874,6.3,4.509,8.364s-5.607,1.672-9.46-.881-41.846-30.1-40.478-32.171S9318.373-170.974,9322.229-168.421Z" transform="translate(-9112.926 349.138)" fill="#ff6b7d" opacity="0.51"/>
    <path id="F-34" data-name="F" d="M9158.649-275.612c-3.858-2.553-8.1-2.948-9.46-.882s.65,5.811,4.506,8.364,44.063,26.755,45.433,24.688S9162.5-273.059,9158.649-275.612Z" transform="translate(-9116.671 346.743)" fill="#ff6b7d" opacity="0.51"/>
    <path id="F-35" data-name="F" d="M9214.1-313c-.923-4.533.3-8.608,2.728-9.1s5.147,2.779,6.068,7.312,8.3,50.875,5.873,51.369S9215.022-308.471,9214.1-313Z" transform="translate(-9114.761 345.418)" fill="#ff6b7d" opacity="0.51"/>
    <path id="F-36" data-name="F" d="M9252.165-121.161c.926,4.533,3.643,7.807,6.071,7.313s3.648-4.57,2.726-9.1-12.238-50.073-14.662-49.579S9251.243-125.693,9252.165-121.161Z" transform="translate(-9113.867 349.834)" fill="#ff6b7d" opacity="0.51"/>
    <path id="F-37" data-name="F" d="M9334.864-233.245c4.533-.927,7.808-3.646,7.309-6.074s-4.576-3.645-9.109-2.718S9283-229.748,9283.5-227.32,9330.33-232.318,9334.864-233.245Z" transform="translate(-9112.632 347.722)" fill="#ff6b7d" opacity="0.51"/>
    <path id="F-38" data-name="F" d="M9143.063-194.982c-4.531.927-8.6-.29-9.1-2.718s2.775-5.147,7.307-6.074,50.865-8.353,51.359-5.925S9147.594-195.908,9143.063-194.982Z" transform="translate(-9117.047 348.625)" fill="#ff6b7d" opacity="0.51"/>
    <path id="F-39" data-name="F" d="M9295.507-297.122c2.561-3.858,2.956-8.093.884-9.461s-5.807.651-8.364,4.508-26.752,44.06-24.686,45.428S9292.959-293.266,9295.507-297.122Z" transform="translate(-9113.347 345.926)" fill="#ff6b7d" opacity="0.51"/>
    <path id="F-40" data-name="F" d="M9187.5-134.082c-2.552,3.857-6.3,5.875-8.366,4.507s-1.671-5.6.886-9.46,30.106-41.844,32.167-40.476S9190.058-137.94,9187.5-134.082Z" transform="translate(-9115.756 349.657)" fill="#ff6b7d" opacity="0.51"/>
    <ellipse id="F-41" data-name="F" cx="4.487" cy="8.375" rx="4.487" ry="8.375" transform="matrix(0.552, -0.834, 0.834, 0.552, 197.49, 183.597)" fill="#ff6b7d"/>
    <ellipse id="F-42" data-name="F" cx="4.487" cy="8.375" rx="4.487" ry="8.375" transform="matrix(0.552, -0.834, 0.834, 0.552, 30.039, 73.969)" fill="#ff6b7d"/>
    <ellipse id="F-43" data-name="F" cx="4.487" cy="8.375" rx="4.487" ry="8.375" transform="translate(97.66 24.208) rotate(-11.5)" fill="#ff6b7d"/>
    <ellipse id="F-44" data-name="F" cx="4.487" cy="8.375" rx="4.487" ry="8.375" transform="translate(136.64 220.467) rotate(-11.5)" fill="#ff6b7d"/>
    <ellipse id="F-45" data-name="F" cx="8.375" cy="4.487" rx="8.375" ry="4.487" transform="translate(212.23 107.356) rotate(-11.559)" fill="#ff6b7d"/>
    <ellipse id="F-46" data-name="F" cx="8.375" cy="4.487" rx="8.375" ry="4.487" transform="translate(16.012 146.537) rotate(-11.559)" fill="#ff6b7d"/>
    <ellipse id="F-47" data-name="F" cx="8.375" cy="4.487" rx="8.375" ry="4.487" transform="translate(170.085 50.709) rotate(-56.5)" fill="#ff6b7d"/>
    <ellipse id="F-48" data-name="F" cx="8.375" cy="4.487" rx="8.375" ry="4.487" transform="translate(59.621 217.606) rotate(-56.5)" fill="#ff6b7d"/>
    <path id="F-49" data-name="F" d="M9335.006-204.723c4.54.883,7.84,3.57,7.369,6s-4.536,3.689-9.074,2.806-50.182-11.8-49.715-14.233S9330.467-205.605,9335.006-204.723Z" transform="translate(-9112.629 348.61)" fill="#ff6b7d" opacity="0.51"/>
    <path id="F-50" data-name="F" d="M9142.836-241.115c-4.539-.883-8.6.374-9.076,2.806s2.828,5.12,7.367,6,50.943,7.855,51.412,5.424S9147.375-240.232,9142.836-241.115Z" transform="translate(-9117.054 347.748)" fill="#ff6b7d" opacity="0.51"/>
    <path id="F-51" data-name="F" d="M9179.743-296.893c-2.586-3.835-3.015-8.067-.965-9.452s5.819.6,8.406,4.434,27.144,43.825,25.08,45.212S9182.328-293.059,9179.743-296.893Z" transform="translate(-9115.766 345.932)" fill="#ff6b7d" opacity="0.51"/>
    <path id="F-52" data-name="F" d="M9288.358-134.255c2.586,3.836,6.349,5.82,8.4,4.435s1.622-5.618-.965-9.453-30.47-41.579-32.521-40.193S9285.77-138.089,9288.358-134.255Z" transform="translate(-9113.347 349.658)" fill="#ff6b7d" opacity="0.51"/>
    <path id="F-53" data-name="F" d="M9321.739-268.942c3.825-2.591,5.806-6.356,4.427-8.408-1.395-2.053-5.624-1.617-9.456.974s-41.547,30.51-40.163,32.563S9317.9-266.352,9321.739-268.942Z" transform="translate(-9112.931 346.72)" fill="#ff6b7d" opacity="0.51"/>
    <path id="F-54" data-name="F" d="M9159.207-160.162c-3.833,2.59-8.062,3.026-9.451.973s.6-5.817,4.425-8.407,43.806-27.182,45.184-25.13C9200.759-190.673,9163.039-162.753,9159.207-160.162Z" transform="translate(-9116.66 349.15)" fill="#ff6b7d" opacity="0.51"/>
    <path id="F-55" data-name="F" d="M9260.607-313.11c.885-4.54-.373-8.6-2.8-9.078s-5.128,2.825-6.009,7.365-7.856,50.946-5.422,51.419S9259.723-308.57,9260.607-313.11Z" transform="translate(-9113.865 345.417)" fill="#ff6b7d" opacity="0.51"/>
    <path id="F-56" data-name="F" d="M9223.258-121.129c-.883,4.541-3.575,7.838-6.008,7.366s-3.689-4.537-2.807-9.078,11.8-50.179,14.24-49.705S9224.133-125.669,9223.258-121.129Z" transform="translate(-9114.751 349.834)" fill="#ff6b7d" opacity="0.51"/>
    <ellipse id="F-57" data-name="F" cx="4.487" cy="8.375" rx="4.487" ry="8.375" transform="translate(212.443 151.105) rotate(-79)" fill="#ff6b7d"/>
    <ellipse id="F-58" data-name="F" cx="4.487" cy="8.375" rx="4.487" ry="8.375" transform="translate(15.852 113.836) rotate(-79)" fill="#ff6b7d"/>
    <ellipse id="F-59" data-name="F" cx="4.487" cy="8.375" rx="4.487" ry="8.375" transform="matrix(0.829, -0.559, 0.559, 0.829, 59.273, 41.97)" fill="#ff6b7d"/>
    <ellipse id="F-60" data-name="F" cx="4.487" cy="8.375" rx="4.487" ry="8.375" transform="matrix(0.829, -0.559, 0.559, 0.829, 170.353, 208.461)" fill="#ff6b7d"/>
    <ellipse id="F-61" data-name="F" cx="8.375" cy="4.487" rx="8.375" ry="4.487" transform="translate(196.962 75.011) rotate(-34.059)" fill="#ff6b7d"/>
    <ellipse id="F-62" data-name="F" cx="8.375" cy="4.487" rx="8.375" ry="4.487" transform="translate(30.584 186.264) rotate(-34.059)" fill="#ff6b7d"/>
    <ellipse id="F-63" data-name="F" cx="8.375" cy="4.487" rx="8.375" ry="4.487" transform="translate(136.342 38.816) rotate(-79)" fill="#ff6b7d"/>
    <ellipse id="F-64" data-name="F" cx="8.375" cy="4.487" rx="8.375" ry="4.487" transform="translate(98.086 235.215) rotate(-79)" fill="#ff6b7d"/>
    <ellipse id="F-65" data-name="F" cx="2.771" cy="2.771" rx="2.771" ry="2.771" transform="translate(86.387 36.181)" fill="#ffe558"/>
    <ellipse id="F-66" data-name="F" cx="2.293" cy="2.293" rx="2.293" ry="2.293" transform="translate(15.294 88.148)" fill="#ffe558"/>
    <ellipse id="F-67" data-name="F" cx="1.614" cy="1.614" rx="1.614" ry="1.614" transform="translate(24.267 88.215)" fill="#ffe558"/>
    <ellipse id="F-68" data-name="F" cx="1.614" cy="1.614" rx="1.614" ry="1.614" transform="translate(30.281 53.18)" fill="#ffe558"/>
    <ellipse id="F-69" data-name="F" cx="2.661" cy="2.661" rx="2.661" ry="2.661" transform="translate(24.419 171.988)" fill="#ffe558"/>
    <ellipse id="F-70" data-name="F" cx="2.661" cy="2.661" rx="2.661" ry="2.661" transform="translate(245.155 118.733)" fill="#ffe558"/>
    <ellipse id="F-71" data-name="F" cx="2.661" cy="2.661" rx="2.661" ry="2.661" transform="translate(228.587 176.89)" fill="#ffe558"/>
    <ellipse id="F-72" data-name="F" cx="2.661" cy="2.661" rx="2.661" ry="2.661" transform="translate(206.568 37.063)" fill="#ffe558"/>
    <ellipse id="F-73" data-name="F" cx="2.661" cy="2.661" rx="2.661" ry="2.661" transform="translate(52.918 50.585)" fill="#ffe558"/>
    <ellipse id="F-74" data-name="F" cx="1.743" cy="1.743" rx="1.743" ry="1.743" transform="translate(3.619 131.357)" fill="#ffe558"/>
    <ellipse id="F-75" data-name="F" cx="1.434" cy="1.434" rx="1.434" ry="1.434" transform="translate(12.39 180.396)" fill="#ffe558"/>
    <ellipse id="F-76" data-name="F" cx="1.434" cy="1.434" rx="1.434" ry="1.434" transform="translate(6.067 157.661)" fill="#ffe558"/>
    <ellipse id="F-77" data-name="F" cx="1.434" cy="1.434" rx="1.434" ry="1.434" transform="translate(74.977 239.969)" fill="#ffe558"/>
    <ellipse id="F-78" data-name="F" cx="1.576" cy="1.576" rx="1.576" ry="1.576" transform="translate(229.304 82.097)" fill="#ffe558"/>
    <ellipse id="F-79" data-name="F" cx="1.576" cy="1.576" rx="1.576" ry="1.576" transform="translate(231.703 134.607)" fill="#ffe558"/>
    <circle id="F-80" data-name="F" cx="0.815" cy="0.815" r="0.815" transform="translate(213.306 52.4)" fill="#ffe558"/>
    <circle id="F-81" data-name="F" cx="0.815" cy="0.815" r="0.815" transform="translate(213.201 84.455)" fill="#ffe558"/>
    <circle id="F-82" data-name="F" cx="1.964" cy="1.964" r="1.964" transform="translate(34.818 209.481)" fill="#ffe558"/>
    <ellipse id="F-83" data-name="F" cx="2.467" cy="2.467" rx="2.467" ry="2.467" transform="translate(32.842 222.085)" fill="#ffe558"/>
    <ellipse id="F-84" data-name="F" cx="2.467" cy="2.467" rx="2.467" ry="2.467" transform="translate(209.349 163.485)" fill="#ffe558"/>
    <ellipse id="F-85" data-name="F" cx="1.441" cy="1.441" rx="1.441" ry="1.441" transform="translate(46.975 211.023)" fill="#ffe558"/>
    <ellipse id="F-86" data-name="F" cx="1.441" cy="1.441" rx="1.441" ry="1.441" transform="translate(201.936 199.375)" fill="#ffe558"/>
    <ellipse id="F-87" data-name="F" cx="1.441" cy="1.441" rx="1.441" ry="1.441" transform="translate(216.548 204.987)" fill="#ffe558"/>
    <ellipse id="F-88" data-name="F" cx="1.441" cy="1.441" rx="1.441" ry="1.441" transform="translate(173.332 233.093)" fill="#ffe558"/>
    <ellipse id="F-89" data-name="F" cx="1.441" cy="1.441" rx="1.441" ry="1.441" transform="translate(161.278 218.654)" fill="#ffe558"/>
    <ellipse id="F-90" data-name="F" cx="1.441" cy="1.441" rx="1.441" ry="1.441" transform="translate(127.277 237.91)" fill="#ffe558"/>
    <ellipse id="F-91" data-name="F" cx="1.441" cy="1.441" rx="1.441" ry="1.441" transform="translate(85.034 222.567)" fill="#ffe558"/>
    <ellipse id="F-92" data-name="F" cx="1.631" cy="1.631" rx="1.631" ry="1.631" transform="translate(140.928 5.212)" fill="#ffe558"/>
    <circle id="F-93" data-name="F" cx="2.066" cy="2.066" r="2.066" transform="translate(125.03 13.235)" fill="#ffe558"/>
    <ellipse id="F-94" data-name="F" cx="0.949" cy="0.949" rx="0.949" ry="0.949" transform="translate(186.238 29.94)" fill="#ffe558"/>
    <ellipse id="F-95" data-name="F" cx="0.949" cy="0.949" rx="0.949" ry="0.949" transform="translate(112.592 9.652)" fill="#ffe558"/>
    <ellipse id="F-96" data-name="F" cx="0.949" cy="0.949" rx="0.949" ry="0.949" transform="translate(44.613 47.649)" fill="#ffe558"/>
    <path id="패스_107" data-name="패스 107" d="M19.172,13.654l-3.258.879a2.252,2.252,0,0,0-1.537,1.424l-1.123,3.183a2.251,2.251,0,0,1-4.009.481L7.4,16.795a2.251,2.251,0,0,0-1.829-1.021L2.2,15.689A2.251,2.251,0,0,1,.5,12.025L2.622,9.4a2.252,2.252,0,0,0,.405-2.056L2.065,4.108A2.251,2.251,0,0,1,5.026,1.363l3.153,1.2a2.252,2.252,0,0,0,2.08-.249L13.038.4a2.252,2.252,0,0,1,3.526,1.968l-.171,3.371a2.252,2.252,0,0,0,.88,1.9l2.68,2.051A2.251,2.251,0,0,1,19.172,13.654Z" transform="translate(128.194 113.082) rotate(60)" fill="#fefe4d"/>
    <rect id="사각형_914" data-name="사각형 914" width="253" height="248" transform="translate(-0.336 0.313)" fill="none"/>
  </g>
</svg>
