<svg xmlns="http://www.w3.org/2000/svg" width="126" height="125" viewBox="0 0 126 125">
  <g id="fireworks_Y" transform="translate(-0.625 -0.798)">
    <path id="패스_107" data-name="패스 107" d="M9.668,6.886l-1.643.443a1.136,1.136,0,0,0-.775.718L6.684,9.653A1.135,1.135,0,0,1,4.663,9.9L3.733,8.47a1.135,1.135,0,0,0-.923-.515l-1.7-.043A1.135,1.135,0,0,1,.254,6.064L1.322,4.74a1.136,1.136,0,0,0,.2-1.037L1.042,2.072A1.135,1.135,0,0,1,2.535.687l1.59.607a1.136,1.136,0,0,0,1.049-.125L6.575.2a1.136,1.136,0,0,1,1.778.992l-.086,1.7a1.136,1.136,0,0,0,.444.959l1.352,1.035A1.135,1.135,0,0,1,9.668,6.886Z" transform="translate(64.563 57.203) rotate(60)" fill="#fefe4d"/>
    <path id="F" d="M9256.422-178.219c.882,2.124.673,4.227-.467,4.7s-2.772-.869-3.65-2.992-8.877-24.031-7.737-24.5S9255.542-180.342,9256.422-178.219Z" transform="translate(-9178.667 275.901)" fill="#ffe558" opacity="0.51"/>
    <path id="F-2" data-name="F" d="M9210.7-286.664c-.881-2.124-2.517-3.464-3.654-2.992s-1.349,2.575-.468,4.7,10.717,23.267,11.858,22.8S9211.574-284.541,9210.7-286.664Z" transform="translate(-9160.23 318.421)" fill="#ffe558" opacity="0.51"/>
    <path id="F-3" data-name="F" d="M9277.822-249.466c2.123-.879,4.227-.671,4.7.467s-.867,2.773-2.993,3.653-24.029,8.873-24.5,7.736S9275.7-248.587,9277.822-249.466Z" transform="translate(-9183.666 299.329)" fill="#ffe558" opacity="0.51"/>
    <path id="F-4" data-name="F" d="M9169.376-203.739c-2.122.879-3.466,2.515-2.993,3.653s2.576,1.347,4.7.467,23.266-10.718,22.8-11.855S9171.5-204.618,9169.376-203.739Z" transform="translate(-9141.14 280.896)" fill="#ffe558" opacity="0.51"/>
    <path id="F-5" data-name="F" d="M9252.3-286.664c.878-2.124,2.514-3.464,3.65-2.992s1.349,2.575.467,4.7-10.719,23.267-11.854,22.8S9251.423-284.541,9252.3-286.664Z" transform="translate(-9178.667 318.421)" fill="#ffe558" opacity="0.51"/>
    <path id="F-6" data-name="F" d="M9206.573-178.219c-.881,2.124-.67,4.227.468,4.7s2.773-.869,3.654-2.992,8.873-24.031,7.736-24.5S9207.455-180.342,9206.573-178.219Z" transform="translate(-9160.23 275.901)" fill="#ffe558" opacity="0.51"/>
    <path id="F-7" data-name="F" d="M9277.822-199.619c2.123.88,4.227.671,4.7-.467s-.867-2.773-2.993-3.653-24.029-8.874-24.5-7.735S9275.7-200.5,9277.822-199.619Z" transform="translate(-9183.666 280.896)" fill="#ffe558" opacity="0.51"/>
    <path id="F-8" data-name="F" d="M9169.376-245.346c-2.122-.879-3.466-2.515-2.993-3.653s2.576-1.346,4.7-.467,23.266,10.718,22.8,11.856S9171.5-244.466,9169.376-245.346Z" transform="translate(-9141.14 299.329)" fill="#ffe558" opacity="0.51"/>
    <ellipse id="F-9" data-name="F" cx="2.23" cy="4.162" rx="2.23" ry="4.162" transform="translate(72.063 95.575) rotate(-22.5)" fill="#ffe558"/>
    <ellipse id="F-10" data-name="F" cx="2.23" cy="4.162" rx="2.23" ry="4.162" transform="translate(44.732 29.581) rotate(-22.5)" fill="#ffe558"/>
    <ellipse id="F-11" data-name="F" cx="4.162" cy="2.23" rx="4.162" ry="2.23" transform="translate(90.346 51.436) rotate(-22.5)" fill="#ffe558"/>
    <ellipse id="F-12" data-name="F" cx="4.162" cy="2.23" rx="4.162" ry="2.23" transform="translate(24.357 78.768) rotate(-22.5)" fill="#ffe558"/>
    <ellipse id="F-13" data-name="F" cx="4.162" cy="2.23" rx="4.162" ry="2.23" transform="translate(72.063 35.565) rotate(-67.5)" fill="#ffe558"/>
    <ellipse id="F-14" data-name="F" cx="4.162" cy="2.23" rx="4.162" ry="2.23" transform="translate(44.732 101.559) rotate(-67.5)" fill="#ffe558"/>
    <ellipse id="F-15" data-name="F" cx="2.23" cy="4.162" rx="2.23" ry="4.162" transform="translate(90.346 79.703) rotate(-67.5)" fill="#ffe558"/>
    <ellipse id="F-16" data-name="F" cx="2.23" cy="4.162" rx="2.23" ry="4.162" transform="translate(24.357 52.37) rotate(-67.5)" fill="#ffe558"/>
    <path id="F-17" data-name="F" d="M9280.471-179.1c1.674,1.675,2.3,3.759,1.4,4.656s-2.982.267-4.655-1.407-17.916-19.371-17.018-20.269S9278.8-180.778,9280.471-179.1Z" transform="translate(-9186.161 273.541)" fill="#ffe558" opacity="0.51"/>
    <path id="F-18" data-name="F" d="M9176.8-282.206c-1.675-1.674-3.756-2.3-4.656-1.407s-.267,2.981,1.409,4.655,19.37,17.917,20.268,17.02S9178.476-280.532,9176.8-282.206Z" transform="translate(-9143.761 315.663)" fill="#ffe558" opacity="0.51"/>
    <path id="F-19" data-name="F" d="M9233.1-305.875c0-2.368,1.029-4.287,2.3-4.287s2.3,1.92,2.3,4.287-1.029,26.367-2.3,26.367S9233.1-303.507,9233.1-305.875Z" transform="translate(-9173.239 328.073)" fill="#ffe558" opacity="0.51"/>
    <path id="F-20" data-name="F" d="M9232.7-160.159c0,2.368,1.03,4.287,2.3,4.287s2.3-1.919,2.3-4.287-1.028-26.367-2.3-26.367S9232.7-162.527,9232.7-160.159Z" transform="translate(-9173.049 269.067)" fill="#ffe558" opacity="0.51"/>
    <ellipse id="F-21" data-name="F" cx="2.297" cy="4.287" rx="2.297" ry="4.287" transform="translate(88.06 94.682) rotate(-45)" fill="#ffe558"/>
    <ellipse id="F-22" data-name="F" cx="2.297" cy="4.287" rx="2.297" ry="4.287" transform="translate(26.732 33.642) rotate(-45)" fill="#ffe558"/>
    <ellipse id="F-23" data-name="F" cx="2.297" cy="4.287" rx="2.297" ry="4.287" transform="translate(59.858 17.911)" fill="#ffe558"/>
    <ellipse id="F-24" data-name="F" cx="2.297" cy="4.287" rx="2.297" ry="4.287" transform="translate(59.652 104.621)" fill="#ffe558"/>
    <path id="F-25" data-name="F" d="M9295.884-218.35c2.365,0,4.286-1.028,4.286-2.3s-1.921-2.3-4.286-2.3-26.37,1.028-26.37,2.3S9293.515-218.35,9295.884-218.35Z" transform="translate(-9190.466 286.319)" fill="#ffe558" opacity="0.51"/>
    <path id="F-26" data-name="F" d="M9150.166-218.748c-2.369,0-4.288-1.028-4.288-2.3s1.919-2.3,4.288-2.3,26.366,1.028,26.366,2.3S9152.533-218.748,9150.166-218.748Z" transform="translate(-9131.46 286.51)" fill="#ffe558" opacity="0.51"/>
    <ellipse id="F-27" data-name="F" cx="4.287" cy="2.297" rx="4.287" ry="2.297" transform="translate(101.129 63.376)" fill="#ffe558"/>
    <ellipse id="F-28" data-name="F" cx="4.287" cy="2.297" rx="4.287" ry="2.297" transform="translate(14.418 63.169)" fill="#ffe558"/>
    <path id="F-29" data-name="F" d="M9280.471-278.958c1.674-1.674,2.3-3.759,1.4-4.655s-2.982-.267-4.655,1.407-17.916,19.371-17.018,20.268S9278.8-277.284,9280.471-278.958Z" transform="translate(-9186.161 315.663)" fill="#ffe558" opacity="0.51"/>
    <path id="F-30" data-name="F" d="M9176.8-175.855c-1.675,1.674-3.756,2.3-4.656,1.407s-.267-2.981,1.409-4.656,19.37-17.917,20.268-17.02S9178.476-177.53,9176.8-175.855Z" transform="translate(-9143.761 273.541)" fill="#ffe558" opacity="0.51"/>
    <ellipse id="F-31" data-name="F" cx="4.287" cy="2.297" rx="4.287" ry="2.297" transform="translate(88.06 36.457) rotate(-45)" fill="#ffe558"/>
    <ellipse id="F-32" data-name="F" cx="4.287" cy="2.297" rx="4.287" ry="2.297" transform="translate(26.732 97.497) rotate(-45)" fill="#ffe558"/>
    <path id="F-33" data-name="F" d="M9299.691-180.721c1.943,1.287,2.962,3.176,2.274,4.218s-2.828.843-4.771-.444-21.1-15.182-20.413-16.224S9297.747-182.008,9299.691-180.721Z" transform="translate(-9193.968 272.115)" fill="#ff6b7d" opacity="0.51"/>
    <path id="F-34" data-name="F" d="M9153.747-276.705c-1.946-1.287-4.084-1.487-4.771-.445s.328,2.931,2.273,4.218,22.22,13.493,22.911,12.45S9155.691-275.418,9153.747-276.705Z" transform="translate(-9132.852 312.679)" fill="#ff6b7d" opacity="0.51"/>
    <path id="F-35" data-name="F" d="M9213.948-317.539c-.465-2.286.152-4.341,1.376-4.59s2.6,1.4,3.06,3.687,4.188,25.657,2.963,25.906S9214.413-315.254,9213.948-317.539Z" transform="translate(-9163.965 333.864)" fill="#ff6b7d" opacity="0.51"/>
    <path id="F-36" data-name="F" d="M9249.015-146.626c.468,2.286,1.838,3.937,3.063,3.688s1.84-2.3,1.374-4.59-6.171-25.252-7.394-25S9248.55-148.911,9249.015-146.626Z" transform="translate(-9179.332 262.309)" fill="#ff6b7d" opacity="0.51"/>
    <path id="F-37" data-name="F" d="M9309.4-237.757c2.285-.467,3.937-1.839,3.686-3.063s-2.309-1.838-4.594-1.371-25.246,6.2-24.994,7.422S9307.116-237.289,9309.4-237.757Z" transform="translate(-9197.219 295.64)" fill="#ff6b7d" opacity="0.51"/>
    <path id="F-38" data-name="F" d="M9138.524-202.517c-2.284.467-4.339-.146-4.591-1.371s1.4-2.6,3.685-3.063,25.652-4.212,25.9-2.988S9140.811-202.984,9138.524-202.517Z" transform="translate(-9125.68 280.206)" fill="#ff6b7d" opacity="0.51"/>
    <path id="F-39" data-name="F" d="M9279.5-302.024c1.291-1.946,1.49-4.082.445-4.771s-2.929.328-4.218,2.273-13.49,22.22-12.449,22.91S9278.216-300.079,9279.5-302.024Z" transform="translate(-9187.646 326.689)" fill="#ff6b7d" opacity="0.51"/>
    <path id="F-40" data-name="F" d="M9182.7-156.619c-1.287,1.945-3.176,2.963-4.219,2.273s-.843-2.826.446-4.771,15.183-21.1,16.222-20.412S9183.988-158.565,9182.7-156.619Z" transform="translate(-9146.685 265.697)" fill="#ff6b7d" opacity="0.51"/>
    <ellipse id="F-41" data-name="F" cx="2.263" cy="4.224" rx="2.263" ry="4.224" transform="matrix(0.552, -0.834, 0.834, 0.552, 99.705, 92.859)" fill="#ff6b7d"/>
    <ellipse id="F-42" data-name="F" cx="2.263" cy="4.224" rx="2.263" ry="4.224" transform="matrix(0.552, -0.834, 0.834, 0.552, 14.874, 37.391)" fill="#ff6b7d"/>
    <ellipse id="F-43" data-name="F" cx="2.263" cy="4.224" rx="2.263" ry="4.224" transform="translate(49.131 12.186) rotate(-11.5)" fill="#ff6b7d"/>
    <ellipse id="F-44" data-name="F" cx="2.263" cy="4.224" rx="2.263" ry="4.224" transform="translate(68.852 111.545) rotate(-11.5)" fill="#ff6b7d"/>
    <ellipse id="F-45" data-name="F" cx="4.224" cy="2.263" rx="4.224" ry="2.263" transform="translate(107.138 54.287) rotate(-11.559)" fill="#ff6b7d"/>
    <ellipse id="F-46" data-name="F" cx="4.224" cy="2.263" rx="4.224" ry="2.263" transform="translate(7.8 74.11) rotate(-11.559)" fill="#ff6b7d"/>
    <ellipse id="F-47" data-name="F" cx="4.224" cy="2.263" rx="4.224" ry="2.263" transform="translate(85.778 25.551) rotate(-56.5)" fill="#ff6b7d"/>
    <ellipse id="F-48" data-name="F" cx="4.224" cy="2.263" rx="4.224" ry="2.263" transform="translate(29.888 110.102) rotate(-56.5)" fill="#ff6b7d"/>
    <path id="F-49" data-name="F" d="M9309.516-207.665c2.288.445,3.953,1.8,3.715,3.027s-2.287,1.86-4.575,1.415-25.308-5.951-25.072-7.178S9307.227-208.111,9309.516-207.665Z" transform="translate(-9197.259 280.434)" fill="#ff6b7d" opacity="0.51"/>
    <path id="F-50" data-name="F" d="M9138.316-241.255c-2.289-.445-4.337.189-4.577,1.415s1.425,2.582,3.715,3.027,25.69,3.962,25.927,2.735S9140.605-240.81,9138.316-241.255Z" transform="translate(-9125.589 295.183)" fill="#ff6b7d" opacity="0.51"/>
    <path id="F-51" data-name="F" d="M9178.623-301.8c-1.3-1.934-1.52-4.068-.486-4.767s2.935.3,4.239,2.236,13.688,22.1,12.648,22.8S9179.927-299.864,9178.623-301.8Z" transform="translate(-9146.525 326.581)" fill="#ff6b7d" opacity="0.51"/>
    <path id="F-52" data-name="F" d="M9275.865-156.684c1.3,1.934,3.2,2.935,4.238,2.237s.817-2.833-.487-4.767-15.366-20.969-16.4-20.27S9274.559-158.617,9275.865-156.684Z" transform="translate(-9187.615 265.675)" fill="#ff6b7d" opacity="0.51"/>
    <path id="F-53" data-name="F" d="M9299.319-273.751c1.929-1.307,2.928-3.205,2.232-4.24s-2.836-.815-4.769.491-20.952,15.387-20.254,16.422S9297.386-272.445,9299.319-273.751Z" transform="translate(-9193.979 313.076)" fill="#ff6b7d" opacity="0.51"/>
    <path id="F-54" data-name="F" d="M9154.3-176.364c-1.932,1.306-4.065,1.526-4.766.491s.3-2.934,2.232-4.24,22.092-13.708,22.785-12.673S9156.236-177.671,9154.3-176.364Z" transform="translate(-9133.122 271.931)" fill="#ff6b7d" opacity="0.51"/>
    <path id="F-55" data-name="F" d="M9253.3-317.632c.444-2.289-.189-4.339-1.413-4.578s-2.586,1.424-3.03,3.714-3.962,25.692-2.734,25.931S9252.853-315.342,9253.3-317.632Z" transform="translate(-9179.356 333.903)" fill="#ff6b7d" opacity="0.51"/>
    <path id="F-56" data-name="F" d="M9218.748-146.618c-.443,2.29-1.8,3.953-3.027,3.714s-1.861-2.288-1.416-4.578,5.951-25.306,7.18-25.067S9219.189-148.908,9218.748-146.618Z" transform="translate(-9164.144 262.317)" fill="#ff6b7d" opacity="0.51"/>
    <ellipse id="F-57" data-name="F" cx="2.263" cy="4.224" rx="2.263" ry="4.224" transform="translate(107.246 76.412) rotate(-79)" fill="#ff6b7d"/>
    <ellipse id="F-58" data-name="F" cx="2.263" cy="4.224" rx="2.263" ry="4.224" transform="translate(7.719 57.556) rotate(-79)" fill="#ff6b7d"/>
    <ellipse id="F-59" data-name="F" cx="2.263" cy="4.224" rx="2.263" ry="4.224" transform="matrix(0.829, -0.559, 0.559, 0.829, 29.713, 21.144)" fill="#ff6b7d"/>
    <ellipse id="F-60" data-name="F" cx="2.263" cy="4.224" rx="2.263" ry="4.224" transform="matrix(0.829, -0.559, 0.559, 0.829, 85.914, 105.49)" fill="#ff6b7d"/>
    <ellipse id="F-61" data-name="F" cx="4.224" cy="2.263" rx="4.224" ry="2.263" transform="translate(99.438 37.915) rotate(-34.059)" fill="#ff6b7d"/>
    <ellipse id="F-62" data-name="F" cx="4.224" cy="2.263" rx="4.224" ry="2.263" transform="translate(15.149 94.206) rotate(-34.059)" fill="#ff6b7d"/>
    <ellipse id="F-63" data-name="F" cx="4.224" cy="2.263" rx="4.224" ry="2.263" transform="translate(68.701 19.553) rotate(-79)" fill="#ff6b7d"/>
    <ellipse id="F-64" data-name="F" cx="4.224" cy="2.263" rx="4.224" ry="2.263" transform="translate(49.347 118.982) rotate(-79)" fill="#ff6b7d"/>
    <ellipse id="F-65" data-name="F" cx="1.397" cy="1.397" rx="1.397" ry="1.397" transform="translate(43.425 18.224)" fill="#ffe558"/>
    <ellipse id="F-66" data-name="F" cx="1.156" cy="1.156" rx="1.156" ry="1.156" transform="translate(7.438 44.57)" fill="#ffe558"/>
    <ellipse id="F-67" data-name="F" cx="0.814" cy="0.814" rx="0.814" ry="0.814" transform="translate(11.963 44.603)" fill="#ffe558"/>
    <ellipse id="F-68" data-name="F" cx="0.814" cy="0.814" rx="0.814" ry="0.814" transform="translate(14.996 26.88)" fill="#ffe558"/>
    <ellipse id="F-69" data-name="F" cx="1.342" cy="1.342" rx="1.342" ry="1.342" transform="translate(12.04 86.984)" fill="#ffe558"/>
    <ellipse id="F-70" data-name="F" cx="1.342" cy="1.342" rx="1.342" ry="1.342" transform="translate(123.743 60.043)" fill="#ffe558"/>
    <ellipse id="F-71" data-name="F" cx="1.342" cy="1.342" rx="1.342" ry="1.342" transform="translate(115.387 89.464)" fill="#ffe558"/>
    <ellipse id="F-72" data-name="F" cx="1.342" cy="1.342" rx="1.342" ry="1.342" transform="translate(104.283 18.669)" fill="#ffe558"/>
    <ellipse id="F-73" data-name="F" cx="1.342" cy="1.342" rx="1.342" ry="1.342" transform="translate(26.493 25.568)" fill="#ffe558"/>
    <ellipse id="F-74" data-name="F" cx="0.879" cy="0.879" rx="0.879" ry="0.879" transform="translate(1.55 66.428)" fill="#ffe558"/>
    <ellipse id="F-75" data-name="F" cx="0.723" cy="0.723" rx="0.723" ry="0.723" transform="translate(5.973 91.235)" fill="#ffe558"/>
    <ellipse id="F-76" data-name="F" cx="0.723" cy="0.723" rx="0.723" ry="0.723" transform="translate(2.784 79.734)" fill="#ffe558"/>
    <ellipse id="F-77" data-name="F" cx="0.723" cy="0.723" rx="0.723" ry="0.723" transform="translate(37.651 121.38)" fill="#ffe558"/>
    <ellipse id="F-78" data-name="F" cx="0.795" cy="0.795" rx="0.795" ry="0.795" transform="translate(115.749 41.508)" fill="#ffe558"/>
    <ellipse id="F-79" data-name="F" cx="0.795" cy="0.795" rx="0.795" ry="0.795" transform="translate(116.959 68.072)" fill="#ffe558"/>
    <circle id="F-80" data-name="F" cx="0.411" cy="0.411" r="0.411" transform="translate(107.681 26.485)" fill="#ffe558"/>
    <circle id="F-81" data-name="F" cx="0.411" cy="0.411" r="0.411" transform="translate(107.628 42.7)" fill="#ffe558"/>
    <circle id="F-82" data-name="F" cx="0.99" cy="0.99" r="0.99" transform="translate(17.284 106.005)" fill="#ffe558"/>
    <ellipse id="F-83" data-name="F" cx="1.244" cy="1.244" rx="1.244" ry="1.244" transform="translate(16.287 112.361)" fill="#ffe558"/>
    <ellipse id="F-84" data-name="F" cx="1.244" cy="1.244" rx="1.244" ry="1.244" transform="translate(105.685 82.682)" fill="#ffe558"/>
    <circle id="F-85" data-name="F" cx="0.727" cy="0.727" r="0.727" transform="translate(23.414 106.782)" fill="#ffe558"/>
    <circle id="F-86" data-name="F" cx="0.727" cy="0.727" r="0.727" transform="translate(102.008 100.908)" fill="#ffe558"/>
    <circle id="F-87" data-name="F" cx="0.727" cy="0.727" r="0.727" transform="translate(109.316 103.739)" fill="#ffe558"/>
    <circle id="F-88" data-name="F" cx="0.727" cy="0.727" r="0.727" transform="translate(87.405 117.912)" fill="#ffe558"/>
    <circle id="F-89" data-name="F" cx="0.727" cy="0.727" r="0.727" transform="translate(81.307 110.631)" fill="#ffe558"/>
    <circle id="F-90" data-name="F" cx="0.727" cy="0.727" r="0.727" transform="translate(64.108 120.342)" fill="#ffe558"/>
    <circle id="F-91" data-name="F" cx="0.727" cy="0.727" r="0.727" transform="translate(42.739 112.604)" fill="#ffe558"/>
    <ellipse id="F-92" data-name="F" cx="0.822" cy="0.822" rx="0.822" ry="0.822" transform="translate(71.014 2.606)" fill="#ffe558"/>
    <ellipse id="F-93" data-name="F" cx="1.042" cy="1.042" rx="1.042" ry="1.042" transform="translate(62.972 6.652)" fill="#ffe558"/>
    <ellipse id="F-94" data-name="F" cx="0.479" cy="0.479" rx="0.479" ry="0.479" transform="translate(93.933 15.077)" fill="#ffe558"/>
    <ellipse id="F-95" data-name="F" cx="0.479" cy="0.479" rx="0.479" ry="0.479" transform="translate(56.678 4.845)" fill="#ffe558"/>
    <ellipse id="F-96" data-name="F" cx="0.479" cy="0.479" rx="0.479" ry="0.479" transform="translate(22.223 24.007)" fill="#ffe558"/>
    <rect id="사각형_914" data-name="사각형 914" width="126" height="125" transform="translate(0.625 0.798)" fill="none"/>
  </g>
</svg>
