<svg xmlns="http://www.w3.org/2000/svg" width="176" height="204" viewBox="0 0 176 204">
  <g id="_gas_station" data-name=" gas station" transform="translate(0.836 0.411)">
    <path id="패스_4739" data-name="패스 4739" d="M4.194,96.034c3.768-3.17,6.782-4.832,9.159-5.294a4.749,4.749,0,0,1,5.237,2.377c1.662,2.57,2.648,6.609,3.208,11.3,1.721,14.705-1.1,34.9-1.913,40.077l-.038.251c-.929,11.381,3.922,18.976,10.724,22.705a21.809,21.809,0,0,0,10.9,2.629,23.083,23.083,0,0,0,10.937-3.035c7.361-4.27,12.773-12.87,11.593-25.8l-.018-.174c-2.2-15-7.208-22.782-11.884-30.106-6.454-10.088-12.289-19.209-7.692-48.58l-6.415-.985C33,93.212,39.459,103.3,46.61,114.488c4.327,6.744,8.925,13.913,10.918,27.537.869,9.874-3.034,16.308-8.367,19.381a16.409,16.409,0,0,1-7.826,2.183,15.246,15.246,0,0,1-7.613-1.836c-4.735-2.59-8.08-8.077-7.382-16.5.887-5.738,3.711-26.337,1.932-41.564-.658-5.6-1.972-10.609-4.232-14.107-2.706-4.174-6.569-6.319-11.961-5.237-3.4.677-7.4,2.783-12.078,6.686Z" transform="translate(109.332 13.712)" fill="#444"/>
    <path id="패스_4740" data-name="패스 4740" d="M58.186,58.779,17.3,21.253l-5.45,5.913L52.737,64.712Z" transform="translate(100.807 4.726)" fill="#c2c3c3"/>
    <path id="패스_4741" data-name="패스 4741" d="M48.214,24.792l-.851-.772a1.039,1.039,0,0,0-1.469.058l-6.319,6.879a1.022,1.022,0,0,0,.058,1.469l.851.793a1.04,1.04,0,0,0,1.469-.078l6.319-6.879a1.057,1.057,0,0,0-.058-1.469" transform="translate(76.868 5.283)" fill="gray"/>
    <path id="패스_4742" data-name="패스 4742" d="M44.126,28.519l-.851-.773a1.038,1.038,0,0,0-1.469.059l-6.319,6.9a1.057,1.057,0,0,0,.059,1.469l.849.772a1.039,1.039,0,0,0,1.469-.058L44.2,30.007a1.064,1.064,0,0,0-.078-1.488" transform="translate(85.922 6.117)" fill="gray"/>
    <path id="패스_4743" data-name="패스 4743" d="M40.369,31.977l-.851-.772a1.037,1.037,0,0,0-1.469.058l-6.318,6.879a1.062,1.062,0,0,0,.058,1.488l.851.773a1.04,1.04,0,0,0,1.469-.059l6.319-6.9a1.039,1.039,0,0,0-.058-1.469" transform="translate(94.295 6.891)" fill="gray"/>
    <path id="패스_4744" data-name="패스 4744" d="M30.659,56.816,15.529,42.922a2.726,2.726,0,0,0-3.865.174l-5.74,6.241A2.744,2.744,0,0,0,6.1,53.2L21.23,67.1a2.742,2.742,0,0,0,3.865-.154l5.738-6.261a2.727,2.727,0,0,0-.174-3.865" transform="translate(135.561 9.414)" fill="#444"/>
    <path id="패스_4745" data-name="패스 4745" d="M29.051,63.985,10.017,49.8l.077,10.358L29.108,74.342Z" transform="translate(132.127 11.115)" fill="#444"/>
    <path id="패스_4746" data-name="패스 4746" d="M141.92,0H57.669A11.7,11.7,0,0,0,46.017,11.652V182.879a11.69,11.69,0,0,0,11.652,11.652H141.92a11.69,11.69,0,0,0,11.653-11.652V11.652A11.7,11.7,0,0,0,141.92,0" transform="translate(-36.396 -0.411)" fill="#ff4743"/>
    <path id="패스_4747" data-name="패스 4747" d="M135.72.111a11.686,11.686,0,0,0-9.932,11.517V182.854a11.671,11.671,0,0,0,9.932,11.517Z" transform="translate(-116.166 -0.006)" fill="#de0e2f"/>
    <path id="패스_4748" data-name="패스 4748" d="M46.017,194.486A11.687,11.687,0,0,0,56.8,182.872V11.645A11.687,11.687,0,0,0,46.017.032Z" transform="translate(60.378 -0.023)" fill="#de0e2f"/>
    <path id="패스_4749" data-name="패스 4749" d="M127.32,15.221H66.934a6.375,6.375,0,0,0-6.358,6.358v57.6a6.37,6.37,0,0,0,6.358,6.338H127.32a6.366,6.366,0,0,0,6.338-6.338v-57.6a6.371,6.371,0,0,0-6.338-6.358" transform="translate(-34.297 3.376)" fill="#444"/>
    <path id="패스_4750" data-name="패스 4750" d="M123.972,19.182H68.464a3.843,3.843,0,0,0-3.837,3.837V75.97a3.839,3.839,0,0,0,3.837,3.818h55.508a3.836,3.836,0,0,0,3.82-3.818V23.019a3.84,3.84,0,0,0-3.82-3.837" transform="translate(-33.388 4.262)" fill="#b4f0bb"/>
    <path id="패스_4751" data-name="패스 4751" d="M162.61,150.051H40.562a2.3,2.3,0,0,0-2.3,2.3v14.241a2.3,2.3,0,0,0,2.3,2.3H162.61a2.323,2.323,0,0,0,2.32-2.3V152.351a2.322,2.322,0,0,0-2.32-2.3" transform="translate(-38.264 33.551)" fill="#444"/>
    <path id="패스_4752" data-name="패스 4752" d="M23.5,70.747,14.71,64.292a2.06,2.06,0,0,1-.445-2.86,2.085,2.085,0,0,1,2.88-.444l8.773,6.454a2.047,2.047,0,0,1-2.416,3.3" transform="translate(129.753 13.532)" fill="#30302f"/>
    <path id="패스_4753" data-name="패스 4753" d="M76.058,119.56a17.593,17.593,0,1,0,35.187,0c0-9.713-17.589-31.8-17.589-31.8s-17.6,22.091-17.6,31.8" transform="translate(-30.831 19.609)" fill="#ffd600"/>
    <path id="패스_4754" data-name="패스 4754" d="M90.43,119.56a17.594,17.594,0,0,0,17.6,17.6v-49.4s-17.6,22.091-17.6,31.8" transform="translate(-45.203 19.609)" fill="#ffa000"/>
    <path id="패스_4755" data-name="패스 4755" d="M93.855,79.788h24.858L94.237,19.182H69.379Z" transform="translate(-30.126 4.262)" fill="#fff" opacity="0.5"/>
    <rect id="사각형_1237" data-name="사각형 1237" width="49.334" height="60.606" transform="translate(39.254 23.444)" fill="none"/>
    <rect id="사각형_1238" data-name="사각형 1238" width="176" height="204" transform="translate(-0.836 -0.411)" fill="none"/>
  </g>
</svg>
