<svg id="sign" xmlns="http://www.w3.org/2000/svg" width="180" height="168" viewBox="0 0 180 168">
  <rect id="사각형_1223" data-name="사각형 1223" width="26.637" height="107.677" transform="translate(89.816 57.655)" fill="#4f2718"/>
  <rect id="사각형_1224" data-name="사각형 1224" width="18.406" height="107.677" transform="translate(93.932 57.655)" fill="#6c3521"/>
  <rect id="사각형_1225" data-name="사각형 1225" width="12.025" height="107.677" transform="translate(97.123 57.655)" fill="#96563f"/>
  <path id="패스_4644" data-name="패스 4644" d="M168.007,5.132a9.662,9.662,0,0,1,9.651,9.651V71.242a9.662,9.662,0,0,1-9.651,9.651H39.148a9.6,9.6,0,0,1-6.676-2.682L3,49.982C-.461,46.523.024,42.092.024,39.435S1.08,37.881,3,36.042L32.472,7.813a9.606,9.606,0,0,1,6.676-2.681Z" transform="translate(1.792 -1.111)" fill="#4f2718"/>
  <path id="패스_4645" data-name="패스 4645" d="M168.016,0a9.662,9.662,0,0,1,9.651,9.651V66.11a9.661,9.661,0,0,1-9.651,9.651H39.155a9.6,9.6,0,0,1-6.676-2.682L3.008,44.85A9.652,9.652,0,0,1,2.716,31.2c.095-.1.193-.2.292-.292L32.479,2.681A9.606,9.606,0,0,1,39.155,0Z" transform="translate(1.785 0)" fill="#bc825a"/>
  <path id="패스_4646" data-name="패스 4646" d="M40.043,4.106H168.9a6.433,6.433,0,0,1,6.434,6.433V67a6.433,6.433,0,0,1-6.433,6.434H40.043a6.434,6.434,0,0,1-4.45-1.787L6.119,43.416a6.435,6.435,0,0,1-.2-9.1c.063-.067.129-.132.2-.2L35.592,5.893a6.434,6.434,0,0,1,4.45-1.787" transform="translate(0.897 -0.889)" fill="#fff1d6"/>
  <path id="패스_4647" data-name="패스 4647" d="M40.043,8.127a2.4,2.4,0,0,0-1.669.671L8.9,37.027a2.412,2.412,0,0,0-.074,3.411c.024.026.049.05.074.074L38.375,68.741a2.4,2.4,0,0,0,1.669.671H168.9A2.415,2.415,0,0,0,171.314,67V10.54A2.415,2.415,0,0,0,168.9,8.128Zm0-4.021H168.9a6.433,6.433,0,0,1,6.434,6.433V67a6.433,6.433,0,0,1-6.433,6.434H40.043a6.434,6.434,0,0,1-4.45-1.787L6.119,43.416a6.435,6.435,0,0,1-.2-9.1c.063-.067.129-.132.2-.2L35.592,5.893a6.434,6.434,0,0,1,4.45-1.787" transform="translate(0.897 -0.889)" fill="#f4d7b5"/>
  <path id="패스_4648" data-name="패스 4648" d="M38.465,80.137q10.844-1.106,21.659-2.468a20.772,20.772,0,0,0-8.017-1.363c-6.078-.2-12.159-.217-18.24-.235Z" transform="translate(-5.54 -16.468)" fill="#f4d7b5"/>
  <path id="패스_4649" data-name="패스 4649" d="M209.541,52.247a6.435,6.435,0,0,1,2.481-.47,1.942,1.942,0,0,1,.789,3.761,6.315,6.315,0,0,1-2.795.592c-4.519.246-12.582.176-16.884-1.231l-5.224-3.129Z" transform="translate(-38.887 -11.207)" fill="#f4d7b5"/>
  <path id="패스_4650" data-name="패스 4650" d="M216.128,35.317l-10.373-.157s-6-2.314-4.678-2.879c3.4-1.453,15.373-.681,15.373-.681s.527,4.184-.585,3.59" transform="translate(-41.697 -6.797)" fill="#f4d7b5"/>
  <path id="패스_4651" data-name="패스 4651" d="M13.3,39.567c21.71-1.683,62.778-1.9,62.778-1.9s4.7-1.891,3.375-2.1c-16.227-2.6-37.48-2.694-53.91-3.02-2.865-.057-5.9-.034-8.344,1.468Z" transform="translate(-1.087 -7.042)" fill="#f4d7b5"/>
  <rect id="사각형_1232" data-name="사각형 1232" width="180" height="168" fill="none"/>
</svg>
