<svg id="meter_G" xmlns="http://www.w3.org/2000/svg" width="348" height="126" viewBox="0 0 348 126">
  <path id="선_283" data-name="선 283" d="M-.77,38.621A2.23,2.23,0,0,1-3,36.391V-.77A2.23,2.23,0,0,1-.77-3,2.23,2.23,0,0,1,1.459-.77V36.391A2.23,2.23,0,0,1-.77,38.621Z" transform="translate(174.771 3)" fill="#99f853"/>
  <path id="선_286" data-name="선 286" d="M-.77,14.592a2.222,2.222,0,0,1-1.577-.654,2.23,2.23,0,0,1,0-3.153L10.794-2.347a2.23,2.23,0,0,1,3.153,0,2.23,2.23,0,0,1,0,3.153L.806,13.94A2.223,2.223,0,0,1-.77,14.592Z" transform="translate(293.124 57.296)" fill="#99f853"/>
  <path id="선_287" data-name="선 287" d="M12.37,14.592a2.223,2.223,0,0,1-1.576-.653L-2.346.807a2.23,2.23,0,0,1,0-3.153,2.23,2.23,0,0,1,3.153,0l13.14,13.133a2.23,2.23,0,0,1-1.576,3.807Z" transform="translate(43.277 57.296)" fill="#99f853"/>
  <path id="선_288" data-name="선 288" d="M-.771,18.591a2.223,2.223,0,0,1-.853-.17A2.23,2.23,0,0,1-2.83,15.508l7.1-17.132A2.23,2.23,0,0,1,7.181-2.83,2.23,2.23,0,0,1,8.387.083l-7.1,17.132A2.23,2.23,0,0,1-.771,18.591Z" transform="translate(238.82 17.144)" fill="#99f853"/>
  <path id="선_289" data-name="선 289" d="M16.36,8.558a2.223,2.223,0,0,1-.853-.17l-17.132-7.1A2.23,2.23,0,0,1-2.83-1.624,2.23,2.23,0,0,1,.083-2.83l17.132,7.1a2.23,2.23,0,0,1-.854,4.29Z" transform="translate(3.001 117.442)" fill="#99f853"/>
  <path id="선_290" data-name="선 290" d="M-.77,8.558A2.23,2.23,0,0,1-2.83,7.181,2.23,2.23,0,0,1-1.624,4.267l17.132-7.1a2.23,2.23,0,0,1,2.913,1.206,2.23,2.23,0,0,1-1.206,2.913L.083,8.387A2.223,2.223,0,0,1-.77,8.558Z" transform="translate(329.409 117.442)" fill="#99f853"/>
  <path id="선_291" data-name="선 291" d="M6.328,18.591a2.23,2.23,0,0,1-2.061-1.377L-2.83.083A2.23,2.23,0,0,1-1.624-2.83,2.23,2.23,0,0,1,1.289-1.624l7.1,17.132a2.231,2.231,0,0,1-2.059,3.084Z" transform="translate(103.623 17.144)" fill="#99f853"/>
  <path id="선_292" data-name="선 292" d="M2.847,19.654a2.23,2.23,0,0,1-2.184-1.8L-2.957-.335A2.23,2.23,0,0,1-1.205-2.957,2.23,2.23,0,0,1,1.416-1.205l3.62,18.194a2.232,2.232,0,0,1-2.189,2.665Z" transform="translate(138.502 6.575)" fill="#99f853"/>
  <path id="선_294" data-name="선 294" d="M-.772,16.889a2.219,2.219,0,0,1-1.237-.376,2.23,2.23,0,0,1-.615-3.093L7.684-2.009a2.23,2.23,0,0,1,3.093-.615A2.23,2.23,0,0,1,11.392.468L1.084,15.9A2.228,2.228,0,0,1-.772,16.889Z" transform="translate(267.751 34.243)" fill="#99f853"/>
  <path id="선_295" data-name="선 295" d="M14.665,11.776a2.219,2.219,0,0,1-1.237-.376L-2.009,1.083a2.23,2.23,0,0,1-.615-3.093A2.23,2.23,0,0,1,.468-2.624L15.905,7.692a2.23,2.23,0,0,1-1.241,4.084Z" transform="translate(20.169 85.387)" fill="#99f853"/>
  <path id="선_296" data-name="선 296" d="M-.768,19.654a2.239,2.239,0,0,1-.437-.043,2.23,2.23,0,0,1-1.752-2.622L.662-1.205A2.23,2.23,0,0,1,3.284-2.957,2.23,2.23,0,0,1,5.036-.335L1.416,17.859A2.231,2.231,0,0,1-.768,19.654Z" transform="translate(207.42 6.575)" fill="#99f853"/>
  <path id="선_298" data-name="선 298" d="M-.768,11.776a2.228,2.228,0,0,1-1.856-.991,2.23,2.23,0,0,1,.615-3.093L13.428-2.624a2.23,2.23,0,0,1,3.093.615,2.23,2.23,0,0,1-.615,3.093L.468,11.4A2.219,2.219,0,0,1-.768,11.776Z" transform="translate(313.935 85.387)" fill="#99f853"/>
  <path id="선_299" data-name="선 299" d="M9.54,16.889A2.228,2.228,0,0,1,7.684,15.9L-2.624.468a2.23,2.23,0,0,1,.615-3.093,2.23,2.23,0,0,1,3.093.615L11.392,13.42A2.23,2.23,0,0,1,9.54,16.889Z" transform="translate(71.481 34.243)" fill="#99f853"/>
</svg>
