<svg xmlns="http://www.w3.org/2000/svg" xmlns:xlink="http://www.w3.org/1999/xlink" width="346" height="154" viewBox="0 0 346 154">
  <defs>
    <radialGradient id="radial-gradient" cx="0.5" cy="0.5" r="0.383" gradientUnits="objectBoundingBox">
      <stop offset="0" stop-color="#000e31"/>
      <stop offset="1" stop-color="#56607a"/>
    </radialGradient>
    <radialGradient id="radial-gradient-2" cx="0.5" cy="0.5" r="0.5" gradientUnits="objectBoundingBox">
      <stop offset="0" stop-color="#fffdf8"/>
      <stop offset="0.596" stop-color="#fffcf7"/>
      <stop offset="1" stop-color="#fdf4ea"/>
    </radialGradient>
  </defs>
  <g id="mirror" transform="translate(0.729 0.09)">
    <path id="패스_4350" data-name="패스 4350" d="M296.585,25.252C296.585,39.2,256.116,50.5,206.2,50.5S115.807,39.2,115.807,25.252,156.276,0,206.2,0s90.389,11.306,90.389,25.252" transform="translate(-33.751 3.543)" fill="#0b1735"/>
    <path id="패스_4351" data-name="패스 4351" d="M18.332,212.7a18.327,18.327,0,0,1-17.97-21.92l14.416-57.912a18.377,18.377,0,0,1,17.971-14.733H312.144a18.376,18.376,0,0,1,17.971,14.732l14.417,57.914A18.326,18.326,0,0,1,326.561,212.7Z" transform="translate(-0.006 -59.758)" fill="#0b1735"/>
    <path id="패스_4352" data-name="패스 4352" d="M266.768,52.9l-3.991,19.144-8.439,40.482h-51.5L194.4,72.044,190.41,52.9s6.055-9.705,38.178-9.705S266.767,52.9,266.767,52.9" transform="translate(-56.146 -12.505)" fill="#2c3859"/>
    <path id="패스_4642" data-name="패스 4642" d="M3101.006,154.864V147.14h6.735v7.724" transform="translate(-3101.002 -20.031)" fill="#0b1735"/>
    <path id="패스_4643" data-name="패스 4643" d="M3101.006,154.864V147.14h6.735v7.724" transform="translate(-2762.852 -20.031)" fill="#0b1735"/>
    <path id="패스_4354" data-name="패스 4354" d="M32.747,107.509A18.378,18.378,0,0,0,14.776,122.24L.36,180.155A18.485,18.485,0,0,0,0,183.743v.071a18.335,18.335,0,0,0,18.33,18.264H326.558a18.334,18.334,0,0,0,18.331-18.2v-.207a18.483,18.483,0,0,0-.359-3.516L330.113,122.24a18.376,18.376,0,0,0-17.971-14.732Z" transform="translate(0 -56.662)" fill="url(#radial-gradient)"/>
    <path id="교차_1" data-name="교차 1" d="M59.42,94.57,0,0H87.839l59.42,94.57Z" transform="translate(43.742 50.847)" fill="#636d88" opacity="0.6"/>
    <path id="교차_2" data-name="교차 2" d="M59.42,94.57,0,0H25.221l59.42,94.57Z" transform="translate(56.434 50.847)" fill="#707e9b" opacity="0.9"/>
    <path id="패스_4355" data-name="패스 4355" d="M36.266,119.58a9.778,9.778,0,0,0-9.585,7.857L12.265,185.348a9.777,9.777,0,0,0,9.585,11.691H330.075a9.774,9.774,0,0,0,9.584-11.691l-14.413-57.911a9.774,9.774,0,0,0-9.584-7.857Z" transform="translate(-3.52 -60.18)" fill="#2c3859"/>
    <path id="패스_4356" data-name="패스 4356" d="M46.509,130.915c-4.34,0-8.078,3.376-8.928,8.064L26.045,188.347c-1.127,6.208,3.182,12,8.928,12h290.02c5.746,0,10.054-5.792,8.928-12l-11.534-49.368c-.85-4.689-4.588-8.064-8.928-8.064Z" transform="translate(-7.538 -63.484)" fill="url(#radial-gradient-2)"/>
    <rect id="사각형_1235" data-name="사각형 1235" width="346" height="154" transform="translate(-0.729 -0.09)" fill="none"/>
  </g>
</svg>
