<svg xmlns="http://www.w3.org/2000/svg" width="170.437" height="106.633" viewBox="0 0 170.437 106.633">
  <path id="needle" d="M15,0A14.764,14.764,0,0,0,9.161,1.192,14.941,14.941,0,0,0,4.393,4.443,15.207,15.207,0,0,0,0,15.17c0,.418.017.844.051,1.264H.022l13.484,158.2a1.5,1.5,0,0,0,2.989,0L29.879,17.1A15.529,15.529,0,0,0,30,15.17,15.208,15.208,0,0,0,25.607,4.443a14.943,14.943,0,0,0-4.768-3.251A14.764,14.764,0,0,0,15,0Zm0,22.893A7.622,7.622,0,0,1,7.5,15.17,7.623,7.623,0,0,1,15,7.447a7.623,7.623,0,0,1,7.5,7.724A7.622,7.622,0,0,1,15,22.893Z" transform="matrix(-0.454, -0.891, 0.891, -0.454, 13.62, 106.633)" fill="#fb584a"/>
</svg>
