<svg xmlns="http://www.w3.org/2000/svg" width="90" height="100" viewBox="0 0 90 100">
  <path id="oil_G" d="M89.078,26.957,70.2,9.249a3.159,3.159,0,0,0-4.448,0,3.109,3.109,0,0,0,0,4.419l7.466,6.985v9.229a8.3,8.3,0,0,0,2.457,5.892l8.028,7.976V80.208a5.243,5.243,0,0,1-10.485,0V57.292a9.416,9.416,0,0,0-9.437-9.375H60.641V6.25A6.271,6.271,0,0,0,54.35,0H10.485A6.27,6.27,0,0,0,4.194,6.25V91.667A4.18,4.18,0,0,0,0,95.833V100H64.835V95.833a4.18,4.18,0,0,0-4.194-4.167v-37.5h3.146a3.139,3.139,0,0,1,3.145,3.125V80.208a11.534,11.534,0,0,0,23.068,0V29.167a3.115,3.115,0,0,0-.922-2.209M11.215,12.5H53.62V43.75H11.215Z" fill="#99f853"/>
</svg>
