<svg xmlns="http://www.w3.org/2000/svg" width="180" height="168" viewBox="0 0 180 168">
  <g id="sign" transform="translate(-0.581)">
    <rect id="사각형_1223" data-name="사각형 1223" width="26.637" height="107.677" transform="translate(64.128 57.655)" fill="#4f2718"/>
    <rect id="사각형_1224" data-name="사각형 1224" width="18.406" height="107.677" transform="translate(68.243 57.655)" fill="#6c3521"/>
    <rect id="사각형_1225" data-name="사각형 1225" width="12.025" height="107.677" transform="translate(71.434 57.655)" fill="#96563f"/>
    <path id="패스_4644" data-name="패스 4644" d="M9.651,5.132A9.662,9.662,0,0,0,0,14.783V71.242a9.662,9.662,0,0,0,9.651,9.651H138.51a9.6,9.6,0,0,0,6.676-2.682L174.66,49.982c3.458-3.458,2.974-7.89,2.974-10.547s-1.056-1.554-2.977-3.393L145.186,7.813a9.606,9.606,0,0,0-6.676-2.681Z" transform="translate(1.131 -1.111)" fill="#4f2718"/>
    <path id="패스_4645" data-name="패스 4645" d="M9.684,0A9.662,9.662,0,0,0,.033,9.651V66.11a9.661,9.661,0,0,0,9.651,9.651H138.545a9.6,9.6,0,0,0,6.676-2.682L174.692,44.85a9.652,9.652,0,0,0,.292-13.647c-.095-.1-.193-.2-.292-.292L145.221,2.681A9.606,9.606,0,0,0,138.545,0Z" transform="translate(1.096 0)" fill="#bc825a"/>
    <path id="패스_4646" data-name="패스 4646" d="M139.429,4.106H10.57a6.433,6.433,0,0,0-6.434,6.433V67a6.433,6.433,0,0,0,6.433,6.434H139.429a6.434,6.434,0,0,0,4.45-1.787l29.473-28.229a6.435,6.435,0,0,0,.2-9.1c-.063-.067-.129-.132-.2-.2L143.879,5.893a6.434,6.434,0,0,0-4.45-1.787" transform="translate(0.213 -0.889)" fill="#fff1d6"/>
    <path id="패스_4647" data-name="패스 4647" d="M139.429,8.127A2.4,2.4,0,0,1,141.1,8.8l29.473,28.229a2.412,2.412,0,0,1,.074,3.411c-.024.026-.049.05-.074.074L141.1,68.741a2.4,2.4,0,0,1-1.669.671H10.57A2.415,2.415,0,0,1,8.157,67V10.54A2.415,2.415,0,0,1,10.57,8.128Zm0-4.021H10.57a6.433,6.433,0,0,0-6.434,6.433V67a6.433,6.433,0,0,0,6.433,6.434H139.429a6.434,6.434,0,0,0,4.45-1.787l29.473-28.229a6.435,6.435,0,0,0,.2-9.1c-.063-.067-.129-.132-.2-.2L143.879,5.893a6.434,6.434,0,0,0-4.45-1.787" transform="translate(0.213 -0.889)" fill="#f4d7b5"/>
    <path id="패스_4648" data-name="패스 4648" d="M55.526,80.137q-10.844-1.106-21.659-2.468a20.772,20.772,0,0,1,8.017-1.363c6.078-.2,12.159-.217,18.24-.235Z" transform="translate(92.13 -16.468)" fill="#f4d7b5"/>
    <path id="패스_4649" data-name="패스 4649" d="M192.447,52.247a6.435,6.435,0,0,0-2.481-.47,1.942,1.942,0,0,0-.789,3.761,6.315,6.315,0,0,0,2.795.592c4.519.246,12.582.176,16.884-1.231l5.224-3.129Z" transform="translate(-182.52 -11.207)" fill="#f4d7b5"/>
    <path id="패스_4650" data-name="패스 4650" d="M201.333,35.317l10.373-.157s6-2.314,4.678-2.879c-3.4-1.453-15.373-.681-15.373-.681s-.527,4.184.585,3.59" transform="translate(-195.183 -6.797)" fill="#f4d7b5"/>
    <path id="패스_4651" data-name="패스 4651" d="M79.689,39.567c-21.71-1.683-62.778-1.9-62.778-1.9s-4.7-1.891-3.375-2.1c16.227-2.6,37.48-2.694,53.91-3.02,2.865-.057,5.9-.034,8.344,1.468Z" transform="translate(88.679 -7.042)" fill="#f4d7b5"/>
    <rect id="사각형_1232" data-name="사각형 1232" width="180" height="168" transform="translate(0.581)" fill="none"/>
  </g>
</svg>
