<svg xmlns="http://www.w3.org/2000/svg" width="246" height="244" viewBox="0 0 246 244">
  <g id="steering_wheel" data-name="steering wheel" transform="translate(245.615 243.324) rotate(-180)">
    <path id="패스_4318" data-name="패스 4318" d="M44.748,0V109.652L0,94.621s33.277-6.552,33.277-39.8a64.466,64.466,0,0,0-10.9-35.352Z" transform="translate(167.336 121.3) rotate(-180)" fill="#d5d7de"/>
    <path id="패스_4319" data-name="패스 4319" d="M0,0V109.652l44.748-15.03s-33.277-6.552-33.277-39.8a64.466,64.466,0,0,1,10.9-35.352Z" transform="translate(122.587 121.301) rotate(-180)" fill="#abb0bd"/>
    <path id="패스_4320" data-name="패스 4320" d="M46.8,0H33.417a2.049,2.049,0,0,0-1.953,1.429C24.878,22.151,1.88,26.979,1.648,27.026A2.049,2.049,0,0,0,1.4,30.978l44.748,15.03a2.039,2.039,0,0,0,.653.107Z" transform="translate(169.385 55.715) rotate(-180)" fill="#2c3859"/>
    <path id="패스_4321" data-name="패스 4321" d="M0,0H13.38a2.049,2.049,0,0,1,1.953,1.429c6.586,20.722,29.584,25.55,29.816,25.6a2.049,2.049,0,0,1,.252,3.952L.653,46.008A2.039,2.039,0,0,1,0,46.115Z" transform="translate(122.588 55.715) rotate(-180)" fill="#0b1735"/>
    <path id="패스_4322" data-name="패스 4322" d="M109.652,44.748H0L15.03,0s6.552,33.277,39.8,33.277a64.466,64.466,0,0,0,35.352-10.9Z" transform="translate(232.239 166.049) rotate(-180)" fill="#d5d7de"/>
    <path id="패스_4323" data-name="패스 4323" d="M109.652,0H0L15.03,44.748s6.552-33.277,39.8-33.277a64.466,64.466,0,0,1,35.352,10.9Z" transform="translate(232.239 121.3) rotate(-180)" fill="#abb0bd"/>
    <path id="패스_4324" data-name="패스 4324" d="M46.115,46.8V33.417a2.05,2.05,0,0,0-1.429-1.954C23.963,24.878,19.135,1.88,19.089,1.648A2.049,2.049,0,0,0,15.137,1.4L.106,46.144A2.06,2.06,0,0,0,0,46.8Z" transform="translate(234.288 168.097) rotate(-180)" fill="#1e5cbc"/>
    <path id="패스_4325" data-name="패스 4325" d="M46.115,0V13.38a2.05,2.05,0,0,1-1.429,1.953c-20.722,6.586-25.55,29.584-25.6,29.816a2.049,2.049,0,0,1-3.952.252L.106.653A2.06,2.06,0,0,1,0,0Z" transform="translate(234.288 121.3) rotate(-180)" fill="#124189"/>
    <path id="패스_4326" data-name="패스 4326" d="M0,44.748H109.652L94.621,0s-6.552,33.277-39.8,33.277a64.466,64.466,0,0,1-35.352-10.9Z" transform="translate(122.588 166.049) rotate(-180)" fill="#d5d7de"/>
    <path id="패스_4327" data-name="패스 4327" d="M0,0H109.652L94.621,44.748s-6.552-33.277-39.8-33.277a64.466,64.466,0,0,0-35.352,10.9Z" transform="translate(122.587 121.301) rotate(-180)" fill="#abb0bd"/>
    <path id="패스_4328" data-name="패스 4328" d="M0,46.8V33.417a2.05,2.05,0,0,1,1.429-1.954c20.722-6.586,25.55-29.584,25.6-29.816A2.049,2.049,0,0,1,30.978,1.4l15.03,44.748a2.06,2.06,0,0,1,.106.653Z" transform="translate(57.002 168.097) rotate(-180)" fill="#1e5cbc"/>
    <path id="패스_4329" data-name="패스 4329" d="M0,0V13.38a2.05,2.05,0,0,0,1.429,1.953c20.722,6.586,25.55,29.584,25.6,29.816a2.049,2.049,0,0,0,3.952.252L46.009.653A2.06,2.06,0,0,0,46.115,0Z" transform="translate(57.002 121.3) rotate(-180)" fill="#124189"/>
    <path id="패스_4330" data-name="패스 4330" d="M31.768,63.537A31.768,31.768,0,1,1,63.537,31.768,31.8,31.8,0,0,1,31.768,63.537" transform="translate(154.356 153.069) rotate(-180)" fill="#d5d7de"/>
    <path id="패스_4331" data-name="패스 4331" d="M26.031,52.061A26.031,26.031,0,1,1,52.061,26.031,26.06,26.06,0,0,1,26.031,52.061" transform="translate(148.618 147.331) rotate(-180)" fill="#eaebee"/>
    <path id="패스_4332" data-name="패스 4332" d="M21.406,42.813A21.406,21.406,0,1,1,42.813,21.406,21.43,21.43,0,0,1,21.406,42.813" transform="translate(143.994 142.707) rotate(-180)" fill="#1e5cbc"/>
    <path id="패스_4333" data-name="패스 4333" d="M0,0C5,0,9.061,9.625,9.061,21.454S5,42.908,0,42.908A21.478,21.478,0,0,0,21.454,21.454,21.479,21.479,0,0,0,0,0" transform="translate(122.611 142.755) rotate(-180)" fill="#124189"/>
    <path id="패스_4335" data-name="패스 4335" d="M119.9,239.8A119.9,119.9,0,1,1,239.8,119.9,120.036,120.036,0,0,1,119.9,239.8m0-218.62a98.721,98.721,0,1,0,98.72,98.72,98.831,98.831,0,0,0-98.72-98.72" transform="translate(242.486 241.199) rotate(-180)" fill="#2c3859"/>
    <path id="패스_4336" data-name="패스 4336" d="M119.9,0A119.9,119.9,0,1,0,239.8,119.9,120.035,120.035,0,0,0,119.9,0m0,230.127A110.228,110.228,0,1,1,230.127,119.9,110.353,110.353,0,0,1,119.9,230.127" transform="translate(242.486 241.155) rotate(-180)" fill="#56607a"/>
    <path id="패스_4337" data-name="패스 4337" d="M22.358,1.169a2.733,2.733,0,0,0-3.8-.681L1.174,12.565a2.731,2.731,0,0,0-.683,3.806A95.283,95.283,0,0,1,17.691,71.1,95.279,95.279,0,0,1,.491,125.83a2.732,2.732,0,0,0,.683,3.807l17.384,12.076a2.732,2.732,0,0,0,3.8-.682A121.737,121.737,0,0,0,44.335,71.1,121.749,121.749,0,0,0,22.358,1.169" transform="translate(44.291 192.402) rotate(-180)" fill="#468dfc"/>
    <path id="패스_4338" data-name="패스 4338" d="M8.861,1.169a2.733,2.733,0,0,0-3.8-.681L0,4A114.757,114.757,0,0,1,21.842,71.1,114.75,114.75,0,0,1,0,138.2l5.06,3.515a2.732,2.732,0,0,0,3.8-.682A121.737,121.737,0,0,0,30.837,71.1,121.749,121.749,0,0,0,8.861,1.169" transform="translate(30.587 192.402) rotate(-180)" fill="#1e5cbc"/>
    <path id="패스_4339" data-name="패스 4339" d="M25.168,62.048A110.727,110.727,0,0,0,6.23,0L1.175,3.512A2.73,2.73,0,0,0,.492,7.319a95.279,95.279,0,0,1,17.2,54.729,95.281,95.281,0,0,1-17.2,54.729,2.73,2.73,0,0,0,.683,3.807L6.23,124.1A110.735,110.735,0,0,0,25.168,62.048" transform="translate(44.291 183.349) rotate(-180)" fill="#124189"/>
    <path id="패스_4340" data-name="패스 4340" d="M21.977,141.032a2.734,2.734,0,0,0,3.8.682l17.384-12.078a2.731,2.731,0,0,0,.683-3.806,95.675,95.675,0,0,1,0-109.459,2.732,2.732,0,0,0-.683-3.807L25.777.488a2.732,2.732,0,0,0-3.8.682,122.25,122.25,0,0,0,0,139.862" transform="translate(245.235 192.401) rotate(-180)" fill="#468dfc"/>
    <path id="패스_4341" data-name="패스 4341" d="M21.977,1.169a2.733,2.733,0,0,1,3.8-.681L30.837,4a113.983,113.983,0,0,0,0,134.2l-5.061,3.515a2.732,2.732,0,0,1-3.8-.682,122.25,122.25,0,0,1,0-139.862" transform="translate(245.235 192.402) rotate(-180)" fill="#1e5cbc"/>
    <path id="패스_4342" data-name="패스 4342" d="M0,62.048A110.727,110.727,0,0,1,18.938,0l5.055,3.512a2.73,2.73,0,0,1,.683,3.807,95.675,95.675,0,0,0,0,109.459,2.73,2.73,0,0,1-.683,3.807L18.938,124.1A110.735,110.735,0,0,1,0,62.048" transform="translate(226.068 183.349) rotate(-180)" fill="#124189"/>
    <rect id="사각형_1233" data-name="사각형 1233" width="246" height="244" transform="translate(-0.385 -0.676)" fill="none"/>
  </g>
</svg>
