<?xml version="1.0" encoding="utf-8"?>
<!-- Generator: Adobe Illustrator 25.4.1, SVG Export Plug-In . SVG Version: 6.00 Build 0)  -->
<svg version="1.0" id="레이어_1" xmlns="http://www.w3.org/2000/svg" xmlns:xlink="http://www.w3.org/1999/xlink" x="0px"
	 y="0px" width="104px" height="85px" viewBox="0 0 104 85" style="enable-background:new 0 0 104 85;" xml:space="preserve">
<style type="text/css">
	.st0{fill:#FFB98A;}
	.st1{fill:#EA864E;}
	.st2{fill:#B2622D;}
	.st3{fill:#BF6A3C;}
	.st4{fill:#2D2119;}
	.st5{fill:#FF9B69;}
	.st6{fill:#AF4635;}
</style>
<g>
	<g>
		<g>
			<circle class="st0" cx="10.6" cy="52.1" r="10.6"/>
			<circle class="st0" cx="93.4" cy="52.1" r="10.6"/>
		</g>
		<g>
			<circle class="st1" cx="11.3" cy="52.1" r="7.5"/>
			<circle class="st1" cx="92.2" cy="52.1" r="7.5"/>
		</g>
	</g>
	<circle class="st2" cx="52" cy="45.8" r="39"/>
	<path class="st3" d="M54.1,11.9c12.5,0,23.7,5.4,31.5,14C78.7,14.5,66.3,6.8,52,6.8c-20.9,0-37.9,16.4-38.9,37
		C17.7,25.5,34.3,11.9,54.1,11.9z"/>
	<path class="st0" d="M83.5,51.2c0,14.5-14.1,28.3-31.5,28.3S20.5,65.7,20.5,51.2c0-11.3,5.7-21.4,16.7-21.4c9.5,0,14.8,8,14.8,8
		s4.3-8.2,14.2-8.2C77.4,29.5,83.5,40,83.5,51.2z"/>
	<g>
		<circle class="st4" cx="37.2" cy="49.5" r="3.5"/>
		<circle class="st4" cx="66.8" cy="49.5" r="3.5"/>
	</g>
	<g>
		<ellipse class="st5" cx="30.3" cy="56.9" rx="6.9" ry="4.9"/>
		<ellipse class="st5" cx="73.7" cy="56.9" rx="6.9" ry="4.9"/>
	</g>
	<path class="st6" d="M54.6,53.8c0,0.3-1,1.1-2.2,1.1c-1.2,0-2.2-0.8-2.2-1.1c0-0.3,1-0.5,2.2-0.5C53.6,53.3,54.6,53.5,54.6,53.8z"
		/>
	<path class="st6" d="M52.3,69.6c-4.8,0-8.7-3.9-8.7-8.7c0-0.5,0.4-1,1-1c0.5,0,1,0.4,1,1c0,3.7,3,6.8,6.8,6.8s6.8-3,6.8-6.8
		c0-0.5,0.4-1,1-1s1,0.4,1,1C61,65.7,57.1,69.6,52.3,69.6z"/>
	<path class="st3" d="M54.6,4.6c-1.5,2.4-4,5-4.9,4.5s0.3-4,1.8-6.4c1.5-2.4,2.7-2.9,3.6-2.4C55.9,0.9,56.1,2.2,54.6,4.6z"/>
	<path class="st3" d="M56.7,7.4c-2.6,1.2-6.1,2-6.5,1.2s2.4-3.2,5-4.4s3.9-1,4.3-0.1S59.2,6.1,56.7,7.4z"/>
	<ellipse transform="matrix(0.8879 -0.46 0.46 0.8879 -4.7038 18.1759)" class="st3" cx="34.9" cy="18.7" rx="10.3" ry="5.4"/>
</g>
</svg>
